<?xml version="1.0" encoding="UTF-8" standalone="no"?>
<!DOCTYPE svg PUBLIC "-//W3C//DTD SVG 1.1//EN"
 "http://www.w3.org/Graphics/SVG/1.1/DTD/svg11.dtd">
<!-- Generated by graphviz version 9.0.0 (0)
 -->
<!-- Title: G Pages: 1 -->
<svg width="1323pt" height="1670pt"
 viewBox="0.00 0.00 1323.47 1670.18" xmlns="http://www.w3.org/2000/svg" xmlns:xlink="http://www.w3.org/1999/xlink">
<g id="graph0" class="graph" transform="scale(1 1) rotate(0) translate(4 1666.18)">
<title>G</title>
<polygon fill="white" stroke="none" points="-4,4 -4,-1666.18 1319.47,-1666.18 1319.47,4 -4,4"/>
<!-- gm -->
<!-- t1g1 -->
<!-- gm&#45;&gt;t1g1 -->
<!-- t1g2 -->
<!-- t1g1&#45;&gt;t1g2 -->
<!-- t2g1 -->
<!-- t1g2&#45;&gt;t2g1 -->
<!-- t2g2 -->
<!-- t2g1&#45;&gt;t2g2 -->
<!-- t3g1 -->
<!-- t2g2&#45;&gt;t3g1 -->
<!-- t3g2 -->
<!-- t3g1&#45;&gt;t3g2 -->
<!-- t4g1 -->
<!-- t3g2&#45;&gt;t4g1 -->
<!-- t4g2 -->
<!-- t4g1&#45;&gt;t4g2 -->
<!-- t5g1 -->
<!-- t4g2&#45;&gt;t5g1 -->
<!-- t5g2 -->
<!-- t5g1&#45;&gt;t5g2 -->
<!-- t6g1 -->
<!-- t5g2&#45;&gt;t6g1 -->
<!-- t6g2 -->
<!-- t6g1&#45;&gt;t6g2 -->
<!-- t7g1 -->
<!-- t6g2&#45;&gt;t7g1 -->
<!-- t7g2 -->
<!-- t7g1&#45;&gt;t7g2 -->
<!-- t8g1 -->
<!-- t7g2&#45;&gt;t8g1 -->
<!-- t8g2 -->
<!-- t8g1&#45;&gt;t8g2 -->
<!-- m -->
<g id="node18" class="node">
<title>m</title>
<defs>
<radialGradient id="node18_r_0" cx="50%" cy="50%" r="75%" fx="50%" fy="50%">
<stop offset="0" style="stop-color:#e6c000;stop-opacity:1.;"/>
<stop offset="1" style="stop-color:#907800;stop-opacity:1.;"/>
</radialGradient>
</defs>
<ellipse fill="url(#node18_r_0)" stroke="#e6c000" cx="118" cy="-1616.64" rx="41.54" ry="41.54"/>
<ellipse fill="none" stroke="#e6c000" cx="118" cy="-1616.64" rx="45.54" ry="45.54"/>
<text text-anchor="middle" x="118" y="-1624.34" font-family="Times,serif" font-size="14.00" fill="#736000">上校</text>
<text text-anchor="middle" x="118" y="-1603.34" font-family="Times,serif" font-size="14.00" fill="#736000">蒋正南</text>
</g>
<!-- t1 -->
<g id="node19" class="node">
<title>t1</title>
<polygon fill="none" stroke="#909000" points="145,-1534.1 91,-1534.1 91,-1498.1 145,-1498.1 145,-1534.1"/>
<text text-anchor="middle" x="118" y="-1513.3" font-family="Times,serif" font-size="14.00" fill="#909000">小孩</text>
</g>
<!-- m&#45;&gt;t1 -->
<g id="edge17" class="edge">
<title>m&#45;&gt;t1</title>
<path fill="none" stroke="#907800" stroke-width="3" d="M118,-1570.69C118,-1557.7 118,-1544.3 118,-1534.15"/>
</g>
<!-- t2 -->
<g id="node20" class="node">
<title>t2</title>
<polygon fill="none" stroke="#789000" points="145,-1356.09 91,-1356.09 91,-1320.09 145,-1320.09 145,-1356.09"/>
<text text-anchor="middle" x="118" y="-1335.29" font-family="Times,serif" font-size="14.00" fill="#789000">从军</text>
</g>
<!-- t1&#45;&gt;t2 -->
<g id="edge18" class="edge">
<title>t1&#45;&gt;t2</title>
<path fill="none" stroke="#909000" stroke-width="3" d="M118,-1497.9C118,-1464.25 118,-1390.06 118,-1356.35"/>
</g>
<!-- t1e1 -->
<g id="node27" class="node">
<title>t1e1</title>
<defs>
<radialGradient id="node27_r_1" cx="50%" cy="50%" r="75%" fx="50%" fy="50%">
<stop offset="0" style="stop-color:#00e64c;stop-opacity:1.;"/>
<stop offset="1" style="stop-color:#009030;stop-opacity:1.;"/>
</radialGradient>
</defs>
<polygon fill="url(#node27_r_1)" stroke="#00e64c" points="319.12,-1534.1 180.88,-1534.1 180.88,-1498.1 325.12,-1498.1 325.12,-1528.1 319.12,-1534.1"/>
<polyline fill="none" stroke="#00e64c" points="319.12,-1534.1 319.12,-1528.1"/>
<polyline fill="none" stroke="#00e64c" points="325.12,-1528.1 319.12,-1528.1"/>
<text text-anchor="middle" x="253" y="-1513.3" font-family="Times,serif" font-size="14.00" fill="#007326">村里生活，天赋极高</text>
</g>
<!-- t1&#45;&gt;t1e1 -->
<g id="edge85" class="edge">
<title>t1&#45;&gt;t1e1</title>
<path fill="none" stroke="#909000" d="M145.42,-1516.1C153.42,-1516.1 161.42,-1516.1 169.41,-1516.1"/>
<polygon fill="#909000" stroke="#909000" points="169.21,-1519.6 179.21,-1516.1 169.21,-1512.6 169.21,-1519.6"/>
</g>
<!-- t3 -->
<g id="node21" class="node">
<title>t3</title>
<polygon fill="none" stroke="#609000" points="145,-1171.07 91,-1171.07 91,-1135.07 145,-1135.07 145,-1171.07"/>
<text text-anchor="middle" x="118" y="-1150.27" font-family="Times,serif" font-size="14.00" fill="#609000">军医</text>
</g>
<!-- t2&#45;&gt;t3 -->
<g id="edge19" class="edge">
<title>t2&#45;&gt;t3</title>
<path fill="none" stroke="#789000" stroke-width="3" d="M118,-1319.87C118,-1284.99 118,-1206.33 118,-1171.38"/>
</g>
<!-- t2e1 -->
<g id="node28" class="node">
<title>t2e1</title>
<defs>
<radialGradient id="node28_r_2" cx="50%" cy="50%" r="75%" fx="50%" fy="50%">
<stop offset="0" style="stop-color:#00e673;stop-opacity:1.;"/>
<stop offset="1" style="stop-color:#009048;stop-opacity:1.;"/>
</radialGradient>
</defs>
<polygon fill="url(#node28_r_2)" stroke="#00e673" points="319.12,-1363.09 180.88,-1363.09 180.88,-1313.09 325.12,-1313.09 325.12,-1357.09 319.12,-1363.09"/>
<polyline fill="none" stroke="#00e673" points="319.12,-1363.09 319.12,-1357.09"/>
<polyline fill="none" stroke="#00e673" points="325.12,-1357.09 319.12,-1357.09"/>
<text text-anchor="middle" x="253" y="-1345.79" font-family="Times,serif" font-size="14.00" fill="#007339">一路小兵攀升到连长</text>
<text text-anchor="middle" x="253" y="-1324.79" font-family="Times,serif" font-size="14.00" fill="#007339">成为村里的骄傲</text>
</g>
<!-- t2&#45;&gt;t2e1 -->
<g id="edge80" class="edge">
<title>t2&#45;&gt;t2e1</title>
<path fill="none" stroke="#789000" d="M145.42,-1338.09C153.42,-1338.09 161.42,-1338.09 169.41,-1338.09"/>
<polygon fill="#789000" stroke="#789000" points="169.21,-1341.59 179.21,-1338.09 169.21,-1334.59 169.21,-1341.59"/>
</g>
<!-- t4 -->
<g id="node22" class="node">
<title>t4</title>
<polygon fill="none" stroke="#489000" points="145,-986.06 91,-986.06 91,-950.06 145,-950.06 145,-986.06"/>
<text text-anchor="middle" x="118" y="-965.26" font-family="Times,serif" font-size="14.00" fill="#489000">特务</text>
</g>
<!-- t3&#45;&gt;t4 -->
<g id="edge20" class="edge">
<title>t3&#45;&gt;t4</title>
<path fill="none" stroke="#609000" stroke-width="3" d="M118,-1134.86C118,-1099.98 118,-1021.32 118,-986.37"/>
</g>
<!-- t3e1 -->
<g id="node31" class="node">
<title>t3e1</title>
<defs>
<radialGradient id="node31_r_3" cx="50%" cy="50%" r="75%" fx="50%" fy="50%">
<stop offset="0" style="stop-color:#00e6e6;stop-opacity:1.;"/>
<stop offset="1" style="stop-color:#009090;stop-opacity:1.;"/>
</radialGradient>
</defs>
<polygon fill="url(#node31_r_3)" stroke="#00e6e6" points="319.12,-1178.07 180.88,-1178.07 180.88,-1128.07 325.12,-1128.07 325.12,-1172.07 319.12,-1178.07"/>
<polyline fill="none" stroke="#00e6e6" points="319.12,-1178.07 319.12,-1172.07"/>
<polyline fill="none" stroke="#00e6e6" points="325.12,-1172.07 319.12,-1172.07"/>
<text text-anchor="middle" x="253" y="-1160.77" font-family="Times,serif" font-size="14.00" fill="#007373">一直前线打战</text>
<text text-anchor="middle" x="253" y="-1139.77" font-family="Times,serif" font-size="14.00" fill="#007373">先是红军，后是日本</text>
</g>
<!-- t3&#45;&gt;t3e1 -->
<g id="edge77" class="edge">
<title>t3&#45;&gt;t3e1</title>
<path fill="none" stroke="#609000" d="M145.42,-1153.07C153.42,-1153.07 161.42,-1153.07 169.41,-1153.07"/>
<polygon fill="#609000" stroke="#609000" points="169.21,-1156.57 179.21,-1153.07 169.21,-1149.57 169.21,-1156.57"/>
</g>
<!-- t5 -->
<g id="node23" class="node">
<title>t5</title>
<polygon fill="none" stroke="#309000" points="145,-790.55 91,-790.55 91,-754.55 145,-754.55 145,-790.55"/>
<text text-anchor="middle" x="118" y="-769.75" font-family="Times,serif" font-size="14.00" fill="#309000">上校</text>
</g>
<!-- t4&#45;&gt;t5 -->
<g id="edge21" class="edge">
<title>t4&#45;&gt;t5</title>
<path fill="none" stroke="#489000" stroke-width="3" d="M118,-949.89C118,-913.26 118,-827.8 118,-790.96"/>
</g>
<!-- t4e1 -->
<g id="node33" class="node">
<title>t4e1</title>
<defs>
<radialGradient id="node33_r_4" cx="50%" cy="50%" r="75%" fx="50%" fy="50%">
<stop offset="0" style="stop-color:#0099e6;stop-opacity:1.;"/>
<stop offset="1" style="stop-color:#006090;stop-opacity:1.;"/>
</radialGradient>
</defs>
<polygon fill="url(#node33_r_4)" stroke="#0099e6" points="319.12,-993.06 180.88,-993.06 180.88,-943.06 325.12,-943.06 325.12,-987.06 319.12,-993.06"/>
<polyline fill="none" stroke="#0099e6" points="319.12,-993.06 319.12,-987.06"/>
<polyline fill="none" stroke="#0099e6" points="325.12,-987.06 319.12,-987.06"/>
<text text-anchor="middle" x="253" y="-975.76" font-family="Times,serif" font-size="14.00" fill="#90f0ff">上海以开诊所为据点</text>
<text text-anchor="middle" x="253" y="-954.76" font-family="Times,serif" font-size="14.00" fill="#90f0ff">杀奸除鬼</text>
</g>
<!-- t4&#45;&gt;t4e1 -->
<g id="edge66" class="edge">
<title>t4&#45;&gt;t4e1</title>
<path fill="none" stroke="#489000" d="M145.42,-968.06C153.42,-968.06 161.42,-968.06 169.41,-968.06"/>
<polygon fill="#489000" stroke="#489000" points="169.21,-971.56 179.21,-968.06 169.21,-964.56 169.21,-971.56"/>
</g>
<!-- t6 -->
<g id="node24" class="node">
<title>t6</title>
<polygon fill="none" stroke="#189000" points="145,-584.54 91,-584.54 91,-548.54 145,-548.54 145,-584.54"/>
<text text-anchor="middle" x="118" y="-563.74" font-family="Times,serif" font-size="14.00" fill="#189000">太监</text>
</g>
<!-- t5&#45;&gt;t6 -->
<g id="edge22" class="edge">
<title>t5&#45;&gt;t6</title>
<path fill="none" stroke="#309000" stroke-width="3" d="M118,-754.15C118,-715.61 118,-623.39 118,-584.89"/>
</g>
<!-- t5e1 -->
<g id="node38" class="node">
<title>t5e1</title>
<defs>
<radialGradient id="node38_r_5" cx="50%" cy="50%" r="75%" fx="50%" fy="50%">
<stop offset="0" style="stop-color:#2600e6;stop-opacity:1.;"/>
<stop offset="1" style="stop-color:#180090;stop-opacity:1.;"/>
</radialGradient>
</defs>
<polygon fill="url(#node38_r_5)" stroke="#2600e6" points="319.12,-790.55 180.88,-790.55 180.88,-754.55 325.12,-754.55 325.12,-784.55 319.12,-790.55"/>
<polyline fill="none" stroke="#2600e6" points="319.12,-790.55 319.12,-784.55"/>
<polyline fill="none" stroke="#2600e6" points="325.12,-784.55 319.12,-784.55"/>
<text text-anchor="middle" x="253" y="-769.75" font-family="Times,serif" font-size="14.00" fill="#a890ff">救了国民党重要人物</text>
</g>
<!-- t5&#45;&gt;t5e1 -->
<g id="edge58" class="edge">
<title>t5&#45;&gt;t5e1</title>
<path fill="none" stroke="#309000" d="M145.42,-772.55C153.42,-772.55 161.42,-772.55 169.41,-772.55"/>
<polygon fill="#309000" stroke="#309000" points="169.21,-776.05 179.21,-772.55 169.21,-769.05 169.21,-776.05"/>
</g>
<!-- t7 -->
<g id="node25" class="node">
<title>t7</title>
<polygon fill="none" stroke="#009000" points="145,-378.52 91,-378.52 91,-342.52 145,-342.52 145,-378.52"/>
<text text-anchor="middle" x="118" y="-357.72" font-family="Times,serif" font-size="14.00" fill="#009000">逃犯</text>
</g>
<!-- t6&#45;&gt;t7 -->
<g id="edge23" class="edge">
<title>t6&#45;&gt;t7</title>
<path fill="none" stroke="#189000" stroke-width="3" d="M118,-548.14C118,-509.6 118,-417.38 118,-378.87"/>
</g>
<!-- t6e1 -->
<g id="node43" class="node">
<title>t6e1</title>
<defs>
<radialGradient id="node43_r_6" cx="50%" cy="50%" r="75%" fx="50%" fy="50%">
<stop offset="0" style="stop-color:#e600e6;stop-opacity:1.;"/>
<stop offset="1" style="stop-color:#900090;stop-opacity:1.;"/>
</radialGradient>
</defs>
<polygon fill="url(#node43_r_6)" stroke="#e600e6" points="361.5,-591.54 180.5,-591.54 180.5,-541.54 367.5,-541.54 367.5,-585.54 361.5,-591.54"/>
<polyline fill="none" stroke="#e600e6" points="361.5,-591.54 361.5,-585.54"/>
<polyline fill="none" stroke="#e600e6" points="367.5,-585.54 361.5,-585.54"/>
<text text-anchor="middle" x="274" y="-574.24" font-family="Times,serif" font-size="14.00" fill="#730073">村里救死扶伤，村民很敬重</text>
<text text-anchor="middle" x="274" y="-553.24" font-family="Times,serif" font-size="14.00" fill="#730073">这次救了小爷爷</text>
</g>
<!-- t6&#45;&gt;t6e1 -->
<g id="edge44" class="edge">
<title>t6&#45;&gt;t6e1</title>
<path fill="none" stroke="#189000" d="M145.42,-566.54C153.18,-566.54 160.94,-566.54 168.71,-566.54"/>
<polygon fill="#189000" stroke="#189000" points="168.56,-570.04 178.56,-566.54 168.56,-563.04 168.56,-570.04"/>
</g>
<!-- t8 -->
<g id="node26" class="node">
<title>t8</title>
<polygon fill="none" stroke="#009018" points="145,-151.51 91,-151.51 91,-115.51 145,-115.51 145,-151.51"/>
<text text-anchor="middle" x="118" y="-130.71" font-family="Times,serif" font-size="14.00" fill="#009018">疯子</text>
</g>
<!-- t7&#45;&gt;t8 -->
<g id="edge24" class="edge">
<title>t7&#45;&gt;t8</title>
<path fill="none" stroke="#009000" stroke-width="3" d="M118,-342.24C118,-300.36 118,-193.8 118,-151.85"/>
</g>
<!-- t7e1 -->
<g id="node49" class="node">
<title>t7e1</title>
<defs>
<radialGradient id="node49_r_7" cx="50%" cy="50%" r="75%" fx="50%" fy="50%">
<stop offset="0" style="stop-color:#e60000;stop-opacity:1.;"/>
<stop offset="1" style="stop-color:#900000;stop-opacity:1.;"/>
</radialGradient>
</defs>
<polygon fill="url(#node49_r_7)" stroke="#e60000" points="261.62,-385.52 180.38,-385.52 180.38,-335.52 267.62,-335.52 267.62,-379.52 261.62,-385.52"/>
<polyline fill="none" stroke="#e60000" points="261.62,-385.52 261.62,-379.52"/>
<polyline fill="none" stroke="#e60000" points="267.62,-379.52 261.62,-379.52"/>
<text text-anchor="middle" x="224" y="-368.22" font-family="Times,serif" font-size="14.00" fill="#730000">和母亲逃亡</text>
<text text-anchor="middle" x="224" y="-347.22" font-family="Times,serif" font-size="14.00" fill="#730000">躲在隔壁村</text>
</g>
<!-- t7&#45;&gt;t7e1 -->
<g id="edge31" class="edge">
<title>t7&#45;&gt;t7e1</title>
<path fill="none" stroke="#009000" d="M145.33,-360.52C153.11,-360.52 160.88,-360.52 168.66,-360.52"/>
<polygon fill="#009000" stroke="#009000" points="168.54,-364.02 178.54,-360.52 168.54,-357.02 168.54,-364.02"/>
</g>
<!-- t8e1 -->
<g id="node54" class="node">
<title>t8e1</title>
<defs>
<radialGradient id="node54_r_8" cx="50%" cy="50%" r="75%" fx="50%" fy="50%">
<stop offset="0" style="stop-color:#e6c000;stop-opacity:1.;"/>
<stop offset="1" style="stop-color:#907800;stop-opacity:1.;"/>
</radialGradient>
</defs>
<polygon fill="url(#node54_r_8)" stroke="#e6c000" points="347.38,-169.01 180.62,-169.01 180.62,-98.01 353.38,-98.01 353.38,-163.01 347.38,-169.01"/>
<polyline fill="none" stroke="#e6c000" points="347.38,-169.01 347.38,-163.01"/>
<polyline fill="none" stroke="#e6c000" points="353.38,-163.01 347.38,-163.01"/>
<text text-anchor="middle" x="267" y="-151.71" font-family="Times,serif" font-size="14.00" fill="#736000">女战友找到疯上校</text>
<text text-anchor="middle" x="267" y="-130.71" font-family="Times,serif" font-size="14.00" fill="#736000">照顾他</text>
<text text-anchor="middle" x="267" y="-109.71" font-family="Times,serif" font-size="14.00" fill="#736000">希望村民能让让他们结婚</text>
</g>
<!-- t8&#45;&gt;t8e1 -->
<g id="edge25" class="edge">
<title>t8&#45;&gt;t8e1</title>
<path fill="none" stroke="#009018" d="M145.36,-133.51C153.32,-133.51 161.29,-133.51 169.26,-133.51"/>
<polygon fill="#009018" stroke="#009018" points="169,-137.01 179,-133.51 169,-130.01 169,-137.01"/>
</g>
<!-- t1e1p1 -->
<g id="node57" class="node">
<title>t1e1p1</title>
<defs>
<radialGradient id="node57_r_9" cx="50%" cy="50%" r="75%" fx="50%" fy="50%">
<stop offset="0" style="stop-color:#99e600;stop-opacity:1.;"/>
<stop offset="1" style="stop-color:#609000;stop-opacity:1.;"/>
</radialGradient>
</defs>
<ellipse fill="url(#node57_r_9)" stroke="#99e600" cx="253" cy="-1420.59" rx="31.47" ry="20.51"/>
<text text-anchor="middle" x="253" y="-1417.79" font-family="Times,serif" font-size="14.00" fill="#4c7300">父亲</text>
</g>
<!-- t1e1&#45;&gt;t1e1p1 -->
<g id="edge86" class="edge">
<title>t1e1&#45;&gt;t1e1p1</title>
<polygon fill="#609000" stroke="none" stroke-width="5" points="253,-1497.95 253.11,-1495.5 253.22,-1492.95 253.34,-1490.31 253.46,-1487.58 253.58,-1484.78 253.71,-1481.91 253.84,-1479 253.97,-1476.05 254.1,-1473.07 254.24,-1470.07 254.37,-1467.06 254.5,-1464.06 254.63,-1461.08 254.77,-1458.12 254.9,-1455.2 255.02,-1452.33 255.15,-1449.52 255.27,-1446.78 255.39,-1444.12 255.5,-1441.55 250.5,-1441.55 250.61,-1444.12 250.73,-1446.78 250.85,-1449.52 250.98,-1452.33 251.1,-1455.2 251.23,-1458.12 251.37,-1461.08 251.5,-1464.06 251.63,-1467.06 251.76,-1470.07 251.9,-1473.07 252.03,-1476.05 252.16,-1479 252.29,-1481.91 252.42,-1484.78 252.54,-1487.58 252.66,-1490.31 252.78,-1492.95 252.89,-1495.5 253,-1497.95 253,-1497.95"/>
<text text-anchor="middle" x="267.25" y="-1466.8" font-family="Times,serif" font-size="14.00" fill="#609000">死党</text>
</g>
<!-- t2e2 -->
<g id="node29" class="node">
<title>t2e2</title>
<defs>
<radialGradient id="node29_r_10" cx="50%" cy="50%" r="75%" fx="50%" fy="50%">
<stop offset="0" style="stop-color:#00e699;stop-opacity:1.;"/>
<stop offset="1" style="stop-color:#009060;stop-opacity:1.;"/>
</radialGradient>
</defs>
<polygon fill="url(#node29_r_10)" stroke="#00e699" points="527.38,-1356.09 360.62,-1356.09 360.62,-1320.09 533.38,-1320.09 533.38,-1350.09 527.38,-1356.09"/>
<polyline fill="none" stroke="#00e699" points="527.38,-1356.09 527.38,-1350.09"/>
<polyline fill="none" stroke="#00e699" points="533.38,-1350.09 527.38,-1350.09"/>
<text text-anchor="middle" x="447" y="-1335.29" font-family="Times,serif" font-size="14.00" fill="#00734c">保长不做汉奸，秘密设宴</text>
</g>
<!-- t2e1&#45;&gt;t2e2 -->
<g id="edge81" class="edge">
<title>t2e1&#45;&gt;t2e2</title>
<path fill="none" stroke="#009048" d="M325.37,-1338.09C333.34,-1338.09 341.3,-1338.09 349.27,-1338.09"/>
<polygon fill="#009048" stroke="#009048" points="349.02,-1341.59 359.02,-1338.09 349.02,-1334.59 349.02,-1341.59"/>
</g>
<!-- t2e3 -->
<g id="node30" class="node">
<title>t2e3</title>
<defs>
<radialGradient id="node30_r_11" cx="50%" cy="50%" r="75%" fx="50%" fy="50%">
<stop offset="0" style="stop-color:#00e6c0;stop-opacity:1.;"/>
<stop offset="1" style="stop-color:#009078;stop-opacity:1.;"/>
</radialGradient>
</defs>
<polygon fill="url(#node30_r_11)" stroke="#00e6c0" points="664.75,-1356.09 569.25,-1356.09 569.25,-1320.09 670.75,-1320.09 670.75,-1350.09 664.75,-1356.09"/>
<polyline fill="none" stroke="#00e6c0" points="664.75,-1356.09 664.75,-1350.09"/>
<polyline fill="none" stroke="#00e6c0" points="670.75,-1350.09 664.75,-1350.09"/>
<text text-anchor="middle" x="620" y="-1335.29" font-family="Times,serif" font-size="14.00" fill="#007360">睡了保长姘头</text>
</g>
<!-- t2e2&#45;&gt;t2e3 -->
<g id="edge82" class="edge">
<title>t2e2&#45;&gt;t2e3</title>
<path fill="none" stroke="#009060" d="M533.84,-1338.09C541.68,-1338.09 549.52,-1338.09 557.36,-1338.09"/>
<polygon fill="#009060" stroke="#009060" points="557.33,-1341.59 567.33,-1338.09 557.33,-1334.59 557.33,-1341.59"/>
</g>
<!-- t2e2p1 -->
<g id="node58" class="node">
<title>t2e2p1</title>
<defs>
<radialGradient id="node58_r_12" cx="50%" cy="50%" r="75%" fx="50%" fy="50%">
<stop offset="0" style="stop-color:#73e600;stop-opacity:1.;"/>
<stop offset="1" style="stop-color:#489000;stop-opacity:1.;"/>
</radialGradient>
</defs>
<ellipse fill="url(#node58_r_12)" stroke="#73e600" cx="447" cy="-1235.58" rx="41.54" ry="20.51"/>
<text text-anchor="middle" x="447" y="-1232.78" font-family="Times,serif" font-size="14.00" fill="#397300">老保长</text>
</g>
<!-- t2e2&#45;&gt;t2e2p1 -->
<g id="edge83" class="edge">
<title>t2e2&#45;&gt;t2e2p1</title>
<polygon fill="#009060" stroke="none" stroke-width="5" points="449.5,-1320.04 449.39,-1317.33 449.28,-1314.48 449.17,-1311.52 449.04,-1308.46 448.92,-1305.3 448.79,-1302.06 448.66,-1298.76 448.53,-1295.41 448.4,-1292.03 448.26,-1288.63 448.13,-1285.21 448,-1281.81 447.86,-1278.42 447.73,-1275.07 447.6,-1271.77 447.47,-1268.53 447.35,-1265.37 447.23,-1262.3 447.11,-1259.33 447,-1256.48 447,-1256.48 446.89,-1259.33 446.77,-1262.3 446.65,-1265.37 446.53,-1268.53 446.4,-1271.77 446.27,-1275.07 446.14,-1278.42 446,-1281.81 445.87,-1285.21 445.74,-1288.63 445.6,-1292.03 445.47,-1295.41 445.34,-1298.76 445.21,-1302.06 445.08,-1305.3 444.96,-1308.46 444.83,-1311.52 444.72,-1314.48 444.61,-1317.33 444.5,-1320.04 449.5,-1320.04"/>
<text text-anchor="middle" x="475.5" y="-1281.79" font-family="Times,serif" font-size="14.00" fill="#009060">欠下恩情</text>
</g>
<!-- t2e3p1 -->
<g id="node59" class="node">
<title>t2e3p1</title>
<defs>
<radialGradient id="node59_r_13" cx="50%" cy="50%" r="75%" fx="50%" fy="50%">
<stop offset="0" style="stop-color:#4ce600;stop-opacity:1.;"/>
<stop offset="1" style="stop-color:#309000;stop-opacity:1.;"/>
</radialGradient>
</defs>
<ellipse fill="url(#node59_r_13)" stroke="#4ce600" cx="620" cy="-1235.58" rx="41.54" ry="20.51"/>
<text text-anchor="middle" x="620" y="-1232.78" font-family="Times,serif" font-size="14.00" fill="#267300">老保长</text>
</g>
<!-- t2e3&#45;&gt;t2e3p1 -->
<g id="edge84" class="edge">
<title>t2e3&#45;&gt;t2e3p1</title>
<polygon fill="#309000" stroke="none" stroke-width="5" points="620,-1320.04 620.11,-1317.33 620.22,-1314.48 620.33,-1311.52 620.46,-1308.46 620.58,-1305.3 620.71,-1302.06 620.84,-1298.76 620.97,-1295.41 621.1,-1292.03 621.24,-1288.63 621.37,-1285.21 621.5,-1281.81 621.64,-1278.42 621.77,-1275.07 621.9,-1271.77 622.03,-1268.53 622.15,-1265.37 622.27,-1262.3 622.39,-1259.33 622.5,-1256.48 617.5,-1256.48 617.61,-1259.33 617.73,-1262.3 617.85,-1265.37 617.97,-1268.53 618.1,-1271.77 618.23,-1275.07 618.36,-1278.42 618.5,-1281.81 618.63,-1285.21 618.76,-1288.63 618.9,-1292.03 619.03,-1295.41 619.16,-1298.76 619.29,-1302.06 619.42,-1305.3 619.54,-1308.46 619.67,-1311.52 619.78,-1314.48 619.89,-1317.33 620,-1320.04 620,-1320.04"/>
<text text-anchor="middle" x="648.5" y="-1281.79" font-family="Times,serif" font-size="14.00" fill="#309000">结下仇恨</text>
</g>
<!-- t3e2 -->
<g id="node32" class="node">
<title>t3e2</title>
<defs>
<radialGradient id="node32_r_14" cx="50%" cy="50%" r="75%" fx="50%" fy="50%">
<stop offset="0" style="stop-color:#00c0e6;stop-opacity:1.;"/>
<stop offset="1" style="stop-color:#007890;stop-opacity:1.;"/>
</radialGradient>
</defs>
<polygon fill="url(#node32_r_14)" stroke="#00c0e6" points="527.38,-1171.07 360.62,-1171.07 360.62,-1135.07 533.38,-1135.07 533.38,-1165.07 527.38,-1171.07"/>
<polyline fill="none" stroke="#00c0e6" points="527.38,-1171.07 527.38,-1165.07"/>
<polyline fill="none" stroke="#00c0e6" points="533.38,-1165.07 527.38,-1165.07"/>
<text text-anchor="middle" x="447" y="-1150.27" font-family="Times,serif" font-size="14.00" fill="#90ffff">自学医术，站场救死扶伤</text>
</g>
<!-- t3e1&#45;&gt;t3e2 -->
<g id="edge78" class="edge">
<title>t3e1&#45;&gt;t3e2</title>
<path fill="none" stroke="#009090" d="M325.37,-1153.07C333.34,-1153.07 341.3,-1153.07 349.27,-1153.07"/>
<polygon fill="#009090" stroke="#009090" points="349.02,-1156.57 359.02,-1153.07 349.02,-1149.57 349.02,-1156.57"/>
</g>
<!-- t3e2p1 -->
<g id="node60" class="node">
<title>t3e2p1</title>
<defs>
<radialGradient id="node60_r_15" cx="50%" cy="50%" r="75%" fx="50%" fy="50%">
<stop offset="0" style="stop-color:#26e600;stop-opacity:1.;"/>
<stop offset="1" style="stop-color:#189000;stop-opacity:1.;"/>
</radialGradient>
</defs>
<ellipse fill="url(#node60_r_15)" stroke="#26e600" cx="447" cy="-1050.57" rx="41.54" ry="20.51"/>
<text text-anchor="middle" x="447" y="-1047.77" font-family="Times,serif" font-size="14.00" fill="#137300">女特务</text>
</g>
<!-- t3e2&#45;&gt;t3e2p1 -->
<g id="edge79" class="edge">
<title>t3e2&#45;&gt;t3e2p1</title>
<polygon fill="#007890" stroke="none" stroke-width="5" points="449.5,-1135.02 449.39,-1132.31 449.28,-1129.47 449.17,-1126.51 449.04,-1123.44 448.92,-1120.28 448.79,-1117.05 448.66,-1113.75 448.53,-1110.4 448.4,-1107.02 448.26,-1103.61 448.13,-1100.2 448,-1096.79 447.86,-1093.41 447.73,-1090.06 447.6,-1086.76 447.47,-1083.52 447.35,-1080.36 447.23,-1077.28 447.11,-1074.32 447,-1071.47 447,-1071.47 446.89,-1074.32 446.77,-1077.28 446.65,-1080.36 446.53,-1083.52 446.4,-1086.76 446.27,-1090.06 446.14,-1093.41 446,-1096.79 445.87,-1100.2 445.74,-1103.61 445.6,-1107.02 445.47,-1110.4 445.34,-1113.75 445.21,-1117.05 445.08,-1120.28 444.96,-1123.44 444.83,-1126.51 444.72,-1129.47 444.61,-1132.31 444.5,-1135.02 449.5,-1135.02"/>
<text text-anchor="middle" x="461.25" y="-1096.77" font-family="Times,serif" font-size="14.00" fill="#007890">救下</text>
</g>
<!-- t4e2 -->
<g id="node34" class="node">
<title>t4e2</title>
<defs>
<radialGradient id="node34_r_16" cx="50%" cy="50%" r="75%" fx="50%" fy="50%">
<stop offset="0" style="stop-color:#0073e6;stop-opacity:1.;"/>
<stop offset="1" style="stop-color:#004890;stop-opacity:1.;"/>
</radialGradient>
</defs>
<polygon fill="url(#node34_r_16)" stroke="#0073e6" points="470.88,-993.06 361.12,-993.06 361.12,-943.06 476.88,-943.06 476.88,-987.06 470.88,-993.06"/>
<polyline fill="none" stroke="#0073e6" points="470.88,-993.06 470.88,-987.06"/>
<polyline fill="none" stroke="#0073e6" points="476.88,-987.06 470.88,-987.06"/>
<text text-anchor="middle" x="419" y="-975.76" font-family="Times,serif" font-size="14.00" fill="#90d8ff">带老保长去上海</text>
<text text-anchor="middle" x="419" y="-954.76" font-family="Times,serif" font-size="14.00" fill="#90d8ff">风流快活</text>
</g>
<!-- t4e1&#45;&gt;t4e2 -->
<g id="edge67" class="edge">
<title>t4e1&#45;&gt;t4e2</title>
<path fill="none" stroke="#006090" d="M325.62,-968.06C333.47,-968.06 341.31,-968.06 349.15,-968.06"/>
<polygon fill="#006090" stroke="#006090" points="349.13,-971.56 359.13,-968.06 349.13,-964.56 349.13,-971.56"/>
</g>
<!-- t4e1p1 -->
<g id="node61" class="node">
<title>t4e1p1</title>
<defs>
<radialGradient id="node61_r_17" cx="50%" cy="50%" r="75%" fx="50%" fy="50%">
<stop offset="0" style="stop-color:#00e600;stop-opacity:1.;"/>
<stop offset="1" style="stop-color:#009000;stop-opacity:1.;"/>
</radialGradient>
</defs>
<ellipse fill="url(#node61_r_17)" stroke="#00e600" cx="253" cy="-865.55" rx="41.54" ry="20.51"/>
<text text-anchor="middle" x="253" y="-862.75" font-family="Times,serif" font-size="14.00" fill="#007300">女特务</text>
</g>
<!-- t4e1&#45;&gt;t4e1p1 -->
<g id="edge71" class="edge">
<title>t4e1&#45;&gt;t4e1p1</title>
<polygon fill="#009000" stroke="none" stroke-width="5" points="253,-942.73 253.12,-940.09 253.24,-937.38 253.36,-934.6 253.49,-931.76 253.61,-928.88 253.74,-925.96 253.87,-923.01 254,-920.04 254.14,-917.06 254.27,-914.08 254.4,-911.11 254.53,-908.15 254.66,-905.22 254.79,-902.33 254.92,-899.49 255.04,-896.7 255.16,-893.97 255.28,-891.32 255.39,-888.76 255.5,-886.28 250.5,-886.28 250.61,-888.76 250.72,-891.32 250.84,-893.97 250.96,-896.7 251.08,-899.49 251.21,-902.33 251.34,-905.22 251.47,-908.15 251.6,-911.11 251.73,-914.08 251.86,-917.06 252,-920.04 252.13,-923.01 252.26,-925.96 252.39,-928.88 252.51,-931.76 252.64,-934.6 252.76,-937.38 252.88,-940.09 253,-942.73 253,-942.73"/>
<text text-anchor="middle" x="267.25" y="-911.76" font-family="Times,serif" font-size="14.00" fill="#009000">命令</text>
</g>
<!-- t4e3 -->
<g id="node35" class="node">
<title>t4e3</title>
<defs>
<radialGradient id="node35_r_18" cx="50%" cy="50%" r="75%" fx="50%" fy="50%">
<stop offset="0" style="stop-color:#004ce6;stop-opacity:1.;"/>
<stop offset="1" style="stop-color:#003090;stop-opacity:1.;"/>
</radialGradient>
</defs>
<polygon fill="url(#node35_r_18)" stroke="#004ce6" points="721.75,-986.06 512.25,-986.06 512.25,-950.06 727.75,-950.06 727.75,-980.06 721.75,-986.06"/>
<polyline fill="none" stroke="#004ce6" points="721.75,-986.06 721.75,-980.06"/>
<polyline fill="none" stroke="#004ce6" points="727.75,-980.06 721.75,-980.06"/>
<text text-anchor="middle" x="620" y="-965.26" font-family="Times,serif" font-size="14.00" fill="#90c0ff">被出卖，被汪精卫方关押战俘营</text>
</g>
<!-- t4e2&#45;&gt;t4e3 -->
<g id="edge68" class="edge">
<title>t4e2&#45;&gt;t4e3</title>
<path fill="none" stroke="#004890" d="M477.1,-968.06C484.91,-968.06 492.73,-968.06 500.54,-968.06"/>
<polygon fill="#004890" stroke="#004890" points="500.48,-971.56 510.48,-968.06 500.48,-964.56 500.48,-971.56"/>
</g>
<!-- t4e2p1 -->
<g id="node62" class="node">
<title>t4e2p1</title>
<defs>
<radialGradient id="node62_r_19" cx="50%" cy="50%" r="75%" fx="50%" fy="50%">
<stop offset="0" style="stop-color:#00e626;stop-opacity:1.;"/>
<stop offset="1" style="stop-color:#009018;stop-opacity:1.;"/>
</radialGradient>
</defs>
<ellipse fill="url(#node62_r_19)" stroke="#00e626" cx="419" cy="-865.55" rx="41.54" ry="20.51"/>
<text text-anchor="middle" x="419" y="-862.75" font-family="Times,serif" font-size="14.00" fill="#007313">老保长</text>
</g>
<!-- t4e2&#45;&gt;t4e2p1 -->
<g id="edge72" class="edge">
<title>t4e2&#45;&gt;t4e2p1</title>
<polygon fill="#009018" stroke="none" stroke-width="5" points="419,-942.73 419.12,-940.09 419.24,-937.38 419.36,-934.6 419.49,-931.76 419.61,-928.88 419.74,-925.96 419.87,-923.01 420,-920.04 420.14,-917.06 420.27,-914.08 420.4,-911.11 420.53,-908.15 420.66,-905.22 420.79,-902.33 420.92,-899.49 421.04,-896.7 421.16,-893.97 421.28,-891.32 421.39,-888.76 421.5,-886.28 416.5,-886.28 416.61,-888.76 416.72,-891.32 416.84,-893.97 416.96,-896.7 417.08,-899.49 417.21,-902.33 417.34,-905.22 417.47,-908.15 417.6,-911.11 417.73,-914.08 417.86,-917.06 418,-920.04 418.13,-923.01 418.26,-925.96 418.39,-928.88 418.51,-931.76 418.64,-934.6 418.76,-937.38 418.88,-940.09 419,-942.73 419,-942.73"/>
<text text-anchor="middle" x="447.5" y="-911.76" font-family="Times,serif" font-size="14.00" fill="#009018">不计前嫌</text>
</g>
<!-- t4e4 -->
<g id="node36" class="node">
<title>t4e4</title>
<defs>
<radialGradient id="node36_r_20" cx="50%" cy="50%" r="75%" fx="50%" fy="50%">
<stop offset="0" style="stop-color:#0026e6;stop-opacity:1.;"/>
<stop offset="1" style="stop-color:#001890;stop-opacity:1.;"/>
</radialGradient>
</defs>
<polygon fill="url(#node36_r_20)" stroke="#0026e6" points="930.38,-993.06 763.62,-993.06 763.62,-943.06 936.38,-943.06 936.38,-987.06 930.38,-993.06"/>
<polyline fill="none" stroke="#0026e6" points="930.38,-993.06 930.38,-987.06"/>
<polyline fill="none" stroke="#0026e6" points="936.38,-987.06 930.38,-987.06"/>
<text text-anchor="middle" x="850" y="-975.76" font-family="Times,serif" font-size="14.00" fill="#90a8ff">成为女汉奸及其同伙玩物</text>
<text text-anchor="middle" x="850" y="-954.76" font-family="Times,serif" font-size="14.00" fill="#90a8ff">并被绣下耻辱在肚皮</text>
</g>
<!-- t4e3&#45;&gt;t4e4 -->
<g id="edge69" class="edge">
<title>t4e3&#45;&gt;t4e4</title>
<path fill="none" stroke="#003090" d="M727.81,-968.06C735.81,-968.06 743.82,-968.06 751.82,-968.06"/>
<polygon fill="#003090" stroke="#003090" points="751.62,-971.56 761.62,-968.06 751.62,-964.56 751.62,-971.56"/>
</g>
<!-- t4e3p1 -->
<g id="node63" class="node">
<title>t4e3p1</title>
<defs>
<radialGradient id="node63_r_21" cx="50%" cy="50%" r="75%" fx="50%" fy="50%">
<stop offset="0" style="stop-color:#00e64c;stop-opacity:1.;"/>
<stop offset="1" style="stop-color:#009030;stop-opacity:1.;"/>
</radialGradient>
</defs>
<ellipse fill="url(#node63_r_21)" stroke="#00e64c" cx="577" cy="-865.55" rx="41.54" ry="20.51"/>
<text text-anchor="middle" x="577" y="-862.75" font-family="Times,serif" font-size="14.00" fill="#007326">老保长</text>
</g>
<!-- t4e3&#45;&gt;t4e3p1 -->
<g id="edge73" class="edge">
<title>t4e3&#45;&gt;t4e3p1</title>
<polygon fill="#009030" stroke="none" stroke-width="5" points="610.8,-949.68 610.26,-948.52 609.72,-947.35 609.17,-946.16 608.62,-944.95 608.06,-943.72 607.5,-942.48 606.94,-941.24 606.37,-939.98 605.81,-938.71 605.25,-937.43 604.69,-936.15 604.13,-934.87 603.58,-933.58 603.03,-932.3 602.49,-931.01 601.96,-929.73 601.43,-928.45 600.91,-927.18 600.4,-925.92 599.91,-924.67 599.15,-922.72 598.39,-920.74 597.63,-918.75 596.88,-916.74 596.14,-914.72 595.4,-912.69 594.67,-910.65 593.94,-908.61 593.23,-906.57 592.52,-904.54 591.83,-902.52 591.14,-900.51 590.47,-898.52 589.81,-896.56 589.17,-894.61 588.54,-892.7 587.92,-890.82 587.33,-888.98 586.75,-887.17 586.18,-885.41 581.48,-887.11 582.17,-888.83 582.88,-890.59 583.62,-892.4 584.37,-894.24 585.14,-896.11 585.93,-898.01 586.73,-899.93 587.55,-901.88 588.38,-903.84 589.22,-905.82 590.08,-907.8 590.94,-909.79 591.82,-911.78 592.7,-913.77 593.59,-915.76 594.48,-917.73 595.38,-919.69 596.28,-921.64 597.19,-923.56 598.09,-925.46 598.68,-926.68 599.29,-927.91 599.9,-929.15 600.52,-930.39 601.15,-931.63 601.78,-932.88 602.42,-934.13 603.07,-935.37 603.72,-936.62 604.37,-937.86 605.02,-939.09 605.68,-940.31 606.33,-941.53 606.98,-942.74 607.63,-943.93 608.28,-945.12 608.92,-946.28 609.55,-947.43 610.18,-948.57 610.8,-949.68 610.8,-949.68"/>
<text text-anchor="middle" x="627.5" y="-911.76" font-family="Times,serif" font-size="14.00" fill="#009030">设法营救</text>
</g>
<!-- t4e3p2 -->
<g id="node66" class="node">
<title>t4e3p2</title>
<defs>
<radialGradient id="node66_r_22" cx="50%" cy="50%" r="75%" fx="50%" fy="50%">
<stop offset="0" style="stop-color:#00e6c0;stop-opacity:1.;"/>
<stop offset="1" style="stop-color:#009078;stop-opacity:1.;"/>
</radialGradient>
</defs>
<ellipse fill="url(#node66_r_22)" stroke="#00e6c0" cx="678" cy="-865.55" rx="41.54" ry="20.51"/>
<text text-anchor="middle" x="678" y="-862.75" font-family="Times,serif" font-size="14.00" fill="#007360">女汉奸</text>
</g>
<!-- t4e3&#45;&gt;t4e3p2 -->
<g id="edge74" class="edge">
<title>t4e3&#45;&gt;t4e3p2</title>
<polygon fill="#009078" stroke="none" stroke-width="5" points="637.26,-949.72 638.27,-948.67 639.3,-947.59 640.33,-946.49 641.36,-945.37 642.39,-944.23 643.43,-943.08 644.46,-941.91 645.49,-940.72 646.52,-939.52 647.54,-938.3 648.54,-937.07 649.54,-935.83 650.53,-934.58 651.5,-933.32 652.45,-932.05 653.39,-930.77 654.3,-929.49 655.2,-928.2 656.07,-926.9 656.91,-925.6 658.05,-923.78 659.16,-921.92 660.26,-920.02 661.32,-918.1 662.36,-916.15 663.38,-914.19 664.37,-912.2 665.34,-910.21 666.28,-908.21 667.2,-906.21 668.09,-904.21 668.95,-902.22 669.79,-900.23 670.59,-898.27 671.38,-896.32 672.13,-894.4 672.85,-892.51 673.55,-890.65 674.22,-888.83 674.86,-887.06 670.1,-885.53 669.59,-887.33 669.05,-889.15 668.49,-891.02 667.91,-892.93 667.3,-894.86 666.66,-896.82 666,-898.81 665.32,-900.81 664.6,-902.82 663.86,-904.84 663.1,-906.86 662.31,-908.89 661.5,-910.9 660.66,-912.91 659.79,-914.91 658.9,-916.89 657.99,-918.84 657.05,-920.77 656.08,-922.66 655.09,-924.52 654.35,-925.85 653.59,-927.18 652.79,-928.5 651.98,-929.83 651.15,-931.15 650.29,-932.46 649.42,-933.78 648.53,-935.08 647.62,-936.37 646.71,-937.66 645.78,-938.93 644.84,-940.2 643.9,-941.45 642.95,-942.68 642,-943.9 641.05,-945.11 640.1,-946.29 639.15,-947.46 638.2,-948.6 637.26,-949.72 637.26,-949.72"/>
<text text-anchor="middle" x="679.25" y="-911.76" font-family="Times,serif" font-size="14.00" fill="#009078">带走</text>
</g>
<!-- t4e5 -->
<g id="node37" class="node">
<title>t4e5</title>
<defs>
<radialGradient id="node37_r_23" cx="50%" cy="50%" r="75%" fx="50%" fy="50%">
<stop offset="0" style="stop-color:#0000e6;stop-opacity:1.;"/>
<stop offset="1" style="stop-color:#000090;stop-opacity:1.;"/>
</radialGradient>
</defs>
<polygon fill="url(#node37_r_23)" stroke="#0000e6" points="1124.25,-993.06 971.75,-993.06 971.75,-943.06 1130.25,-943.06 1130.25,-987.06 1124.25,-993.06"/>
<polyline fill="none" stroke="#0000e6" points="1124.25,-993.06 1124.25,-987.06"/>
<polyline fill="none" stroke="#0000e6" points="1130.25,-987.06 1124.25,-987.06"/>
<text text-anchor="middle" x="1051" y="-975.76" font-family="Times,serif" font-size="14.00" fill="#9090ff">被共产党绑走去救首长</text>
<text text-anchor="middle" x="1051" y="-954.76" font-family="Times,serif" font-size="14.00" fill="#9090ff">陪首长上场杀敌</text>
</g>
<!-- t4e4&#45;&gt;t4e5 -->
<g id="edge70" class="edge">
<title>t4e4&#45;&gt;t4e5</title>
<path fill="none" stroke="#001890" d="M936.76,-968.06C944.56,-968.06 952.35,-968.06 960.15,-968.06"/>
<polygon fill="#001890" stroke="#001890" points="960.05,-971.56 970.05,-968.06 960.05,-964.56 960.05,-971.56"/>
</g>
<!-- t4e4p1 -->
<g id="node64" class="node">
<title>t4e4p1</title>
<defs>
<radialGradient id="node64_r_24" cx="50%" cy="50%" r="75%" fx="50%" fy="50%">
<stop offset="0" style="stop-color:#00e673;stop-opacity:1.;"/>
<stop offset="1" style="stop-color:#009048;stop-opacity:1.;"/>
</radialGradient>
</defs>
<ellipse fill="url(#node64_r_24)" stroke="#00e673" cx="792" cy="-865.55" rx="41.54" ry="20.51"/>
<text text-anchor="middle" x="792" y="-862.75" font-family="Times,serif" font-size="14.00" fill="#007339">老保长</text>
</g>
<!-- t4e4&#45;&gt;t4e4p1 -->
<g id="edge75" class="edge">
<title>t4e4&#45;&gt;t4e4p1</title>
<polygon fill="#009048" stroke="none" stroke-width="5" points="820.68,-942.78 819.94,-941.94 819.21,-941.09 818.48,-940.23 817.76,-939.36 817.05,-938.48 816.34,-937.6 815.65,-936.71 814.97,-935.81 814.29,-934.91 813.63,-934 812.98,-933.08 812.34,-932.16 811.71,-931.23 811.1,-930.3 810.5,-929.36 809.92,-928.42 809.36,-927.48 808.81,-926.53 808.28,-925.57 807.77,-924.62 806.84,-922.8 805.97,-920.93 805.13,-919.04 804.35,-917.11 803.6,-915.15 802.9,-913.18 802.24,-911.19 801.62,-909.18 801.03,-907.17 800.49,-905.15 799.98,-903.14 799.5,-901.13 799.06,-899.13 798.64,-897.15 798.26,-895.19 797.91,-893.25 797.59,-891.34 797.3,-889.47 797.03,-887.64 796.78,-885.84 791.86,-886.71 792.25,-888.51 792.67,-890.36 793.13,-892.26 793.61,-894.18 794.13,-896.14 794.67,-898.11 795.25,-900.11 795.87,-902.12 796.52,-904.13 797.21,-906.15 797.93,-908.17 798.69,-910.19 799.49,-912.19 800.33,-914.18 801.21,-916.15 802.13,-918.09 803.09,-920 804.09,-921.88 805.14,-923.71 806.23,-925.5 806.84,-926.44 807.45,-927.37 808.09,-928.29 808.74,-929.21 809.41,-930.12 810.08,-931.02 810.78,-931.91 811.48,-932.8 812.2,-933.67 812.93,-934.55 813.67,-935.41 814.42,-936.26 815.17,-937.11 815.94,-937.94 816.71,-938.77 817.49,-939.59 818.28,-940.4 819.08,-941.21 819.87,-942 820.68,-942.78 820.68,-942.78"/>
<text text-anchor="middle" x="835.5" y="-911.76" font-family="Times,serif" font-size="14.00" fill="#009048">设法打听</text>
</g>
<!-- t4e4p2 -->
<g id="node65" class="node">
<title>t4e4p2</title>
<defs>
<radialGradient id="node65_r_25" cx="50%" cy="50%" r="75%" fx="50%" fy="50%">
<stop offset="0" style="stop-color:#00e699;stop-opacity:1.;"/>
<stop offset="1" style="stop-color:#009060;stop-opacity:1.;"/>
</radialGradient>
</defs>
<ellipse fill="url(#node65_r_25)" stroke="#00e699" cx="893" cy="-865.55" rx="41.54" ry="20.51"/>
<text text-anchor="middle" x="893" y="-862.75" font-family="Times,serif" font-size="14.00" fill="#00734c">女特务</text>
</g>
<!-- t4e4&#45;&gt;t4e4p2 -->
<g id="edge76" class="edge">
<title>t4e4&#45;&gt;t4e4p2</title>
<polygon fill="#009060" stroke="none" stroke-width="5" points="860.41,-942.73 861.65,-940.12 862.93,-937.44 864.24,-934.69 865.58,-931.88 866.94,-929.03 868.32,-926.13 869.71,-923.21 871.11,-920.28 872.52,-917.33 873.92,-914.38 875.32,-911.44 876.71,-908.52 878.09,-905.62 879.45,-902.77 880.79,-899.96 882.11,-897.21 883.39,-894.52 884.63,-891.9 885.84,-889.38 887,-886.94 882.4,-884.97 881.44,-887.49 880.44,-890.11 879.41,-892.82 878.35,-895.6 877.27,-898.45 876.16,-901.36 875.04,-904.32 873.9,-907.31 872.74,-910.34 871.59,-913.38 870.42,-916.43 869.26,-919.48 868.1,-922.53 866.95,-925.55 865.81,-928.54 864.69,-931.5 863.58,-934.4 862.5,-937.25 861.44,-940.03 860.41,-942.73 860.41,-942.73"/>
<text text-anchor="middle" x="925.88" y="-911.76" font-family="Times,serif" font-size="14.00" fill="#009060">想知道是否叛变</text>
</g>
<!-- t5e2 -->
<g id="node39" class="node">
<title>t5e2</title>
<defs>
<radialGradient id="node39_r_26" cx="50%" cy="50%" r="75%" fx="50%" fy="50%">
<stop offset="0" style="stop-color:#4c00e6;stop-opacity:1.;"/>
<stop offset="1" style="stop-color:#300090;stop-opacity:1.;"/>
</radialGradient>
</defs>
<polygon fill="url(#node39_r_26)" stroke="#4c00e6" points="527.38,-808.05 360.62,-808.05 360.62,-737.05 533.38,-737.05 533.38,-802.05 527.38,-808.05"/>
<polyline fill="none" stroke="#4c00e6" points="527.38,-808.05 527.38,-802.05"/>
<polyline fill="none" stroke="#4c00e6" points="533.38,-802.05 527.38,-802.05"/>
<text text-anchor="middle" x="447" y="-790.75" font-family="Times,serif" font-size="14.00" fill="#c090ff">后面所在单位投靠共产党</text>
<text text-anchor="middle" x="447" y="-769.75" font-family="Times,serif" font-size="14.00" fill="#c090ff">遭人陷害</text>
<text text-anchor="middle" x="447" y="-748.75" font-family="Times,serif" font-size="14.00" fill="#c090ff">首长保下，要他上前线</text>
</g>
<!-- t5e1&#45;&gt;t5e2 -->
<g id="edge59" class="edge">
<title>t5e1&#45;&gt;t5e2</title>
<path fill="none" stroke="#180090" d="M325.37,-772.55C333.34,-772.55 341.3,-772.55 349.27,-772.55"/>
<polygon fill="#180090" stroke="#180090" points="349.02,-776.05 359.02,-772.55 349.02,-769.05 349.02,-776.05"/>
</g>
<!-- t5e1p1 -->
<g id="node67" class="node">
<title>t5e1p1</title>
<defs>
<radialGradient id="node67_r_27" cx="50%" cy="50%" r="75%" fx="50%" fy="50%">
<stop offset="0" style="stop-color:#00e6e6;stop-opacity:1.;"/>
<stop offset="1" style="stop-color:#009090;stop-opacity:1.;"/>
</radialGradient>
</defs>
<ellipse fill="url(#node67_r_27)" stroke="#00e6e6" cx="253" cy="-659.54" rx="41.54" ry="20.51"/>
<text text-anchor="middle" x="253" y="-656.74" font-family="Times,serif" font-size="14.00" fill="#007373">两只猫</text>
</g>
<!-- t5e1&#45;&gt;t5e1p1 -->
<g id="edge63" class="edge">
<title>t5e1&#45;&gt;t5e1p1</title>
<polygon fill="#180090" stroke="none" stroke-width="5" points="255.5,-754.2 255.4,-751.11 255.28,-747.84 255.17,-744.42 255.05,-740.86 254.92,-737.19 254.8,-733.41 254.67,-729.55 254.53,-725.63 254.4,-721.66 254.26,-717.67 254.13,-713.67 253.99,-709.68 253.86,-705.73 253.73,-701.81 253.6,-697.97 253.47,-694.21 253.34,-690.55 253.22,-687.02 253.11,-683.62 253,-680.39 253,-680.39 252.89,-683.62 252.78,-687.02 252.66,-690.55 252.53,-694.21 252.4,-697.97 252.27,-701.81 252.14,-705.73 252.01,-709.68 251.87,-713.67 251.74,-717.67 251.6,-721.66 251.47,-725.63 251.33,-729.55 251.2,-733.41 251.08,-737.19 250.95,-740.86 250.83,-744.42 250.72,-747.84 250.6,-751.11 250.5,-754.2 255.5,-754.2"/>
<text text-anchor="middle" x="267.25" y="-705.75" font-family="Times,serif" font-size="14.00" fill="#180090">获得</text>
</g>
<!-- t5e3 -->
<g id="node40" class="node">
<title>t5e3</title>
<defs>
<radialGradient id="node40_r_28" cx="50%" cy="50%" r="75%" fx="50%" fy="50%">
<stop offset="0" style="stop-color:#7300e6;stop-opacity:1.;"/>
<stop offset="1" style="stop-color:#480090;stop-opacity:1.;"/>
</radialGradient>
</defs>
<polygon fill="url(#node40_r_28)" stroke="#7300e6" points="707.12,-808.05 568.88,-808.05 568.88,-737.05 713.12,-737.05 713.12,-802.05 707.12,-808.05"/>
<polyline fill="none" stroke="#7300e6" points="707.12,-808.05 707.12,-802.05"/>
<polyline fill="none" stroke="#7300e6" points="713.12,-802.05 707.12,-802.05"/>
<text text-anchor="middle" x="641" y="-790.75" font-family="Times,serif" font-size="14.00" fill="#d890ff">攻下国民党据点</text>
<text text-anchor="middle" x="641" y="-769.75" font-family="Times,serif" font-size="14.00" fill="#d890ff">遇见当时还是女护士</text>
<text text-anchor="middle" x="641" y="-748.75" font-family="Times,serif" font-size="14.00" fill="#d890ff">的女战友</text>
</g>
<!-- t5e2&#45;&gt;t5e3 -->
<g id="edge60" class="edge">
<title>t5e2&#45;&gt;t5e3</title>
<path fill="none" stroke="#300090" d="M533.77,-772.55C541.56,-772.55 549.34,-772.55 557.13,-772.55"/>
<polygon fill="#300090" stroke="#300090" points="557.02,-776.05 567.02,-772.55 557.02,-769.05 557.02,-776.05"/>
</g>
<!-- t5e4 -->
<g id="node41" class="node">
<title>t5e4</title>
<defs>
<radialGradient id="node41_r_29" cx="50%" cy="50%" r="75%" fx="50%" fy="50%">
<stop offset="0" style="stop-color:#9900e6;stop-opacity:1.;"/>
<stop offset="1" style="stop-color:#600090;stop-opacity:1.;"/>
</radialGradient>
</defs>
<polygon fill="url(#node41_r_29)" stroke="#9900e6" points="843.75,-808.05 748.25,-808.05 748.25,-737.05 849.75,-737.05 849.75,-802.05 843.75,-808.05"/>
<polyline fill="none" stroke="#9900e6" points="843.75,-808.05 843.75,-802.05"/>
<polyline fill="none" stroke="#9900e6" points="849.75,-802.05 843.75,-802.05"/>
<text text-anchor="middle" x="799" y="-790.75" font-family="Times,serif" font-size="14.00" fill="#f090ff">女战友爱慕他</text>
<text text-anchor="middle" x="799" y="-769.75" font-family="Times,serif" font-size="14.00" fill="#f090ff">救了女战友</text>
<text text-anchor="middle" x="799" y="-748.75" font-family="Times,serif" font-size="14.00" fill="#f090ff">被陷害入牢</text>
</g>
<!-- t5e3&#45;&gt;t5e4 -->
<g id="edge61" class="edge">
<title>t5e3&#45;&gt;t5e4</title>
<path fill="none" stroke="#480090" d="M713.52,-772.55C721.22,-772.55 728.92,-772.55 736.63,-772.55"/>
<polygon fill="#480090" stroke="#480090" points="736.4,-776.05 746.4,-772.55 736.4,-769.05 736.4,-776.05"/>
</g>
<!-- t5e3p1 -->
<g id="node68" class="node">
<title>t5e3p1</title>
<defs>
<radialGradient id="node68_r_30" cx="50%" cy="50%" r="75%" fx="50%" fy="50%">
<stop offset="0" style="stop-color:#00c0e6;stop-opacity:1.;"/>
<stop offset="1" style="stop-color:#007890;stop-opacity:1.;"/>
</radialGradient>
</defs>
<ellipse fill="url(#node68_r_30)" stroke="#00c0e6" cx="641" cy="-659.54" rx="41.54" ry="20.51"/>
<text text-anchor="middle" x="641" y="-656.74" font-family="Times,serif" font-size="14.00" fill="#90ffff">女战友</text>
</g>
<!-- t5e3&#45;&gt;t5e3p1 -->
<g id="edge64" class="edge">
<title>t5e3&#45;&gt;t5e3p1</title>
<polygon fill="#007890" stroke="none" stroke-width="5" points="641,-736.73 641.12,-733.92 641.25,-731.06 641.38,-728.17 641.51,-725.24 641.64,-722.29 641.77,-719.32 641.9,-716.35 642.04,-713.37 642.17,-710.4 642.3,-707.45 642.43,-704.51 642.56,-701.61 642.68,-698.75 642.81,-695.93 642.93,-693.16 643.05,-690.45 643.17,-687.81 643.28,-685.24 643.39,-682.76 643.5,-680.37 638.5,-680.37 638.61,-682.76 638.72,-685.24 638.83,-687.81 638.95,-690.45 639.07,-693.16 639.19,-695.93 639.32,-698.75 639.44,-701.61 639.57,-704.51 639.7,-707.45 639.83,-710.4 639.96,-713.37 640.1,-716.35 640.23,-719.32 640.36,-722.29 640.49,-725.24 640.62,-728.17 640.75,-731.06 640.88,-733.92 641,-736.73 641,-736.73"/>
<text text-anchor="middle" x="676.62" y="-705.75" font-family="Times,serif" font-size="14.00" fill="#007890">敌人，提防</text>
</g>
<!-- t5e5 -->
<g id="node42" class="node">
<title>t5e5</title>
<defs>
<radialGradient id="node42_r_31" cx="50%" cy="50%" r="75%" fx="50%" fy="50%">
<stop offset="0" style="stop-color:#c000e6;stop-opacity:1.;"/>
<stop offset="1" style="stop-color:#780090;stop-opacity:1.;"/>
</radialGradient>
</defs>
<polygon fill="url(#node42_r_31)" stroke="#c000e6" points="994.88,-797.55 885.12,-797.55 885.12,-747.55 1000.88,-747.55 1000.88,-791.55 994.88,-797.55"/>
<polyline fill="none" stroke="#c000e6" points="994.88,-797.55 994.88,-791.55"/>
<polyline fill="none" stroke="#c000e6" points="1000.88,-791.55 994.88,-791.55"/>
<text text-anchor="middle" x="943" y="-780.25" font-family="Times,serif" font-size="14.00" fill="#ff90ff">没有证据被释放</text>
<text text-anchor="middle" x="943" y="-759.25" font-family="Times,serif" font-size="14.00" fill="#ff90ff">免去职务</text>
</g>
<!-- t5e4&#45;&gt;t5e5 -->
<g id="edge62" class="edge">
<title>t5e4&#45;&gt;t5e5</title>
<path fill="none" stroke="#600090" d="M850.19,-772.55C857.9,-772.55 865.61,-772.55 873.33,-772.55"/>
<polygon fill="#600090" stroke="#600090" points="873.12,-776.05 883.12,-772.55 873.12,-769.05 873.12,-776.05"/>
</g>
<!-- t5e4p1 -->
<g id="node69" class="node">
<title>t5e4p1</title>
<defs>
<radialGradient id="node69_r_32" cx="50%" cy="50%" r="75%" fx="50%" fy="50%">
<stop offset="0" style="stop-color:#0099e6;stop-opacity:1.;"/>
<stop offset="1" style="stop-color:#006090;stop-opacity:1.;"/>
</radialGradient>
</defs>
<ellipse fill="url(#node69_r_32)" stroke="#0099e6" cx="799" cy="-659.54" rx="41.54" ry="20.51"/>
<text text-anchor="middle" x="799" y="-656.74" font-family="Times,serif" font-size="14.00" fill="#90f0ff">女战友</text>
</g>
<!-- t5e4&#45;&gt;t5e4p1 -->
<g id="edge65" class="edge">
<title>t5e4&#45;&gt;t5e4p1</title>
<polygon fill="#006090" stroke="none" stroke-width="5" points="799,-736.73 799.12,-733.92 799.25,-731.06 799.38,-728.17 799.51,-725.24 799.64,-722.29 799.77,-719.32 799.9,-716.35 800.04,-713.37 800.17,-710.4 800.3,-707.45 800.43,-704.51 800.56,-701.61 800.68,-698.75 800.81,-695.93 800.93,-693.16 801.05,-690.45 801.17,-687.81 801.28,-685.24 801.39,-682.76 801.5,-680.37 796.5,-680.37 796.61,-682.76 796.72,-685.24 796.83,-687.81 796.95,-690.45 797.07,-693.16 797.19,-695.93 797.32,-698.75 797.44,-701.61 797.57,-704.51 797.7,-707.45 797.83,-710.4 797.96,-713.37 798.1,-716.35 798.23,-719.32 798.36,-722.29 798.49,-725.24 798.62,-728.17 798.75,-731.06 798.88,-733.92 799,-736.73 799,-736.73"/>
<text text-anchor="middle" x="834.62" y="-705.75" font-family="Times,serif" font-size="14.00" fill="#006090">误解，陷害</text>
</g>
<!-- t6e2 -->
<g id="node44" class="node">
<title>t6e2</title>
<defs>
<radialGradient id="node44_r_33" cx="50%" cy="50%" r="75%" fx="50%" fy="50%">
<stop offset="0" style="stop-color:#e600c0;stop-opacity:1.;"/>
<stop offset="1" style="stop-color:#900078;stop-opacity:1.;"/>
</radialGradient>
</defs>
<polygon fill="url(#node44_r_33)" stroke="#e600c0" points="541.12,-591.54 402.88,-591.54 402.88,-541.54 547.12,-541.54 547.12,-585.54 541.12,-591.54"/>
<polyline fill="none" stroke="#e600c0" points="541.12,-591.54 541.12,-585.54"/>
<polyline fill="none" stroke="#e600c0" points="547.12,-585.54 541.12,-585.54"/>
<text text-anchor="middle" x="475" y="-574.24" font-family="Times,serif" font-size="14.00" fill="#730060">村里经常嘲笑他太监</text>
<text text-anchor="middle" x="475" y="-553.24" font-family="Times,serif" font-size="14.00" fill="#730060">小瞎子被他教训</text>
</g>
<!-- t6e1&#45;&gt;t6e2 -->
<g id="edge45" class="edge">
<title>t6e1&#45;&gt;t6e2</title>
<path fill="none" stroke="#900090" d="M367.83,-566.54C375.61,-566.54 383.39,-566.54 391.17,-566.54"/>
<polygon fill="#900090" stroke="#900090" points="391.06,-570.04 401.06,-566.54 391.06,-563.04 391.06,-570.04"/>
</g>
<!-- t6e1p1 -->
<g id="node70" class="node">
<title>t6e1p1</title>
<defs>
<radialGradient id="node70_r_34" cx="50%" cy="50%" r="75%" fx="50%" fy="50%">
<stop offset="0" style="stop-color:#0073e6;stop-opacity:1.;"/>
<stop offset="1" style="stop-color:#004890;stop-opacity:1.;"/>
</radialGradient>
</defs>
<ellipse fill="url(#node70_r_34)" stroke="#0073e6" cx="274" cy="-453.53" rx="41.54" ry="20.51"/>
<text text-anchor="middle" x="274" y="-450.73" font-family="Times,serif" font-size="14.00" fill="#90d8ff">小爷爷</text>
</g>
<!-- t6e1&#45;&gt;t6e1p1 -->
<g id="edge50" class="edge">
<title>t6e1&#45;&gt;t6e1p1</title>
<polygon fill="#004890" stroke="none" stroke-width="5" points="274,-541.18 274.11,-538.11 274.23,-534.94 274.36,-531.68 274.48,-528.33 274.61,-524.92 274.74,-521.45 274.87,-517.94 275,-514.4 275.14,-510.84 275.27,-507.28 275.4,-503.73 275.53,-500.2 275.66,-496.71 275.79,-493.27 275.92,-489.9 276.04,-486.59 276.16,-483.38 276.28,-480.26 276.39,-477.26 276.5,-474.39 271.5,-474.39 271.61,-477.26 271.72,-480.26 271.84,-483.38 271.96,-486.59 272.08,-489.9 272.21,-493.27 272.34,-496.71 272.47,-500.2 272.6,-503.73 272.73,-507.28 272.86,-510.84 273,-514.4 273.13,-517.94 273.26,-521.45 273.39,-524.92 273.52,-528.33 273.64,-531.68 273.77,-534.94 273.89,-538.11 274,-541.18 274,-541.18"/>
<text text-anchor="middle" x="295.38" y="-499.74" font-family="Times,serif" font-size="14.00" fill="#004890">当上帝</text>
</g>
<!-- t6e3 -->
<g id="node45" class="node">
<title>t6e3</title>
<defs>
<radialGradient id="node45_r_35" cx="50%" cy="50%" r="75%" fx="50%" fy="50%">
<stop offset="0" style="stop-color:#e60099;stop-opacity:1.;"/>
<stop offset="1" style="stop-color:#900060;stop-opacity:1.;"/>
</radialGradient>
</defs>
<polygon fill="url(#node45_r_35)" stroke="#e60099" points="721.12,-591.54 582.88,-591.54 582.88,-541.54 727.12,-541.54 727.12,-585.54 721.12,-591.54"/>
<polyline fill="none" stroke="#e60099" points="721.12,-591.54 721.12,-585.54"/>
<polyline fill="none" stroke="#e60099" points="727.12,-585.54 721.12,-585.54"/>
<text text-anchor="middle" x="655" y="-574.24" font-family="Times,serif" font-size="14.00" fill="#73004c">村里几个小孩去加入</text>
<text text-anchor="middle" x="655" y="-553.24" font-family="Times,serif" font-size="14.00" fill="#73004c">红卫兵</text>
</g>
<!-- t6e2&#45;&gt;t6e3 -->
<g id="edge46" class="edge">
<title>t6e2&#45;&gt;t6e3</title>
<path fill="none" stroke="#900078" d="M547.42,-566.54C555.42,-566.54 563.42,-566.54 571.41,-566.54"/>
<polygon fill="#900078" stroke="#900078" points="571.21,-570.04 581.21,-566.54 571.21,-563.04 571.21,-570.04"/>
</g>
<!-- t6e2p1 -->
<g id="node71" class="node">
<title>t6e2p1</title>
<defs>
<radialGradient id="node71_r_36" cx="50%" cy="50%" r="75%" fx="50%" fy="50%">
<stop offset="0" style="stop-color:#004ce6;stop-opacity:1.;"/>
<stop offset="1" style="stop-color:#003090;stop-opacity:1.;"/>
</radialGradient>
</defs>
<ellipse fill="url(#node71_r_36)" stroke="#004ce6" cx="475" cy="-453.53" rx="41.54" ry="20.51"/>
<text text-anchor="middle" x="475" y="-450.73" font-family="Times,serif" font-size="14.00" fill="#90c0ff">小瞎子</text>
</g>
<!-- t6e2&#45;&gt;t6e2p1 -->
<g id="edge51" class="edge">
<title>t6e2&#45;&gt;t6e2p1</title>
<polygon fill="#003090" stroke="none" stroke-width="5" points="475,-541.18 475.11,-538.11 475.23,-534.94 475.36,-531.68 475.48,-528.33 475.61,-524.92 475.74,-521.45 475.87,-517.94 476,-514.4 476.14,-510.84 476.27,-507.28 476.4,-503.73 476.53,-500.2 476.66,-496.71 476.79,-493.27 476.92,-489.9 477.04,-486.59 477.16,-483.38 477.28,-480.26 477.39,-477.26 477.5,-474.39 472.5,-474.39 472.61,-477.26 472.72,-480.26 472.84,-483.38 472.96,-486.59 473.08,-489.9 473.21,-493.27 473.34,-496.71 473.47,-500.2 473.6,-503.73 473.73,-507.28 473.86,-510.84 474,-514.4 474.13,-517.94 474.26,-521.45 474.39,-524.92 474.52,-528.33 474.64,-531.68 474.77,-534.94 474.89,-538.11 475,-541.18 475,-541.18"/>
<text text-anchor="middle" x="489.25" y="-499.74" font-family="Times,serif" font-size="14.00" fill="#003090">记恨</text>
</g>
<!-- t6e4 -->
<g id="node46" class="node">
<title>t6e4</title>
<defs>
<radialGradient id="node46_r_37" cx="50%" cy="50%" r="75%" fx="50%" fy="50%">
<stop offset="0" style="stop-color:#e60073;stop-opacity:1.;"/>
<stop offset="1" style="stop-color:#900048;stop-opacity:1.;"/>
</radialGradient>
</defs>
<polygon fill="url(#node46_r_37)" stroke="#e60073" points="887,-584.54 763,-584.54 763,-548.54 893,-548.54 893,-578.54 887,-584.54"/>
<polyline fill="none" stroke="#e60073" points="887,-584.54 887,-578.54"/>
<polyline fill="none" stroke="#e60073" points="893,-578.54 887,-578.54"/>
<text text-anchor="middle" x="828" y="-563.74" font-family="Times,serif" font-size="14.00" fill="#730039">红卫兵糟蹋了家乡</text>
</g>
<!-- t6e3&#45;&gt;t6e4 -->
<g id="edge47" class="edge">
<title>t6e3&#45;&gt;t6e4</title>
<path fill="none" stroke="#900060" d="M727.31,-566.54C735.33,-566.54 743.35,-566.54 751.37,-566.54"/>
<polygon fill="#900060" stroke="#900060" points="751.19,-570.04 761.19,-566.54 751.19,-563.04 751.19,-570.04"/>
</g>
<!-- t6e5 -->
<g id="node47" class="node">
<title>t6e5</title>
<defs>
<radialGradient id="node47_r_38" cx="50%" cy="50%" r="75%" fx="50%" fy="50%">
<stop offset="0" style="stop-color:#e6004c;stop-opacity:1.;"/>
<stop offset="1" style="stop-color:#900030;stop-opacity:1.;"/>
</radialGradient>
</defs>
<polygon fill="url(#node47_r_38)" stroke="#e6004c" points="1067.12,-591.54 928.88,-591.54 928.88,-541.54 1073.12,-541.54 1073.12,-585.54 1067.12,-591.54"/>
<polyline fill="none" stroke="#e6004c" points="1067.12,-591.54 1067.12,-585.54"/>
<polyline fill="none" stroke="#e6004c" points="1073.12,-585.54 1067.12,-585.54"/>
<text text-anchor="middle" x="1001" y="-574.24" font-family="Times,serif" font-size="14.00" fill="#730026">胡司令带领的红卫兵</text>
<text text-anchor="middle" x="1001" y="-553.24" font-family="Times,serif" font-size="14.00" fill="#730026">迫害上校</text>
</g>
<!-- t6e4&#45;&gt;t6e5 -->
<g id="edge48" class="edge">
<title>t6e4&#45;&gt;t6e5</title>
<path fill="none" stroke="#900048" d="M893.21,-566.54C901.23,-566.54 909.24,-566.54 917.25,-566.54"/>
<polygon fill="#900048" stroke="#900048" points="917.07,-570.04 927.07,-566.54 917.07,-563.04 917.07,-570.04"/>
</g>
<!-- t6e6 -->
<g id="node48" class="node">
<title>t6e6</title>
<defs>
<radialGradient id="node48_r_39" cx="50%" cy="50%" r="75%" fx="50%" fy="50%">
<stop offset="0" style="stop-color:#e60026;stop-opacity:1.;"/>
<stop offset="1" style="stop-color:#900018;stop-opacity:1.;"/>
</radialGradient>
</defs>
<polygon fill="url(#node48_r_39)" stroke="#e60026" points="1252,-602.04 1128,-602.04 1128,-531.04 1258,-531.04 1258,-596.04 1252,-602.04"/>
<polyline fill="none" stroke="#e60026" points="1252,-602.04 1252,-596.04"/>
<polyline fill="none" stroke="#e60026" points="1258,-596.04 1252,-596.04"/>
<text text-anchor="middle" x="1193" y="-584.74" font-family="Times,serif" font-size="14.00" fill="#730013">最要保守的秘密</text>
<text text-anchor="middle" x="1193" y="-563.74" font-family="Times,serif" font-size="14.00" fill="#730013">被小瞎子算计看到</text>
<text text-anchor="middle" x="1193" y="-542.74" font-family="Times,serif" font-size="14.00" fill="#730013">弄废小瞎子</text>
</g>
<!-- t6e5&#45;&gt;t6e6 -->
<g id="edge49" class="edge">
<title>t6e5&#45;&gt;t6e6</title>
<path fill="none" stroke="#900030" d="M1073.38,-566.54C1087.63,-566.54 1101.89,-566.54 1116.15,-566.54"/>
<polygon fill="#900030" stroke="#900030" points="1116.07,-570.04 1126.07,-566.54 1116.07,-563.04 1116.07,-570.04"/>
</g>
<!-- t6e5p1 -->
<g id="node72" class="node">
<title>t6e5p1</title>
<defs>
<radialGradient id="node72_r_40" cx="50%" cy="50%" r="75%" fx="50%" fy="50%">
<stop offset="0" style="stop-color:#0026e6;stop-opacity:1.;"/>
<stop offset="1" style="stop-color:#001890;stop-opacity:1.;"/>
</radialGradient>
</defs>
<ellipse fill="url(#node72_r_40)" stroke="#0026e6" cx="798" cy="-453.53" rx="41.54" ry="20.51"/>
<text text-anchor="middle" x="798" y="-450.73" font-family="Times,serif" font-size="14.00" fill="#90a8ff">小瞎子</text>
</g>
<!-- t6e5&#45;&gt;t6e5p1 -->
<g id="edge52" class="edge">
<title>t6e5&#45;&gt;t6e5p1</title>
<polygon fill="#001890" stroke="none" stroke-width="5" points="932.48,-541.06 930.96,-540.51 929.43,-539.97 927.91,-539.43 926.38,-538.88 924.85,-538.34 923.32,-537.8 921.79,-537.26 920.27,-536.73 918.74,-536.19 917.21,-535.66 915.69,-535.13 914.17,-534.61 912.65,-534.08 911.14,-533.56 909.63,-533.05 908.12,-532.53 906.62,-532.02 905.13,-531.52 903.64,-531.02 902.16,-530.52 898.07,-529.24 894.19,-528.19 890.52,-527.33 887.02,-526.63 883.68,-526.06 880.48,-525.59 877.4,-525.18 874.43,-524.81 871.54,-524.45 868.72,-524.05 865.94,-523.6 863.18,-523.05 860.42,-522.39 857.65,-521.57 854.82,-520.57 851.93,-519.36 848.95,-517.89 845.85,-516.15 842.61,-514.09 839.21,-511.69 837.24,-510.16 835.32,-508.55 833.44,-506.86 831.61,-505.09 829.83,-503.26 828.09,-501.37 826.41,-499.43 824.77,-497.45 823.19,-495.43 821.65,-493.38 820.17,-491.31 818.73,-489.22 817.35,-487.13 816.02,-485.03 814.74,-482.95 813.52,-480.87 812.35,-478.82 811.23,-476.8 810.17,-474.81 809.16,-472.86 804.76,-475.24 805.85,-477.18 807.01,-479.19 808.23,-481.23 809.5,-483.3 810.83,-485.39 812.22,-487.49 813.66,-489.61 815.16,-491.72 816.71,-493.82 818.32,-495.91 819.98,-497.98 821.69,-500.02 823.46,-502.02 825.28,-503.98 827.15,-505.88 829.07,-507.73 831.05,-509.51 833.08,-511.22 835.16,-512.85 837.29,-514.39 840.89,-516.76 844.33,-518.79 847.64,-520.5 850.82,-521.93 853.89,-523.11 856.89,-524.06 859.82,-524.81 862.7,-525.41 865.57,-525.87 868.42,-526.24 871.3,-526.55 874.21,-526.82 877.19,-527.09 880.26,-527.39 883.44,-527.75 886.75,-528.2 890.23,-528.77 893.88,-529.5 897.75,-530.42 901.84,-531.55 903.33,-531.99 904.84,-532.44 906.34,-532.9 907.86,-533.35 909.38,-533.82 910.91,-534.28 912.43,-534.75 913.97,-535.22 915.51,-535.7 917.04,-536.17 918.59,-536.66 920.13,-537.14 921.68,-537.62 923.22,-538.11 924.77,-538.6 926.31,-539.09 927.86,-539.58 929.4,-540.07 930.94,-540.56 932.48,-541.06 932.48,-541.06"/>
<text text-anchor="middle" x="887.88" y="-499.74" font-family="Times,serif" font-size="14.00" fill="#001890">添油加醋，看管</text>
</g>
<!-- t6e5p2 -->
<g id="node73" class="node">
<title>t6e5p2</title>
<defs>
<radialGradient id="node73_r_41" cx="50%" cy="50%" r="75%" fx="50%" fy="50%">
<stop offset="0" style="stop-color:#0000e6;stop-opacity:1.;"/>
<stop offset="1" style="stop-color:#000090;stop-opacity:1.;"/>
</radialGradient>
</defs>
<ellipse fill="url(#node73_r_41)" stroke="#0000e6" cx="910" cy="-453.53" rx="41.54" ry="20.51"/>
<text text-anchor="middle" x="910" y="-450.73" font-family="Times,serif" font-size="14.00" fill="#9090ff">胡司令</text>
</g>
<!-- t6e5&#45;&gt;t6e5p2 -->
<g id="edge53" class="edge">
<title>t6e5&#45;&gt;t6e5p2</title>
<polygon fill="#000090" stroke="none" stroke-width="5" points="981.03,-541.18 978.54,-537.96 975.97,-534.63 973.31,-531.2 970.59,-527.68 967.81,-524.09 964.99,-520.44 962.14,-516.75 959.26,-513.03 956.37,-509.3 953.49,-505.57 950.61,-501.85 947.76,-498.16 944.94,-494.51 942.16,-490.92 939.44,-487.4 936.78,-483.97 934.21,-480.64 931.72,-477.42 929.33,-474.34 927.06,-471.4 923.19,-474.57 925.63,-477.37 928.19,-480.32 930.85,-483.39 933.61,-486.57 936.46,-489.85 939.37,-493.2 942.35,-496.63 945.37,-500.11 948.43,-503.63 951.51,-507.18 954.61,-510.75 957.7,-514.31 960.78,-517.86 963.84,-521.38 966.87,-524.86 969.84,-528.29 972.76,-531.65 975.6,-534.93 978.36,-538.11 981.03,-541.18 981.03,-541.18"/>
<text text-anchor="middle" x="969.25" y="-499.74" font-family="Times,serif" font-size="14.00" fill="#000090">迫害</text>
</g>
<!-- t6e5p3 -->
<g id="node74" class="node">
<title>t6e5p3</title>
<defs>
<radialGradient id="node74_r_42" cx="50%" cy="50%" r="75%" fx="50%" fy="50%">
<stop offset="0" style="stop-color:#2600e6;stop-opacity:1.;"/>
<stop offset="1" style="stop-color:#180090;stop-opacity:1.;"/>
</radialGradient>
</defs>
<ellipse fill="url(#node74_r_42)" stroke="#2600e6" cx="1001" cy="-453.53" rx="31.47" ry="20.51"/>
<text text-anchor="middle" x="1001" y="-450.73" font-family="Times,serif" font-size="14.00" fill="#a890ff">父亲</text>
</g>
<!-- t6e5&#45;&gt;t6e5p3 -->
<g id="edge54" class="edge">
<title>t6e5&#45;&gt;t6e5p3</title>
<polygon fill="#180090" stroke="none" stroke-width="5" points="1001,-541.18 1001.11,-538.11 1001.23,-534.94 1001.36,-531.68 1001.48,-528.33 1001.61,-524.92 1001.74,-521.45 1001.87,-517.94 1002,-514.4 1002.14,-510.84 1002.27,-507.28 1002.4,-503.73 1002.53,-500.2 1002.66,-496.71 1002.79,-493.27 1002.92,-489.9 1003.04,-486.59 1003.16,-483.38 1003.28,-480.26 1003.39,-477.26 1003.5,-474.39 998.5,-474.39 998.61,-477.26 998.72,-480.26 998.84,-483.38 998.96,-486.59 999.08,-489.9 999.21,-493.27 999.34,-496.71 999.47,-500.2 999.6,-503.73 999.73,-507.28 999.86,-510.84 1000,-514.4 1000.13,-517.94 1000.26,-521.45 1000.39,-524.92 1000.52,-528.33 1000.64,-531.68 1000.77,-534.94 1000.89,-538.11 1001,-541.18 1001,-541.18"/>
<text text-anchor="middle" x="1029.5" y="-499.74" font-family="Times,serif" font-size="14.00" fill="#180090">设法营救</text>
</g>
<!-- t6e5p4 -->
<g id="node75" class="node">
<title>t6e5p4</title>
<defs>
<radialGradient id="node75_r_43" cx="50%" cy="50%" r="75%" fx="50%" fy="50%">
<stop offset="0" style="stop-color:#4c00e6;stop-opacity:1.;"/>
<stop offset="1" style="stop-color:#300090;stop-opacity:1.;"/>
</radialGradient>
</defs>
<ellipse fill="url(#node75_r_43)" stroke="#4c00e6" cx="1092" cy="-453.53" rx="41.54" ry="20.51"/>
<text text-anchor="middle" x="1092" y="-450.73" font-family="Times,serif" font-size="14.00" fill="#c090ff">老保长</text>
</g>
<!-- t6e5&#45;&gt;t6e5p4 -->
<g id="edge55" class="edge">
<title>t6e5&#45;&gt;t6e5p4</title>
<polygon fill="#300090" stroke="none" stroke-width="5" points="1033.92,-541.21 1035.43,-540 1036.94,-538.78 1038.46,-537.53 1039.98,-536.26 1041.5,-534.98 1043.02,-533.67 1044.53,-532.35 1046.04,-531.01 1047.54,-529.65 1049.03,-528.28 1050.51,-526.89 1051.97,-525.48 1053.42,-524.06 1054.84,-522.63 1056.25,-521.18 1057.64,-519.72 1059,-518.25 1060.34,-516.76 1061.64,-515.27 1062.92,-513.76 1064.38,-511.98 1065.81,-510.16 1067.21,-508.29 1068.59,-506.39 1069.94,-504.45 1071.27,-502.49 1072.57,-500.51 1073.83,-498.52 1075.07,-496.51 1076.28,-494.49 1077.46,-492.48 1078.61,-490.47 1079.72,-488.46 1080.8,-486.47 1081.85,-484.5 1082.86,-482.55 1083.84,-480.63 1084.78,-478.74 1085.68,-476.89 1086.55,-475.1 1081.98,-473.06 1081.23,-474.89 1080.45,-476.76 1079.64,-478.66 1078.79,-480.6 1077.91,-482.57 1076.99,-484.57 1076.05,-486.58 1075.07,-488.61 1074.07,-490.65 1073.03,-492.69 1071.96,-494.74 1070.86,-496.78 1069.74,-498.8 1068.58,-500.82 1067.4,-502.81 1066.19,-504.78 1064.95,-506.72 1063.69,-508.62 1062.39,-510.49 1061.08,-512.31 1059.91,-513.86 1058.71,-515.4 1057.48,-516.94 1056.23,-518.47 1054.94,-519.99 1053.64,-521.51 1052.31,-523.01 1050.96,-524.5 1049.59,-525.98 1048.21,-527.44 1046.81,-528.9 1045.4,-530.33 1043.98,-531.76 1042.55,-533.16 1041.12,-534.55 1039.68,-535.92 1038.24,-537.27 1036.8,-538.6 1035.36,-539.92 1033.92,-541.21 1033.92,-541.21"/>
<text text-anchor="middle" x="1102.5" y="-499.74" font-family="Times,serif" font-size="14.00" fill="#300090">为他出声</text>
</g>
<!-- t6e6p1 -->
<g id="node76" class="node">
<title>t6e6p1</title>
<defs>
<radialGradient id="node76_r_44" cx="50%" cy="50%" r="75%" fx="50%" fy="50%">
<stop offset="0" style="stop-color:#7300e6;stop-opacity:1.;"/>
<stop offset="1" style="stop-color:#480090;stop-opacity:1.;"/>
</radialGradient>
</defs>
<ellipse fill="url(#node76_r_44)" stroke="#7300e6" cx="1193" cy="-453.53" rx="41.54" ry="20.51"/>
<text text-anchor="middle" x="1193" y="-450.73" font-family="Times,serif" font-size="14.00" fill="#d890ff">小瞎子</text>
</g>
<!-- t6e6&#45;&gt;t6e6p1 -->
<g id="edge56" class="edge">
<title>t6e6&#45;&gt;t6e6p1</title>
<polygon fill="#480090" stroke="none" stroke-width="5" points="1193,-530.72 1193.12,-527.91 1193.25,-525.05 1193.38,-522.15 1193.51,-519.23 1193.64,-516.28 1193.77,-513.31 1193.9,-510.33 1194.04,-507.36 1194.17,-504.39 1194.3,-501.43 1194.43,-498.5 1194.56,-495.6 1194.68,-492.73 1194.81,-489.91 1194.93,-487.14 1195.05,-484.44 1195.17,-481.8 1195.28,-479.23 1195.39,-476.75 1195.5,-474.36 1190.5,-474.36 1190.61,-476.75 1190.72,-479.23 1190.83,-481.8 1190.95,-484.44 1191.07,-487.14 1191.19,-489.91 1191.32,-492.73 1191.44,-495.6 1191.57,-498.5 1191.7,-501.43 1191.83,-504.39 1191.96,-507.36 1192.1,-510.33 1192.23,-513.31 1192.36,-516.28 1192.49,-519.23 1192.62,-522.15 1192.75,-525.05 1192.88,-527.91 1193,-530.72 1193,-530.72"/>
<text text-anchor="middle" x="1207.25" y="-499.74" font-family="Times,serif" font-size="14.00" fill="#480090">痛恨</text>
</g>
<!-- t6e6p2 -->
<g id="node77" class="node">
<title>t6e6p2</title>
<defs>
<radialGradient id="node77_r_45" cx="50%" cy="50%" r="75%" fx="50%" fy="50%">
<stop offset="0" style="stop-color:#9900e6;stop-opacity:1.;"/>
<stop offset="1" style="stop-color:#600090;stop-opacity:1.;"/>
</radialGradient>
</defs>
<ellipse fill="url(#node77_r_45)" stroke="#9900e6" cx="1284" cy="-453.53" rx="31.47" ry="20.51"/>
<text text-anchor="middle" x="1284" y="-450.73" font-family="Times,serif" font-size="14.00" fill="#f090ff">瞎佬</text>
</g>
<!-- t6e6&#45;&gt;t6e6p2 -->
<g id="edge57" class="edge">
<title>t6e6&#45;&gt;t6e6p2</title>
<polygon fill="#600090" stroke="none" stroke-width="5" points="1221.54,-530.72 1224.06,-527.85 1226.61,-524.94 1229.2,-521.98 1231.82,-518.99 1234.46,-515.98 1237.12,-512.95 1239.78,-509.91 1242.44,-506.88 1245.09,-503.86 1247.72,-500.86 1250.33,-497.88 1252.9,-494.94 1255.44,-492.05 1257.93,-489.2 1260.37,-486.42 1262.74,-483.71 1265.05,-481.08 1267.28,-478.54 1269.43,-476.09 1271.48,-473.74 1267.62,-470.57 1265.72,-473.05 1263.74,-475.63 1261.68,-478.32 1259.55,-481.1 1257.36,-483.96 1255.11,-486.89 1252.82,-489.89 1250.47,-492.95 1248.1,-496.05 1245.69,-499.19 1243.26,-502.37 1240.82,-505.56 1238.37,-508.76 1235.91,-511.96 1233.46,-515.16 1231.03,-518.34 1228.61,-521.49 1226.22,-524.61 1223.86,-527.69 1221.54,-530.72 1221.54,-530.72"/>
<text text-anchor="middle" x="1265.25" y="-499.74" font-family="Times,serif" font-size="14.00" fill="#600090">痛恨</text>
</g>
<!-- t7e2 -->
<g id="node50" class="node">
<title>t7e2</title>
<defs>
<radialGradient id="node50_r_46" cx="50%" cy="50%" r="75%" fx="50%" fy="50%">
<stop offset="0" style="stop-color:#e62600;stop-opacity:1.;"/>
<stop offset="1" style="stop-color:#901800;stop-opacity:1.;"/>
</radialGradient>
</defs>
<polygon fill="url(#node50_r_46)" stroke="#e62600" points="412.88,-396.02 303.12,-396.02 303.12,-325.02 418.88,-325.02 418.88,-390.02 412.88,-396.02"/>
<polyline fill="none" stroke="#e62600" points="412.88,-396.02 412.88,-390.02"/>
<polyline fill="none" stroke="#e62600" points="418.88,-390.02 412.88,-390.02"/>
<text text-anchor="middle" x="361" y="-378.72" font-family="Times,serif" font-size="14.00" fill="#731300">小瞎子和老瞎子</text>
<text text-anchor="middle" x="361" y="-357.72" font-family="Times,serif" font-size="14.00" fill="#731300">散布上校和父亲</text>
<text text-anchor="middle" x="361" y="-336.72" font-family="Times,serif" font-size="14.00" fill="#731300">是同性恋</text>
</g>
<!-- t7e1&#45;&gt;t7e2 -->
<g id="edge32" class="edge">
<title>t7e1&#45;&gt;t7e2</title>
<path fill="none" stroke="#900000" d="M267.88,-360.52C275.7,-360.52 283.52,-360.52 291.34,-360.52"/>
<polygon fill="#900000" stroke="#900000" points="291.29,-364.02 301.29,-360.52 291.29,-357.02 291.29,-364.02"/>
</g>
<!-- t7e1p1 -->
<g id="node78" class="node">
<title>t7e1p1</title>
<defs>
<radialGradient id="node78_r_47" cx="50%" cy="50%" r="75%" fx="50%" fy="50%">
<stop offset="0" style="stop-color:#c000e6;stop-opacity:1.;"/>
<stop offset="1" style="stop-color:#780090;stop-opacity:1.;"/>
</radialGradient>
</defs>
<ellipse fill="url(#node78_r_47)" stroke="#c000e6" cx="224" cy="-226.52" rx="31.47" ry="20.51"/>
<text text-anchor="middle" x="224" y="-223.72" font-family="Times,serif" font-size="14.00" fill="#ff90ff">父亲</text>
</g>
<!-- t7e1&#45;&gt;t7e1p1 -->
<g id="edge36" class="edge">
<title>t7e1&#45;&gt;t7e1p1</title>
<polygon fill="#900000" stroke="none" stroke-width="5" points="226.5,-335.31 226.39,-331.42 226.27,-327.33 226.15,-323.08 226.03,-318.69 225.9,-314.18 225.77,-309.58 225.64,-304.89 225.5,-300.16 225.37,-295.39 225.23,-290.62 225.1,-285.85 224.96,-281.13 224.83,-276.46 224.7,-271.87 224.57,-267.38 224.45,-263.02 224.33,-258.81 224.21,-254.76 224.1,-250.91 224,-247.27 224,-247.27 223.9,-250.91 223.79,-254.76 223.67,-258.81 223.55,-263.02 223.43,-267.38 223.3,-271.87 223.17,-276.46 223.04,-281.13 222.9,-285.85 222.77,-290.62 222.63,-295.39 222.5,-300.16 222.36,-304.89 222.23,-309.58 222.1,-314.18 221.97,-318.69 221.85,-323.08 221.73,-327.33 221.61,-331.42 221.5,-335.31 226.5,-335.31"/>
<text text-anchor="middle" x="259.62" y="-283.22" font-family="Times,serif" font-size="14.00" fill="#900000">唯一联系人</text>
</g>
<!-- t7e3 -->
<g id="node51" class="node">
<title>t7e3</title>
<defs>
<radialGradient id="node51_r_48" cx="50%" cy="50%" r="75%" fx="50%" fy="50%">
<stop offset="0" style="stop-color:#e64c00;stop-opacity:1.;"/>
<stop offset="1" style="stop-color:#903000;stop-opacity:1.;"/>
</radialGradient>
</defs>
<polygon fill="url(#node51_r_48)" stroke="#e64c00" points="535.62,-378.52 454.38,-378.52 454.38,-342.52 541.62,-342.52 541.62,-372.52 535.62,-378.52"/>
<polyline fill="none" stroke="#e64c00" points="535.62,-378.52 535.62,-372.52"/>
<polyline fill="none" stroke="#e64c00" points="541.62,-372.52 535.62,-372.52"/>
<text text-anchor="middle" x="498" y="-357.72" font-family="Times,serif" font-size="14.00" fill="#732600">被公安逮捕</text>
</g>
<!-- t7e2&#45;&gt;t7e3 -->
<g id="edge33" class="edge">
<title>t7e2&#45;&gt;t7e3</title>
<path fill="none" stroke="#901800" d="M419.33,-360.52C427.11,-360.52 434.89,-360.52 442.66,-360.52"/>
<polygon fill="#901800" stroke="#901800" points="442.54,-364.02 452.54,-360.52 442.54,-357.02 442.54,-364.02"/>
</g>
<!-- t7e2p1 -->
<g id="node79" class="node">
<title>t7e2p1</title>
<defs>
<radialGradient id="node79_r_49" cx="50%" cy="50%" r="75%" fx="50%" fy="50%">
<stop offset="0" style="stop-color:#e600e6;stop-opacity:1.;"/>
<stop offset="1" style="stop-color:#900090;stop-opacity:1.;"/>
</radialGradient>
</defs>
<ellipse fill="url(#node79_r_49)" stroke="#e600e6" cx="361" cy="-226.52" rx="31.47" ry="20.51"/>
<text text-anchor="middle" x="361" y="-223.72" font-family="Times,serif" font-size="14.00" fill="#730073">爷爷</text>
</g>
<!-- t7e2&#45;&gt;t7e2p1 -->
<g id="edge37" class="edge">
<title>t7e2&#45;&gt;t7e2p1</title>
<polygon fill="#901800" stroke="none" stroke-width="5" points="363.5,-324.84 363.38,-321.07 363.25,-317.21 363.13,-313.25 363,-309.23 362.87,-305.15 362.73,-301.03 362.6,-296.88 362.47,-292.72 362.33,-288.57 362.2,-284.43 362.07,-280.32 361.94,-276.26 361.81,-272.26 361.68,-268.34 361.56,-264.51 361.44,-260.79 361.32,-257.18 361.21,-253.71 361.1,-250.39 361,-247.24 361,-247.24 360.9,-250.39 360.79,-253.71 360.68,-257.18 360.56,-260.79 360.44,-264.51 360.32,-268.34 360.19,-272.26 360.06,-276.26 359.93,-280.32 359.8,-284.43 359.67,-288.57 359.53,-292.72 359.4,-296.88 359.27,-301.03 359.13,-305.15 359,-309.23 358.87,-313.25 358.75,-317.21 358.62,-321.07 358.5,-324.84 363.5,-324.84"/>
<text text-anchor="middle" x="382.38" y="-283.22" font-family="Times,serif" font-size="14.00" fill="#901800">心头病</text>
</g>
<!-- t7e4 -->
<g id="node52" class="node">
<title>t7e4</title>
<defs>
<radialGradient id="node52_r_50" cx="50%" cy="50%" r="75%" fx="50%" fy="50%">
<stop offset="0" style="stop-color:#e67300;stop-opacity:1.;"/>
<stop offset="1" style="stop-color:#904800;stop-opacity:1.;"/>
</radialGradient>
</defs>
<polygon fill="url(#node52_r_50)" stroke="#e67300" points="736.88,-396.02 627.12,-396.02 627.12,-325.02 742.88,-325.02 742.88,-390.02 736.88,-396.02"/>
<polyline fill="none" stroke="#e67300" points="736.88,-396.02 736.88,-390.02"/>
<polyline fill="none" stroke="#e67300" points="742.88,-390.02 736.88,-390.02"/>
<text text-anchor="middle" x="685" y="-378.72" font-family="Times,serif" font-size="14.00" fill="#733900">以命守住的伤疤</text>
<text text-anchor="middle" x="685" y="-357.72" font-family="Times,serif" font-size="14.00" fill="#733900">被当众揭发</text>
<text text-anchor="middle" x="685" y="-336.72" font-family="Times,serif" font-size="14.00" fill="#733900">上校疯了</text>
</g>
<!-- t7e3&#45;&gt;t7e4 -->
<g id="edge34" class="edge">
<title>t7e3&#45;&gt;t7e4</title>
<path fill="none" stroke="#903000" d="M541.83,-360.52C566.4,-360.52 590.97,-360.52 615.55,-360.52"/>
<polygon fill="#903000" stroke="#903000" points="615.32,-364.02 625.32,-360.52 615.32,-357.02 615.32,-364.02"/>
</g>
<!-- t7e3p1 -->
<g id="node80" class="node">
<title>t7e3p1</title>
<defs>
<radialGradient id="node80_r_51" cx="50%" cy="50%" r="75%" fx="50%" fy="50%">
<stop offset="0" style="stop-color:#e600c0;stop-opacity:1.;"/>
<stop offset="1" style="stop-color:#900078;stop-opacity:1.;"/>
</radialGradient>
</defs>
<ellipse fill="url(#node80_r_51)" stroke="#e600c0" cx="470" cy="-226.52" rx="31.47" ry="20.51"/>
<text text-anchor="middle" x="470" y="-223.72" font-family="Times,serif" font-size="14.00" fill="#730060">爷爷</text>
</g>
<!-- t7e3&#45;&gt;t7e3p1 -->
<g id="edge38" class="edge">
<title>t7e3&#45;&gt;t7e3p1</title>
<polygon fill="#900078" stroke="none" stroke-width="5" points="494.34,-342.27 493.62,-338.41 492.86,-334.27 492.04,-329.89 491.19,-325.28 490.3,-320.49 489.38,-315.54 488.44,-310.47 487.48,-305.29 486.51,-300.05 485.53,-294.76 484.55,-289.47 483.57,-284.2 482.6,-278.98 481.65,-273.85 480.72,-268.82 479.81,-263.94 478.94,-259.22 478.1,-254.71 477.31,-250.43 476.56,-246.41 471.67,-247.44 472.62,-251.42 473.63,-255.66 474.7,-260.12 475.82,-264.78 476.97,-269.62 478.16,-274.59 479.37,-279.67 480.61,-284.83 481.85,-290.04 483.11,-295.28 484.36,-300.5 485.6,-305.69 486.82,-310.81 488.02,-315.83 489.19,-320.73 490.32,-325.47 491.41,-330.02 492.45,-334.36 493.43,-338.45 494.34,-342.27 494.34,-342.27"/>
<text text-anchor="middle" x="500.25" y="-283.22" font-family="Times,serif" font-size="14.00" fill="#900078">揭发</text>
</g>
<!-- t7e5 -->
<g id="node53" class="node">
<title>t7e5</title>
<defs>
<radialGradient id="node53_r_52" cx="50%" cy="50%" r="75%" fx="50%" fy="50%">
<stop offset="0" style="stop-color:#e69900;stop-opacity:1.;"/>
<stop offset="1" style="stop-color:#906000;stop-opacity:1.;"/>
</radialGradient>
</defs>
<polygon fill="url(#node53_r_52)" stroke="#e69900" points="967,-385.52 843,-385.52 843,-335.52 973,-335.52 973,-379.52 967,-385.52"/>
<polyline fill="none" stroke="#e69900" points="967,-385.52 967,-379.52"/>
<polyline fill="none" stroke="#e69900" points="973,-379.52 967,-379.52"/>
<text text-anchor="middle" x="908" y="-368.22" font-family="Times,serif" font-size="14.00" fill="#734c00">父亲与爷爷决裂</text>
<text text-anchor="middle" x="908" y="-347.22" font-family="Times,serif" font-size="14.00" fill="#734c00">我家成为全村公敌</text>
</g>
<!-- t7e4&#45;&gt;t7e5 -->
<g id="edge35" class="edge">
<title>t7e4&#45;&gt;t7e5</title>
<path fill="none" stroke="#904800" d="M743.36,-360.52C772.73,-360.52 802.1,-360.52 831.47,-360.52"/>
<polygon fill="#904800" stroke="#904800" points="831.21,-364.02 841.21,-360.52 831.21,-357.02 831.21,-364.02"/>
</g>
<!-- t7e4p1 -->
<g id="node81" class="node">
<title>t7e4p1</title>
<defs>
<radialGradient id="node81_r_53" cx="50%" cy="50%" r="75%" fx="50%" fy="50%">
<stop offset="0" style="stop-color:#e60099;stop-opacity:1.;"/>
<stop offset="1" style="stop-color:#900060;stop-opacity:1.;"/>
</radialGradient>
</defs>
<ellipse fill="url(#node81_r_53)" stroke="#e60099" cx="551" cy="-226.52" rx="31.47" ry="20.51"/>
<text text-anchor="middle" x="551" y="-223.72" font-family="Times,serif" font-size="14.00" fill="#73004c">父亲</text>
</g>
<!-- t7e4&#45;&gt;t7e4p1 -->
<g id="edge39" class="edge">
<title>t7e4&#45;&gt;t7e4p1</title>
<polygon fill="#900060" stroke="none" stroke-width="5" points="626.82,-349.56 623.04,-348.35 619.23,-347.04 615.42,-345.65 611.6,-344.17 607.79,-342.6 604.01,-340.93 600.26,-339.16 596.54,-337.3 592.88,-335.33 589.28,-333.25 585.75,-331.07 582.3,-328.77 578.95,-326.37 575.7,-323.85 572.56,-321.21 569.54,-318.45 566.66,-315.57 563.92,-312.57 561.33,-309.44 558.9,-306.19 557.21,-303.59 555.69,-300.9 554.34,-298.11 553.16,-295.24 552.12,-292.3 551.24,-289.3 550.49,-286.25 549.88,-283.16 549.38,-280.04 549.01,-276.91 548.74,-273.78 548.57,-270.66 548.49,-267.55 548.5,-264.48 548.58,-261.46 548.73,-258.49 548.94,-255.59 549.2,-252.77 549.5,-250.05 549.84,-247.41 544.87,-246.85 544.62,-249.55 544.4,-252.37 544.23,-255.29 544.12,-258.29 544.07,-261.36 544.1,-264.5 544.2,-267.68 544.39,-270.9 544.68,-274.14 545.08,-277.39 545.58,-280.64 546.21,-283.88 546.97,-287.1 547.86,-290.27 548.9,-293.4 550.1,-296.47 551.46,-299.47 552.99,-302.37 554.7,-305.18 556.6,-307.86 559.23,-311.15 562.01,-314.29 564.94,-317.28 568,-320.13 571.18,-322.84 574.47,-325.42 577.87,-327.87 581.36,-330.2 584.93,-332.4 588.57,-334.48 592.28,-336.45 596.04,-338.31 599.84,-340.06 603.67,-341.7 607.53,-343.25 611.4,-344.69 615.28,-346.05 619.14,-347.31 623,-348.48 626.82,-349.56 626.82,-349.56"/>
<text text-anchor="middle" x="592.62" y="-293.72" font-family="Times,serif" font-size="14.00" fill="#900060">神经错乱</text>
<text text-anchor="middle" x="592.62" y="-272.72" font-family="Times,serif" font-size="14.00" fill="#900060">与爷爷决裂</text>
</g>
<!-- t7e4p2 -->
<g id="node82" class="node">
<title>t7e4p2</title>
<defs>
<radialGradient id="node82_r_54" cx="50%" cy="50%" r="75%" fx="50%" fy="50%">
<stop offset="0" style="stop-color:#e60073;stop-opacity:1.;"/>
<stop offset="1" style="stop-color:#900048;stop-opacity:1.;"/>
</radialGradient>
</defs>
<ellipse fill="url(#node82_r_54)" stroke="#e60073" cx="634" cy="-226.52" rx="31.47" ry="20.51"/>
<text text-anchor="middle" x="634" y="-223.72" font-family="Times,serif" font-size="14.00" fill="#730039">爷爷</text>
</g>
<!-- t7e4&#45;&gt;t7e4p2 -->
<g id="edge40" class="edge">
<title>t7e4&#45;&gt;t7e4p2</title>
<polygon fill="#900048" stroke="none" stroke-width="5" points="651.9,-324.62 651.35,-323.77 650.8,-322.91 650.26,-322.04 649.73,-321.17 649.2,-320.3 648.68,-319.42 648.18,-318.54 647.68,-317.65 647.19,-316.76 646.71,-315.87 646.24,-314.97 645.79,-314.07 645.34,-313.17 644.91,-312.26 644.49,-311.35 644.08,-310.44 643.68,-309.53 643.3,-308.62 642.93,-307.7 642.58,-306.79 641.53,-303.86 640.58,-300.87 639.72,-297.83 638.95,-294.75 638.26,-291.65 637.66,-288.51 637.13,-285.37 636.67,-282.22 636.28,-279.07 635.96,-275.94 635.69,-272.83 635.49,-269.74 635.33,-266.7 635.23,-263.71 635.16,-260.77 635.14,-257.9 635.16,-255.11 635.2,-252.4 635.28,-249.78 635.38,-247.26 630.38,-247.22 630.43,-249.77 630.52,-252.44 630.64,-255.2 630.81,-258.04 631.01,-260.96 631.26,-263.95 631.55,-266.98 631.9,-270.07 632.3,-273.19 632.77,-276.34 633.29,-279.5 633.89,-282.68 634.55,-285.85 635.28,-289.02 636.1,-292.16 636.99,-295.28 637.96,-298.36 639.03,-301.39 640.18,-304.36 641.42,-307.26 641.84,-308.17 642.27,-309.08 642.72,-309.98 643.18,-310.88 643.65,-311.77 644.13,-312.66 644.62,-313.55 645.12,-314.43 645.64,-315.3 646.17,-316.18 646.7,-317.04 647.25,-317.91 647.8,-318.77 648.36,-319.62 648.94,-320.47 649.51,-321.31 650.1,-322.14 650.69,-322.98 651.3,-323.8 651.9,-324.62 651.9,-324.62"/>
<text text-anchor="middle" x="670.5" y="-283.22" font-family="Times,serif" font-size="14.00" fill="#900048">知道错了</text>
</g>
<!-- t7e4p3 -->
<g id="node83" class="node">
<title>t7e4p3</title>
<defs>
<radialGradient id="node83_r_55" cx="50%" cy="50%" r="75%" fx="50%" fy="50%">
<stop offset="0" style="stop-color:#e6004c;stop-opacity:1.;"/>
<stop offset="1" style="stop-color:#900030;stop-opacity:1.;"/>
</radialGradient>
</defs>
<ellipse fill="url(#node83_r_55)" stroke="#e6004c" cx="725" cy="-226.52" rx="41.54" ry="20.51"/>
<text text-anchor="middle" x="725" y="-223.72" font-family="Times,serif" font-size="14.00" fill="#730026">老保长</text>
</g>
<!-- t7e4&#45;&gt;t7e4p3 -->
<g id="edge41" class="edge">
<title>t7e4&#45;&gt;t7e4p3</title>
<polygon fill="#900030" stroke="none" stroke-width="5" points="697.3,-324.6 697.62,-323.73 697.95,-322.86 698.27,-321.99 698.59,-321.11 698.91,-320.24 699.23,-319.36 699.55,-318.48 699.87,-317.6 700.18,-316.73 700.5,-315.85 700.81,-314.97 701.13,-314.1 701.44,-313.23 701.75,-312.36 702.05,-311.49 702.36,-310.62 702.66,-309.76 702.96,-308.9 703.25,-308.04 703.55,-307.19 704.58,-304.16 705.62,-301.09 706.66,-297.98 707.69,-294.86 708.72,-291.71 709.74,-288.56 710.76,-285.4 711.76,-282.25 712.75,-279.12 713.73,-276.01 714.7,-272.93 715.64,-269.89 716.56,-266.89 717.47,-263.95 718.35,-261.07 719.2,-258.26 720.03,-255.52 720.82,-252.87 721.59,-250.31 722.32,-247.86 717.49,-246.58 716.91,-249.07 716.3,-251.67 715.67,-254.36 715.02,-257.13 714.34,-259.99 713.65,-262.91 712.93,-265.9 712.19,-268.94 711.44,-272.03 710.67,-275.16 709.89,-278.31 709.1,-281.5 708.29,-284.69 707.47,-287.9 706.65,-291.11 705.82,-294.3 704.98,-297.48 704.14,-300.64 703.3,-303.77 702.45,-306.86 702.21,-307.72 701.97,-308.59 701.73,-309.47 701.48,-310.34 701.23,-311.23 700.98,-312.11 700.72,-313 700.47,-313.89 700.21,-314.78 699.95,-315.67 699.69,-316.57 699.43,-317.46 699.17,-318.36 698.9,-319.25 698.64,-320.15 698.37,-321.04 698.1,-321.93 697.84,-322.83 697.57,-323.72 697.3,-324.6 697.3,-324.6"/>
<text text-anchor="middle" x="749.62" y="-293.72" font-family="Times,serif" font-size="14.00" fill="#900030">愤怒</text>
<text text-anchor="middle" x="749.62" y="-272.72" font-family="Times,serif" font-size="14.00" fill="#900030">与我家决裂</text>
</g>
<!-- t7e4p4 -->
<g id="node84" class="node">
<title>t7e4p4</title>
<defs>
<radialGradient id="node84_r_56" cx="50%" cy="50%" r="75%" fx="50%" fy="50%">
<stop offset="0" style="stop-color:#e60026;stop-opacity:1.;"/>
<stop offset="1" style="stop-color:#900018;stop-opacity:1.;"/>
</radialGradient>
</defs>
<ellipse fill="url(#node84_r_56)" stroke="#e60026" cx="826" cy="-226.52" rx="41.54" ry="20.51"/>
<text text-anchor="middle" x="826" y="-223.72" font-family="Times,serif" font-size="14.00" fill="#730013">小瞎子</text>
</g>
<!-- t7e4&#45;&gt;t7e4p4 -->
<g id="edge42" class="edge">
<title>t7e4&#45;&gt;t7e4p4</title>
<polygon fill="#900018" stroke="none" stroke-width="5" points="743.23,-338.55 745.7,-337.39 748.18,-336.19 750.66,-334.95 753.14,-333.67 755.61,-332.36 758.07,-331 760.52,-329.61 762.96,-328.18 765.37,-326.71 767.77,-325.2 770.14,-323.65 772.48,-322.06 774.79,-320.42 777.07,-318.75 779.3,-317.03 781.5,-315.27 783.65,-313.47 785.76,-311.63 787.81,-309.74 789.81,-307.8 792.29,-305.23 794.69,-302.54 796.99,-299.74 799.2,-296.85 801.33,-293.87 803.36,-290.83 805.31,-287.74 807.18,-284.6 808.95,-281.43 810.65,-278.24 812.26,-275.04 813.79,-271.86 815.24,-268.69 816.61,-265.55 817.9,-262.45 819.12,-259.41 820.25,-256.44 821.31,-253.54 822.3,-250.74 823.21,-248.06 818.44,-246.55 817.65,-249.24 816.8,-252.02 815.87,-254.89 814.87,-257.85 813.81,-260.87 812.66,-263.96 811.45,-267.08 810.15,-270.24 808.78,-273.42 807.33,-276.61 805.8,-279.79 804.19,-282.95 802.5,-286.09 800.72,-289.19 798.85,-292.23 796.9,-295.21 794.86,-298.11 792.73,-300.93 790.51,-303.64 788.19,-306.25 786.31,-308.21 784.37,-310.15 782.38,-312.04 780.33,-313.9 778.23,-315.72 776.09,-317.51 773.91,-319.25 771.69,-320.96 769.43,-322.63 767.14,-324.26 764.82,-325.86 762.48,-327.42 760.12,-328.94 757.73,-330.43 755.33,-331.87 752.92,-333.28 750.5,-334.66 748.08,-335.99 745.65,-337.29 743.23,-338.55 743.23,-338.55"/>
<text text-anchor="middle" x="877.12" y="-283.22" font-family="Times,serif" font-size="14.00" fill="#900018">揭露隐私，幸灾乐祸</text>
</g>
<!-- t7e5p1 -->
<g id="node85" class="node">
<title>t7e5p1</title>
<defs>
<radialGradient id="node85_r_57" cx="50%" cy="50%" r="75%" fx="50%" fy="50%">
<stop offset="0" style="stop-color:#e60000;stop-opacity:1.;"/>
<stop offset="1" style="stop-color:#900000;stop-opacity:1.;"/>
</radialGradient>
</defs>
<ellipse fill="url(#node85_r_57)" stroke="#e60000" cx="973" cy="-226.52" rx="27" ry="20.51"/>
<text text-anchor="middle" x="973" y="-223.72" font-family="Times,serif" font-size="14.00" fill="#730000">我</text>
</g>
<!-- t7e5&#45;&gt;t7e5p1 -->
<g id="edge43" class="edge">
<title>t7e5&#45;&gt;t7e5p1</title>
<polygon fill="#900000" stroke="none" stroke-width="5" points="931.52,-335.14 932.62,-333.9 933.71,-332.64 934.81,-331.36 935.91,-330.06 937,-328.74 938.08,-327.41 939.16,-326.06 940.23,-324.69 941.3,-323.31 942.34,-321.92 943.38,-320.51 944.4,-319.09 945.4,-317.67 946.38,-316.23 947.34,-314.78 948.28,-313.32 949.2,-311.86 950.09,-310.39 950.95,-308.91 951.78,-307.43 953.32,-304.55 954.8,-301.6 956.22,-298.6 957.59,-295.54 958.9,-292.45 960.15,-289.33 961.35,-286.19 962.5,-283.04 963.59,-279.88 964.63,-276.74 965.62,-273.61 966.56,-270.51 967.45,-267.45 968.29,-264.43 969.08,-261.46 969.83,-258.56 970.53,-255.73 971.18,-252.99 971.79,-250.33 972.35,-247.79 967.44,-246.84 967.01,-249.39 966.55,-252.03 966.05,-254.77 965.5,-257.59 964.92,-260.48 964.29,-263.44 963.61,-266.46 962.89,-269.52 962.12,-272.63 961.31,-275.76 960.44,-278.91 959.53,-282.07 958.56,-285.23 957.53,-288.38 956.46,-291.52 955.33,-294.63 954.14,-297.7 952.89,-300.73 951.58,-303.71 950.22,-306.62 949.47,-308.12 948.7,-309.61 947.9,-311.1 947.07,-312.6 946.22,-314.08 945.34,-315.56 944.44,-317.04 943.52,-318.5 942.58,-319.96 941.63,-321.41 940.65,-322.85 939.67,-324.27 938.68,-325.69 937.67,-327.09 936.66,-328.47 935.64,-329.84 934.61,-331.19 933.58,-332.53 932.55,-333.84 931.52,-335.14 931.52,-335.14"/>
<text text-anchor="middle" x="1007.75" y="-283.22" font-family="Times,serif" font-size="14.00" fill="#900000">被迫流浪国外</text>
</g>
<!-- t8e2 -->
<g id="node55" class="node">
<title>t8e2</title>
<defs>
<radialGradient id="node55_r_58" cx="50%" cy="50%" r="75%" fx="50%" fy="50%">
<stop offset="0" style="stop-color:#e6e600;stop-opacity:1.;"/>
<stop offset="1" style="stop-color:#909000;stop-opacity:1.;"/>
</radialGradient>
</defs>
<polygon fill="url(#node55_r_58)" stroke="#e6e600" points="555.38,-169.01 388.62,-169.01 388.62,-98.01 561.38,-98.01 561.38,-163.01 555.38,-169.01"/>
<polyline fill="none" stroke="#e6e600" points="555.38,-169.01 555.38,-163.01"/>
<polyline fill="none" stroke="#e6e600" points="561.38,-163.01 555.38,-163.01"/>
<text text-anchor="middle" x="475" y="-151.71" font-family="Times,serif" font-size="14.00" fill="#737300">带疯上校离开</text>
<text text-anchor="middle" x="475" y="-130.71" font-family="Times,serif" font-size="14.00" fill="#737300">发现了战争时那个和自己</text>
<text text-anchor="middle" x="475" y="-109.71" font-family="Times,serif" font-size="14.00" fill="#737300">发生关系的人不是上校</text>
</g>
<!-- t8e1&#45;&gt;t8e2 -->
<g id="edge26" class="edge">
<title>t8e1&#45;&gt;t8e2</title>
<path fill="none" stroke="#907800" d="M353.53,-133.51C361.29,-133.51 369.05,-133.51 376.8,-133.51"/>
<polygon fill="#907800" stroke="#907800" points="376.66,-137.01 386.66,-133.51 376.66,-130.01 376.66,-137.01"/>
</g>
<!-- t8e1p1 -->
<g id="node86" class="node">
<title>t8e1p1</title>
<defs>
<radialGradient id="node86_r_59" cx="50%" cy="50%" r="75%" fx="50%" fy="50%">
<stop offset="0" style="stop-color:#e62600;stop-opacity:1.;"/>
<stop offset="1" style="stop-color:#901800;stop-opacity:1.;"/>
</radialGradient>
</defs>
<ellipse fill="url(#node86_r_59)" stroke="#e62600" cx="267" cy="-20.51" rx="41.54" ry="20.51"/>
<text text-anchor="middle" x="267" y="-17.71" font-family="Times,serif" font-size="14.00" fill="#731300">女战友</text>
</g>
<!-- t8e1&#45;&gt;t8e1p1 -->
<g id="edge28" class="edge">
<title>t8e1&#45;&gt;t8e1p1</title>
<polygon fill="#901800" stroke="none" stroke-width="5" points="267,-97.69 267.12,-94.88 267.25,-92.03 267.38,-89.13 267.51,-86.2 267.64,-83.25 267.77,-80.29 267.9,-77.31 268.04,-74.33 268.17,-71.37 268.3,-68.41 268.43,-65.48 268.56,-62.58 268.68,-59.71 268.81,-56.89 268.93,-54.12 269.05,-51.41 269.17,-48.77 269.28,-46.21 269.39,-43.73 269.5,-41.33 264.5,-41.33 264.61,-43.73 264.72,-46.21 264.83,-48.77 264.95,-51.41 265.07,-54.12 265.19,-56.89 265.32,-59.71 265.44,-62.58 265.57,-65.48 265.7,-68.41 265.83,-71.37 265.96,-74.33 266.1,-77.31 266.23,-80.29 266.36,-83.25 266.49,-86.2 266.62,-89.13 266.75,-92.03 266.88,-94.88 267,-97.69 267,-97.69"/>
<text text-anchor="middle" x="281.25" y="-66.71" font-family="Times,serif" font-size="14.00" fill="#901800">结婚</text>
</g>
<!-- t8e3 -->
<g id="node56" class="node">
<title>t8e3</title>
<defs>
<radialGradient id="node56_r_60" cx="50%" cy="50%" r="75%" fx="50%" fy="50%">
<stop offset="0" style="stop-color:#c0e600;stop-opacity:1.;"/>
<stop offset="1" style="stop-color:#789000;stop-opacity:1.;"/>
</radialGradient>
</defs>
<polygon fill="url(#node56_r_60)" stroke="#c0e600" points="777.5,-151.51 596.5,-151.51 596.5,-115.51 783.5,-115.51 783.5,-145.51 777.5,-151.51"/>
<polyline fill="none" stroke="#c0e600" points="777.5,-151.51 777.5,-145.51"/>
<polyline fill="none" stroke="#c0e600" points="783.5,-145.51 777.5,-145.51"/>
<text text-anchor="middle" x="690" y="-130.71" font-family="Times,serif" font-size="14.00" fill="#607300">上校去世，女战友随他而去</text>
</g>
<!-- t8e2&#45;&gt;t8e3 -->
<g id="edge27" class="edge">
<title>t8e2&#45;&gt;t8e3</title>
<path fill="none" stroke="#909000" d="M561.5,-133.51C569.26,-133.51 577.02,-133.51 584.77,-133.51"/>
<polygon fill="#909000" stroke="#909000" points="584.62,-137.01 594.62,-133.51 584.62,-130.01 584.62,-137.01"/>
</g>
<!-- t8e2p1 -->
<g id="node87" class="node">
<title>t8e2p1</title>
<defs>
<radialGradient id="node87_r_61" cx="50%" cy="50%" r="75%" fx="50%" fy="50%">
<stop offset="0" style="stop-color:#e64c00;stop-opacity:1.;"/>
<stop offset="1" style="stop-color:#903000;stop-opacity:1.;"/>
</radialGradient>
</defs>
<ellipse fill="url(#node87_r_61)" stroke="#e64c00" cx="475" cy="-20.51" rx="41.54" ry="20.51"/>
<text text-anchor="middle" x="475" y="-17.71" font-family="Times,serif" font-size="14.00" fill="#732600">女战友</text>
</g>
<!-- t8e2&#45;&gt;t8e2p1 -->
<g id="edge29" class="edge">
<title>t8e2&#45;&gt;t8e2p1</title>
<polygon fill="#903000" stroke="none" stroke-width="5" points="475,-97.69 475.12,-94.88 475.25,-92.03 475.38,-89.13 475.51,-86.2 475.64,-83.25 475.77,-80.29 475.9,-77.31 476.04,-74.33 476.17,-71.37 476.3,-68.41 476.43,-65.48 476.56,-62.58 476.68,-59.71 476.81,-56.89 476.93,-54.12 477.05,-51.41 477.17,-48.77 477.28,-46.21 477.39,-43.73 477.5,-41.33 472.5,-41.33 472.61,-43.73 472.72,-46.21 472.83,-48.77 472.95,-51.41 473.07,-54.12 473.19,-56.89 473.32,-59.71 473.44,-62.58 473.57,-65.48 473.7,-68.41 473.83,-71.37 473.96,-74.33 474.1,-77.31 474.23,-80.29 474.36,-83.25 474.49,-86.2 474.62,-89.13 474.75,-92.03 474.88,-94.88 475,-97.69 475,-97.69"/>
<text text-anchor="middle" x="489.25" y="-66.71" font-family="Times,serif" font-size="14.00" fill="#903000">羞愧</text>
</g>
<!-- t8e3p1 -->
<g id="node88" class="node">
<title>t8e3p1</title>
<defs>
<radialGradient id="node88_r_62" cx="50%" cy="50%" r="75%" fx="50%" fy="50%">
<stop offset="0" style="stop-color:#e67300;stop-opacity:1.;"/>
<stop offset="1" style="stop-color:#904800;stop-opacity:1.;"/>
</radialGradient>
</defs>
<ellipse fill="url(#node88_r_62)" stroke="#e67300" cx="690" cy="-20.51" rx="27" ry="20.51"/>
<text text-anchor="middle" x="690" y="-17.71" font-family="Times,serif" font-size="14.00" fill="#733900">我</text>
</g>
<!-- t8e3&#45;&gt;t8e3p1 -->
<g id="edge30" class="edge">
<title>t8e3&#45;&gt;t8e3p1</title>
<polygon fill="#904800" stroke="none" stroke-width="5" points="690,-115.17 690.1,-112.07 690.22,-108.81 690.33,-105.39 690.45,-101.83 690.58,-98.15 690.7,-94.37 690.83,-90.51 690.97,-86.59 691.1,-82.63 691.24,-78.64 691.37,-74.64 691.51,-70.65 691.64,-66.69 691.77,-62.78 691.9,-58.93 692.03,-55.17 692.16,-51.52 692.28,-47.98 692.39,-44.59 692.5,-41.35 687.5,-41.35 687.61,-44.59 687.72,-47.98 687.84,-51.52 687.97,-55.17 688.1,-58.93 688.23,-62.78 688.36,-66.69 688.49,-70.65 688.63,-74.64 688.76,-78.64 688.9,-82.63 689.03,-86.59 689.17,-90.51 689.3,-94.37 689.42,-98.15 689.55,-101.83 689.67,-105.39 689.78,-108.81 689.9,-112.07 690,-115.17 690,-115.17"/>
<text text-anchor="middle" x="718.5" y="-66.71" font-family="Times,serif" font-size="14.00" fill="#904800">料理后事</text>
</g>
</g>
</svg>
