<?xml version="1.0" encoding="UTF-8" standalone="no"?>
<!DOCTYPE svg PUBLIC "-//W3C//DTD SVG 1.1//EN"
 "http://www.w3.org/Graphics/SVG/1.1/DTD/svg11.dtd">
<!-- Generated by graphviz version 9.0.0 (0)
 -->
<!-- Title: G Pages: 1 -->
<svg width="1620pt" height="1745pt"
 viewBox="0.00 0.00 1620.00 1745.00" xmlns="http://www.w3.org/2000/svg" xmlns:xlink="http://www.w3.org/1999/xlink">
<g id="graph0" class="graph" transform="scale(1 1) rotate(0) translate(4 1741)">
<title>G</title>
<polygon fill="white" stroke="none" points="-4,4 -4,-1741 1616,-1741 1616,4 -4,4"/>
<!-- 布隆维斯特 -->
<g id="node1" class="node">
<title>布隆维斯特</title>
<defs>
<radialGradient id="node1_r_0" cx="50%" cy="50%" r="75%" fx="50%" fy="50%">
<stop offset="0" style="stop-color:#00e673;stop-opacity:1.;"/>
<stop offset="1" style="stop-color:#009048;stop-opacity:1.;"/>
</radialGradient>
</defs>
<ellipse fill="url(#node1_r_0)" stroke="#00e673" cx="728.36" cy="-630.79" rx="61.7" ry="61.7"/>
<ellipse fill="none" stroke="#00e673" cx="728.36" cy="-630.79" rx="65.7" ry="65.7"/>
<text text-anchor="middle" x="728.36" y="-627.99" font-family="Times,serif" font-size="14.00" fill="#007339">布隆维斯特</text>
</g>
<!-- 莎兰德 -->
<g id="node2" class="node">
<title>莎兰德</title>
<defs>
<radialGradient id="node2_r_1" cx="50%" cy="50%" r="75%" fx="50%" fy="50%">
<stop offset="0" style="stop-color:#00e6e6;stop-opacity:1.;"/>
<stop offset="1" style="stop-color:#009090;stop-opacity:1.;"/>
</radialGradient>
</defs>
<ellipse fill="url(#node2_r_1)" stroke="#00e6e6" cx="1130.63" cy="-1145.38" rx="41.54" ry="41.54"/>
<ellipse fill="none" stroke="#00e6e6" cx="1130.63" cy="-1145.38" rx="45.54" ry="45.54"/>
<text text-anchor="middle" x="1130.63" y="-1142.58" font-family="Times,serif" font-size="14.00" fill="#007373">莎兰德</text>
</g>
<!-- 布隆维斯特&#45;&gt;莎兰德 -->
<g id="edge55" class="edge">
<title>布隆维斯特&#45;&gt;莎兰德</title>
<polygon fill="#009048" stroke="none" stroke-width="5" points="766.8,-684.03 779.83,-700.54 794.22,-718.77 809.8,-738.52 826.43,-759.58 843.93,-781.76 862.14,-804.84 880.92,-828.63 900.09,-852.92 919.49,-877.5 938.97,-902.19 958.36,-926.76 977.5,-951.01 996.24,-974.75 1014.41,-997.78 1031.85,-1019.87 1048.39,-1040.84 1063.89,-1060.48 1078.18,-1078.58 1091.1,-1094.95 1102.48,-1109.37 1102.48,-1109.37 1091.23,-1094.84 1078.47,-1078.36 1064.35,-1060.13 1049.03,-1040.34 1032.68,-1019.22 1015.44,-996.97 997.49,-973.78 978.97,-949.87 960.05,-925.43 940.89,-900.69 921.64,-875.83 902.46,-851.06 883.52,-826.6 864.96,-802.64 846.96,-779.38 829.67,-757.05 813.24,-735.83 797.83,-715.94 783.61,-697.58 770.74,-680.95 766.8,-684.03"/>
<text text-anchor="middle" x="825.93" y="-909.14" font-family="Times,serif" font-size="14.00" fill="#009048">被调查对象，拜托调查海莉案，床友</text>
</g>
<!-- 温纳斯壮 -->
<g id="node3" class="node">
<title>温纳斯壮</title>
<defs>
<radialGradient id="node3_r_2" cx="50%" cy="50%" r="75%" fx="50%" fy="50%">
<stop offset="0" style="stop-color:#0073e6;stop-opacity:1.;"/>
<stop offset="1" style="stop-color:#004890;stop-opacity:1.;"/>
</radialGradient>
</defs>
<ellipse fill="url(#node3_r_2)" stroke="#0073e6" cx="1116.54" cy="-711.65" rx="51.62" ry="20.51"/>
<text text-anchor="middle" x="1116.54" y="-708.85" font-family="Times,serif" font-size="14.00" fill="#90d8ff">温纳斯壮</text>
</g>
<!-- 布隆维斯特&#45;&gt;温纳斯壮 -->
<g id="edge59" class="edge">
<title>布隆维斯特&#45;&gt;温纳斯壮</title>
<polygon fill="#009048" stroke="none" stroke-width="5" points="792.38,-646.68 804.54,-649.1 817.38,-651.66 830.84,-654.34 844.82,-657.12 859.24,-659.99 874.01,-662.93 889.05,-665.93 904.28,-668.96 919.61,-672.01 934.95,-675.07 950.22,-678.11 965.33,-681.12 980.2,-684.08 994.75,-686.97 1008.89,-689.79 1022.53,-692.5 1035.59,-695.1 1047.98,-697.57 1059.63,-699.89 1070.44,-702.04 1070.44,-702.04 1059.67,-699.7 1048.07,-697.18 1035.72,-694.49 1022.71,-691.66 1009.11,-688.7 995.03,-685.64 980.54,-682.49 965.72,-679.26 950.66,-675.99 935.44,-672.68 920.16,-669.36 904.89,-666.03 889.72,-662.73 874.73,-659.47 860.01,-656.27 845.64,-653.15 831.72,-650.12 818.31,-647.2 805.51,-644.42 793.4,-641.79 792.38,-646.68"/>
<text text-anchor="middle" x="1056.32" y="-660.57" font-family="Times,serif" font-size="14.00" fill="#009048">调查政商贪污罪行，涉及国际金融犯罪</text>
</g>
<!-- 爱莉卡 -->
<g id="node5" class="node">
<title>爱莉卡</title>
<defs>
<radialGradient id="node5_r_3" cx="50%" cy="50%" r="75%" fx="50%" fy="50%">
<stop offset="0" style="stop-color:#7300e6;stop-opacity:1.;"/>
<stop offset="1" style="stop-color:#480090;stop-opacity:1.;"/>
</radialGradient>
</defs>
<ellipse fill="url(#node5_r_3)" stroke="#7300e6" cx="873.46" cy="-1025.72" rx="41.54" ry="20.51"/>
<text text-anchor="middle" x="873.46" y="-1022.92" font-family="Times,serif" font-size="14.00" fill="#d890ff">爱莉卡</text>
</g>
<!-- 布隆维斯特&#45;&gt;爱莉卡 -->
<g id="edge46" class="edge">
<title>布隆维斯特&#45;&gt;爱莉卡</title>
<polygon fill="#009048" stroke="none" stroke-width="5" points="748.68,-693.36 753.98,-707.46 759.65,-722.52 765.62,-738.43 771.87,-755.03 778.32,-772.2 784.94,-789.8 791.67,-807.69 798.45,-825.74 805.25,-843.82 812,-861.78 818.66,-879.49 825.17,-896.81 831.49,-913.62 837.56,-929.77 843.34,-945.13 848.76,-959.57 853.79,-972.94 858.37,-985.11 862.44,-995.95 865.96,-1005.32 865.96,-1005.32 862.58,-995.9 858.67,-985 854.28,-972.76 849.45,-959.31 844.24,-944.8 838.7,-929.35 832.87,-913.11 826.8,-896.21 820.55,-878.79 814.16,-860.98 807.68,-842.92 801.15,-824.75 794.64,-806.6 788.18,-788.61 781.83,-770.91 775.63,-753.65 769.64,-736.95 763.9,-720.96 758.46,-705.81 753.37,-691.64 748.68,-693.36"/>
<text text-anchor="middle" x="720.45" y="-869.08" font-family="Times,serif" font-size="14.00" fill="#009048">千禧年共有者，特殊男女关系</text>
</g>
<!-- 马丁 -->
<g id="node7" class="node">
<title>马丁</title>
<defs>
<radialGradient id="node7_r_4" cx="50%" cy="50%" r="75%" fx="50%" fy="50%">
<stop offset="0" style="stop-color:#e60073;stop-opacity:1.;"/>
<stop offset="1" style="stop-color:#900048;stop-opacity:1.;"/>
</radialGradient>
</defs>
<ellipse fill="url(#node7_r_4)" stroke="#e60073" cx="646.98" cy="-1085.76" rx="31.47" ry="20.51"/>
<text text-anchor="middle" x="646.98" y="-1082.96" font-family="Times,serif" font-size="14.00" fill="#730039">马丁</text>
</g>
<!-- 布隆维斯特&#45;&gt;马丁 -->
<g id="edge30" class="edge">
<title>布隆维斯特&#45;&gt;马丁</title>
<polygon fill="#009048" stroke="none" stroke-width="5" points="714.32,-695.05 711.5,-711.44 708.46,-729.1 705.24,-747.86 701.85,-767.54 698.34,-787.96 694.73,-808.96 691.05,-830.36 687.33,-851.97 683.6,-873.64 679.9,-895.18 676.24,-916.43 672.67,-937.19 669.21,-957.31 665.89,-976.6 662.75,-994.9 659.8,-1012.02 657.09,-1027.79 654.64,-1042.04 652.48,-1054.59 650.64,-1065.27 650.64,-1065.27 652.62,-1054.62 654.95,-1042.09 657.59,-1027.88 660.51,-1012.14 663.68,-995.06 667.07,-976.81 670.65,-957.57 674.37,-937.5 678.22,-916.78 682.16,-895.59 686.15,-874.1 690.17,-852.48 694.17,-830.91 698.14,-809.57 702.03,-788.62 705.81,-768.24 709.46,-748.61 712.93,-729.9 716.21,-712.28 719.24,-695.93 714.32,-695.05"/>
<text text-anchor="middle" x="602.65" y="-903.09" font-family="Times,serif" font-size="14.00" fill="#009048">发现其罪行，被关押折磨</text>
</g>
<!-- 海莉 -->
<g id="node8" class="node">
<title>海莉</title>
<defs>
<radialGradient id="node8_r_5" cx="50%" cy="50%" r="75%" fx="50%" fy="50%">
<stop offset="0" style="stop-color:#e60000;stop-opacity:1.;"/>
<stop offset="1" style="stop-color:#900000;stop-opacity:1.;"/>
</radialGradient>
</defs>
<ellipse fill="url(#node8_r_5)" stroke="#e60000" cx="528.05" cy="-1294.1" rx="31.47" ry="20.51"/>
<text text-anchor="middle" x="528.05" y="-1291.3" font-family="Times,serif" font-size="14.00" fill="#730000">海莉</text>
</g>
<!-- 布隆维斯特&#45;&gt;海莉 -->
<g id="edge29" class="edge">
<title>布隆维斯特&#45;&gt;海莉</title>
<polygon fill="#009048" stroke="none" stroke-width="5" points="706.85,-693.37 699.96,-716.5 692.28,-742.34 683.89,-770.54 674.9,-800.74 665.42,-832.61 655.55,-865.79 645.4,-899.94 635.05,-934.7 624.63,-969.74 614.23,-1004.7 603.96,-1039.24 593.91,-1073.01 584.2,-1105.65 574.92,-1136.84 566.19,-1166.2 558.09,-1193.41 550.75,-1218.1 544.25,-1239.94 538.71,-1258.58 534.22,-1273.66 534.22,-1273.66 538.83,-1258.62 544.53,-1240.03 551.2,-1218.24 558.75,-1193.61 567.07,-1166.47 576.05,-1137.18 585.58,-1106.07 595.57,-1073.51 605.89,-1039.82 616.45,-1005.37 627.14,-970.5 637.85,-935.55 648.48,-900.87 658.92,-866.81 669.06,-833.71 678.81,-801.92 688.04,-771.79 696.66,-743.66 704.56,-717.89 711.63,-694.81 706.85,-693.37"/>
<text text-anchor="middle" x="536.96" y="-1012.74" font-family="Times,serif" font-size="14.00" fill="#009048">发现诈死，劝与亨利见面</text>
</g>
<!-- 莫瑞尔 -->
<g id="node12" class="node">
<title>莫瑞尔</title>
<ellipse fill="none" stroke="#009000" cx="318.2" cy="-847.08" rx="41.54" ry="20.51"/>
<text text-anchor="middle" x="318.2" y="-844.28" font-family="Times,serif" font-size="14.00" fill="#009000">莫瑞尔</text>
</g>
<!-- 布隆维斯特&#45;&gt;莫瑞尔 -->
<g id="edge57" class="edge">
<title>布隆维斯特&#45;&gt;莫瑞尔</title>
<polygon fill="#009048" stroke="none" stroke-width="5" points="668.86,-659.34 654.96,-666.79 640.03,-674.79 624.21,-683.28 607.62,-692.17 590.4,-701.4 572.68,-710.9 554.6,-720.6 536.28,-730.42 517.87,-740.29 499.49,-750.14 481.28,-759.91 463.37,-769.51 445.89,-778.88 428.98,-787.94 412.77,-796.63 397.39,-804.88 382.98,-812.6 369.67,-819.74 357.59,-826.22 346.88,-831.96 346.88,-831.96 357.67,-826.36 369.84,-820.05 383.24,-813.1 397.76,-805.57 413.25,-797.54 429.57,-789.07 446.61,-780.24 464.21,-771.11 482.25,-761.75 500.59,-752.24 519.11,-742.64 537.65,-733.02 556.1,-723.45 574.32,-714 592.16,-704.75 609.51,-695.75 626.22,-687.09 642.16,-678.82 657.19,-671.02 671.19,-663.76 668.86,-659.34"/>
<text text-anchor="middle" x="435.92" y="-758.89" font-family="Times,serif" font-size="14.00" fill="#009048">获取海莉案调查资料</text>
</g>
<!-- 阿布哈姆森 -->
<g id="node17" class="node">
<title>阿布哈姆森</title>
<ellipse fill="none" stroke="#480090" cx="647.53" cy="-20.67" rx="61.7" ry="20.51"/>
<text text-anchor="middle" x="647.53" y="-17.87" font-family="Times,serif" font-size="14.00" fill="#480090">阿布哈姆森</text>
</g>
<!-- 布隆维斯特&#45;&gt;阿布哈姆森 -->
<g id="edge47" class="edge">
<title>布隆维斯特&#45;&gt;阿布哈姆森</title>
<polygon fill="#009048" stroke="none" stroke-width="5" points="722.15,-564.88 719.19,-543.33 715.92,-519.53 712.38,-493.78 708.62,-466.36 704.67,-437.58 700.57,-407.72 696.36,-377.08 692.09,-345.95 687.79,-314.63 683.5,-283.42 679.27,-252.6 675.13,-222.47 671.13,-193.33 667.31,-165.46 663.7,-139.18 660.34,-114.75 657.29,-92.49 654.57,-72.69 652.23,-55.64 650.3,-41.63 650.3,-41.63 652.09,-55.65 654.27,-72.73 656.8,-92.56 659.65,-114.85 662.77,-139.3 666.13,-165.62 669.69,-193.52 673.42,-222.7 677.27,-252.86 681.21,-283.72 685.2,-314.97 689.2,-346.33 693.18,-377.5 697.1,-408.17 700.92,-438.07 704.6,-466.89 708.1,-494.35 711.39,-520.13 714.43,-543.96 717.19,-565.54 722.15,-564.88"/>
<text text-anchor="middle" x="668.1" y="-291.27" font-family="Times,serif" font-size="14.00" fill="#009048">前妻</text>
</g>
<!-- 安妮卡 -->
<g id="node20" class="node">
<title>安妮卡</title>
<ellipse fill="none" stroke="#900000" cx="423.44" cy="-175.4" rx="41.54" ry="20.51"/>
<text text-anchor="middle" x="423.44" y="-172.6" font-family="Times,serif" font-size="14.00" fill="#900000">安妮卡</text>
</g>
<!-- 布隆维斯特&#45;&gt;安妮卡 -->
<g id="edge39" class="edge">
<title>布隆维斯特&#45;&gt;安妮卡</title>
<polygon fill="#009048" stroke="none" stroke-width="5" points="693.65,-574.47 682.81,-558.46 670.97,-540.99 658.26,-522.23 644.81,-502.38 630.76,-481.64 616.24,-460.21 601.37,-438.26 586.29,-416.01 571.14,-393.63 556.03,-371.33 541.1,-349.3 526.49,-327.74 512.32,-306.83 498.73,-286.76 485.85,-267.75 473.8,-249.97 462.73,-233.62 452.75,-218.9 444.01,-205.99 436.63,-195.1 436.63,-195.1 443.89,-206.07 452.49,-219.07 462.31,-233.9 473.2,-250.37 485.05,-268.28 497.73,-287.44 511.1,-307.64 525.04,-328.71 539.41,-350.43 554.1,-372.63 568.96,-395.09 583.87,-417.63 598.71,-440.04 613.34,-462.15 627.63,-483.74 641.45,-504.64 654.68,-524.63 667.18,-543.52 678.83,-561.13 689.5,-577.25 693.65,-574.47"/>
<text text-anchor="middle" x="540.81" y="-379.68" font-family="Times,serif" font-size="14.00" fill="#009048">妹妹</text>
</g>
<!-- 布隆柏 -->
<g id="node27" class="node">
<title>布隆柏</title>
<ellipse fill="none" stroke="#004890" cx="905.1" cy="-105.26" rx="41.54" ry="20.51"/>
<text text-anchor="middle" x="905.1" y="-102.46" font-family="Times,serif" font-size="14.00" fill="#004890">布隆柏</text>
</g>
<!-- 布隆维斯特&#45;&gt;布隆柏 -->
<g id="edge15" class="edge">
<title>布隆维斯特&#45;&gt;布隆柏</title>
<polygon fill="#009048" stroke="none" stroke-width="5" points="751.78,-568.98 757.97,-550.25 764.74,-529.76 772.01,-507.74 779.71,-484.43 787.76,-460.06 796.09,-434.86 804.61,-409.07 813.25,-382.91 821.93,-356.63 830.58,-330.45 839.12,-304.61 847.46,-279.34 855.55,-254.88 863.29,-231.45 870.6,-209.29 877.43,-188.64 883.68,-169.73 889.27,-152.78 894.14,-138.04 898.21,-125.74 898.21,-125.74 894.01,-138 888.98,-152.68 883.21,-169.57 876.75,-188.41 869.71,-208.99 862.16,-231.07 854.17,-254.41 845.82,-278.79 837.2,-303.97 828.39,-329.71 819.46,-355.8 810.5,-381.99 801.58,-408.05 792.78,-433.75 784.19,-458.86 775.88,-483.14 767.93,-506.37 760.42,-528.31 753.43,-548.72 747.04,-567.38 751.78,-568.98"/>
<text text-anchor="middle" x="779.61" y="-337.78" font-family="Times,serif" font-size="14.00" fill="#009048">从照片发现线索</text>
</g>
<!-- 蕾贝卡 -->
<g id="node29" class="node">
<title>蕾贝卡</title>
<ellipse fill="none" stroke="#480090" cx="989.65" cy="-846.71" rx="41.54" ry="20.51"/>
<text text-anchor="middle" x="989.65" y="-843.91" font-family="Times,serif" font-size="14.00" fill="#480090">蕾贝卡</text>
</g>
<!-- 布隆维斯特&#45;&gt;蕾贝卡 -->
<g id="edge13" class="edge">
<title>布隆维斯特&#45;&gt;蕾贝卡</title>
<polygon fill="#009048" stroke="none" stroke-width="5" points="777.76,-674.86 786.67,-682.07 796.02,-689.64 805.75,-697.51 815.79,-705.64 826.08,-713.96 836.56,-722.45 847.16,-731.03 857.83,-739.66 868.5,-748.3 879.11,-756.88 889.59,-765.37 899.89,-773.71 909.94,-781.84 919.69,-789.73 929.06,-797.31 937.99,-804.54 946.42,-811.37 954.3,-817.74 961.55,-823.61 968.12,-828.93 968.12,-828.93 961.66,-823.48 954.53,-817.46 946.79,-810.93 938.49,-803.93 929.71,-796.52 920.5,-788.74 910.92,-780.66 901.03,-772.32 890.91,-763.78 880.6,-755.08 870.17,-746.28 859.67,-737.43 849.18,-728.58 838.76,-719.78 828.45,-711.09 818.34,-702.55 808.47,-694.22 798.9,-686.16 789.71,-678.4 780.95,-671.01 777.76,-674.86"/>
<text text-anchor="middle" x="772.98" y="-763.68" font-family="Times,serif" font-size="14.00" fill="#009048">猜测海莉与蕾贝卡涉及宗教的联系</text>
</g>
<!-- 米尔德里德 -->
<g id="node31" class="node">
<title>米尔德里德</title>
<ellipse fill="none" stroke="#900048" cx="194.39" cy="-384.41" rx="61.7" ry="20.51"/>
<text text-anchor="middle" x="194.39" y="-381.61" font-family="Times,serif" font-size="14.00" fill="#900048">米尔德里德</text>
</g>
<!-- 布隆维斯特&#45;&gt;米尔德里德 -->
<g id="edge9" class="edge">
<title>布隆维斯特&#45;&gt;米尔德里德</title>
<polygon fill="#009048" stroke="none" stroke-width="5" points="669.45,-600.86 651.81,-592.83 632.51,-584.05 611.75,-574.6 589.73,-564.58 566.66,-554.07 542.72,-543.18 518.13,-531.99 493.09,-520.59 467.81,-509.08 442.47,-497.55 417.29,-486.09 392.47,-474.8 368.21,-463.75 344.71,-453.06 322.17,-442.8 300.8,-433.07 280.8,-423.97 262.37,-415.58 245.71,-408 231.02,-401.32 231.02,-401.32 245.64,-408.15 262.22,-415.91 280.56,-424.48 300.47,-433.8 321.73,-443.74 344.16,-454.23 367.55,-465.17 391.7,-476.47 416.4,-488.02 441.46,-499.74 466.68,-511.54 491.84,-523.31 516.76,-534.96 541.23,-546.41 565.05,-557.55 588.02,-568.29 609.94,-578.54 630.6,-588.2 649.8,-597.19 667.35,-605.4 669.45,-600.86"/>
<text text-anchor="middle" x="356.47" y="-506.35" font-family="Times,serif" font-size="14.00" fill="#009048">挖掘照片中海莉震惊的东西</text>
</g>
<!-- 莎兰德&#45;&gt;温纳斯壮 -->
<g id="edge52" class="edge">
<title>莎兰德&#45;&gt;温纳斯壮</title>
<polygon fill="#009090" stroke="none" stroke-width="5" points="1124.12,-1100.25 1122.5,-1091.73 1120.81,-1082.65 1119.08,-1073.03 1117.32,-1062.91 1115.53,-1052.34 1113.75,-1041.35 1111.98,-1029.99 1110.24,-1018.3 1108.55,-1006.32 1106.92,-994.08 1105.36,-981.63 1103.9,-969.01 1102.55,-956.26 1101.32,-943.41 1100.23,-930.52 1099.3,-917.62 1098.53,-904.75 1097.96,-891.94 1097.58,-879.25 1097.42,-866.72 1097.47,-859.39 1097.65,-851.97 1097.95,-844.48 1098.36,-836.94 1098.88,-829.39 1099.48,-821.85 1100.18,-814.35 1100.94,-806.91 1101.77,-799.56 1102.65,-792.33 1103.58,-785.24 1104.54,-778.31 1105.52,-771.58 1106.52,-765.07 1107.52,-758.81 1108.52,-752.82 1109.5,-747.13 1110.45,-741.76 1111.37,-736.74 1112.24,-732.11 1112.24,-732.11 1111.31,-736.73 1110.32,-741.73 1109.29,-747.09 1108.24,-752.77 1107.16,-758.75 1106.08,-765 1104.99,-771.5 1103.92,-778.22 1102.86,-785.14 1101.84,-792.22 1100.86,-799.45 1099.93,-806.8 1099.06,-814.24 1098.27,-821.74 1097.56,-829.29 1096.94,-836.85 1096.42,-844.39 1096.02,-851.9 1095.74,-859.35 1095.6,-866.71 1095.58,-879.28 1095.79,-892.01 1096.19,-904.85 1096.79,-917.77 1097.55,-930.71 1098.47,-943.65 1099.53,-956.54 1100.71,-969.34 1102,-982.01 1103.39,-994.51 1104.87,-1006.8 1106.4,-1018.83 1107.98,-1030.58 1109.6,-1041.98 1111.24,-1053.02 1112.89,-1063.64 1114.52,-1073.8 1116.13,-1083.47 1117.69,-1092.6 1119.2,-1101.15 1124.12,-1100.25"/>
<text text-anchor="middle" x="1041.03" y="-925.19" font-family="Times,serif" font-size="14.00" fill="#009090">揭露国际金融罪行</text>
</g>
<!-- 莎兰德&#45;&gt;马丁 -->
<g id="edge26" class="edge">
<title>莎兰德&#45;&gt;马丁</title>
<polygon fill="#009090" stroke="none" stroke-width="5" points="1085.43,-1137.29 1069.88,-1135.47 1052.6,-1133.45 1033.79,-1131.24 1013.66,-1128.89 992.41,-1126.4 970.24,-1123.8 947.36,-1121.12 923.98,-1118.39 900.29,-1115.61 876.51,-1112.83 852.83,-1110.06 829.47,-1107.32 806.62,-1104.64 784.49,-1102.05 763.29,-1099.57 743.21,-1097.22 724.47,-1095.03 707.27,-1093.01 691.8,-1091.2 678.29,-1089.62 678.29,-1089.62 691.78,-1091.37 707.22,-1093.36 724.4,-1095.59 743.11,-1098.01 763.16,-1100.61 784.33,-1103.35 806.43,-1106.21 829.24,-1109.16 852.57,-1112.18 876.21,-1115.24 899.96,-1118.32 923.61,-1121.38 946.96,-1124.4 969.8,-1127.36 991.94,-1130.23 1013.16,-1132.97 1033.26,-1135.58 1052.04,-1138.01 1069.3,-1140.24 1084.82,-1142.25 1085.43,-1137.29"/>
<text text-anchor="middle" x="826.49" y="-1121.74" font-family="Times,serif" font-size="14.00" fill="#009090">追捕导致其自杀</text>
</g>
<!-- 毕尔曼 -->
<g id="node10" class="node">
<title>毕尔曼</title>
<defs>
<radialGradient id="node10_r_6" cx="50%" cy="50%" r="75%" fx="50%" fy="50%">
<stop offset="0" style="stop-color:#e6e600;stop-opacity:1.;"/>
<stop offset="1" style="stop-color:#909000;stop-opacity:1.;"/>
</radialGradient>
</defs>
<ellipse fill="url(#node10_r_6)" stroke="#e6e600" cx="1459.12" cy="-1481.18" rx="41.54" ry="20.51"/>
<text text-anchor="middle" x="1459.12" y="-1478.38" font-family="Times,serif" font-size="14.00" fill="#737300">毕尔曼</text>
</g>
<!-- 莎兰德&#45;&gt;毕尔曼 -->
<g id="edge19" class="edge">
<title>莎兰德&#45;&gt;毕尔曼</title>
<polygon fill="#009090" stroke="none" stroke-width="5" points="1160.94,-1179.94 1171.84,-1190.95 1183.94,-1203.16 1197.09,-1216.43 1211.14,-1230.62 1225.95,-1245.57 1241.37,-1261.14 1257.27,-1277.18 1273.49,-1293.56 1289.89,-1310.11 1306.32,-1326.7 1322.65,-1343.18 1338.72,-1359.41 1354.39,-1375.23 1369.53,-1390.51 1383.97,-1405.09 1397.58,-1418.83 1410.21,-1431.58 1421.72,-1443.2 1431.97,-1453.54 1440.8,-1462.46 1440.8,-1462.46 1432.08,-1453.43 1421.97,-1442.96 1410.6,-1431.2 1398.13,-1418.29 1384.69,-1404.38 1370.44,-1389.62 1355.5,-1374.15 1340.02,-1358.13 1324.16,-1341.71 1308.04,-1325.02 1291.81,-1308.23 1275.62,-1291.47 1259.61,-1274.89 1243.92,-1258.65 1228.69,-1242.88 1214.07,-1227.75 1200.2,-1213.39 1187.22,-1199.95 1175.28,-1187.59 1164.51,-1176.44 1160.94,-1179.94"/>
<text text-anchor="middle" x="1421.18" y="-1333.56" font-family="Times,serif" font-size="14.00" fill="#009090">第二任监护人，被侵犯，后设计反制</text>
</g>
<!-- 阿曼斯基 -->
<g id="node15" class="node">
<title>阿曼斯基</title>
<ellipse fill="none" stroke="#004890" cx="1037.1" cy="-1511.44" rx="51.62" ry="20.51"/>
<text text-anchor="middle" x="1037.1" y="-1508.64" font-family="Times,serif" font-size="14.00" fill="#004890">阿曼斯基</text>
</g>
<!-- 莎兰德&#45;&gt;阿曼斯基 -->
<g id="edge53" class="edge">
<title>莎兰德&#45;&gt;阿曼斯基</title>
<polygon fill="#009090" stroke="none" stroke-width="5" points="1116.55,-1188.99 1115.13,-1194.57 1113.65,-1200.38 1112.13,-1206.4 1110.55,-1212.62 1108.93,-1219.02 1107.27,-1225.58 1105.58,-1232.28 1103.85,-1239.11 1102.1,-1246.05 1100.33,-1253.08 1098.55,-1260.18 1096.75,-1267.34 1094.94,-1274.54 1093.13,-1281.76 1091.33,-1288.99 1089.53,-1296.2 1087.74,-1303.39 1085.96,-1310.52 1084.21,-1317.6 1082.48,-1324.59 1080.23,-1333.71 1077.96,-1342.96 1075.67,-1352.3 1073.37,-1361.7 1071.07,-1371.12 1068.78,-1380.53 1066.5,-1389.89 1064.25,-1399.17 1062.03,-1408.32 1059.86,-1417.32 1057.73,-1426.12 1055.67,-1434.7 1053.66,-1443 1051.74,-1451.01 1049.9,-1458.68 1048.14,-1465.98 1046.49,-1472.87 1044.95,-1479.31 1043.52,-1485.27 1042.22,-1490.72 1042.22,-1490.72 1043.61,-1485.3 1045.13,-1479.36 1046.78,-1472.94 1048.54,-1466.08 1050.41,-1458.81 1052.38,-1451.17 1054.43,-1443.19 1056.56,-1434.92 1058.77,-1426.38 1061.04,-1417.61 1063.36,-1408.65 1065.72,-1399.54 1068.12,-1390.3 1070.54,-1380.98 1072.99,-1371.61 1075.44,-1362.22 1077.89,-1352.86 1080.33,-1343.56 1082.75,-1334.35 1085.14,-1325.27 1086.99,-1318.31 1088.85,-1311.27 1090.74,-1304.16 1092.65,-1297.01 1094.56,-1289.82 1096.48,-1282.63 1098.41,-1275.44 1100.33,-1268.27 1102.24,-1261.14 1104.14,-1254.07 1106.02,-1247.07 1107.89,-1240.16 1109.72,-1233.36 1111.52,-1226.69 1113.28,-1220.16 1115.01,-1213.79 1116.68,-1207.6 1118.31,-1201.6 1119.88,-1195.81 1121.38,-1190.26 1116.55,-1188.99"/>
<text text-anchor="middle" x="987.36" y="-1347.63" font-family="Times,serif" font-size="14.00" fill="#009090">上司，关系很好，父女般关系</text>
</g>
<!-- 潘格兰 -->
<g id="node16" class="node">
<title>潘格兰</title>
<ellipse fill="none" stroke="#000090" cx="1570.09" cy="-1298.92" rx="41.54" ry="20.51"/>
<text text-anchor="middle" x="1570.09" y="-1296.12" font-family="Times,serif" font-size="14.00" fill="#000090">潘格兰</text>
</g>
<!-- 莎兰德&#45;&gt;潘格兰 -->
<g id="edge51" class="edge">
<title>莎兰德&#45;&gt;潘格兰</title>
<polygon fill="#009090" stroke="none" stroke-width="5" points="1173.14,-1162.88 1187.05,-1167.64 1202.41,-1172.89 1219.05,-1178.59 1236.82,-1184.66 1255.53,-1191.07 1275.03,-1197.74 1295.14,-1204.61 1315.7,-1211.65 1336.53,-1218.77 1357.47,-1225.94 1378.35,-1233.08 1399,-1240.14 1419.25,-1247.07 1438.94,-1253.8 1457.89,-1260.29 1475.94,-1266.46 1492.92,-1272.27 1508.66,-1277.65 1522.99,-1282.55 1535.74,-1286.92 1535.74,-1286.92 1523.04,-1282.39 1508.78,-1277.3 1493.11,-1271.71 1476.21,-1265.68 1458.25,-1259.27 1439.38,-1252.54 1419.78,-1245.55 1399.62,-1238.36 1379.07,-1231.03 1358.28,-1223.62 1337.44,-1216.18 1316.7,-1208.78 1296.24,-1201.48 1276.22,-1194.34 1256.81,-1187.42 1238.18,-1180.77 1220.49,-1174.46 1203.92,-1168.55 1188.63,-1163.1 1174.79,-1158.16 1173.14,-1162.88"/>
<text text-anchor="middle" x="1272.38" y="-1232.48" font-family="Times,serif" font-size="14.00" fill="#009090">第一个监护人，父女般关系</text>
</g>
<!-- 法尔克 -->
<g id="node25" class="node">
<title>法尔克</title>
<ellipse fill="none" stroke="#009048" cx="831.21" cy="-1478.66" rx="41.54" ry="20.51"/>
<text text-anchor="middle" x="831.21" y="-1475.86" font-family="Times,serif" font-size="14.00" fill="#009048">法尔克</text>
</g>
<!-- 莎兰德&#45;&gt;法尔克 -->
<g id="edge22" class="edge">
<title>莎兰德&#45;&gt;法尔克</title>
<polygon fill="#009090" stroke="none" stroke-width="5" points="1098.13,-1177.81 1088.28,-1188.93 1077.39,-1201.21 1065.59,-1214.52 1053.02,-1228.7 1039.79,-1243.63 1026.03,-1259.15 1011.87,-1275.13 997.43,-1291.41 982.84,-1307.87 968.23,-1324.36 953.71,-1340.73 939.43,-1356.85 925.49,-1372.56 912.04,-1387.74 899.19,-1402.24 887.07,-1415.91 875.81,-1428.62 865.52,-1440.21 856.35,-1450.56 848.41,-1459.52 848.41,-1459.52 856.47,-1450.67 865.78,-1440.44 876.21,-1428.98 887.64,-1416.43 899.94,-1402.92 912.99,-1388.59 926.64,-1373.6 940.78,-1358.06 955.28,-1342.14 970.01,-1325.96 984.84,-1309.67 999.65,-1293.41 1014.3,-1277.31 1028.67,-1261.53 1042.64,-1246.19 1056.06,-1231.44 1068.83,-1217.42 1080.8,-1204.28 1091.85,-1192.14 1101.85,-1181.15 1098.13,-1177.81"/>
<text text-anchor="middle" x="862.24" y="-1311.86" font-family="Times,serif" font-size="14.00" fill="#009090">海莉失踪涉及到宗教，怀疑的对象</text>
</g>
<!-- 莎兰德&#45;&gt;蕾贝卡 -->
<g id="edge10" class="edge">
<title>莎兰德&#45;&gt;蕾贝卡</title>
<polygon fill="#009090" stroke="none" stroke-width="5" points="1113.29,-1102.78 1108.38,-1092.65 1103.1,-1081.74 1097.5,-1070.15 1091.62,-1057.99 1085.51,-1045.36 1079.22,-1032.35 1072.79,-1019.07 1066.28,-1005.62 1059.74,-992.09 1053.2,-978.58 1046.73,-965.2 1040.36,-952.04 1034.16,-939.21 1028.15,-926.8 1022.4,-914.92 1016.96,-903.66 1011.86,-893.12 1007.16,-883.4 1002.91,-874.61 999.15,-866.85 999.15,-866.85 1002.76,-874.68 1006.84,-883.55 1011.36,-893.36 1016.25,-903.99 1021.48,-915.35 1027,-927.34 1032.77,-939.86 1038.73,-952.81 1044.84,-966.09 1051.06,-979.59 1057.34,-993.22 1063.62,-1006.87 1069.87,-1020.45 1076.04,-1033.85 1082.09,-1046.98 1087.96,-1059.72 1093.6,-1071.99 1098.99,-1083.68 1104.05,-1094.69 1108.76,-1104.92 1113.29,-1102.78"/>
<text text-anchor="middle" x="888.26" y="-986.79" font-family="Times,serif" font-size="14.00" fill="#009090">找到海莉笔记的人和蕾贝卡案与的范耶尔家族的关联</text>
</g>
<!-- 黄蜂 -->
<g id="node35" class="node">
<title>黄蜂</title>
<ellipse fill="none" stroke="#489000" cx="1494.95" cy="-925.92" rx="31.47" ry="20.51"/>
<text text-anchor="middle" x="1494.95" y="-923.12" font-family="Times,serif" font-size="14.00" fill="#489000">黄蜂</text>
</g>
<!-- 莎兰德&#45;&gt;黄蜂 -->
<g id="edge4" class="edge">
<title>莎兰德&#45;&gt;黄蜂</title>
<polygon fill="#009090" stroke="none" stroke-width="5" points="1171.25,-1123.83 1183.24,-1116.49 1196.41,-1108.43 1210.63,-1099.73 1225.73,-1090.48 1241.59,-1080.77 1258.06,-1070.69 1274.99,-1060.33 1292.24,-1049.77 1309.66,-1039.11 1327.12,-1028.43 1344.46,-1017.81 1361.54,-1007.35 1378.23,-997.14 1394.37,-987.26 1409.82,-977.8 1424.44,-968.85 1438.09,-960.5 1450.61,-952.84 1461.87,-945.94 1471.72,-939.92 1471.72,-939.92 1461.78,-945.8 1450.43,-952.53 1437.8,-960.02 1424.04,-968.18 1409.29,-976.92 1393.71,-986.16 1377.43,-995.81 1360.6,-1005.78 1343.37,-1016 1325.87,-1026.36 1308.27,-1036.8 1290.7,-1047.22 1273.3,-1057.53 1256.22,-1067.65 1239.62,-1077.49 1223.62,-1086.97 1208.38,-1096.01 1194.05,-1104.5 1180.77,-1112.38 1168.67,-1119.54 1171.25,-1123.83"/>
<text text-anchor="middle" x="1312.24" y="-1035.09" font-family="Times,serif" font-size="14.00" fill="#009090">代号</text>
</g>
<!-- 博格 -->
<g id="node13" class="node">
<title>博格</title>
<ellipse fill="none" stroke="#009048" cx="1215.03" cy="-442.81" rx="31.47" ry="20.51"/>
<text text-anchor="middle" x="1215.03" y="-440.01" font-family="Times,serif" font-size="14.00" fill="#009048">博格</text>
</g>
<!-- 温纳斯壮&#45;&gt;博格 -->
<g id="edge60" class="edge">
<title>温纳斯壮&#45;&gt;博格</title>
<polygon fill="#004890" stroke="none" stroke-width="5" points="1126.46,-691.86 1129.33,-683.74 1132.59,-674.57 1136.17,-664.46 1140.05,-653.54 1144.17,-641.92 1148.5,-629.71 1152.99,-617.04 1157.61,-604.02 1162.31,-590.76 1167.05,-577.39 1171.8,-564.03 1176.49,-550.78 1181.11,-537.77 1185.6,-525.11 1189.92,-512.93 1194.03,-501.33 1197.9,-490.44 1201.47,-480.37 1204.71,-471.24 1207.57,-463.16 1207.57,-463.16 1204.54,-471.17 1201.12,-480.24 1197.34,-490.23 1193.25,-501.04 1188.9,-512.55 1184.33,-524.65 1179.58,-537.21 1174.7,-550.12 1169.72,-563.27 1164.71,-576.53 1159.69,-589.8 1154.72,-602.96 1149.83,-615.88 1145.08,-628.46 1140.5,-640.57 1136.14,-652.11 1132.04,-662.95 1128.25,-672.98 1124.81,-682.08 1121.76,-690.14 1126.46,-691.86"/>
<text text-anchor="middle" x="1151.63" y="-584.66" font-family="Times,serif" font-size="14.00" fill="#004890">下属</text>
</g>
<!-- 达曼 -->
<g id="node30" class="node">
<title>达曼</title>
<ellipse fill="none" stroke="#900090" cx="1078.21" cy="-381.01" rx="31.47" ry="20.51"/>
<text text-anchor="middle" x="1078.21" y="-378.21" font-family="Times,serif" font-size="14.00" fill="#900090">达曼</text>
</g>
<!-- 温纳斯壮&#45;&gt;达曼 -->
<g id="edge11" class="edge">
<title>温纳斯壮&#45;&gt;达曼</title>
<polygon fill="#004890" stroke="none" stroke-width="5" points="1116.6,-690.42 1115.39,-680.69 1113.99,-669.46 1112.42,-656.91 1110.71,-643.2 1108.88,-628.5 1106.94,-612.96 1104.92,-596.77 1102.84,-580.09 1100.72,-563.07 1098.58,-545.89 1096.44,-528.71 1094.32,-511.7 1092.24,-495.03 1090.22,-478.86 1088.29,-463.35 1086.46,-448.68 1084.76,-435.01 1083.2,-422.5 1081.8,-411.32 1080.6,-401.64 1080.6,-401.64 1081.64,-411.34 1082.84,-422.54 1084.18,-435.07 1085.65,-448.77 1087.23,-463.48 1088.9,-479.01 1090.63,-495.22 1092.43,-511.92 1094.25,-528.97 1096.1,-546.18 1097.95,-563.39 1099.77,-580.44 1101.57,-597.16 1103.31,-613.39 1104.98,-628.95 1106.56,-643.68 1108.03,-657.42 1109.38,-670 1110.59,-681.25 1111.63,-691 1116.6,-690.42"/>
<text text-anchor="middle" x="1040.34" y="-553.73" font-family="Times,serif" font-size="14.00" fill="#004890">派去千禧年的卧底</text>
</g>
<!-- 弗洛德 -->
<g id="node4" class="node">
<title>弗洛德</title>
<defs>
<radialGradient id="node4_r_7" cx="50%" cy="50%" r="75%" fx="50%" fy="50%">
<stop offset="0" style="stop-color:#0000e6;stop-opacity:1.;"/>
<stop offset="1" style="stop-color:#000090;stop-opacity:1.;"/>
</radialGradient>
</defs>
<ellipse fill="url(#node4_r_7)" stroke="#0000e6" cx="790.07" cy="-1175.33" rx="41.54" ry="20.51"/>
<text text-anchor="middle" x="790.07" y="-1172.53" font-family="Times,serif" font-size="14.00" fill="#9090ff">弗洛德</text>
</g>
<!-- 弗洛德&#45;&gt;布隆维斯特 -->
<g id="edge48" class="edge">
<title>弗洛德&#45;&gt;布隆维斯特</title>
<polygon fill="#000090" stroke="none" stroke-width="5" points="790.21,-1154.37 788.71,-1141.76 786.91,-1126.63 784.84,-1109.2 782.53,-1089.72 780,-1068.43 777.28,-1045.57 774.41,-1021.38 771.41,-996.12 768.3,-970 765.13,-943.29 761.91,-916.22 758.68,-889.03 755.47,-861.96 752.29,-835.26 749.19,-809.17 746.19,-783.92 743.32,-759.76 740.61,-736.94 738.08,-715.69 735.77,-696.25 735.77,-696.25 737.87,-715.71 740.17,-736.99 742.63,-759.84 745.24,-784.03 747.97,-809.31 750.78,-835.43 753.67,-862.17 756.59,-889.27 759.53,-916.49 762.45,-943.6 765.33,-970.34 768.15,-996.48 770.88,-1021.78 773.49,-1046 775.96,-1068.88 778.26,-1090.2 780.36,-1109.7 782.25,-1127.16 783.88,-1142.31 785.24,-1154.93 790.21,-1154.37"/>
<text text-anchor="middle" x="706.79" y="-951.14" font-family="Times,serif" font-size="14.00" fill="#000090">调查海莉案委托人</text>
</g>
<!-- 弗洛德&#45;&gt;莎兰德 -->
<g id="edge49" class="edge">
<title>弗洛德&#45;&gt;莎兰德</title>
<polygon fill="#000090" stroke="none" stroke-width="5" points="831.37,-1174.21 841.38,-1173.23 852.19,-1172.17 863.71,-1171.04 875.86,-1169.86 888.54,-1168.61 901.68,-1167.33 915.19,-1166.01 928.97,-1164.66 942.95,-1163.29 957.03,-1161.91 971.14,-1160.53 985.18,-1159.16 999.07,-1157.8 1012.72,-1156.46 1026.04,-1155.16 1038.96,-1153.9 1051.38,-1152.68 1063.21,-1151.52 1074.38,-1150.43 1084.79,-1149.41 1084.79,-1149.41 1074.36,-1150.23 1063.18,-1151.1 1051.32,-1152.02 1038.88,-1153 1025.94,-1154.01 1012.59,-1155.05 998.92,-1156.11 985.01,-1157.2 970.94,-1158.3 956.81,-1159.4 942.7,-1160.5 928.7,-1161.6 914.89,-1162.67 901.37,-1163.73 888.2,-1164.76 875.5,-1165.75 863.33,-1166.7 851.79,-1167.6 840.96,-1168.44 830.93,-1169.23 831.37,-1174.21"/>
<text text-anchor="middle" x="1021.05" y="-1147.36" font-family="Times,serif" font-size="14.00" fill="#000090">委托调查布隆维斯特</text>
</g>
<!-- 亨利 -->
<g id="node6" class="node">
<title>亨利</title>
<defs>
<radialGradient id="node6_r_8" cx="50%" cy="50%" r="75%" fx="50%" fy="50%">
<stop offset="0" style="stop-color:#e600e6;stop-opacity:1.;"/>
<stop offset="1" style="stop-color:#900090;stop-opacity:1.;"/>
</radialGradient>
</defs>
<ellipse fill="url(#node6_r_8)" stroke="#e600e6" cx="414.91" cy="-1069.68" rx="31.47" ry="20.51"/>
<text text-anchor="middle" x="414.91" y="-1066.88" font-family="Times,serif" font-size="14.00" fill="#730073">亨利</text>
</g>
<!-- 弗洛德&#45;&gt;亨利 -->
<g id="edge50" class="edge">
<title>弗洛德&#45;&gt;亨利</title>
<polygon fill="#000090" stroke="none" stroke-width="5" points="754.44,-1162.7 742.6,-1159.46 729.51,-1155.89 715.3,-1152 700.12,-1147.86 684.12,-1143.48 667.44,-1138.93 650.23,-1134.22 632.63,-1129.41 614.79,-1124.54 596.85,-1119.64 578.96,-1114.75 561.26,-1109.91 543.9,-1105.17 527.03,-1100.56 510.79,-1096.12 495.32,-1091.89 480.77,-1087.92 467.29,-1084.23 455.02,-1080.88 444.11,-1077.9 444.11,-1077.9 454.98,-1081.05 467.19,-1084.59 480.61,-1088.49 495.09,-1092.69 510.49,-1097.15 526.67,-1101.84 543.47,-1106.72 560.75,-1111.73 578.37,-1116.84 596.18,-1122.01 614.04,-1127.19 631.81,-1132.34 649.33,-1137.42 666.47,-1142.39 683.07,-1147.21 699.01,-1151.83 714.12,-1156.21 728.26,-1160.31 741.3,-1164.09 753.08,-1167.51 754.44,-1162.7"/>
<text text-anchor="middle" x="582.26" y="-1128.52" font-family="Times,serif" font-size="14.00" fill="#000090">老板</text>
</g>
<!-- 爱莉卡&#45;&gt;温纳斯壮 -->
<g id="edge45" class="edge">
<title>爱莉卡&#45;&gt;温纳斯壮</title>
<polygon fill="#480090" stroke="none" stroke-width="5" points="899.6,-1010.99 905.88,-1006.4 912.71,-1001.33 920.01,-995.78 927.72,-989.78 935.8,-983.34 944.18,-976.49 952.8,-969.25 961.62,-961.62 970.58,-953.64 979.61,-945.31 988.66,-936.66 997.68,-927.7 1006.61,-918.46 1015.39,-908.94 1023.97,-899.18 1032.29,-889.18 1040.3,-878.97 1047.93,-868.56 1055.13,-857.98 1061.85,-847.24 1065.23,-841.42 1068.52,-835.47 1071.72,-829.4 1074.83,-823.24 1077.84,-817 1080.76,-810.73 1083.58,-804.44 1086.3,-798.15 1088.91,-791.9 1091.43,-785.7 1093.83,-779.59 1096.13,-773.58 1098.31,-767.7 1100.38,-761.97 1102.34,-756.43 1104.18,-751.09 1105.9,-745.98 1107.5,-741.12 1108.97,-736.55 1110.32,-732.27 1110.32,-732.27 1108.91,-736.53 1107.37,-741.08 1105.71,-745.91 1103.92,-751 1102,-756.31 1099.97,-761.82 1097.82,-767.51 1095.55,-773.36 1093.18,-779.33 1090.69,-785.4 1088.09,-791.56 1085.39,-797.76 1082.59,-804 1079.69,-810.23 1076.69,-816.45 1073.6,-822.62 1070.42,-828.72 1067.15,-834.72 1063.79,-840.6 1060.35,-846.32 1053.52,-856.91 1046.22,-867.33 1038.48,-877.57 1030.38,-887.61 1021.97,-897.44 1013.3,-907.03 1004.43,-916.37 995.42,-925.44 986.32,-934.22 977.2,-942.7 968.09,-950.86 959.08,-958.68 950.2,-966.14 941.51,-973.23 933.08,-979.93 924.96,-986.22 917.2,-992.08 909.87,-997.49 903.01,-1002.45 896.68,-1006.93 899.6,-1010.99"/>
<text text-anchor="middle" x="1014.63" y="-899.06" font-family="Times,serif" font-size="14.00" fill="#480090">对抗</text>
</g>
<!-- 贝克曼 -->
<g id="node18" class="node">
<title>贝克曼</title>
<ellipse fill="none" stroke="#900090" cx="1155.27" cy="-1325.06" rx="41.54" ry="20.51"/>
<text text-anchor="middle" x="1155.27" y="-1322.26" font-family="Times,serif" font-size="14.00" fill="#900090">贝克曼</text>
</g>
<!-- 爱莉卡&#45;&gt;贝克曼 -->
<g id="edge44" class="edge">
<title>爱莉卡&#45;&gt;贝克曼</title>
<polygon fill="#480090" stroke="none" stroke-width="5" points="889.27,-1046.16 897.61,-1054.89 907.23,-1064.98 918.01,-1076.26 929.78,-1088.6 942.42,-1101.83 955.77,-1115.82 969.69,-1130.4 984.04,-1145.43 998.68,-1160.77 1013.46,-1176.25 1028.24,-1191.74 1042.88,-1207.07 1057.23,-1222.1 1071.15,-1236.69 1084.5,-1250.67 1097.13,-1263.9 1108.91,-1276.24 1119.68,-1287.52 1129.31,-1297.6 1137.64,-1306.34 1137.64,-1306.34 1129.43,-1297.49 1119.94,-1287.27 1109.33,-1275.84 1097.73,-1263.34 1085.28,-1249.94 1072.13,-1235.77 1058.41,-1220.99 1044.27,-1205.76 1029.84,-1190.23 1015.28,-1174.54 1000.71,-1158.85 986.29,-1143.32 972.15,-1128.08 958.43,-1113.31 945.28,-1099.14 932.83,-1085.73 921.23,-1073.23 910.61,-1061.8 901.12,-1051.58 892.91,-1042.73 889.27,-1046.16"/>
<text text-anchor="middle" x="1000.12" y="-1183.1" font-family="Times,serif" font-size="14.00" fill="#480090">丈夫</text>
</g>
<!-- 克里斯特 -->
<g id="node19" class="node">
<title>克里斯特</title>
<ellipse fill="none" stroke="#900048" cx="1185.29" cy="-866.8" rx="51.62" ry="20.51"/>
<text text-anchor="middle" x="1185.29" y="-864" font-family="Times,serif" font-size="14.00" fill="#900048">克里斯特</text>
</g>
<!-- 爱莉卡&#45;&gt;克里斯特 -->
<g id="edge42" class="edge">
<title>爱莉卡&#45;&gt;克里斯特</title>
<polygon fill="#480090" stroke="none" stroke-width="5" points="903.93,-1013 913.19,-1008.17 923.43,-1002.84 934.53,-997.06 946.39,-990.88 958.91,-984.36 971.98,-977.55 985.49,-970.51 999.33,-963.3 1013.41,-955.97 1027.61,-948.57 1041.82,-941.17 1055.95,-933.81 1069.88,-926.55 1083.51,-919.45 1096.74,-912.56 1109.45,-905.94 1121.54,-899.65 1132.9,-893.73 1143.43,-888.24 1153.02,-883.25 1153.02,-883.25 1143.34,-888.07 1132.72,-893.37 1121.25,-899.08 1109.05,-905.16 1096.22,-911.56 1082.88,-918.21 1069.12,-925.07 1055.06,-932.07 1040.81,-939.18 1026.46,-946.33 1012.13,-953.47 997.93,-960.55 983.96,-967.52 970.33,-974.31 957.14,-980.89 944.51,-987.18 932.54,-993.15 921.33,-998.73 911.01,-1003.88 901.66,-1008.54 903.93,-1013"/>
<text text-anchor="middle" x="984.28" y="-955.15" font-family="Times,serif" font-size="14.00" fill="#480090">千禧年共有者</text>
</g>
<!-- 亨利&#45;&gt;布隆维斯特 -->
<g id="edge41" class="edge">
<title>亨利&#45;&gt;布隆维斯特</title>
<polygon fill="#900090" stroke="none" stroke-width="5" points="430.41,-1052.27 437.84,-1041.75 446.64,-1029.27 456.69,-1015.04 467.85,-999.23 479.98,-982.04 492.97,-963.64 506.67,-944.23 520.95,-923.99 535.69,-903.11 550.75,-881.78 565.99,-860.18 581.29,-838.5 596.52,-816.93 611.54,-795.65 626.22,-774.85 640.43,-754.72 654.04,-735.45 666.91,-717.21 678.91,-700.2 689.92,-684.61 689.92,-684.61 678.74,-700.08 666.55,-716.95 653.47,-735.04 639.65,-754.17 625.22,-774.14 610.31,-794.78 595.06,-815.89 579.59,-837.29 564.05,-858.79 548.57,-880.22 533.27,-901.39 518.31,-922.1 503.8,-942.18 489.88,-961.43 476.69,-979.69 464.37,-996.75 453.03,-1012.43 442.83,-1026.55 433.89,-1038.92 426.34,-1049.36 430.41,-1052.27"/>
<text text-anchor="middle" x="485.53" y="-867.7" font-family="Times,serif" font-size="14.00" fill="#900090">请求调查海莉案真相</text>
</g>
<!-- 亨利&#45;&gt;爱莉卡 -->
<g id="edge40" class="edge">
<title>亨利&#45;&gt;爱莉卡</title>
<polygon fill="#900090" stroke="none" stroke-width="5" points="446.66,-1069.14 459.75,-1067.8 474.66,-1066.28 491.18,-1064.59 509.12,-1062.75 528.3,-1060.79 548.52,-1058.72 569.59,-1056.56 591.3,-1054.34 613.48,-1052.07 635.92,-1049.77 658.44,-1047.46 680.83,-1045.17 702.9,-1042.91 724.47,-1040.7 745.34,-1038.57 765.31,-1036.52 784.19,-1034.59 801.79,-1032.79 817.92,-1031.14 832.38,-1029.66 832.38,-1029.66 817.9,-1030.95 801.76,-1032.39 784.13,-1033.97 765.23,-1035.66 745.23,-1037.44 724.34,-1039.31 702.74,-1041.24 680.64,-1043.22 658.22,-1045.22 635.68,-1047.23 613.21,-1049.24 591.01,-1051.23 569.26,-1053.17 548.17,-1055.05 527.93,-1056.86 508.72,-1058.58 490.75,-1060.18 474.21,-1061.66 459.29,-1062.99 446.19,-1064.17 446.66,-1069.14"/>
<text text-anchor="middle" x="564.55" y="-1035.2" font-family="Times,serif" font-size="14.00" fill="#900090">因为海莉案投资千禧年</text>
</g>
<!-- 亨利&#45;&gt;马丁 -->
<g id="edge27" class="edge">
<title>亨利&#45;&gt;马丁</title>
<polygon fill="#900090" stroke="none" stroke-width="5" points="446.52,-1074.37 453.43,-1074.75 460.82,-1075.15 468.64,-1075.58 476.84,-1076.02 485.35,-1076.49 494.13,-1076.97 503.13,-1077.45 512.29,-1077.95 521.55,-1078.46 530.86,-1078.96 540.18,-1079.47 549.44,-1079.98 558.6,-1080.48 567.59,-1080.96 576.37,-1081.44 584.89,-1081.91 593.08,-1082.35 600.9,-1082.78 608.3,-1083.18 615.21,-1083.56 615.21,-1083.56 608.31,-1082.98 600.93,-1082.36 593.13,-1081.7 584.95,-1081.01 576.45,-1080.29 567.69,-1079.56 558.71,-1078.8 549.58,-1078.03 540.33,-1077.25 531.04,-1076.47 521.74,-1075.69 512.5,-1074.91 503.36,-1074.14 494.38,-1073.39 485.62,-1072.65 477.12,-1071.93 468.94,-1071.24 461.14,-1070.59 453.76,-1069.97 446.86,-1069.38 446.52,-1074.37"/>
<text text-anchor="middle" x="530.95" y="-1064.42" font-family="Times,serif" font-size="14.00" fill="#900090">外侄孙，一直不知道其行为</text>
</g>
<!-- 亨利&#45;&gt;海莉 -->
<g id="edge28" class="edge">
<title>亨利&#45;&gt;海莉</title>
<polygon fill="#900090" stroke="none" stroke-width="5" points="422.72,-1090.72 426.23,-1097.48 430.13,-1105 434.39,-1113.2 438.96,-1122 443.8,-1131.3 448.85,-1141.03 454.08,-1151.1 459.44,-1161.42 464.89,-1171.91 470.38,-1182.49 475.87,-1193.06 481.32,-1203.55 486.68,-1213.87 491.91,-1223.94 496.96,-1233.66 501.79,-1242.96 506.36,-1251.76 510.62,-1259.95 514.52,-1267.47 518.03,-1274.22 518.03,-1274.22 514.69,-1267.39 510.96,-1259.78 506.91,-1251.48 502.55,-1242.58 497.95,-1233.17 493.13,-1223.32 488.15,-1213.13 483.04,-1202.68 477.85,-1192.07 472.61,-1181.36 467.38,-1170.65 462.18,-1160.03 457.07,-1149.59 452.09,-1139.39 447.27,-1129.55 442.67,-1120.13 438.31,-1111.23 434.25,-1102.92 430.53,-1095.31 427.18,-1088.47 422.72,-1090.72"/>
<text text-anchor="middle" x="357.5" y="-1168.62" font-family="Times,serif" font-size="14.00" fill="#900090">很疼爱的外侄孙女，希望其继承家业</text>
</g>
<!-- 西西莉亚 -->
<g id="node9" class="node">
<title>西西莉亚</title>
<defs>
<radialGradient id="node9_r_9" cx="50%" cy="50%" r="75%" fx="50%" fy="50%">
<stop offset="0" style="stop-color:#e67300;stop-opacity:1.;"/>
<stop offset="1" style="stop-color:#904800;stop-opacity:1.;"/>
</radialGradient>
</defs>
<ellipse fill="url(#node9_r_9)" stroke="#e67300" cx="180.3" cy="-768.83" rx="51.62" ry="20.51"/>
<text text-anchor="middle" x="180.3" y="-766.03" font-family="Times,serif" font-size="14.00" fill="#733900">西西莉亚</text>
</g>
<!-- 亨利&#45;&gt;西西莉亚 -->
<g id="edge20" class="edge">
<title>亨利&#45;&gt;西西莉亚</title>
<polygon fill="#900090" stroke="none" stroke-width="5" points="402.56,-1049.77 395.68,-1041.09 387.73,-1031.05 378.82,-1019.8 369.07,-1007.49 358.6,-994.27 347.52,-980.28 335.97,-965.69 324.04,-950.64 311.87,-935.27 299.58,-919.74 287.27,-904.2 275.07,-888.8 263.1,-873.69 251.48,-859.01 240.32,-844.92 229.74,-831.56 219.87,-819.1 210.81,-807.66 202.7,-797.42 195.64,-788.51 195.64,-788.51 202.56,-797.52 210.52,-807.89 219.41,-819.46 229.09,-832.07 239.47,-845.58 250.41,-859.84 261.82,-874.69 273.56,-889.98 285.52,-905.57 297.6,-921.29 309.66,-937 321.6,-952.54 333.29,-967.78 344.63,-982.54 355.49,-996.69 365.76,-1010.06 375.33,-1022.52 384.07,-1033.9 391.87,-1044.06 398.61,-1052.85 402.56,-1049.77"/>
<text text-anchor="middle" x="227.34" y="-928.22" font-family="Times,serif" font-size="14.00" fill="#900090">外侄女，很看重其聪明</text>
</g>
<!-- 理查德 -->
<g id="node21" class="node">
<title>理查德</title>
<ellipse fill="none" stroke="#904800" cx="43.72" cy="-1244.1" rx="41.54" ry="20.51"/>
<text text-anchor="middle" x="43.72" y="-1241.3" font-family="Times,serif" font-size="14.00" fill="#904800">理查德</text>
</g>
<!-- 亨利&#45;&gt;理查德 -->
<g id="edge36" class="edge">
<title>亨利&#45;&gt;理查德</title>
<polygon fill="#900090" stroke="none" stroke-width="5" points="388.04,-1079.54 377.3,-1084.68 365.07,-1090.54 351.51,-1097.03 336.78,-1104.08 321.05,-1111.61 304.47,-1119.55 287.21,-1127.81 269.43,-1136.32 251.29,-1145 232.95,-1153.78 214.57,-1162.58 196.32,-1171.32 178.36,-1179.91 160.85,-1188.3 143.94,-1196.39 127.8,-1204.12 112.6,-1211.39 98.49,-1218.15 85.64,-1224.3 74.21,-1229.78 74.21,-1229.78 85.72,-1224.47 98.66,-1218.5 112.86,-1211.95 128.17,-1204.89 144.41,-1197.4 161.43,-1189.55 179.07,-1181.42 197.15,-1173.08 215.53,-1164.6 234.03,-1156.07 252.49,-1147.56 270.75,-1139.13 288.65,-1130.88 306.03,-1122.87 322.72,-1115.17 338.56,-1107.86 353.39,-1101.03 367.04,-1094.73 379.35,-1089.05 390.16,-1084.07 388.04,-1079.54"/>
<text text-anchor="middle" x="204.99" y="-1162.63" font-family="Times,serif" font-size="14.00" fill="#900090">纳粹哥哥</text>
</g>
<!-- 哈洛德 -->
<g id="node22" class="node">
<title>哈洛德</title>
<ellipse fill="none" stroke="#909000" cx="41.47" cy="-1056.6" rx="41.54" ry="20.51"/>
<text text-anchor="middle" x="41.47" y="-1053.8" font-family="Times,serif" font-size="14.00" fill="#909000">哈洛德</text>
</g>
<!-- 亨利&#45;&gt;哈洛德 -->
<g id="edge37" class="edge">
<title>亨利&#45;&gt;哈洛德</title>
<polygon fill="#900090" stroke="none" stroke-width="5" points="383.16,-1066.06 372.4,-1065.78 360.42,-1065.46 347.35,-1065.11 333.33,-1064.73 318.48,-1064.34 302.92,-1063.92 286.79,-1063.49 270.21,-1063.05 253.32,-1062.6 236.24,-1062.15 219.1,-1061.69 202.03,-1061.23 185.15,-1060.78 168.6,-1060.34 152.5,-1059.91 136.99,-1059.5 122.18,-1059.11 108.22,-1058.73 95.22,-1058.39 83.32,-1058.07 83.32,-1058.07 95.21,-1058.58 108.2,-1059.15 122.16,-1059.75 136.96,-1060.39 152.46,-1061.07 168.55,-1061.76 185.09,-1062.48 201.96,-1063.21 219.02,-1063.95 236.15,-1064.69 253.22,-1065.43 270.1,-1066.17 286.67,-1066.88 302.79,-1067.58 318.34,-1068.26 333.19,-1068.9 347.2,-1069.51 360.26,-1070.07 372.23,-1070.59 382.98,-1071.06 383.16,-1066.06"/>
<text text-anchor="middle" x="221.94" y="-1071.12" font-family="Times,serif" font-size="14.00" fill="#900090">哥哥</text>
</g>
<!-- 戈弗里 -->
<g id="node23" class="node">
<title>戈弗里</title>
<ellipse fill="none" stroke="#489000" cx="352.04" cy="-1330.84" rx="41.54" ry="20.51"/>
<text text-anchor="middle" x="352.04" y="-1328.04" font-family="Times,serif" font-size="14.00" fill="#489000">戈弗里</text>
</g>
<!-- 亨利&#45;&gt;戈弗里 -->
<g id="edge34" class="edge">
<title>亨利&#45;&gt;戈弗里</title>
<polygon fill="#900090" stroke="none" stroke-width="5" points="407.54,-1089.58 405.74,-1097.44 403.72,-1106.3 401.48,-1116.04 399.08,-1126.55 396.51,-1137.73 393.83,-1149.47 391.04,-1161.64 388.17,-1174.15 385.25,-1186.89 382.31,-1199.73 379.37,-1212.58 376.45,-1225.32 373.58,-1237.84 370.79,-1250.03 368.1,-1261.78 365.53,-1272.99 363.12,-1283.53 360.88,-1293.3 358.84,-1302.19 357.03,-1310.08 357.03,-1310.08 359.02,-1302.23 361.25,-1293.39 363.7,-1283.67 366.35,-1273.18 369.16,-1262.04 372.11,-1250.35 375.17,-1238.22 378.32,-1225.77 381.52,-1213.1 384.74,-1200.32 387.97,-1187.54 391.17,-1174.88 394.31,-1162.43 397.37,-1150.32 400.31,-1138.65 403.12,-1127.53 405.76,-1117.07 408.21,-1107.38 410.43,-1098.57 412.41,-1090.75 407.54,-1089.58"/>
<text text-anchor="middle" x="369.28" y="-1207.73" font-family="Times,serif" font-size="14.00" fill="#900090">侄子</text>
</g>
<!-- 马丁&#45;&gt;戈弗里 -->
<g id="edge31" class="edge">
<title>马丁&#45;&gt;戈弗里</title>
<polygon fill="#900048" stroke="none" stroke-width="5" points="625.57,-1100.3 616.97,-1107.55 607.13,-1115.86 596.18,-1125.09 584.27,-1135.15 571.52,-1145.91 558.08,-1157.25 544.07,-1169.07 529.65,-1181.24 514.94,-1193.65 500.08,-1206.19 485.2,-1218.74 470.46,-1231.19 455.97,-1243.41 441.88,-1255.3 428.32,-1266.74 415.43,-1277.62 403.36,-1287.81 392.22,-1297.21 382.17,-1305.69 373.33,-1313.15 373.33,-1313.15 382.28,-1305.82 392.46,-1297.49 403.74,-1288.27 415.97,-1278.26 429.02,-1267.58 442.75,-1256.35 457.01,-1244.67 471.69,-1232.67 486.62,-1220.45 501.68,-1208.13 516.73,-1195.81 531.63,-1183.62 546.24,-1171.67 560.42,-1160.07 574.03,-1148.93 586.94,-1138.37 599.01,-1128.49 610.09,-1119.42 620.06,-1111.27 628.76,-1104.14 625.57,-1100.3"/>
<text text-anchor="middle" x="579.25" y="-1214.86" font-family="Times,serif" font-size="14.00" fill="#900048">父亲，继承并发扬其恶行</text>
</g>
<!-- 托尔森 -->
<g id="node32" class="node">
<title>托尔森</title>
<ellipse fill="none" stroke="#900000" cx="479.37" cy="-832.63" rx="41.54" ry="20.51"/>
<text text-anchor="middle" x="479.37" y="-829.83" font-family="Times,serif" font-size="14.00" fill="#900000">托尔森</text>
</g>
<!-- 马丁&#45;&gt;托尔森 -->
<g id="edge7" class="edge">
<title>马丁&#45;&gt;托尔森</title>
<polygon fill="#900048" stroke="none" stroke-width="5" points="636.46,-1065.35 631.39,-1057.85 625.65,-1049.36 619.31,-1039.99 612.46,-1029.85 605.16,-1019.06 597.49,-1007.71 589.51,-995.93 581.32,-983.81 572.97,-971.47 564.55,-959.01 556.13,-946.55 547.77,-934.2 539.56,-922.06 531.57,-910.24 523.87,-898.85 516.54,-888.01 509.65,-877.81 503.27,-868.38 497.48,-859.82 492.35,-852.23 492.35,-852.23 497.33,-859.91 502.95,-868.59 509.15,-878.15 515.84,-888.47 522.96,-899.46 530.44,-910.99 538.2,-922.96 546.17,-935.26 554.28,-947.77 562.46,-960.39 570.64,-973.01 578.75,-985.51 586.7,-997.79 594.44,-1009.73 601.89,-1021.22 608.98,-1032.15 615.64,-1042.42 621.79,-1051.91 627.37,-1060.51 632.29,-1068.11 636.46,-1065.35"/>
<text text-anchor="middle" x="549.26" y="-967.4" font-family="Times,serif" font-size="14.00" fill="#900048">员工</text>
</g>
<!-- 海莉&#45;&gt;马丁 -->
<g id="edge33" class="edge">
<title>海莉&#45;&gt;马丁</title>
<polygon fill="#900000" stroke="none" stroke-width="5" points="541.41,-1275.74 544.94,-1269.35 548.85,-1262.29 553.1,-1254.63 557.64,-1246.43 562.43,-1237.78 567.43,-1228.75 572.6,-1219.42 577.9,-1209.87 583.27,-1200.16 588.69,-1190.38 594.11,-1180.6 599.48,-1170.9 604.77,-1161.35 609.94,-1152.03 614.93,-1143.01 619.72,-1134.38 624.25,-1126.2 628.48,-1118.55 632.38,-1111.51 635.9,-1105.16 635.9,-1105.16 632.22,-1111.42 628.14,-1118.36 623.71,-1125.89 618.97,-1133.95 613.97,-1142.46 608.74,-1151.35 603.34,-1160.53 597.81,-1169.94 592.19,-1179.5 586.52,-1189.14 580.86,-1198.78 575.23,-1208.35 569.69,-1217.76 564.29,-1226.96 559.06,-1235.85 554.05,-1244.38 549.3,-1252.45 544.85,-1260.01 540.76,-1266.97 537.07,-1273.26 541.41,-1275.74"/>
<text text-anchor="middle" x="587.61" y="-1176.46" font-family="Times,serif" font-size="14.00" fill="#900000">哥哥，被侵犯，发现到处杀女人罪行，诈死</text>
</g>
<!-- 海莉&#45;&gt;戈弗里 -->
<g id="edge32" class="edge">
<title>海莉&#45;&gt;戈弗里</title>
<polygon fill="#900000" stroke="none" stroke-width="5" points="497.28,-1297.97 492.75,-1299.02 488.01,-1300.12 483.08,-1301.27 477.98,-1302.46 472.73,-1303.68 467.36,-1304.93 461.88,-1306.21 456.32,-1307.5 450.69,-1308.81 445.03,-1310.13 439.35,-1311.45 433.66,-1312.77 428,-1314.09 422.39,-1315.4 416.84,-1316.69 411.38,-1317.96 406.02,-1319.21 400.8,-1320.42 395.72,-1321.6 390.82,-1322.75 390.82,-1322.75 395.77,-1321.83 400.89,-1320.88 406.17,-1319.91 411.57,-1318.91 417.09,-1317.89 422.69,-1316.85 428.36,-1315.8 434.07,-1314.74 439.81,-1313.68 445.55,-1312.62 451.27,-1311.56 456.95,-1310.51 462.56,-1309.47 468.09,-1308.45 473.52,-1307.45 478.82,-1306.47 483.96,-1305.51 488.94,-1304.59 493.73,-1303.71 498.3,-1302.86 497.28,-1297.97"/>
<text text-anchor="middle" x="409.66" y="-1298.07" font-family="Times,serif" font-size="14.00" fill="#900000">父亲，被侵犯，后误杀</text>
</g>
<!-- 史宾塞 -->
<g id="node34" class="node">
<title>史宾塞</title>
<ellipse fill="none" stroke="#909000" cx="466.01" cy="-1716.27" rx="41.54" ry="20.51"/>
<text text-anchor="middle" x="466.01" y="-1713.47" font-family="Times,serif" font-size="14.00" fill="#909000">史宾塞</text>
</g>
<!-- 海莉&#45;&gt;史宾塞 -->
<g id="edge1" class="edge">
<title>海莉&#45;&gt;史宾塞</title>
<polygon fill="#900000" stroke="none" stroke-width="5" points="522.54,-1314.38 520.86,-1326.35 518.87,-1340.56 516.59,-1356.76 514.08,-1374.7 511.35,-1394.14 508.45,-1414.83 505.4,-1436.51 502.26,-1458.94 499.04,-1481.87 495.79,-1505.04 492.54,-1528.22 489.32,-1551.15 486.17,-1573.57 483.13,-1595.25 480.23,-1615.93 477.5,-1635.37 474.98,-1653.31 472.71,-1669.5 470.72,-1683.7 469.04,-1695.66 469.04,-1695.66 470.87,-1683.73 473.05,-1669.55 475.53,-1653.39 478.28,-1635.48 481.26,-1616.08 484.43,-1595.44 487.76,-1573.81 491.19,-1551.42 494.71,-1528.54 498.26,-1505.41 501.81,-1482.28 505.33,-1459.39 508.77,-1437.01 512.09,-1415.37 515.26,-1394.72 518.24,-1375.32 520.99,-1357.4 523.48,-1341.23 525.65,-1327.05 527.49,-1315.11 522.54,-1314.38"/>
<text text-anchor="middle" x="461.4" y="-1512.93" font-family="Times,serif" font-size="14.00" fill="#900000">农场主丈夫</text>
</g>
<!-- 西西莉亚&#45;&gt;布隆维斯特 -->
<g id="edge21" class="edge">
<title>西西莉亚&#45;&gt;布隆维斯特</title>
<polygon fill="#904800" stroke="none" stroke-width="5" points="224.83,-760.19 240.27,-756.22 257.52,-751.77 276.42,-746.9 296.75,-741.66 318.35,-736.09 341.01,-730.25 364.55,-724.18 388.78,-717.94 413.51,-711.56 438.55,-705.11 463.71,-698.63 488.8,-692.16 513.63,-685.76 538.02,-679.47 561.77,-673.35 584.69,-667.44 606.6,-661.8 627.31,-656.46 646.62,-651.48 664.35,-646.91 664.35,-646.91 646.57,-651.28 627.21,-656.05 606.44,-661.16 584.47,-666.56 561.48,-672.22 537.67,-678.08 513.21,-684.09 488.31,-690.22 463.15,-696.41 437.92,-702.62 412.81,-708.8 388.02,-714.9 363.72,-720.87 340.11,-726.68 317.39,-732.27 295.73,-737.6 275.34,-742.62 256.39,-747.28 239.09,-751.54 223.61,-755.34 224.83,-760.19"/>
<text text-anchor="middle" x="317.11" y="-711.56" font-family="Times,serif" font-size="14.00" fill="#904800">知道海莉遭遇，不想其追溯答案，床友</text>
</g>
<!-- 阿妮塔 -->
<g id="node11" class="node">
<title>阿妮塔</title>
<ellipse fill="none" stroke="#489000" cx="191.95" cy="-1323.39" rx="41.54" ry="20.51"/>
<text text-anchor="middle" x="191.95" y="-1320.59" font-family="Times,serif" font-size="14.00" fill="#489000">阿妮塔</text>
</g>
<!-- 阿妮塔&#45;&gt;亨利 -->
<g id="edge16" class="edge">
<title>阿妮塔&#45;&gt;亨利</title>
<polygon fill="#489000" stroke="none" stroke-width="5" points="210.58,-1305.98 217.26,-1298.25 224.82,-1289.49 233.16,-1279.83 242.2,-1269.37 251.82,-1258.22 261.93,-1246.51 272.43,-1234.35 283.22,-1221.86 294.2,-1209.14 305.28,-1196.32 316.34,-1183.5 327.3,-1170.82 338.05,-1158.37 348.49,-1146.27 358.53,-1134.65 368.06,-1123.61 376.99,-1113.27 385.22,-1103.74 392.64,-1095.15 399.16,-1087.6 399.16,-1087.6 392.51,-1095.03 384.94,-1103.5 376.55,-1112.88 367.44,-1123.06 357.72,-1133.94 347.48,-1145.39 336.83,-1157.3 325.87,-1169.56 314.69,-1182.05 303.41,-1194.67 292.11,-1207.3 280.91,-1219.83 269.91,-1232.13 259.2,-1244.11 248.89,-1255.64 239.07,-1266.62 229.86,-1276.92 221.34,-1286.44 213.63,-1295.06 206.83,-1302.67 210.58,-1305.98"/>
<text text-anchor="middle" x="161.84" y="-1203.2" font-family="Times,serif" font-size="14.00" fill="#489000">利用航空身份，一直匿名将海莉的礼物给亨利</text>
</g>
<!-- 阿妮塔&#45;&gt;海莉 -->
<g id="edge18" class="edge">
<title>阿妮塔&#45;&gt;海莉</title>
<polygon fill="#489000" stroke="none" stroke-width="5" points="230.85,-1317.38 235.81,-1316.31 240.98,-1315.22 246.35,-1314.1 251.9,-1312.96 257.62,-1311.82 263.48,-1310.66 269.49,-1309.51 275.61,-1308.36 281.84,-1307.22 288.15,-1306.09 294.54,-1304.99 300.99,-1303.91 307.48,-1302.86 313.99,-1301.86 320.51,-1300.89 327.03,-1299.98 333.53,-1299.11 339.99,-1298.31 346.4,-1297.58 352.75,-1296.91 360.29,-1296.2 367.94,-1295.57 375.67,-1295 383.46,-1294.5 391.28,-1294.07 399.11,-1293.69 406.92,-1293.37 414.69,-1293.11 422.4,-1292.89 430.03,-1292.72 437.54,-1292.59 444.92,-1292.51 452.15,-1292.45 459.19,-1292.43 466.02,-1292.44 472.63,-1292.48 478.98,-1292.54 485.05,-1292.61 490.83,-1292.71 496.28,-1292.81 496.28,-1292.81 490.83,-1292.61 485.06,-1292.4 478.99,-1292.21 472.63,-1292.04 466.03,-1291.88 459.19,-1291.74 452.15,-1291.63 444.92,-1291.55 437.54,-1291.5 430.02,-1291.48 422.38,-1291.51 414.66,-1291.58 406.87,-1291.71 399.04,-1291.88 391.2,-1292.11 383.35,-1292.4 375.54,-1292.75 367.78,-1293.17 360.09,-1293.67 352.51,-1294.24 346.12,-1294.79 339.67,-1295.4 333.17,-1296.09 326.63,-1296.83 320.07,-1297.63 313.51,-1298.47 306.96,-1299.36 300.43,-1300.29 293.94,-1301.25 287.51,-1302.24 281.16,-1303.25 274.89,-1304.27 268.73,-1305.31 262.69,-1306.36 256.78,-1307.41 251.03,-1308.45 245.44,-1309.48 240.04,-1310.5 234.83,-1311.51 229.85,-1312.48 230.85,-1317.38"/>
<text text-anchor="middle" x="191.7" y="-1281.44" font-family="Times,serif" font-size="14.00" fill="#489000">帮助海莉出逃，自己脱离家族，让海莉以自己名字活着</text>
</g>
<!-- 莫瑞尔&#45;&gt;亨利 -->
<g id="edge56" class="edge">
<title>莫瑞尔&#45;&gt;亨利</title>
<polygon fill="#009000" stroke="none" stroke-width="5" points="324.66,-868.23 327.68,-874.95 331.04,-882.42 334.69,-890.55 338.61,-899.26 342.75,-908.47 347.07,-918.09 351.54,-928.04 356.13,-938.24 360.79,-948.6 365.48,-959.05 370.18,-969.49 374.83,-979.85 379.41,-990.05 383.88,-999.99 388.2,-1009.6 392.33,-1018.79 396.24,-1027.48 399.89,-1035.59 403.23,-1043.04 406.24,-1049.74 406.24,-1049.74 403.4,-1042.96 400.25,-1035.44 396.8,-1027.24 393.12,-1018.45 389.22,-1009.16 385.14,-999.44 380.92,-989.39 376.6,-979.09 372.2,-968.61 367.77,-958.05 363.34,-947.49 358.95,-937.01 354.62,-926.7 350.4,-916.64 346.32,-906.92 342.41,-897.61 338.71,-888.8 335.26,-880.58 332.1,-873.03 329.24,-866.23 324.66,-868.23"/>
<text text-anchor="middle" x="312.63" y="-966.25" font-family="Times,serif" font-size="14.00" fill="#009000">追了海莉案 40 年</text>
</g>
<!-- 博格&#45;&gt;布隆维斯特 -->
<g id="edge58" class="edge">
<title>博格&#45;&gt;布隆维斯特</title>
<polygon fill="#009048" stroke="none" stroke-width="5" points="1186.92,-450.99 1174.55,-455.85 1160.28,-461.46 1144.3,-467.74 1126.78,-474.62 1107.93,-482.03 1087.91,-489.9 1066.92,-498.15 1045.14,-506.71 1022.76,-515.5 999.96,-524.46 976.93,-533.51 953.86,-542.58 930.92,-551.59 908.32,-560.48 886.22,-569.16 864.82,-577.57 844.3,-585.64 824.85,-593.28 806.66,-600.43 789.9,-607.02 789.9,-607.02 806.73,-600.63 825.01,-593.69 844.55,-586.28 865.16,-578.45 886.66,-570.3 908.85,-561.87 931.56,-553.25 954.6,-544.51 977.78,-535.71 1000.91,-526.93 1023.81,-518.24 1046.3,-509.71 1068.17,-501.4 1089.26,-493.4 1109.37,-485.77 1128.31,-478.58 1145.91,-471.9 1161.96,-465.81 1176.3,-460.37 1188.72,-455.65 1186.92,-450.99"/>
<text text-anchor="middle" x="943.44" y="-533.4" font-family="Times,serif" font-size="14.00" fill="#009048">道不同的曾经同事</text>
</g>
<!-- 林柏 -->
<g id="node14" class="node">
<title>林柏</title>
<ellipse fill="none" stroke="#009090" cx="759.09" cy="-163.98" rx="31.47" ry="20.51"/>
<text text-anchor="middle" x="759.09" y="-161.18" font-family="Times,serif" font-size="14.00" fill="#009090">林柏</text>
</g>
<!-- 林柏&#45;&gt;布隆维斯特 -->
<g id="edge61" class="edge">
<title>林柏&#45;&gt;布隆维斯特</title>
<polygon fill="#009090" stroke="none" stroke-width="5" points="755.21,-184.78 754.56,-195.75 753.8,-208.64 752.93,-223.29 751.97,-239.51 750.93,-257.11 749.81,-275.92 748.64,-295.76 747.41,-316.45 746.15,-337.8 744.85,-359.64 743.54,-381.79 742.22,-404.06 740.91,-426.27 739.6,-448.26 738.33,-469.82 737.08,-490.79 735.89,-510.99 734.75,-530.23 733.67,-548.33 732.68,-565.11 732.68,-565.11 733.89,-548.34 735.2,-530.26 736.6,-511.04 738.06,-490.86 739.58,-469.91 741.14,-448.36 742.73,-426.39 744.33,-404.2 745.95,-381.94 747.55,-359.82 749.13,-338 750.67,-316.66 752.17,-295.99 753.61,-276.17 754.97,-257.38 756.24,-239.79 757.42,-223.59 758.48,-208.95 759.41,-196.07 760.2,-185.11 755.21,-184.78"/>
<text text-anchor="middle" x="653.58" y="-367.43" font-family="Times,serif" font-size="14.00" fill="#009090">中学好友，匿名告知温纳斯壮</text>
</g>
<!-- 阿曼斯基&#45;&gt;弗洛德 -->
<g id="edge54" class="edge">
<title>阿曼斯基&#45;&gt;弗洛德</title>
<polygon fill="#004890" stroke="none" stroke-width="5" points="1024.4,-1489.94 1017.1,-1480.15 1008.63,-1468.78 999.11,-1456.01 988.67,-1442.01 977.45,-1426.96 965.58,-1411.04 953.19,-1394.42 940.41,-1377.27 927.37,-1359.78 914.21,-1342.12 901.04,-1324.47 888.02,-1306.99 875.26,-1289.87 862.89,-1273.29 851.06,-1257.41 839.88,-1242.42 829.5,-1228.49 820.03,-1215.8 811.62,-1204.52 804.4,-1194.82 804.4,-1194.82 811.49,-1204.61 819.75,-1216.01 829.04,-1228.83 839.23,-1242.9 850.2,-1258.04 861.82,-1274.08 873.96,-1290.83 886.49,-1308.12 899.27,-1325.77 912.2,-1343.6 925.12,-1361.44 937.92,-1379.1 950.47,-1396.42 962.63,-1413.21 974.28,-1429.29 985.3,-1444.49 995.54,-1458.63 1004.89,-1471.53 1013.21,-1483.01 1020.37,-1492.9 1024.4,-1489.94"/>
<text text-anchor="middle" x="898.95" y="-1329.56" font-family="Times,serif" font-size="14.00" fill="#004890">客户</text>
</g>
<!-- 克里斯特&#45;&gt;布隆维斯特 -->
<g id="edge43" class="edge">
<title>克里斯特&#45;&gt;布隆维斯特</title>
<polygon fill="#900048" stroke="none" stroke-width="5" points="1154.67,-848.17 1142.4,-841.92 1128.53,-834.87 1113.22,-827.07 1096.62,-818.63 1078.91,-809.62 1060.23,-800.11 1040.75,-790.2 1020.63,-779.96 1000.03,-769.48 979.1,-758.83 958.01,-748.1 936.91,-737.36 915.97,-726.7 895.34,-716.21 875.18,-705.95 855.66,-696.02 836.93,-686.49 819.15,-677.44 802.48,-668.96 787.09,-661.13 787.09,-661.13 802.39,-669.15 818.95,-677.83 836.62,-687.09 855.23,-696.85 874.63,-707.02 894.66,-717.52 915.16,-728.26 935.97,-739.17 956.94,-750.16 977.9,-761.15 998.7,-772.05 1019.17,-782.79 1039.17,-793.27 1058.53,-803.41 1077.09,-813.14 1094.69,-822.37 1111.18,-831.02 1126.4,-838.99 1140.18,-846.22 1152.38,-852.61 1154.67,-848.17"/>
<text text-anchor="middle" x="935.75" y="-767.69" font-family="Times,serif" font-size="14.00" fill="#900048">千禧年共有者</text>
</g>
<!-- 理查德&#45;&gt;戈弗里 -->
<g id="edge35" class="edge">
<title>理查德&#45;&gt;戈弗里</title>
<polygon fill="#904800" stroke="none" stroke-width="5" points="79.78,-1256.32 85.98,-1257.92 92.54,-1259.62 99.44,-1261.4 106.64,-1263.27 114.13,-1265.21 121.87,-1267.22 129.84,-1269.3 138.02,-1271.44 146.37,-1273.62 154.87,-1275.86 163.5,-1278.13 172.22,-1280.43 181.02,-1282.76 189.86,-1285.11 198.72,-1287.47 207.57,-1289.84 216.39,-1292.21 225.14,-1294.58 233.82,-1296.93 242.37,-1299.26 246.09,-1300.28 249.85,-1301.32 253.64,-1302.36 257.45,-1303.42 261.28,-1304.49 265.13,-1305.56 268.97,-1306.64 272.81,-1307.71 276.64,-1308.79 280.46,-1309.87 284.25,-1310.94 288.01,-1312 291.73,-1313.06 295.4,-1314.11 299.02,-1315.14 302.59,-1316.16 306.08,-1317.16 309.51,-1318.14 312.85,-1319.09 316.1,-1320.03 316.1,-1320.03 312.87,-1319.03 309.55,-1318 306.14,-1316.95 302.67,-1315.88 299.13,-1314.79 295.53,-1313.68 291.87,-1312.56 288.17,-1311.43 284.44,-1310.29 280.67,-1309.14 276.88,-1307.99 273.07,-1306.83 269.25,-1305.68 265.43,-1304.52 261.61,-1303.37 257.8,-1302.23 254.01,-1301.09 250.24,-1299.97 246.5,-1298.86 242.8,-1297.76 234.29,-1295.25 225.67,-1292.72 216.96,-1290.18 208.19,-1287.63 199.38,-1285.08 190.57,-1282.53 181.78,-1280 173.03,-1277.49 164.35,-1275.01 155.77,-1272.56 147.31,-1270.16 139.01,-1267.8 130.88,-1265.5 122.95,-1263.25 115.24,-1261.08 107.8,-1258.99 100.63,-1256.97 93.77,-1255.05 87.25,-1253.22 81.08,-1251.49 79.78,-1256.32"/>
<text text-anchor="middle" x="212.61" y="-1272.78" font-family="Times,serif" font-size="14.00" fill="#904800">儿子</text>
</g>
<!-- 哈洛德&#45;&gt;西西莉亚 -->
<g id="edge38" class="edge">
<title>哈洛德&#45;&gt;西西莉亚</title>
<polygon fill="#909000" stroke="none" stroke-width="5" points="53.48,-1037.45 57.53,-1028.87 62.14,-1019.09 67.25,-1008.24 72.8,-996.45 78.73,-983.87 84.98,-970.62 91.47,-956.83 98.16,-942.64 104.97,-928.19 111.85,-913.59 118.73,-899 125.54,-884.53 132.24,-870.33 138.74,-856.52 145,-843.24 150.95,-830.63 156.52,-818.8 161.65,-807.91 166.29,-798.07 170.36,-789.43 170.36,-789.43 166.13,-798 161.32,-807.75 155.98,-818.55 150.2,-830.27 144.02,-842.77 137.53,-855.94 130.77,-869.62 123.82,-883.7 116.74,-898.04 109.6,-912.51 102.45,-926.97 95.38,-941.3 88.44,-955.36 81.69,-969.03 75.2,-982.17 69.05,-994.64 63.28,-1006.32 57.97,-1017.07 53.18,-1026.77 48.98,-1035.28 53.48,-1037.45"/>
<text text-anchor="middle" x="96.47" y="-920.75" font-family="Times,serif" font-size="14.00" fill="#909000">女儿</text>
</g>
<!-- 哈洛德&#45;&gt;阿妮塔 -->
<g id="edge17" class="edge">
<title>哈洛德&#45;&gt;阿妮塔</title>
<polygon fill="#909000" stroke="none" stroke-width="5" points="50.6,-1077.89 55.19,-1085.84 60.39,-1094.85 66.12,-1104.8 72.33,-1115.56 78.94,-1127.02 85.88,-1139.06 93.1,-1151.57 100.52,-1164.43 108.07,-1177.52 115.69,-1190.73 123.3,-1203.94 130.85,-1217.03 138.27,-1229.88 145.48,-1242.38 152.42,-1254.42 159.02,-1265.87 165.22,-1276.62 170.95,-1286.54 176.13,-1295.53 180.71,-1303.47 180.71,-1303.47 176.29,-1295.45 171.27,-1286.36 165.74,-1276.32 159.75,-1265.46 153.37,-1253.89 146.66,-1241.72 139.69,-1229.08 132.52,-1216.09 125.22,-1202.85 117.86,-1189.5 110.5,-1176.15 103.2,-1162.92 96.03,-1149.92 89.06,-1137.27 82.34,-1125.1 75.96,-1113.51 69.96,-1102.63 64.41,-1092.58 59.39,-1083.47 54.96,-1075.43 50.6,-1077.89"/>
<text text-anchor="middle" x="102.52" y="-1176.82" font-family="Times,serif" font-size="14.00" fill="#909000">女儿</text>
</g>
<!-- 伊莎贝拉 -->
<g id="node24" class="node">
<title>伊莎贝拉</title>
<ellipse fill="none" stroke="#009000" cx="268.28" cy="-1638.82" rx="51.62" ry="20.51"/>
<text text-anchor="middle" x="268.28" y="-1636.02" font-family="Times,serif" font-size="14.00" fill="#009000">伊莎贝拉</text>
</g>
<!-- 戈弗里&#45;&gt;伊莎贝拉 -->
<g id="edge25" class="edge">
<title>戈弗里&#45;&gt;伊莎贝拉</title>
<polygon fill="#489000" stroke="none" stroke-width="5" points="344,-1350.87 341.6,-1360.02 338.85,-1370.51 335.79,-1382.18 332.46,-1394.89 328.89,-1408.48 325.13,-1422.81 321.22,-1437.74 317.19,-1453.11 313.08,-1468.78 308.93,-1484.59 304.78,-1500.4 300.68,-1516.06 296.65,-1531.43 292.73,-1546.35 288.98,-1560.68 285.41,-1574.26 282.08,-1586.96 279.03,-1598.62 276.28,-1609.09 273.88,-1618.23 273.88,-1618.23 276.44,-1609.13 279.38,-1598.71 282.65,-1587.11 286.21,-1574.48 290.01,-1560.96 294.03,-1546.7 298.21,-1531.86 302.52,-1516.57 306.91,-1500.98 311.34,-1485.25 315.77,-1469.51 320.17,-1453.92 324.47,-1438.63 328.66,-1423.77 332.68,-1409.51 336.49,-1395.98 340.05,-1383.34 343.32,-1371.73 346.26,-1361.29 348.82,-1352.18 344,-1350.87"/>
<text text-anchor="middle" x="295.89" y="-1492.62" font-family="Times,serif" font-size="14.00" fill="#489000">妻子</text>
</g>
<!-- 伊莎贝拉&#45;&gt;海莉 -->
<g id="edge24" class="edge">
<title>伊莎贝拉&#45;&gt;海莉</title>
<polygon fill="#009000" stroke="none" stroke-width="5" points="285.37,-1620.3 292.91,-1610.15 301.7,-1598.33 311.59,-1585.02 322.45,-1570.41 334.14,-1554.69 346.51,-1538.05 359.43,-1520.67 372.76,-1502.73 386.36,-1484.44 400.09,-1465.97 413.81,-1447.51 427.38,-1429.26 440.67,-1411.39 453.52,-1394.1 465.81,-1377.56 477.39,-1361.98 488.13,-1347.54 497.88,-1334.42 506.51,-1322.81 513.88,-1312.9 513.88,-1312.9 506.38,-1322.71 497.6,-1334.21 487.68,-1347.2 476.76,-1361.5 464.97,-1376.93 452.47,-1393.3 439.39,-1410.42 425.87,-1428.12 412.06,-1446.2 398.1,-1464.47 384.13,-1482.76 370.3,-1500.88 356.74,-1518.63 343.59,-1535.84 331,-1552.33 319.11,-1567.89 308.06,-1582.36 297.99,-1595.54 289.05,-1607.24 281.37,-1617.29 285.37,-1620.3"/>
<text text-anchor="middle" x="304.22" y="-1451.92" font-family="Times,serif" font-size="14.00" fill="#009000">女儿，知道其遭遇,不管其生死</text>
</g>
<!-- 法尔克&#45;&gt;海莉 -->
<g id="edge23" class="edge">
<title>法尔克&#45;&gt;海莉</title>
<polygon fill="#009048" stroke="none" stroke-width="5" points="805.88,-1460.31 796.44,-1454.67 785.91,-1448.39 774.42,-1441.52 762.07,-1434.15 749.01,-1426.34 735.35,-1418.18 721.22,-1409.74 706.74,-1401.09 692.03,-1392.31 677.23,-1383.47 662.45,-1374.64 647.83,-1365.91 633.47,-1357.33 619.52,-1349 606.09,-1340.98 593.31,-1333.34 581.3,-1326.17 570.19,-1319.53 560.1,-1313.51 551.15,-1308.16 551.15,-1308.16 560.01,-1313.66 570,-1319.85 580.99,-1326.68 592.88,-1334.05 605.53,-1341.9 618.82,-1350.14 632.63,-1358.71 646.84,-1367.53 661.32,-1376.51 675.94,-1385.58 690.59,-1394.67 705.15,-1403.7 719.48,-1412.59 733.47,-1421.27 746.99,-1429.66 759.92,-1437.68 772.14,-1445.26 783.52,-1452.32 793.94,-1458.79 803.28,-1464.58 805.88,-1460.31"/>
<text text-anchor="middle" x="598.21" y="-1392.22" font-family="Times,serif" font-size="14.00" fill="#009048">案件最后见到海莉的牧师</text>
</g>
<!-- 史特兰 -->
<g id="node26" class="node">
<title>史特兰</title>
<ellipse fill="none" stroke="#009090" cx="336.1" cy="-306.11" rx="41.54" ry="20.51"/>
<text text-anchor="middle" x="336.1" y="-303.31" font-family="Times,serif" font-size="14.00" fill="#009090">史特兰</text>
</g>
<!-- 史特兰&#45;&gt;布隆维斯特 -->
<g id="edge6" class="edge">
<title>史特兰&#45;&gt;布隆维斯特</title>
<polygon fill="#009090" stroke="none" stroke-width="5" points="356.15,-325.95 366.11,-334.1 377.61,-343.5 390.5,-354.04 404.63,-365.59 419.86,-378.04 436.02,-391.26 452.98,-405.12 470.58,-419.51 488.68,-434.31 507.12,-449.39 525.75,-464.63 544.44,-479.9 563.01,-495.09 581.34,-510.07 599.26,-524.73 616.64,-538.93 633.31,-552.56 649.13,-565.5 663.95,-577.62 677.62,-588.79 677.62,-588.79 664.08,-577.45 649.41,-565.16 633.75,-552.03 617.24,-538.2 600.04,-523.79 582.29,-508.92 564.15,-493.72 545.76,-478.3 527.26,-462.81 508.81,-447.35 490.55,-432.05 472.63,-417.03 455.21,-402.43 438.42,-388.36 422.41,-374.95 407.34,-362.32 393.35,-350.6 380.59,-339.91 369.2,-330.36 359.34,-322.1 356.15,-325.95"/>
<text text-anchor="middle" x="393.96" y="-456.07" font-family="Times,serif" font-size="14.00" fill="#009090">解释法尔克说的话，告知次经与正典</text>
</g>
<!-- 佩妮拉 -->
<g id="node28" class="node">
<title>佩妮拉</title>
<ellipse fill="none" stroke="#000090" cx="1053.37" cy="-186.51" rx="41.54" ry="20.51"/>
<text text-anchor="middle" x="1053.37" y="-183.71" font-family="Times,serif" font-size="14.00" fill="#000090">佩妮拉</text>
</g>
<!-- 佩妮拉&#45;&gt;布隆维斯特 -->
<g id="edge14" class="edge">
<title>佩妮拉&#45;&gt;布隆维斯特</title>
<polygon fill="#000090" stroke="none" stroke-width="5" points="1036.96,-204.7 1029.16,-215.49 1019.93,-228.26 1009.41,-242.8 997.75,-258.92 985.07,-276.45 971.53,-295.18 957.24,-314.92 942.36,-335.5 927.02,-356.71 911.36,-378.37 895.51,-400.28 879.61,-422.26 863.81,-444.12 848.23,-465.66 833.01,-486.7 818.29,-507.05 804.22,-526.51 790.92,-544.9 778.53,-562.02 767.2,-577.69 767.2,-577.69 778.7,-562.15 791.27,-545.16 804.77,-526.91 819.06,-507.61 833.99,-487.42 849.44,-466.55 865.25,-445.17 881.3,-423.49 897.43,-401.68 913.52,-379.94 929.41,-358.46 944.98,-337.41 960.09,-317 974.58,-297.41 988.33,-278.83 1001.19,-261.45 1013.03,-245.45 1023.71,-231.02 1033.07,-218.36 1041,-207.65 1036.96,-204.7"/>
<text text-anchor="middle" x="912.44" y="-365.85" font-family="Times,serif" font-size="14.00" fill="#000090">父亲，无意告诉海莉线索与圣经利末记关联</text>
</g>
<!-- 达曼&#45;&gt;布隆维斯特 -->
<g id="edge12" class="edge">
<title>达曼&#45;&gt;布隆维斯特</title>
<polygon fill="#900090" stroke="none" stroke-width="5" points="1055.13,-394.41 1046.44,-400.71 1036.54,-407.89 1025.56,-415.86 1013.6,-424.53 1000.78,-433.83 987.21,-443.67 973.01,-453.97 958.29,-464.64 943.15,-475.62 927.73,-486.8 912.12,-498.12 896.44,-509.49 880.81,-520.83 865.34,-532.05 850.14,-543.08 835.32,-553.82 821,-564.21 807.29,-574.15 794.3,-583.57 782.15,-592.38 782.15,-592.38 794.43,-583.75 807.56,-574.53 821.41,-564.79 835.88,-554.62 850.86,-544.09 866.22,-533.29 881.86,-522.3 897.66,-511.2 913.5,-500.06 929.28,-488.97 944.87,-478.02 960.16,-467.27 975.04,-456.81 989.39,-446.72 1003.1,-437.09 1016.06,-427.98 1028.15,-419.49 1039.25,-411.68 1049.25,-404.65 1058.04,-398.48 1055.13,-394.41"/>
<text text-anchor="middle" x="914.25" y="-495.59" font-family="Times,serif" font-size="14.00" fill="#900090">老板</text>
</g>
<!-- 托尔森&#45;&gt;布隆维斯特 -->
<g id="edge8" class="edge">
<title>托尔森&#45;&gt;布隆维斯特</title>
<polygon fill="#900000" stroke="none" stroke-width="5" points="502.61,-817.02 508.73,-811.94 515.45,-806.36 522.72,-800.34 530.49,-793.9 538.69,-787.1 547.28,-779.98 556.19,-772.59 565.39,-764.97 574.8,-757.16 584.38,-749.22 594.07,-741.18 603.82,-733.1 613.58,-725.01 623.28,-716.97 632.88,-709.01 642.32,-701.18 651.55,-693.53 660.51,-686.1 669.14,-678.94 677.4,-672.09 677.4,-672.09 668.99,-678.76 660.2,-685.73 651.08,-692.96 641.69,-700.4 632.08,-708.02 622.31,-715.76 612.43,-723.59 602.5,-731.47 592.57,-739.33 582.7,-747.15 572.95,-754.88 563.37,-762.48 554.01,-769.89 544.93,-777.09 536.19,-784.02 527.84,-790.63 519.94,-796.9 512.54,-802.77 505.69,-808.19 499.46,-813.13 502.61,-817.02"/>
<text text-anchor="middle" x="569.29" y="-755.89" font-family="Times,serif" font-size="14.00" fill="#900000">抹黑</text>
</g>
<!-- 瘟疫 -->
<g id="node33" class="node">
<title>瘟疫</title>
<ellipse fill="none" stroke="#904800" cx="1308.27" cy="-674.85" rx="31.47" ry="20.51"/>
<text text-anchor="middle" x="1308.27" y="-672.05" font-family="Times,serif" font-size="14.00" fill="#904800">瘟疫</text>
</g>
<!-- 瘟疫&#45;&gt;布隆维斯特 -->
<g id="edge2" class="edge">
<title>瘟疫&#45;&gt;布隆维斯特</title>
<polygon fill="#904800" stroke="none" stroke-width="5" points="1276.87,-669.96 1261.87,-668.9 1244.48,-667.67 1224.94,-666.28 1203.49,-664.76 1180.37,-663.13 1155.8,-661.39 1130.04,-659.56 1103.31,-657.67 1075.86,-655.73 1047.93,-653.75 1019.74,-651.76 991.55,-649.76 963.58,-647.78 936.07,-645.83 909.26,-643.94 883.4,-642.11 858.71,-640.36 835.44,-638.71 813.82,-637.18 794.09,-635.78 794.09,-635.78 813.8,-637.39 835.41,-639.14 858.66,-641.03 883.33,-643.03 909.17,-645.13 935.96,-647.3 963.44,-649.53 991.39,-651.8 1019.56,-654.09 1047.73,-656.37 1075.64,-658.64 1103.07,-660.87 1129.77,-663.03 1155.52,-665.12 1180.06,-667.12 1203.17,-668.99 1224.6,-670.73 1244.13,-672.32 1261.5,-673.73 1276.49,-674.94 1276.87,-669.96"/>
<text text-anchor="middle" x="997.95" y="-641.76" font-family="Times,serif" font-size="14.00" fill="#904800">定位到海莉位置</text>
</g>
<!-- 黄蜂&#45;&gt;瘟疫 -->
<g id="edge3" class="edge">
<title>黄蜂&#45;&gt;瘟疫</title>
<polygon fill="#489000" stroke="none" stroke-width="5" points="1482.92,-905.56 1477.25,-898.08 1470.83,-889.62 1463.75,-880.27 1456.08,-870.16 1447.92,-859.4 1439.34,-848.08 1430.43,-836.33 1421.27,-824.24 1411.94,-811.94 1402.53,-799.53 1393.12,-787.12 1383.79,-774.82 1374.64,-762.74 1365.73,-751 1357.15,-739.69 1349,-728.93 1341.34,-718.83 1334.27,-709.51 1327.86,-701.06 1322.21,-693.6 1322.21,-693.6 1327.72,-701.16 1333.97,-709.73 1340.86,-719.19 1348.33,-729.43 1356.28,-740.34 1364.64,-751.81 1373.33,-763.72 1382.26,-775.97 1391.35,-788.44 1400.52,-801.02 1409.7,-813.61 1418.79,-826.08 1427.72,-838.33 1436.41,-850.25 1444.78,-861.73 1452.74,-872.65 1460.22,-882.9 1467.12,-892.38 1473.38,-900.96 1478.91,-908.54 1482.92,-905.56"/>
<text text-anchor="middle" x="1373.03" y="-807.98" font-family="Times,serif" font-size="14.00" fill="#489000">黑客伙伴</text>
</g>
<!-- 安娜 -->
<g id="node36" class="node">
<title>安娜</title>
<ellipse fill="none" stroke="black" cx="571.44" cy="-192.82" rx="31.47" ry="20.51"/>
<text text-anchor="middle" x="571.44" y="-190.02" font-family="Times,serif" font-size="14.00">安娜</text>
</g>
<!-- 安娜&#45;&gt;布隆维斯特 -->
<g id="edge5" class="edge">
<title>安娜&#45;&gt;布隆维斯特</title>
<polygon fill="#000000" stroke="none" stroke-width="5" points="576.34,-213.91 580.12,-224.23 584.54,-236.33 589.56,-250.05 595.1,-265.2 601.11,-281.64 607.53,-299.19 614.3,-317.68 621.35,-336.96 628.62,-356.85 636.06,-377.19 643.6,-397.81 651.19,-418.54 658.75,-439.22 666.24,-459.69 673.58,-479.77 680.73,-499.31 687.61,-518.12 694.17,-536.06 700.35,-552.94 706.08,-568.62 706.08,-568.62 700.56,-552.87 694.6,-535.9 688.28,-517.88 681.65,-498.98 674.76,-479.35 667.68,-459.17 660.47,-438.61 653.18,-417.83 645.87,-396.99 638.6,-376.28 631.43,-355.84 624.42,-335.86 617.63,-316.49 611.11,-297.91 604.92,-280.27 599.13,-263.76 593.79,-248.53 588.95,-234.75 584.69,-222.6 581.05,-212.23 576.34,-213.91"/>
<text text-anchor="middle" x="708.58" y="-384.43" font-family="Times,serif" font-size="14.00" fill="#000000">告知图片中的人是马丁</text>
</g>
</g>
</svg>
