<?xml version="1.0" encoding="UTF-8" standalone="no"?>
<!DOCTYPE svg PUBLIC "-//W3C//DTD SVG 1.1//EN"
 "http://www.w3.org/Graphics/SVG/1.1/DTD/svg11.dtd">
<!-- Generated by graphviz version 9.0.0 (0)
 -->
<!-- Title: G Pages: 1 -->
<svg width="1332pt" height="698pt"
 viewBox="0.00 0.00 1332.37 698.01" xmlns="http://www.w3.org/2000/svg" xmlns:xlink="http://www.w3.org/1999/xlink">
<g id="graph0" class="graph" transform="scale(1 1) rotate(0) translate(4 694.01)">
<title>G</title>
<polygon fill="white" stroke="none" points="-4,4 -4,-694.01 1328.37,-694.01 1328.37,4 -4,4"/>
<!-- m -->
<g id="node1" class="node">
<title>m</title>
<defs>
<radialGradient id="node1_r_0" cx="50%" cy="50%" r="75%" fx="50%" fy="50%">
<stop offset="0" style="stop-color:#00e616;stop-opacity:1.;"/>
<stop offset="1" style="stop-color:#00900e;stop-opacity:1.;"/>
</radialGradient>
</defs>
<ellipse fill="url(#node1_r_0)" stroke="#00e616" cx="508.64" cy="-285.51" rx="31.47" ry="20.51"/>
<text text-anchor="middle" x="508.64" y="-282.71" font-family="Times,serif" font-size="14.00" fill="#00730b">管理</text>
</g>
<!-- m&#45;doc -->
<g id="node2" class="node">
<title>m&#45;doc</title>
<defs>
<radialGradient id="node2_r_1" cx="50%" cy="50%" r="75%" fx="50%" fy="50%">
<stop offset="0" style="stop-color:#00e62c;stop-opacity:1.;"/>
<stop offset="1" style="stop-color:#00901c;stop-opacity:1.;"/>
</radialGradient>
</defs>
<ellipse fill="url(#node2_r_1)" stroke="#00e62c" cx="607.57" cy="-579.51" rx="31.47" ry="20.51"/>
<text text-anchor="middle" x="607.57" y="-576.71" font-family="Times,serif" font-size="14.00" fill="#007316">资料</text>
</g>
<!-- m&#45;&gt;m&#45;doc -->
<g id="edge5" class="edge">
<title>m&#45;&gt;m&#45;doc</title>
<polygon fill="#00900e" stroke="none" stroke-width="5" points="511.35,-306.49 512.84,-313.15 514.53,-320.58 516.43,-328.73 518.53,-337.55 520.82,-346.97 523.3,-356.95 525.96,-367.41 528.81,-378.32 531.84,-389.6 535.04,-401.21 538.41,-413.09 541.95,-425.18 545.65,-437.42 549.5,-449.76 553.52,-462.13 557.68,-474.5 561.98,-486.79 566.43,-498.95 571.02,-510.92 575.74,-522.65 576.56,-524.61 577.41,-526.57 578.28,-528.54 579.19,-530.52 580.11,-532.49 581.05,-534.47 582.02,-536.43 582.99,-538.39 583.98,-540.34 584.98,-542.28 585.98,-544.2 586.99,-546.1 588,-547.97 589.01,-549.82 590.01,-551.65 591.01,-553.44 592.01,-555.19 592.99,-556.91 593.96,-558.59 594.91,-560.23 594.91,-560.23 593.99,-558.57 593.05,-556.88 592.1,-555.14 591.14,-553.37 590.18,-551.56 589.2,-549.72 588.23,-547.85 587.26,-545.96 586.28,-544.04 585.32,-542.11 584.36,-540.15 583.41,-538.19 582.47,-536.22 581.55,-534.23 580.64,-532.25 579.76,-530.26 578.9,-528.27 578.06,-526.29 577.25,-524.32 576.47,-522.36 571.97,-510.56 567.62,-498.52 563.41,-486.29 559.34,-473.94 555.41,-461.53 551.64,-449.1 548.02,-436.71 544.56,-424.43 541.25,-412.3 538.11,-400.39 535.13,-388.74 532.32,-377.42 529.68,-366.49 527.22,-356 524.93,-346 522.82,-336.56 520.89,-327.73 519.15,-319.56 517.6,-312.12 516.24,-305.45 511.35,-306.49"/>
</g>
<!-- m&#45;factory -->
<g id="node4" class="node">
<title>m&#45;factory</title>
<defs>
<radialGradient id="node4_r_2" cx="50%" cy="50%" r="75%" fx="50%" fy="50%">
<stop offset="0" style="stop-color:#00e659;stop-opacity:1.;"/>
<stop offset="1" style="stop-color:#009038;stop-opacity:1.;"/>
</radialGradient>
</defs>
<ellipse fill="url(#node4_r_2)" stroke="#00e659" cx="607.57" cy="-492.51" rx="31.47" ry="20.51"/>
<text text-anchor="middle" x="607.57" y="-489.71" font-family="Times,serif" font-size="14.00" fill="#00732c">工厂</text>
</g>
<!-- m&#45;&gt;m&#45;factory -->
<g id="edge7" class="edge">
<title>m&#45;&gt;m&#45;factory</title>
<polygon fill="#00900e" stroke="none" stroke-width="5" points="515.82,-306.29 517.81,-310.73 519.97,-315.53 522.29,-320.67 524.75,-326.11 527.35,-331.83 530.07,-337.81 532.91,-344.01 535.85,-350.42 538.89,-357.01 542.01,-363.74 545.21,-370.61 548.46,-377.57 551.77,-384.61 555.13,-391.69 558.51,-398.8 561.92,-405.9 565.34,-412.98 568.76,-420 572.17,-426.93 575.56,-433.77 576.56,-435.76 577.58,-437.77 578.6,-439.79 579.64,-441.83 580.69,-443.87 581.75,-445.92 582.81,-447.96 583.88,-450.01 584.95,-452.04 586.01,-454.07 587.08,-456.08 588.13,-458.08 589.18,-460.05 590.22,-462 591.25,-463.92 592.27,-465.81 593.27,-467.66 594.25,-469.48 595.21,-471.25 596.14,-472.97 596.14,-472.97 595.25,-471.22 594.34,-469.43 593.41,-467.59 592.46,-465.71 591.5,-463.79 590.52,-461.84 589.54,-459.87 588.54,-457.87 587.54,-455.85 586.53,-453.81 585.52,-451.75 584.51,-449.69 583.5,-447.62 582.49,-445.55 581.49,-443.47 580.5,-441.41 579.51,-439.35 578.54,-437.3 577.58,-435.26 576.64,-433.25 573.44,-426.33 570.22,-419.31 566.99,-412.2 563.77,-405.04 560.55,-397.86 557.36,-390.67 554.21,-383.5 551.09,-376.38 548.02,-369.34 545.02,-362.4 542.08,-355.58 539.23,-348.92 536.46,-342.44 533.79,-336.17 531.23,-330.13 528.79,-324.34 526.48,-318.84 524.31,-313.65 522.28,-308.8 520.41,-304.3 515.82,-306.29"/>
</g>
<!-- m&#45;site -->
<g id="node5" class="node">
<title>m&#45;site</title>
<defs>
<radialGradient id="node5_r_3" cx="50%" cy="50%" r="75%" fx="50%" fy="50%">
<stop offset="0" style="stop-color:#00e670;stop-opacity:1.;"/>
<stop offset="1" style="stop-color:#009046;stop-opacity:1.;"/>
</radialGradient>
</defs>
<ellipse fill="url(#node5_r_3)" stroke="#00e670" cx="607.57" cy="-403.51" rx="31.47" ry="20.51"/>
<text text-anchor="middle" x="607.57" y="-400.71" font-family="Times,serif" font-size="14.00" fill="#007338">网站</text>
</g>
<!-- m&#45;&gt;m&#45;site -->
<g id="edge8" class="edge">
<title>m&#45;&gt;m&#45;site</title>
<polygon fill="#00900e" stroke="none" stroke-width="5" points="520.21,-305.7 522.26,-308.51 524.42,-311.46 526.69,-314.54 529.07,-317.73 531.54,-321.03 534.1,-324.42 536.75,-327.89 539.47,-331.43 542.26,-335.02 545.12,-338.65 548.04,-342.32 551,-346.01 554.02,-349.7 557.07,-353.39 560.15,-357.07 563.25,-360.72 566.38,-364.32 569.51,-367.88 572.65,-371.37 575.79,-374.78 576.38,-375.41 576.97,-376.04 577.58,-376.67 578.18,-377.3 578.8,-377.93 579.42,-378.55 580.04,-379.18 580.67,-379.81 581.3,-380.43 581.93,-381.06 582.57,-381.68 583.21,-382.3 583.85,-382.91 584.49,-383.53 585.14,-384.14 585.78,-384.74 586.42,-385.34 587.07,-385.94 587.71,-386.53 588.35,-387.12 588.35,-387.12 587.74,-386.5 587.12,-385.88 586.51,-385.26 585.9,-384.62 585.28,-383.99 584.67,-383.35 584.06,-382.71 583.45,-382.06 582.84,-381.42 582.23,-380.77 581.63,-380.12 581.03,-379.46 580.43,-378.81 579.84,-378.15 579.25,-377.5 578.67,-376.84 578.1,-376.19 577.53,-375.54 576.97,-374.88 576.41,-374.23 573.44,-370.68 570.48,-367.06 567.52,-363.37 564.58,-359.63 561.66,-355.85 558.76,-352.05 555.9,-348.23 553.07,-344.41 550.29,-340.6 547.56,-336.81 544.89,-333.06 542.28,-329.36 539.73,-325.71 537.26,-322.13 534.87,-318.64 532.57,-315.24 530.36,-311.96 528.24,-308.79 526.23,-305.75 524.32,-302.85 520.21,-305.7"/>
</g>
<!-- m&#45;platform -->
<g id="node6" class="node">
<title>m&#45;platform</title>
<defs>
<radialGradient id="node6_r_4" cx="50%" cy="50%" r="75%" fx="50%" fy="50%">
<stop offset="0" style="stop-color:#00e686;stop-opacity:1.;"/>
<stop offset="1" style="stop-color:#009054;stop-opacity:1.;"/>
</radialGradient>
</defs>
<ellipse fill="url(#node6_r_4)" stroke="#00e686" cx="607.57" cy="-344.51" rx="31.47" ry="20.51"/>
<text text-anchor="middle" x="607.57" y="-341.71" font-family="Times,serif" font-size="14.00" fill="#007343">平台</text>
</g>
<!-- m&#45;&gt;m&#45;platform -->
<g id="edge9" class="edge">
<title>m&#45;&gt;m&#45;platform</title>
<polygon fill="#00900e" stroke="none" stroke-width="5" points="530.82,-301.33 533.25,-302.67 535.75,-304.05 538.31,-305.47 540.92,-306.92 543.58,-308.39 546.29,-309.89 549.02,-311.4 551.78,-312.93 554.55,-314.46 557.33,-316 560.11,-317.54 562.88,-319.07 565.64,-320.6 568.38,-322.11 571.08,-323.61 573.75,-325.09 576.37,-326.54 578.93,-327.96 581.44,-329.34 583.87,-330.69 583.87,-330.69 581.56,-329.15 579.18,-327.56 576.73,-325.93 574.24,-324.27 571.71,-322.58 569.14,-320.87 566.53,-319.13 563.91,-317.38 561.27,-315.63 558.63,-313.86 555.98,-312.1 553.35,-310.34 550.73,-308.59 548.13,-306.86 545.56,-305.15 543.03,-303.46 540.54,-301.8 538.1,-300.18 535.73,-298.59 533.42,-297.05 530.82,-301.33"/>
</g>
<!-- m&#45;customer -->
<g id="node7" class="node">
<title>m&#45;customer</title>
<defs>
<radialGradient id="node7_r_5" cx="50%" cy="50%" r="75%" fx="50%" fy="50%">
<stop offset="0" style="stop-color:#00e69c;stop-opacity:1.;"/>
<stop offset="1" style="stop-color:#009062;stop-opacity:1.;"/>
</radialGradient>
</defs>
<ellipse fill="url(#node7_r_5)" stroke="#00e69c" cx="607.57" cy="-285.51" rx="31.47" ry="20.51"/>
<text text-anchor="middle" x="607.57" y="-282.71" font-family="Times,serif" font-size="14.00" fill="#00734e">客户</text>
</g>
<!-- m&#45;&gt;m&#45;customer -->
<g id="edge10" class="edge">
<title>m&#45;&gt;m&#45;customer</title>
<polygon fill="#00900e" stroke="none" stroke-width="5" points="540.57,-288.01 542.28,-287.89 544,-287.76 545.75,-287.64 547.51,-287.52 549.28,-287.39 551.06,-287.26 552.85,-287.14 554.65,-287.01 556.45,-286.88 558.26,-286.76 560.06,-286.63 561.87,-286.5 563.66,-286.37 565.45,-286.25 567.23,-286.12 569,-286 570.76,-285.87 572.5,-285.75 574.22,-285.63 575.93,-285.51 575.93,-285.51 574.22,-285.39 572.5,-285.26 570.76,-285.14 569,-285.02 567.23,-284.89 565.45,-284.77 563.66,-284.64 561.87,-284.51 560.06,-284.38 558.26,-284.26 556.45,-284.13 554.65,-284 552.85,-283.87 551.06,-283.75 549.28,-283.62 547.51,-283.5 545.75,-283.37 544,-283.25 542.28,-283.13 540.57,-283.01 540.57,-288.01"/>
</g>
<!-- m&#45;trans -->
<g id="node8" class="node">
<title>m&#45;trans</title>
<defs>
<radialGradient id="node8_r_6" cx="50%" cy="50%" r="75%" fx="50%" fy="50%">
<stop offset="0" style="stop-color:#00e6b3;stop-opacity:1.;"/>
<stop offset="1" style="stop-color:#009070;stop-opacity:1.;"/>
</radialGradient>
</defs>
<ellipse fill="url(#node8_r_6)" stroke="#00e6b3" cx="607.57" cy="-226.51" rx="31.47" ry="20.51"/>
<text text-anchor="middle" x="607.57" y="-223.71" font-family="Times,serif" font-size="14.00" fill="#007359">运输</text>
</g>
<!-- m&#45;&gt;m&#45;trans -->
<g id="edge11" class="edge">
<title>m&#45;&gt;m&#45;trans</title>
<polygon fill="#00900e" stroke="none" stroke-width="5" points="533.42,-273.96 535.73,-272.42 538.1,-270.83 540.54,-269.21 543.03,-267.55 545.56,-265.86 548.13,-264.15 550.73,-262.42 553.35,-260.67 555.98,-258.91 558.63,-257.15 561.27,-255.39 563.91,-253.63 566.53,-251.88 569.14,-250.15 571.71,-248.43 574.24,-246.74 576.73,-245.08 579.18,-243.45 581.56,-241.86 583.87,-240.32 583.87,-240.32 581.44,-241.67 578.93,-243.05 576.37,-244.47 573.75,-245.93 571.08,-247.4 568.38,-248.9 565.64,-250.41 562.88,-251.94 560.11,-253.47 557.33,-255.01 554.55,-256.55 551.78,-258.09 549.02,-259.61 546.29,-261.13 543.58,-262.62 540.92,-264.09 538.31,-265.54 535.75,-266.96 533.25,-268.34 530.82,-269.69 533.42,-273.96"/>
</g>
<!-- m&#45;storage -->
<g id="node9" class="node">
<title>m&#45;storage</title>
<defs>
<radialGradient id="node9_r_7" cx="50%" cy="50%" r="75%" fx="50%" fy="50%">
<stop offset="0" style="stop-color:#00e6c9;stop-opacity:1.;"/>
<stop offset="1" style="stop-color:#00907e;stop-opacity:1.;"/>
</radialGradient>
</defs>
<ellipse fill="url(#node9_r_7)" stroke="#00e6c9" cx="607.57" cy="-167.51" rx="31.47" ry="20.51"/>
<text text-anchor="middle" x="607.57" y="-164.71" font-family="Times,serif" font-size="14.00" fill="#007364">仓储</text>
</g>
<!-- m&#45;&gt;m&#45;storage -->
<g id="edge12" class="edge">
<title>m&#45;&gt;m&#45;storage</title>
<polygon fill="#00900e" stroke="none" stroke-width="5" points="524.32,-268.16 526.23,-265.26 528.24,-262.23 530.36,-259.06 532.57,-255.77 534.87,-252.37 537.26,-248.88 539.73,-245.3 542.28,-241.66 544.89,-237.95 547.56,-234.2 550.29,-230.41 553.07,-226.6 555.9,-222.78 558.76,-218.96 561.66,-215.16 564.58,-211.38 567.52,-207.64 570.48,-203.96 573.44,-200.33 576.41,-196.78 576.97,-196.13 577.53,-195.48 578.1,-194.82 578.67,-194.17 579.25,-193.51 579.84,-192.86 580.43,-192.2 581.03,-191.55 581.63,-190.9 582.23,-190.25 582.84,-189.6 583.45,-188.95 584.06,-188.3 584.67,-187.66 585.28,-187.02 585.9,-186.39 586.51,-185.76 587.12,-185.13 587.74,-184.51 588.35,-183.89 588.35,-183.89 587.71,-184.48 587.07,-185.07 586.42,-185.67 585.78,-186.27 585.14,-186.88 584.49,-187.49 583.85,-188.1 583.21,-188.71 582.57,-189.33 581.93,-189.96 581.3,-190.58 580.67,-191.2 580.04,-191.83 579.42,-192.46 578.8,-193.09 578.18,-193.72 577.58,-194.35 576.97,-194.97 576.38,-195.6 575.79,-196.23 572.65,-199.65 569.51,-203.14 566.38,-206.69 563.25,-210.3 560.15,-213.94 557.07,-217.62 554.02,-221.31 551,-225 548.04,-228.69 545.12,-232.36 542.26,-235.99 539.47,-239.59 536.75,-243.12 534.1,-246.59 531.54,-249.98 529.07,-253.28 526.69,-256.47 524.42,-259.55 522.26,-262.5 520.21,-265.31 524.32,-268.16"/>
</g>
<!-- m&#45;order -->
<g id="node15" class="node">
<title>m&#45;order</title>
<defs>
<radialGradient id="node15_r_8" cx="50%" cy="50%" r="75%" fx="50%" fy="50%">
<stop offset="0" style="stop-color:#008cf6;stop-opacity:1.;"/>
<stop offset="1" style="stop-color:#00589a;stop-opacity:1.;"/>
</radialGradient>
</defs>
<ellipse fill="url(#node15_r_8)" stroke="#008cf6" cx="607.57" cy="-108.51" rx="31.47" ry="20.51"/>
<text text-anchor="middle" x="607.57" y="-105.71" font-family="Times,serif" font-size="14.00" fill="#90e8ff">订单</text>
</g>
<!-- m&#45;&gt;m&#45;order -->
<g id="edge18" class="edge">
<title>m&#45;&gt;m&#45;order</title>
<polygon fill="#00900e" stroke="none" stroke-width="5" points="518.19,-266.35 519.67,-261.68 521.31,-256.65 523.1,-251.27 525.05,-245.57 527.15,-239.6 529.41,-233.37 531.83,-226.93 534.39,-220.3 537.1,-213.51 539.96,-206.61 542.96,-199.6 546.11,-192.54 549.41,-185.45 552.84,-178.37 556.41,-171.31 560.12,-164.33 563.97,-157.43 567.95,-150.67 572.07,-144.07 576.32,-137.66 576.8,-136.98 577.28,-136.3 577.78,-135.62 578.28,-134.94 578.8,-134.27 579.33,-133.59 579.86,-132.93 580.4,-132.26 580.95,-131.6 581.51,-130.94 582.07,-130.29 582.64,-129.64 583.21,-128.99 583.79,-128.36 584.37,-127.72 584.96,-127.09 585.54,-126.47 586.13,-125.85 586.73,-125.24 587.32,-124.64 587.32,-124.64 586.71,-125.22 586.1,-125.82 585.49,-126.41 584.88,-127.02 584.27,-127.63 583.67,-128.24 583.07,-128.87 582.48,-129.49 581.89,-130.13 581.3,-130.76 580.73,-131.4 580.15,-132.05 579.59,-132.7 579.03,-133.35 578.48,-134.01 577.94,-134.67 577.41,-135.34 576.89,-136.01 576.38,-136.68 575.88,-137.35 571.42,-143.64 567.09,-150.13 562.88,-156.79 558.8,-163.58 554.85,-170.47 551.04,-177.44 547.37,-184.45 543.84,-191.47 540.46,-198.46 537.22,-205.4 534.13,-212.25 531.19,-218.98 528.4,-225.57 525.77,-231.97 523.31,-238.15 521,-244.09 518.86,-249.76 516.88,-255.11 515.08,-260.13 513.45,-264.76 518.19,-266.35"/>
</g>
<!-- m&#45;finance -->
<g id="node16" class="node">
<title>m&#45;finance</title>
<defs>
<radialGradient id="node16_r_9" cx="50%" cy="50%" r="75%" fx="50%" fy="50%">
<stop offset="0" style="stop-color:#0076f6;stop-opacity:1.;"/>
<stop offset="1" style="stop-color:#004a9a;stop-opacity:1.;"/>
</radialGradient>
</defs>
<ellipse fill="url(#node16_r_9)" stroke="#0076f6" cx="607.57" cy="-49.51" rx="31.47" ry="20.51"/>
<text text-anchor="middle" x="607.57" y="-46.71" font-family="Times,serif" font-size="14.00" fill="#90daff">财务</text>
</g>
<!-- m&#45;&gt;m&#45;finance -->
<g id="edge19" class="edge">
<title>m&#45;&gt;m&#45;finance</title>
<polygon fill="#00900e" stroke="none" stroke-width="5" points="515.21,-265.41 516.22,-259.23 517.39,-252.4 518.75,-244.98 520.29,-237 522.02,-228.54 523.96,-219.63 526.1,-210.33 528.46,-200.71 531.04,-190.8 533.85,-180.66 536.9,-170.36 540.19,-159.93 543.74,-149.43 547.55,-138.93 551.62,-128.46 555.97,-118.09 560.6,-107.87 565.53,-97.84 570.74,-88.07 576.27,-78.61 576.71,-77.91 577.16,-77.2 577.63,-76.5 578.11,-75.81 578.6,-75.12 579.1,-74.43 579.61,-73.75 580.13,-73.07 580.66,-72.4 581.2,-71.73 581.75,-71.07 582.3,-70.41 582.87,-69.76 583.43,-69.11 584.01,-68.48 584.59,-67.84 585.17,-67.22 585.76,-66.6 586.35,-65.99 586.94,-65.38 586.94,-65.38 586.33,-65.97 585.73,-66.57 585.13,-67.18 584.53,-67.79 583.94,-68.41 583.35,-69.03 582.76,-69.67 582.18,-70.31 581.61,-70.95 581.05,-71.6 580.49,-72.26 579.94,-72.92 579.41,-73.59 578.88,-74.26 578.36,-74.94 577.85,-75.62 577.35,-76.31 576.87,-77 576.39,-77.7 575.93,-78.4 570.18,-87.75 564.72,-97.42 559.55,-107.36 554.67,-117.51 550.06,-127.81 545.73,-138.22 541.66,-148.68 537.85,-159.13 534.3,-169.53 531,-179.81 527.94,-189.92 525.11,-199.82 522.52,-209.44 520.15,-218.73 517.99,-227.64 516.05,-236.11 514.32,-244.09 512.78,-251.53 511.44,-258.37 510.29,-264.55 515.21,-265.41"/>
</g>
<!-- m&#45;doc&#45;product -->
<g id="node3" class="node">
<title>m&#45;doc&#45;product</title>
<defs>
<radialGradient id="node3_r_10" cx="50%" cy="50%" r="75%" fx="50%" fy="50%">
<stop offset="0" style="stop-color:#00e643;stop-opacity:1.;"/>
<stop offset="1" style="stop-color:#00902a;stop-opacity:1.;"/>
</radialGradient>
</defs>
<ellipse fill="url(#node3_r_10)" stroke="#00e643" cx="735.16" cy="-606.51" rx="31.47" ry="20.51"/>
<text text-anchor="middle" x="735.16" y="-603.71" font-family="Times,serif" font-size="14.00" fill="#007321">产品</text>
</g>
<!-- m&#45;doc&#45;&gt;m&#45;doc&#45;product -->
<g id="edge6" class="edge">
<title>m&#45;doc&#45;&gt;m&#45;doc&#45;product</title>
<polygon fill="#00901c" stroke="none" stroke-width="5" points="637.49,-588.28 640.58,-588.83 643.77,-589.39 647.03,-589.97 650.35,-590.56 653.74,-591.16 657.18,-591.77 660.65,-592.38 664.15,-593 667.68,-593.63 671.21,-594.25 674.74,-594.88 678.26,-595.5 681.76,-596.12 685.24,-596.73 688.67,-597.34 692.05,-597.94 695.38,-598.53 698.63,-599.11 701.81,-599.67 704.9,-600.22 704.9,-600.22 701.86,-599.44 698.73,-598.65 695.53,-597.84 692.25,-597.01 688.92,-596.17 685.54,-595.31 682.13,-594.44 678.68,-593.57 675.21,-592.69 671.73,-591.81 668.26,-590.93 664.79,-590.05 661.34,-589.17 657.92,-588.31 654.54,-587.45 651.2,-586.6 647.93,-585.77 644.72,-584.96 641.59,-584.16 638.54,-583.39 637.49,-588.28"/>
</g>
<!-- m&#45;factory&#45;none -->
<!-- m&#45;factory&#45;&gt;m&#45;factory&#45;none -->
<!-- cp -->
<g id="node23" class="node">
<title>cp</title>
<defs>
<radialGradient id="node23_r_11" cx="50%" cy="50%" r="75%" fx="50%" fy="50%">
<stop offset="0" style="stop-color:#1600f6;stop-opacity:1.;"/>
<stop offset="1" style="stop-color:#0e009a;stop-opacity:1.;"/>
</radialGradient>
</defs>
<ellipse fill="url(#node23_r_11)" stroke="#1600f6" cx="735.16" cy="-285.51" rx="51.62" ry="20.51"/>
<text text-anchor="middle" x="735.16" y="-282.71" font-family="Times,serif" font-size="14.00" fill="#9e90ff">客户渠道</text>
</g>
<!-- m&#45;customer&#45;&gt;cp -->
<g id="edge38" class="edge">
<title>m&#45;customer&#45;&gt;cp</title>
<path fill="none" stroke="#009062" d="M639.29,-285.51C649.2,-285.51 660.57,-285.51 671.92,-285.51"/>
<polygon fill="#009062" stroke="#009062" points="671.69,-289.01 681.69,-285.51 671.69,-282.01 671.69,-289.01"/>
</g>
<!-- st&#45;sample -->
<g id="node10" class="node">
<title>st&#45;sample</title>
<defs>
<radialGradient id="node10_r_12" cx="50%" cy="50%" r="75%" fx="50%" fy="50%">
<stop offset="0" style="stop-color:#00e6e0;stop-opacity:1.;"/>
<stop offset="1" style="stop-color:#00908c;stop-opacity:1.;"/>
</radialGradient>
</defs>
<ellipse fill="url(#node10_r_12)" stroke="#00e6e0" cx="735.16" cy="-138.51" rx="31.47" ry="20.51"/>
<text text-anchor="middle" x="735.16" y="-135.71" font-family="Times,serif" font-size="14.00" fill="#007370">样品</text>
</g>
<!-- m&#45;storage&#45;&gt;st&#45;sample -->
<g id="edge13" class="edge">
<title>m&#45;storage&#45;&gt;st&#45;sample</title>
<polygon fill="#00907e" stroke="none" stroke-width="5" points="638.26,-163.22 641.33,-162.39 644.48,-161.54 647.72,-160.67 651.02,-159.78 654.38,-158.88 657.79,-157.96 661.25,-157.03 664.73,-156.09 668.23,-155.15 671.74,-154.2 675.25,-153.26 678.75,-152.31 682.23,-151.38 685.68,-150.45 689.09,-149.53 692.45,-148.63 695.75,-147.74 698.98,-146.87 702.13,-146.02 705.19,-145.2 705.19,-145.2 702.08,-145.8 698.87,-146.42 695.59,-147.05 692.23,-147.7 688.82,-148.36 685.35,-149.03 681.84,-149.71 678.3,-150.39 674.74,-151.08 671.18,-151.77 667.61,-152.46 664.05,-153.14 660.51,-153.83 657,-154.51 653.53,-155.18 650.11,-155.84 646.75,-156.49 643.46,-157.12 640.25,-157.74 637.14,-158.34 638.26,-163.22"/>
</g>
<!-- st&#45;product -->
<g id="node13" class="node">
<title>st&#45;product</title>
<defs>
<radialGradient id="node13_r_13" cx="50%" cy="50%" r="75%" fx="50%" fy="50%">
<stop offset="0" style="stop-color:#00b9f6;stop-opacity:1.;"/>
<stop offset="1" style="stop-color:#00749a;stop-opacity:1.;"/>
</radialGradient>
</defs>
<ellipse fill="url(#node13_r_13)" stroke="#00b9f6" cx="735.16" cy="-50.51" rx="51.62" ry="20.51"/>
<text text-anchor="middle" x="735.16" y="-47.71" font-family="Times,serif" font-size="14.00" fill="#90ffff">客户订货</text>
</g>
<!-- m&#45;storage&#45;&gt;st&#45;product -->
<g id="edge16" class="edge">
<title>m&#45;storage&#45;&gt;st&#45;product</title>
<polygon fill="#00907e" stroke="none" stroke-width="5" points="628.27,-152.57 631.78,-149.16 635.51,-145.53 639.45,-141.71 643.56,-137.72 647.82,-133.58 652.21,-129.31 656.7,-124.95 661.27,-120.5 665.9,-116 670.57,-111.47 675.24,-106.94 679.89,-102.41 684.51,-97.93 689.06,-93.51 693.52,-89.17 697.88,-84.94 702.09,-80.84 706.15,-76.9 710.03,-73.13 713.7,-69.57 713.7,-69.57 709.88,-72.98 705.85,-76.58 701.63,-80.35 697.24,-84.26 692.72,-88.31 688.07,-92.45 683.34,-96.68 678.54,-100.97 673.7,-105.29 668.85,-109.63 664,-113.96 659.18,-118.26 654.43,-122.5 649.76,-126.68 645.19,-130.75 640.76,-134.71 636.49,-138.53 632.39,-142.18 628.51,-145.65 624.86,-148.91 628.27,-152.57"/>
</g>
<!-- st&#45;sample&#45;self -->
<g id="node11" class="node">
<title>st&#45;sample&#45;self</title>
<defs>
<radialGradient id="node11_r_14" cx="50%" cy="50%" r="75%" fx="50%" fy="50%">
<stop offset="0" style="stop-color:#00e6f6;stop-opacity:1.;"/>
<stop offset="1" style="stop-color:#00909a;stop-opacity:1.;"/>
</radialGradient>
</defs>
<ellipse fill="url(#node11_r_14)" stroke="#00e6f6" cx="882.9" cy="-138.51" rx="31.47" ry="20.51"/>
<text text-anchor="middle" x="882.9" y="-135.71" font-family="Times,serif" font-size="14.00" fill="#90ffff">展柜</text>
</g>
<!-- st&#45;sample&#45;&gt;st&#45;sample&#45;self -->
<g id="edge14" class="edge">
<title>st&#45;sample&#45;&gt;st&#45;sample&#45;self</title>
<polygon fill="#00908c" stroke="none" stroke-width="5" points="767.07,-141.01 770.85,-140.89 774.76,-140.78 778.79,-140.66 782.93,-140.53 787.15,-140.41 791.44,-140.28 795.79,-140.15 800.19,-140.02 804.62,-139.89 809.06,-139.76 813.5,-139.62 817.93,-139.49 822.32,-139.36 826.67,-139.23 830.97,-139.1 835.19,-138.98 839.32,-138.86 843.35,-138.74 847.26,-138.62 851.04,-138.51 851.04,-138.51 847.26,-138.39 843.35,-138.28 839.32,-138.16 835.19,-138.03 830.97,-137.91 826.67,-137.78 822.32,-137.65 817.93,-137.52 813.5,-137.39 809.06,-137.26 804.62,-137.12 800.19,-136.99 795.79,-136.86 791.44,-136.73 787.15,-136.6 782.93,-136.48 778.79,-136.36 774.76,-136.24 770.85,-136.12 767.07,-136.01 767.07,-141.01"/>
</g>
<!-- st&#45;sample&#45;show -->
<g id="node12" class="node">
<title>st&#45;sample&#45;show</title>
<defs>
<radialGradient id="node12_r_15" cx="50%" cy="50%" r="75%" fx="50%" fy="50%">
<stop offset="0" style="stop-color:#00d0f6;stop-opacity:1.;"/>
<stop offset="1" style="stop-color:#00829a;stop-opacity:1.;"/>
</radialGradient>
</defs>
<ellipse fill="url(#node12_r_15)" stroke="#00d0f6" cx="882.9" cy="-79.51" rx="51.62" ry="20.51"/>
<text text-anchor="middle" x="882.9" y="-76.71" font-family="Times,serif" font-size="14.00" fill="#90ffff">托管展厅</text>
</g>
<!-- st&#45;sample&#45;&gt;st&#45;sample&#45;show -->
<g id="edge15" class="edge">
<title>st&#45;sample&#45;&gt;st&#45;sample&#45;show</title>
<polygon fill="#00908c" stroke="none" stroke-width="5" points="763.49,-130.14 767.02,-128.59 770.71,-126.98 774.52,-125.31 778.45,-123.59 782.49,-121.83 786.61,-120.02 790.81,-118.18 795.08,-116.32 799.39,-114.43 803.73,-112.53 808.09,-110.62 812.46,-108.71 816.82,-106.81 821.15,-104.91 825.44,-103.03 829.68,-101.17 833.86,-99.35 837.95,-97.56 841.95,-95.81 845.84,-94.11 845.84,-94.11 841.86,-95.59 837.77,-97.11 833.59,-98.67 829.32,-100.27 824.98,-101.88 820.59,-103.52 816.16,-105.17 811.7,-106.83 807.23,-108.5 802.77,-110.16 798.33,-111.82 793.92,-113.46 789.56,-115.09 785.26,-116.69 781.04,-118.26 776.91,-119.8 772.89,-121.3 768.99,-122.75 765.23,-124.16 761.62,-125.5 763.49,-130.14"/>
</g>
<!-- st&#45;product&#45;store -->
<g id="node14" class="node">
<title>st&#45;product&#45;store</title>
<defs>
<radialGradient id="node14_r_16" cx="50%" cy="50%" r="75%" fx="50%" fy="50%">
<stop offset="0" style="stop-color:#00a3f6;stop-opacity:1.;"/>
<stop offset="1" style="stop-color:#00669a;stop-opacity:1.;"/>
</radialGradient>
</defs>
<ellipse fill="url(#node14_r_16)" stroke="#00a3f6" cx="882.9" cy="-20.51" rx="51.62" ry="20.51"/>
<text text-anchor="middle" x="882.9" y="-17.71" font-family="Times,serif" font-size="14.00" fill="#90f6ff">货物存储</text>
</g>
<!-- st&#45;product&#45;&gt;st&#45;product&#45;store -->
<g id="edge17" class="edge">
<title>st&#45;product&#45;&gt;st&#45;product&#45;store</title>
<polygon fill="#00749a" stroke="none" stroke-width="5" points="781.98,-43.63 784.59,-42.97 787.24,-42.3 789.92,-41.62 792.62,-40.94 795.34,-40.25 798.08,-39.56 800.84,-38.86 803.61,-38.16 806.39,-37.46 809.16,-36.76 811.94,-36.05 814.72,-35.35 817.49,-34.65 820.25,-33.95 822.99,-33.26 825.72,-32.57 828.42,-31.89 831.1,-31.21 833.75,-30.54 836.37,-29.88 836.37,-29.88 833.7,-30.31 831,-30.74 828.27,-31.17 825.52,-31.61 822.74,-32.06 819.95,-32.5 817.14,-32.95 814.32,-33.4 811.49,-33.85 808.66,-34.31 805.83,-34.76 803,-35.21 800.18,-35.66 797.37,-36.11 794.58,-36.56 791.81,-37 789.05,-37.44 786.33,-37.87 783.63,-38.3 780.97,-38.73 781.98,-43.63"/>
</g>
<!-- fp -->
<g id="node17" class="node">
<title>fp</title>
<defs>
<radialGradient id="node17_r_17" cx="50%" cy="50%" r="75%" fx="50%" fy="50%">
<stop offset="0" style="stop-color:#0060f6;stop-opacity:1.;"/>
<stop offset="1" style="stop-color:#003c9a;stop-opacity:1.;"/>
</radialGradient>
</defs>
<ellipse fill="url(#node17_r_17)" stroke="#0060f6" cx="735.16" cy="-492.51" rx="51.62" ry="20.51"/>
<text text-anchor="middle" x="735.16" y="-489.71" font-family="Times,serif" font-size="14.00" fill="#90ccff">工厂渠道</text>
</g>
<!-- fp&#45;&gt;m&#45;factory -->
<g id="edge25" class="edge">
<title>fp&#45;&gt;m&#45;factory</title>
<path fill="none" stroke="#003c9a" stroke-width="2" stroke-dasharray="5,2" d="M683.2,-492.51C672.85,-492.51 662.06,-492.51 652,-492.51"/>
<polygon fill="#003c9a" stroke="#003c9a" stroke-width="2" points="652.32,-489.01 642.32,-492.51 652.32,-496.01 652.32,-489.01"/>
</g>
<!-- fp&#45;recom -->
<g id="node18" class="node">
<title>fp&#45;recom</title>
<defs>
<radialGradient id="node18_r_18" cx="50%" cy="50%" r="75%" fx="50%" fy="50%">
<stop offset="0" style="stop-color:#0049f6;stop-opacity:1.;"/>
<stop offset="1" style="stop-color:#002e9a;stop-opacity:1.;"/>
</radialGradient>
</defs>
<ellipse fill="url(#node18_r_18)" stroke="#0049f6" cx="882.9" cy="-669.51" rx="31.47" ry="20.51"/>
<text text-anchor="middle" x="882.9" y="-666.71" font-family="Times,serif" font-size="14.00" fill="#90beff">推广</text>
</g>
<!-- fp&#45;&gt;fp&#45;recom -->
<g id="edge20" class="edge">
<title>fp&#45;&gt;fp&#45;recom</title>
<polygon fill="#003c9a" stroke="none" stroke-width="5" points="773.19,-508.4 774.35,-509.02 775.48,-509.64 776.61,-510.29 777.74,-510.95 778.85,-511.63 779.95,-512.32 781.04,-513.04 782.12,-513.77 783.19,-514.51 784.24,-515.28 785.27,-516.06 786.29,-516.86 787.28,-517.67 788.26,-518.5 789.22,-519.36 790.15,-520.22 791.06,-521.11 791.95,-522.02 792.81,-522.94 793.63,-523.86 798.41,-529.9 802.26,-535.81 805.29,-541.62 807.63,-547.35 809.36,-553.03 810.58,-558.67 811.4,-564.3 811.91,-569.92 812.22,-575.55 812.41,-581.2 812.59,-586.88 812.88,-592.6 813.36,-598.37 814.14,-604.2 815.33,-610.09 817.03,-616.05 819.34,-622.09 822.37,-628.22 826.21,-634.44 830.95,-640.76 831.95,-641.94 832.98,-643.08 834.05,-644.2 835.15,-645.29 836.28,-646.35 837.44,-647.38 838.63,-648.39 839.84,-649.37 841.08,-650.32 842.33,-651.25 843.61,-652.15 844.89,-653.03 846.19,-653.88 847.5,-654.71 848.82,-655.51 850.15,-656.28 851.48,-657.04 852.81,-657.76 854.13,-658.47 855.46,-659.14 855.46,-659.14 854.15,-658.43 852.84,-657.69 851.54,-656.93 850.23,-656.14 848.93,-655.33 847.64,-654.5 846.35,-653.64 845.08,-652.76 843.82,-651.85 842.58,-650.92 841.36,-649.96 840.16,-648.98 838.98,-647.97 837.83,-646.94 836.71,-645.89 835.62,-644.81 834.56,-643.7 833.54,-642.58 832.56,-641.42 831.62,-640.25 827.09,-633.86 823.47,-627.62 820.67,-621.53 818.56,-615.56 817.06,-609.69 816.05,-603.9 815.44,-598.17 815.12,-592.48 815,-586.82 814.97,-581.15 814.93,-575.47 814.78,-569.75 814.41,-563.98 813.72,-558.15 812.6,-552.23 810.95,-546.22 808.66,-540.11 805.62,-533.9 801.74,-527.58 796.94,-521.16 796.04,-520.08 795.13,-519.06 794.2,-518.05 793.24,-517.07 792.26,-516.1 791.26,-515.16 790.23,-514.24 789.19,-513.34 788.13,-512.45 787.05,-511.59 785.96,-510.75 784.85,-509.92 783.72,-509.12 782.59,-508.34 781.44,-507.57 780.29,-506.82 779.13,-506.09 777.96,-505.38 776.78,-504.69 775.61,-504.02 773.19,-508.4"/>
</g>
<!-- fp&#45;site -->
<g id="node19" class="node">
<title>fp&#45;site</title>
<defs>
<radialGradient id="node19_r_19" cx="50%" cy="50%" r="75%" fx="50%" fy="50%">
<stop offset="0" style="stop-color:#0033f6;stop-opacity:1.;"/>
<stop offset="1" style="stop-color:#00209a;stop-opacity:1.;"/>
</radialGradient>
</defs>
<ellipse fill="url(#node19_r_19)" stroke="#0033f6" cx="882.9" cy="-610.51" rx="31.47" ry="20.51"/>
<text text-anchor="middle" x="882.9" y="-607.71" font-family="Times,serif" font-size="14.00" fill="#90b0ff">网站</text>
</g>
<!-- fp&#45;&gt;fp&#45;site -->
<g id="edge21" class="edge">
<title>fp&#45;&gt;fp&#45;site</title>
<polygon fill="#003c9a" stroke="none" stroke-width="5" points="771.43,-509.21 772.63,-509.83 773.83,-510.45 775.02,-511.08 776.21,-511.73 777.4,-512.4 778.58,-513.07 779.76,-513.76 780.93,-514.46 782.09,-515.18 783.24,-515.91 784.38,-516.65 785.5,-517.41 786.62,-518.18 787.72,-518.97 788.8,-519.76 789.87,-520.57 790.92,-521.4 791.95,-522.23 792.96,-523.08 793.94,-523.93 797.09,-526.9 799.81,-529.81 802.16,-532.66 804.19,-535.49 805.95,-538.29 807.48,-541.07 808.84,-543.85 810.06,-546.63 811.19,-549.43 812.28,-552.23 813.37,-555.06 814.51,-557.91 815.75,-560.8 817.12,-563.71 818.68,-566.65 820.48,-569.62 822.55,-572.64 824.94,-575.69 827.7,-578.79 830.86,-581.93 831.99,-582.96 833.14,-583.97 834.31,-584.96 835.51,-585.94 836.73,-586.9 837.97,-587.83 839.22,-588.75 840.5,-589.66 841.78,-590.54 843.08,-591.41 844.38,-592.26 845.7,-593.09 847.02,-593.9 848.34,-594.69 849.66,-595.46 850.99,-596.22 852.31,-596.96 853.63,-597.67 854.94,-598.37 856.25,-599.05 856.25,-599.05 854.97,-598.32 853.69,-597.57 852.4,-596.81 851.11,-596.02 849.82,-595.21 848.53,-594.39 847.24,-593.55 845.95,-592.69 844.68,-591.81 843.41,-590.92 842.16,-590.01 840.92,-589.08 839.69,-588.13 838.48,-587.17 837.29,-586.2 836.12,-585.2 834.98,-584.19 833.86,-583.17 832.77,-582.13 831.71,-581.08 828.71,-577.87 826.13,-574.73 823.92,-571.67 822.03,-568.67 820.4,-565.72 819,-562.81 817.78,-559.93 816.68,-557.07 815.67,-554.21 814.69,-551.36 813.7,-548.49 812.66,-545.6 811.51,-542.68 810.21,-539.72 808.71,-536.73 806.97,-533.7 804.93,-530.62 802.55,-527.49 799.8,-524.31 796.63,-521.08 795.61,-520.11 794.58,-519.18 793.53,-518.26 792.46,-517.35 791.38,-516.46 790.27,-515.58 789.16,-514.71 788.03,-513.86 786.88,-513.03 785.73,-512.21 784.56,-511.4 783.38,-510.61 782.2,-509.83 781.01,-509.07 779.81,-508.32 778.61,-507.59 777.4,-506.87 776.19,-506.16 774.98,-505.47 773.78,-504.8 771.43,-509.21"/>
</g>
<!-- fp&#45;ol -->
<g id="node20" class="node">
<title>fp&#45;ol</title>
<defs>
<radialGradient id="node20_r_20" cx="50%" cy="50%" r="75%" fx="50%" fy="50%">
<stop offset="0" style="stop-color:#001cf6;stop-opacity:1.;"/>
<stop offset="1" style="stop-color:#00129a;stop-opacity:1.;"/>
</radialGradient>
</defs>
<ellipse fill="url(#node20_r_20)" stroke="#001cf6" cx="882.9" cy="-551.51" rx="51.62" ry="20.51"/>
<text text-anchor="middle" x="882.9" y="-548.71" font-family="Times,serif" font-size="14.00" fill="#90a2ff">线上展厅</text>
</g>
<!-- fp&#45;&gt;fp&#45;ol -->
<g id="edge22" class="edge">
<title>fp&#45;&gt;fp&#45;ol</title>
<polygon fill="#003c9a" stroke="none" stroke-width="5" points="771.25,-509.41 774.7,-510.68 778.24,-511.99 781.86,-513.32 785.54,-514.68 789.28,-516.05 793.07,-517.45 796.9,-518.86 800.75,-520.28 804.63,-521.71 808.51,-523.14 812.4,-524.58 816.27,-526 820.13,-527.43 823.96,-528.84 827.75,-530.23 831.49,-531.61 835.17,-532.97 838.79,-534.31 842.33,-535.61 845.79,-536.89 845.79,-536.89 842.42,-535.4 838.97,-533.87 835.44,-532.31 831.85,-530.73 828.2,-529.11 824.51,-527.48 820.77,-525.83 817.01,-524.17 813.24,-522.5 809.45,-520.83 805.66,-519.15 801.88,-517.48 798.13,-515.82 794.39,-514.17 790.7,-512.54 787.06,-510.93 783.47,-509.34 779.94,-507.79 776.49,-506.26 773.12,-504.77 771.25,-509.41"/>
</g>
<!-- fp&#45;dl -->
<g id="node21" class="node">
<title>fp&#45;dl</title>
<defs>
<radialGradient id="node21_r_21" cx="50%" cy="50%" r="75%" fx="50%" fy="50%">
<stop offset="0" style="stop-color:#0006f6;stop-opacity:1.;"/>
<stop offset="1" style="stop-color:#00049a;stop-opacity:1.;"/>
</radialGradient>
</defs>
<ellipse fill="url(#node21_r_21)" stroke="#0006f6" cx="882.9" cy="-492.51" rx="51.62" ry="20.51"/>
<text text-anchor="middle" x="882.9" y="-489.71" font-family="Times,serif" font-size="14.00" fill="#9094ff">线下展厅</text>
</g>
<!-- fp&#45;&gt;fp&#45;dl -->
<g id="edge23" class="edge">
<title>fp&#45;&gt;fp&#45;dl</title>
<polygon fill="#003c9a" stroke="none" stroke-width="5" points="787.13,-495.01 789.29,-494.88 791.45,-494.76 793.64,-494.64 795.83,-494.51 798.04,-494.39 800.26,-494.26 802.48,-494.14 804.71,-494.01 806.94,-493.88 809.18,-493.76 811.41,-493.63 813.64,-493.5 815.87,-493.38 818.09,-493.25 820.31,-493.12 822.51,-493 824.71,-492.87 826.89,-492.75 829.06,-492.63 831.2,-492.51 831.2,-492.51 829.06,-492.38 826.89,-492.26 824.71,-492.14 822.51,-492.01 820.31,-491.89 818.09,-491.76 815.87,-491.64 813.64,-491.51 811.41,-491.38 809.18,-491.26 806.94,-491.13 804.71,-491 802.48,-490.88 800.26,-490.75 798.04,-490.62 795.83,-490.5 793.64,-490.37 791.45,-490.25 789.29,-490.13 787.13,-490.01 787.13,-495.01"/>
</g>
<!-- fp&#45;show -->
<g id="node22" class="node">
<title>fp&#45;show</title>
<defs>
<radialGradient id="node22_r_22" cx="50%" cy="50%" r="75%" fx="50%" fy="50%">
<stop offset="0" style="stop-color:#0000f6;stop-opacity:1.;"/>
<stop offset="1" style="stop-color:#00009a;stop-opacity:1.;"/>
</radialGradient>
</defs>
<ellipse fill="url(#node22_r_22)" stroke="#0000f6" cx="882.9" cy="-433.51" rx="31.47" ry="20.51"/>
<text text-anchor="middle" x="882.9" y="-430.71" font-family="Times,serif" font-size="14.00" fill="#9090ff">展会</text>
</g>
<!-- fp&#45;&gt;fp&#45;show -->
<g id="edge24" class="edge">
<title>fp&#45;&gt;fp&#45;show</title>
<polygon fill="#003c9a" stroke="none" stroke-width="5" points="773.12,-480.24 777.01,-478.54 781,-476.79 785.1,-475 789.27,-473.18 793.51,-471.32 797.8,-469.44 802.13,-467.55 806.48,-465.64 810.84,-463.73 815.2,-461.83 819.55,-459.93 823.85,-458.04 828.12,-456.18 832.32,-454.34 836.44,-452.53 840.48,-450.77 844.41,-449.05 848.22,-447.38 851.9,-445.77 855.44,-444.22 855.44,-444.22 851.82,-445.57 848.06,-446.97 844.16,-448.42 840.14,-449.92 836.01,-451.46 831.79,-453.04 827.49,-454.64 823.13,-456.26 818.73,-457.9 814.29,-459.56 809.83,-461.22 805.36,-462.89 800.91,-464.55 796.48,-466.2 792.09,-467.83 787.76,-469.45 783.49,-471.04 779.31,-472.6 775.22,-474.12 771.25,-475.6 773.12,-480.24"/>
</g>
<!-- cp&#45;search -->
<g id="node24" class="node">
<title>cp&#45;search</title>
<defs>
<radialGradient id="node24_r_23" cx="50%" cy="50%" r="75%" fx="50%" fy="50%">
<stop offset="0" style="stop-color:#2c00f6;stop-opacity:1.;"/>
<stop offset="1" style="stop-color:#1c009a;stop-opacity:1.;"/>
</radialGradient>
</defs>
<ellipse fill="url(#node24_r_23)" stroke="#2c00f6" cx="882.9" cy="-374.51" rx="51.62" ry="20.51"/>
<text text-anchor="middle" x="882.9" y="-371.71" font-family="Times,serif" font-size="14.00" fill="#ac90ff">线上搜索</text>
</g>
<!-- cp&#45;&gt;cp&#45;search -->
<g id="edge26" class="edge">
<title>cp&#45;&gt;cp&#45;search</title>
<polygon fill="#0e009a" stroke="none" stroke-width="5" points="762.09,-305.25 765.03,-307.03 768.06,-308.87 771.18,-310.76 774.39,-312.69 777.67,-314.67 781.02,-316.68 784.43,-318.73 787.9,-320.8 791.41,-322.89 794.96,-325 798.54,-327.13 802.15,-329.26 805.77,-331.39 809.4,-333.52 813.04,-335.65 816.67,-337.76 820.29,-339.86 823.88,-341.93 827.45,-343.98 830.99,-346 832.01,-346.58 833.04,-347.17 834.07,-347.75 835.12,-348.34 836.17,-348.93 837.22,-349.52 838.28,-350.11 839.34,-350.7 840.4,-351.29 841.46,-351.88 842.53,-352.47 843.6,-353.06 844.67,-353.65 845.73,-354.23 846.8,-354.82 847.86,-355.4 848.92,-355.98 849.97,-356.55 851.02,-357.13 852.07,-357.69 852.07,-357.69 851.05,-357.08 850.03,-356.45 849,-355.83 847.97,-355.2 846.94,-354.57 845.91,-353.93 844.87,-353.3 843.83,-352.66 842.79,-352.02 841.76,-351.38 840.72,-350.74 839.69,-350.1 838.66,-349.46 837.63,-348.82 836.61,-348.18 835.59,-347.54 834.58,-346.9 833.57,-346.27 832.57,-345.64 831.58,-345.01 828.15,-342.83 824.69,-340.61 821.2,-338.37 817.69,-336.1 814.17,-333.82 810.64,-331.52 807.12,-329.22 803.61,-326.92 800.11,-324.62 796.64,-322.33 793.19,-320.05 789.79,-317.79 786.43,-315.56 783.13,-313.35 779.88,-311.18 776.7,-309.05 773.6,-306.97 770.57,-304.94 767.63,-302.96 764.79,-301.04 762.09,-305.25"/>
</g>
<!-- cp&#45;show -->
<g id="node30" class="node">
<title>cp&#45;show</title>
<defs>
<radialGradient id="node30_r_24" cx="50%" cy="50%" r="75%" fx="50%" fy="50%">
<stop offset="0" style="stop-color:#b300f6;stop-opacity:1.;"/>
<stop offset="1" style="stop-color:#70009a;stop-opacity:1.;"/>
</radialGradient>
</defs>
<ellipse fill="url(#node30_r_24)" stroke="#b300f6" cx="882.9" cy="-315.51" rx="31.47" ry="20.51"/>
<text text-anchor="middle" x="882.9" y="-312.71" font-family="Times,serif" font-size="14.00" fill="#ff90ff">展会</text>
</g>
<!-- cp&#45;&gt;cp&#45;show -->
<g id="edge32" class="edge">
<title>cp&#45;&gt;cp&#45;show</title>
<polygon fill="#0e009a" stroke="none" stroke-width="5" points="780.97,-297.28 784.51,-297.89 788.11,-298.5 791.76,-299.12 795.44,-299.75 799.16,-300.38 802.9,-301.02 806.66,-301.66 810.41,-302.3 814.17,-302.93 817.91,-303.57 821.63,-304.21 825.32,-304.83 828.97,-305.46 832.58,-306.07 836.12,-306.67 839.61,-307.27 843.01,-307.85 846.34,-308.41 849.57,-308.96 852.7,-309.5 852.7,-309.5 849.61,-308.75 846.43,-307.98 843.15,-307.18 839.79,-306.37 836.36,-305.54 832.86,-304.69 829.31,-303.84 825.71,-302.96 822.07,-302.08 818.4,-301.2 814.71,-300.3 811.01,-299.41 807.3,-298.51 803.6,-297.62 799.91,-296.72 796.25,-295.84 792.61,-294.96 789.02,-294.09 785.47,-293.23 781.98,-292.39 780.97,-297.28"/>
</g>
<!-- cp&#45;old -->
<g id="node33" class="node">
<title>cp&#45;old</title>
<defs>
<radialGradient id="node33_r_25" cx="50%" cy="50%" r="75%" fx="50%" fy="50%">
<stop offset="0" style="stop-color:#f600f6;stop-opacity:1.;"/>
<stop offset="1" style="stop-color:#9a009a;stop-opacity:1.;"/>
</radialGradient>
</defs>
<ellipse fill="url(#node33_r_25)" stroke="#f600f6" cx="882.9" cy="-256.51" rx="41.54" ry="20.51"/>
<text text-anchor="middle" x="882.9" y="-253.71" font-family="Times,serif" font-size="14.00" fill="#7b007b">老客户</text>
</g>
<!-- cp&#45;&gt;cp&#45;old -->
<g id="edge35" class="edge">
<title>cp&#45;&gt;cp&#45;old</title>
<polygon fill="#0e009a" stroke="none" stroke-width="5" points="782.36,-278.86 785.37,-278.14 788.41,-277.41 791.5,-276.67 794.61,-275.92 797.75,-275.17 800.91,-274.41 804.09,-273.64 807.27,-272.88 810.46,-272.11 813.64,-271.35 816.82,-270.58 819.98,-269.82 823.13,-269.07 826.25,-268.32 829.34,-267.58 832.4,-266.84 835.42,-266.12 838.39,-265.4 841.31,-264.7 844.17,-264.01 844.17,-264.01 841.26,-264.47 838.3,-264.94 835.28,-265.42 832.21,-265.91 829.11,-266.4 825.97,-266.9 822.8,-267.4 819.6,-267.91 816.39,-268.41 813.16,-268.93 809.92,-269.44 806.69,-269.95 803.45,-270.46 800.23,-270.97 797.02,-271.48 793.83,-271.99 790.67,-272.49 787.53,-272.98 784.44,-273.47 781.39,-273.96 782.36,-278.86"/>
</g>
<!-- cp&#45;platform -->
<g id="node34" class="node">
<title>cp&#45;platform</title>
<defs>
<radialGradient id="node34_r_26" cx="50%" cy="50%" r="75%" fx="50%" fy="50%">
<stop offset="0" style="stop-color:#f600e0;stop-opacity:1.;"/>
<stop offset="1" style="stop-color:#9a008c;stop-opacity:1.;"/>
</radialGradient>
</defs>
<ellipse fill="url(#node34_r_26)" stroke="#f600e0" cx="882.9" cy="-197.51" rx="31.47" ry="20.51"/>
<text text-anchor="middle" x="882.9" y="-194.71" font-family="Times,serif" font-size="14.00" fill="#7b0070">平台</text>
</g>
<!-- cp&#45;&gt;cp&#45;platform -->
<g id="edge36" class="edge">
<title>cp&#45;&gt;cp&#45;platform</title>
<polygon fill="#0e009a" stroke="none" stroke-width="5" points="764.81,-270.33 767.66,-268.45 770.6,-266.51 773.63,-264.51 776.74,-262.47 779.93,-260.38 783.18,-258.25 786.49,-256.09 789.85,-253.9 793.26,-251.68 796.7,-249.44 800.18,-247.19 803.68,-244.93 807.19,-242.67 810.72,-240.4 814.24,-238.14 817.76,-235.9 821.27,-233.66 824.76,-231.45 828.22,-229.27 831.65,-227.11 832.95,-226.29 834.27,-225.47 835.6,-224.64 836.94,-223.81 838.29,-222.98 839.64,-222.14 841,-221.31 842.36,-220.47 843.72,-219.64 845.08,-218.8 846.45,-217.97 847.8,-217.15 849.16,-216.32 850.5,-215.51 851.84,-214.7 853.17,-213.89 854.49,-213.1 855.8,-212.31 857.09,-211.53 858.37,-210.76 858.37,-210.76 857.06,-211.47 855.73,-212.19 854.39,-212.92 853.04,-213.66 851.67,-214.4 850.3,-215.15 848.92,-215.9 847.53,-216.67 846.13,-217.43 844.73,-218.2 843.33,-218.97 841.93,-219.74 840.54,-220.52 839.14,-221.29 837.75,-222.07 836.37,-222.84 834.99,-223.61 833.62,-224.38 832.27,-225.14 830.92,-225.9 827.4,-227.9 823.84,-229.93 820.26,-231.98 816.65,-234.06 813.03,-236.14 809.4,-238.24 805.77,-240.35 802.16,-242.45 798.56,-244.56 794.98,-246.65 791.44,-248.73 787.93,-250.8 784.47,-252.84 781.06,-254.85 777.71,-256.83 774.43,-258.78 771.23,-260.68 768.11,-262.54 765.08,-264.34 762.15,-266.09 764.81,-270.33"/>
</g>
<!-- cp&#45;search&#45;engine -->
<g id="node25" class="node">
<title>cp&#45;search&#45;engine</title>
<defs>
<radialGradient id="node25_r_27" cx="50%" cy="50%" r="75%" fx="50%" fy="50%">
<stop offset="0" style="stop-color:#4300f6;stop-opacity:1.;"/>
<stop offset="1" style="stop-color:#2a009a;stop-opacity:1.;"/>
</radialGradient>
</defs>
<ellipse fill="url(#node25_r_27)" stroke="#4300f6" cx="1057.67" cy="-551.51" rx="51.62" ry="20.51"/>
<text text-anchor="middle" x="1057.67" y="-548.71" font-family="Times,serif" font-size="14.00" fill="#ba90ff">搜索引擎</text>
</g>
<!-- cp&#45;search&#45;&gt;cp&#45;search&#45;engine -->
<g id="edge27" class="edge">
<title>cp&#45;search&#45;&gt;cp&#45;search&#45;engine</title>
<polygon fill="#1c009a" stroke="none" stroke-width="5" points="917.4,-391.83 918.27,-392.38 919.13,-392.94 919.98,-393.52 920.83,-394.1 921.66,-394.69 922.49,-395.3 923.31,-395.91 924.12,-396.54 924.92,-397.17 925.7,-397.82 926.48,-398.48 927.24,-399.15 927.99,-399.83 928.72,-400.52 929.44,-401.22 930.14,-401.93 930.83,-402.66 931.49,-403.39 932.15,-404.14 932.75,-404.86 937.38,-411.1 941.05,-417.21 943.88,-423.23 946,-429.2 947.51,-435.11 948.51,-440.99 949.12,-446.84 949.43,-452.68 949.56,-458.52 949.61,-464.34 949.68,-470.16 949.9,-475.99 950.37,-481.82 951.21,-487.66 952.52,-493.51 954.43,-499.37 957.03,-505.24 960.44,-511.12 964.77,-517 970.1,-522.9 971.72,-524.47 973.39,-525.97 975.11,-527.42 976.88,-528.8 978.7,-530.13 980.56,-531.41 982.46,-532.63 984.39,-533.8 986.36,-534.92 988.36,-535.98 990.38,-537 992.42,-537.97 994.49,-538.9 996.57,-539.77 998.67,-540.61 1000.78,-541.4 1002.89,-542.15 1005.01,-542.86 1007.13,-543.53 1009.24,-544.16 1009.24,-544.16 1007.15,-543.47 1005.05,-542.75 1002.95,-541.99 1000.86,-541.19 998.78,-540.34 996.71,-539.46 994.66,-538.53 992.62,-537.55 990.61,-536.54 988.63,-535.47 986.67,-534.36 984.75,-533.2 982.86,-532 981.02,-530.74 979.21,-529.43 977.45,-528.07 975.74,-526.66 974.08,-525.2 972.48,-523.68 970.94,-522.11 965.83,-516.16 961.75,-510.29 958.58,-504.48 956.2,-498.72 954.5,-493 953.37,-487.29 952.7,-481.59 952.39,-475.87 952.32,-470.13 952.4,-464.35 952.5,-458.51 952.53,-452.61 952.36,-446.63 951.89,-440.57 951,-434.41 949.57,-428.16 947.5,-421.8 944.66,-415.34 940.95,-408.78 936.29,-402.15 935.59,-401.27 934.9,-400.44 934.19,-399.61 933.46,-398.81 932.72,-398.01 931.96,-397.23 931.19,-396.46 930.4,-395.71 929.6,-394.97 928.78,-394.24 927.96,-393.52 927.12,-392.82 926.28,-392.13 925.42,-391.45 924.56,-390.78 923.68,-390.13 922.8,-389.49 921.92,-388.86 921.02,-388.24 920.14,-387.64 917.4,-391.83"/>
</g>
<!-- cp&#45;search&#45;facebook -->
<g id="node26" class="node">
<title>cp&#45;search&#45;facebook</title>
<defs>
<radialGradient id="node26_r_28" cx="50%" cy="50%" r="75%" fx="50%" fy="50%">
<stop offset="0" style="stop-color:#5900f6;stop-opacity:1.;"/>
<stop offset="1" style="stop-color:#38009a;stop-opacity:1.;"/>
</radialGradient>
</defs>
<ellipse fill="url(#node26_r_28)" stroke="#5900f6" cx="1057.67" cy="-492.51" rx="87.15" ry="20.51"/>
<text text-anchor="middle" x="1057.67" y="-489.71" font-family="Times,serif" font-size="14.00" fill="#c890ff">Facebook联系人</text>
</g>
<!-- cp&#45;search&#45;&gt;cp&#45;search&#45;facebook -->
<g id="edge28" class="edge">
<title>cp&#45;search&#45;&gt;cp&#45;search&#45;facebook</title>
<polygon fill="#1c009a" stroke="none" stroke-width="5" points="915.64,-392.29 916.58,-392.85 917.51,-393.41 918.44,-393.98 919.36,-394.55 920.28,-395.14 921.2,-395.73 922.11,-396.34 923.01,-396.95 923.91,-397.57 924.79,-398.2 925.67,-398.84 926.54,-399.49 927.4,-400.15 928.25,-400.81 929.09,-401.48 929.92,-402.16 930.73,-402.85 931.53,-403.55 932.32,-404.26 933.07,-404.95 936.16,-408.05 938.79,-411.09 941.05,-414.1 942.98,-417.09 944.64,-420.05 946.07,-423 947.32,-425.95 948.45,-428.89 949.5,-431.83 950.52,-434.77 951.56,-437.71 952.67,-440.65 953.9,-443.59 955.31,-446.53 956.94,-449.46 958.84,-452.39 961.07,-455.3 963.66,-458.2 966.67,-461.09 970.15,-463.96 971.29,-464.83 972.45,-465.68 973.63,-466.51 974.82,-467.32 976.03,-468.11 977.25,-468.88 978.49,-469.64 979.74,-470.38 981,-471.1 982.27,-471.81 983.55,-472.49 984.85,-473.17 986.15,-473.82 987.46,-474.46 988.78,-475.09 990.11,-475.69 991.44,-476.29 992.78,-476.87 994.13,-477.43 995.47,-477.98 995.47,-477.98 994.15,-477.37 992.83,-476.76 991.52,-476.13 990.21,-475.48 988.91,-474.82 987.63,-474.14 986.34,-473.45 985.07,-472.75 983.82,-472.02 982.57,-471.29 981.33,-470.54 980.11,-469.77 978.9,-468.98 977.71,-468.18 976.53,-467.37 975.37,-466.54 974.22,-465.69 973.09,-464.82 971.98,-463.94 970.9,-463.05 967.61,-460.09 964.79,-457.15 962.4,-454.24 960.37,-451.35 958.66,-448.47 957.21,-445.6 955.97,-442.71 954.89,-439.82 953.92,-436.9 953.02,-433.95 952.12,-430.97 951.17,-427.94 950.14,-424.87 948.96,-421.76 947.58,-418.59 945.96,-415.38 944.03,-412.12 941.76,-408.81 939.08,-405.45 935.97,-402.06 935.17,-401.26 934.37,-400.48 933.56,-399.7 932.73,-398.94 931.89,-398.19 931.03,-397.45 930.17,-396.71 929.3,-395.99 928.41,-395.27 927.52,-394.57 926.62,-393.87 925.71,-393.19 924.8,-392.51 923.88,-391.84 922.95,-391.18 922.02,-390.53 921.08,-389.89 920.15,-389.26 919.21,-388.64 918.27,-388.04 915.64,-392.29"/>
</g>
<!-- cp&#45;search&#45;linkedin -->
<g id="node27" class="node">
<title>cp&#45;search&#45;linkedin</title>
<defs>
<radialGradient id="node27_r_29" cx="50%" cy="50%" r="75%" fx="50%" fy="50%">
<stop offset="0" style="stop-color:#7000f6;stop-opacity:1.;"/>
<stop offset="1" style="stop-color:#46009a;stop-opacity:1.;"/>
</radialGradient>
</defs>
<ellipse fill="url(#node27_r_29)" stroke="#7000f6" cx="1057.67" cy="-433.51" rx="84.5" ry="20.51"/>
<text text-anchor="middle" x="1057.67" y="-430.71" font-family="Times,serif" font-size="14.00" fill="#d690ff">Linkedin联系人</text>
</g>
<!-- cp&#45;search&#45;&gt;cp&#45;search&#45;linkedin -->
<g id="edge29" class="edge">
<title>cp&#45;search&#45;&gt;cp&#45;search&#45;linkedin</title>
<polygon fill="#1c009a" stroke="none" stroke-width="5" points="921.87,-390.38 924.15,-391.1 926.46,-391.83 928.8,-392.57 931.17,-393.31 933.56,-394.07 935.97,-394.83 938.39,-395.59 940.83,-396.36 943.29,-397.13 945.75,-397.9 948.21,-398.67 950.68,-399.45 953.15,-400.22 955.62,-400.99 958.08,-401.76 960.52,-402.53 962.96,-403.29 965.39,-404.04 967.79,-404.79 970.17,-405.53 971.97,-406.09 973.77,-406.65 975.59,-407.21 977.42,-407.77 979.26,-408.34 981.1,-408.91 982.95,-409.48 984.81,-410.05 986.67,-410.63 988.53,-411.2 990.39,-411.77 992.25,-412.35 994.11,-412.92 995.97,-413.49 997.83,-414.06 999.67,-414.62 1001.52,-415.19 1003.35,-415.75 1005.18,-416.31 1006.99,-416.86 1006.99,-416.86 1005.21,-416.21 1003.42,-415.55 1001.62,-414.88 999.81,-414.22 998,-413.55 996.18,-412.88 994.35,-412.2 992.53,-411.53 990.7,-410.85 988.87,-410.17 987.05,-409.5 985.22,-408.82 983.4,-408.15 981.59,-407.47 979.78,-406.8 977.98,-406.13 976.19,-405.46 974.4,-404.8 972.63,-404.14 970.87,-403.48 968.53,-402.61 966.18,-401.73 963.8,-400.84 961.41,-399.95 959.01,-399.04 956.6,-398.14 954.18,-397.23 951.76,-396.32 949.34,-395.41 946.92,-394.5 944.51,-393.59 942.1,-392.69 939.71,-391.78 937.33,-390.88 934.97,-389.99 932.62,-389.11 930.3,-388.23 928.01,-387.36 925.74,-386.5 923.51,-385.66 921.87,-390.38"/>
</g>
<!-- cp&#45;search&#45;tiktok -->
<g id="node28" class="node">
<title>cp&#45;search&#45;tiktok</title>
<defs>
<radialGradient id="node28_r_30" cx="50%" cy="50%" r="75%" fx="50%" fy="50%">
<stop offset="0" style="stop-color:#8600f6;stop-opacity:1.;"/>
<stop offset="1" style="stop-color:#54009a;stop-opacity:1.;"/>
</radialGradient>
</defs>
<ellipse fill="url(#node28_r_30)" stroke="#8600f6" cx="1057.67" cy="-374.51" rx="72.3" ry="20.51"/>
<text text-anchor="middle" x="1057.67" y="-371.71" font-family="Times,serif" font-size="14.00" fill="#e490ff">Tiktok联系人</text>
</g>
<!-- cp&#45;search&#45;&gt;cp&#45;search&#45;tiktok -->
<g id="edge30" class="edge">
<title>cp&#45;search&#45;&gt;cp&#45;search&#45;tiktok</title>
<polygon fill="#1c009a" stroke="none" stroke-width="5" points="934.81,-377.01 937.18,-376.89 939.58,-376.77 942,-376.65 944.45,-376.53 946.92,-376.4 949.4,-376.28 951.9,-376.15 954.42,-376.03 956.95,-375.9 959.49,-375.78 962.03,-375.65 964.59,-375.52 967.15,-375.4 969.71,-375.27 972.27,-375.14 974.83,-375.01 977.39,-374.89 979.94,-374.76 982.48,-374.63 985.01,-374.51 985.01,-374.51 982.48,-374.38 979.94,-374.25 977.39,-374.13 974.83,-374 972.27,-373.87 969.71,-373.74 967.15,-373.62 964.59,-373.49 962.03,-373.36 959.49,-373.24 956.95,-373.11 954.42,-372.98 951.9,-372.86 949.4,-372.73 946.92,-372.61 944.45,-372.49 942,-372.36 939.58,-372.24 937.18,-372.12 934.81,-372.01 934.81,-377.01"/>
</g>
<!-- cp&#45;search&#45;tiktok&#45;note -->
<g id="node29" class="node">
<title>cp&#45;search&#45;tiktok&#45;note</title>
<defs>
<radialGradient id="node29_r_31" cx="50%" cy="50%" r="75%" fx="50%" fy="50%">
<stop offset="0" style="stop-color:#9c00f6;stop-opacity:1.;"/>
<stop offset="1" style="stop-color:#62009a;stop-opacity:1.;"/>
</radialGradient>
</defs>
<ellipse fill="url(#node29_r_31)" stroke="#9c00f6" cx="1252.6" cy="-374.51" rx="71.77" ry="20.51"/>
<text text-anchor="middle" x="1252.6" y="-371.71" font-family="Times,serif" font-size="14.00" fill="#f290ff">注意网络环境</text>
</g>
<!-- cp&#45;search&#45;tiktok&#45;&gt;cp&#45;search&#45;tiktok&#45;note -->
<g id="edge31" class="edge">
<title>cp&#45;search&#45;tiktok&#45;&gt;cp&#45;search&#45;tiktok&#45;note</title>
<polygon fill="#54009a" stroke="none" stroke-width="5" points="1130.24,-377.01 1132.71,-376.88 1135.19,-376.76 1137.68,-376.64 1140.19,-376.51 1142.7,-376.39 1145.22,-376.26 1147.75,-376.13 1150.29,-376.01 1152.82,-375.88 1155.36,-375.76 1157.9,-375.63 1160.43,-375.5 1162.97,-375.38 1165.49,-375.25 1168.01,-375.13 1170.53,-375 1173.03,-374.88 1175.52,-374.75 1178,-374.63 1180.47,-374.51 1180.47,-374.51 1178,-374.38 1175.52,-374.26 1173.03,-374.14 1170.53,-374.01 1168.01,-373.89 1165.49,-373.76 1162.97,-373.63 1160.43,-373.51 1157.9,-373.38 1155.36,-373.26 1152.82,-373.13 1150.29,-373 1147.75,-372.88 1145.22,-372.75 1142.7,-372.63 1140.19,-372.5 1137.68,-372.38 1135.19,-372.25 1132.71,-372.13 1130.24,-372.01 1130.24,-377.01"/>
</g>
<!-- cp&#45;show&#45;info -->
<g id="node31" class="node">
<title>cp&#45;show&#45;info</title>
<defs>
<radialGradient id="node31_r_32" cx="50%" cy="50%" r="75%" fx="50%" fy="50%">
<stop offset="0" style="stop-color:#c900f6;stop-opacity:1.;"/>
<stop offset="1" style="stop-color:#7e009a;stop-opacity:1.;"/>
</radialGradient>
</defs>
<ellipse fill="url(#node31_r_32)" stroke="#c900f6" cx="1057.67" cy="-315.51" rx="71.77" ry="20.51"/>
<text text-anchor="middle" x="1057.67" y="-312.71" font-family="Times,serif" font-size="14.00" fill="#ff90ff">展会客户资料</text>
</g>
<!-- cp&#45;show&#45;&gt;cp&#45;show&#45;info -->
<g id="edge34" class="edge">
<title>cp&#45;show&#45;&gt;cp&#45;show&#45;info</title>
<polygon fill="#70009a" stroke="none" stroke-width="5" points="914.79,-318.01 917.8,-317.9 920.89,-317.79 924.08,-317.68 927.35,-317.56 930.69,-317.44 934.1,-317.32 937.57,-317.2 941.1,-317.08 944.68,-316.95 948.31,-316.82 951.97,-316.69 955.66,-316.56 959.37,-316.43 963.11,-316.3 966.85,-316.17 970.61,-316.03 974.36,-315.9 978.1,-315.77 981.83,-315.64 985.55,-315.51 985.55,-315.51 981.83,-315.37 978.1,-315.24 974.36,-315.11 970.61,-314.98 966.85,-314.85 963.11,-314.71 959.37,-314.58 955.66,-314.45 951.97,-314.32 948.31,-314.19 944.68,-314.06 941.1,-313.94 937.57,-313.81 934.1,-313.69 930.69,-313.57 927.35,-313.45 924.08,-313.33 920.89,-313.22 917.8,-313.11 914.79,-313.01 914.79,-318.01"/>
</g>
<!-- cp&#45;show&#45;contact -->
<g id="node32" class="node">
<title>cp&#45;show&#45;contact</title>
<defs>
<radialGradient id="node32_r_33" cx="50%" cy="50%" r="75%" fx="50%" fy="50%">
<stop offset="0" style="stop-color:#e000f6;stop-opacity:1.;"/>
<stop offset="1" style="stop-color:#8c009a;stop-opacity:1.;"/>
</radialGradient>
</defs>
<ellipse fill="url(#node32_r_33)" stroke="#e000f6" cx="1057.67" cy="-256.51" rx="71.77" ry="20.51"/>
<text text-anchor="middle" x="1057.67" y="-253.71" font-family="Times,serif" font-size="14.00" fill="#ff90ff">展会联系客户</text>
</g>
<!-- cp&#45;show&#45;&gt;cp&#45;show&#45;contact -->
<g id="edge33" class="edge">
<title>cp&#45;show&#45;&gt;cp&#45;show&#45;contact</title>
<polygon fill="#70009a" stroke="none" stroke-width="5" points="912.01,-308.35 914.59,-307.38 917.23,-306.39 919.95,-305.38 922.73,-304.34 925.56,-303.28 928.45,-302.2 931.38,-301.1 934.34,-300 937.35,-298.88 940.37,-297.75 943.42,-296.61 946.49,-295.47 949.56,-294.33 952.64,-293.19 955.71,-292.05 958.78,-290.91 961.83,-289.78 964.86,-288.66 967.87,-287.55 970.85,-286.45 972.76,-285.75 974.7,-285.03 976.64,-284.32 978.6,-283.6 980.57,-282.88 982.54,-282.15 984.53,-281.43 986.51,-280.7 988.5,-279.97 990.5,-279.25 992.49,-278.52 994.48,-277.79 996.47,-277.07 998.45,-276.34 1000.42,-275.62 1002.39,-274.91 1004.35,-274.19 1006.3,-273.49 1008.23,-272.78 1010.15,-272.08 1010.15,-272.08 1008.2,-272.69 1006.23,-273.3 1004.26,-273.91 1002.27,-274.53 1000.27,-275.15 998.26,-275.78 996.24,-276.41 994.22,-277.04 992.2,-277.67 990.17,-278.3 988.15,-278.93 986.13,-279.56 984.11,-280.19 982.09,-280.83 980.08,-281.45 978.08,-282.08 976.09,-282.71 974.12,-283.33 972.15,-283.95 970.2,-284.56 967.17,-285.51 964.12,-286.48 961.03,-287.45 957.93,-288.44 954.81,-289.43 951.68,-290.42 948.56,-291.41 945.43,-292.41 942.31,-293.4 939.21,-294.39 936.13,-295.37 933.08,-296.35 930.06,-297.31 927.08,-298.27 924.15,-299.21 921.27,-300.13 918.44,-301.03 915.68,-301.92 912.99,-302.79 910.37,-303.63 912.01,-308.35"/>
</g>
<!-- cp&#45;platform&#45;huanqiu -->
<g id="node35" class="node">
<title>cp&#45;platform&#45;huanqiu</title>
<defs>
<radialGradient id="node35_r_34" cx="50%" cy="50%" r="75%" fx="50%" fy="50%">
<stop offset="0" style="stop-color:#f600c9;stop-opacity:1.;"/>
<stop offset="1" style="stop-color:#9a007e;stop-opacity:1.;"/>
</radialGradient>
</defs>
<ellipse fill="url(#node35_r_34)" stroke="#f600c9" cx="1057.67" cy="-197.51" rx="51.62" ry="20.51"/>
<text text-anchor="middle" x="1057.67" y="-194.71" font-family="Times,serif" font-size="14.00" fill="#7b0064">环球资源</text>
</g>
<!-- cp&#45;platform&#45;&gt;cp&#45;platform&#45;huanqiu -->
<g id="edge37" class="edge">
<title>cp&#45;platform&#45;&gt;cp&#45;platform&#45;huanqiu</title>
<polygon fill="#9a008c" stroke="none" stroke-width="5" points="914.79,-200.01 918.66,-199.9 922.67,-199.79 926.83,-199.68 931.11,-199.56 935.5,-199.44 939.99,-199.31 944.56,-199.19 949.21,-199.06 953.91,-198.93 958.66,-198.8 963.44,-198.67 968.24,-198.54 973.05,-198.4 977.84,-198.27 982.62,-198.14 987.37,-198.01 992.06,-197.88 996.7,-197.75 1001.26,-197.63 1005.74,-197.51 1005.74,-197.51 1001.26,-197.38 996.7,-197.26 992.06,-197.13 987.37,-197 982.62,-196.87 977.84,-196.74 973.05,-196.61 968.24,-196.48 963.44,-196.34 958.66,-196.21 953.91,-196.08 949.21,-195.95 944.56,-195.82 939.99,-195.7 935.5,-195.58 931.11,-195.45 926.83,-195.34 922.67,-195.22 918.66,-195.11 914.79,-195.01 914.79,-200.01"/>
</g>
<!-- op -->
<g id="node36" class="node">
<title>op</title>
<defs>
<radialGradient id="node36_r_35" cx="50%" cy="50%" r="75%" fx="50%" fy="50%">
<stop offset="0" style="stop-color:#f600b3;stop-opacity:1.;"/>
<stop offset="1" style="stop-color:#9a0070;stop-opacity:1.;"/>
</radialGradient>
</defs>
<ellipse fill="url(#node36_r_35)" stroke="#f600b3" cx="409.7" cy="-285.51" rx="31.47" ry="20.51"/>
<text text-anchor="middle" x="409.7" y="-282.71" font-family="Times,serif" font-size="14.00" fill="#7b0059">运营</text>
</g>
<!-- op&#45;&gt;m -->
<g id="edge51" class="edge">
<title>op&#45;&gt;m</title>
<path fill="none" stroke="#9a0070" d="M441.64,-285.51C449.23,-285.51 457.49,-285.51 465.51,-285.51"/>
<polygon fill="#9a0070" stroke="#9a0070" points="465.48,-289.01 475.48,-285.51 465.48,-282.01 465.48,-289.01"/>
</g>
<!-- op&#45;demand -->
<g id="node37" class="node">
<title>op&#45;demand</title>
<defs>
<radialGradient id="node37_r_36" cx="50%" cy="50%" r="75%" fx="50%" fy="50%">
<stop offset="0" style="stop-color:#f6009c;stop-opacity:1.;"/>
<stop offset="1" style="stop-color:#9a0062;stop-opacity:1.;"/>
</radialGradient>
</defs>
<ellipse fill="url(#node37_r_36)" stroke="#f6009c" cx="300.49" cy="-342.51" rx="31.47" ry="20.51"/>
<text text-anchor="middle" x="300.49" y="-339.71" font-family="Times,serif" font-size="14.00" fill="#7b004e">需求</text>
</g>
<!-- op&#45;&gt;op&#45;demand -->
<g id="edge39" class="edge">
<title>op&#45;&gt;op&#45;demand</title>
<polygon fill="#9a0070" stroke="none" stroke-width="5" points="383.55,-296.05 380.91,-297.58 378.19,-299.16 375.4,-300.78 372.54,-302.44 369.63,-304.13 366.67,-305.85 363.67,-307.59 360.65,-309.34 357.61,-311.11 354.56,-312.88 351.5,-314.65 348.46,-316.41 345.44,-318.17 342.44,-319.91 339.48,-321.63 336.57,-323.32 333.71,-324.98 330.91,-326.6 328.19,-328.18 325.55,-329.71 325.55,-329.71 328.3,-328.38 331.13,-327.01 334.04,-325.6 337.01,-324.16 340.05,-322.69 343.13,-321.19 346.24,-319.68 349.39,-318.16 352.56,-316.62 355.73,-315.08 358.9,-313.55 362.07,-312.01 365.21,-310.49 368.33,-308.98 371.41,-307.48 374.44,-306.02 377.41,-304.57 380.32,-303.16 383.15,-301.79 385.9,-300.46 383.55,-296.05"/>
</g>
<!-- op&#45;policy -->
<g id="node41" class="node">
<title>op&#45;policy</title>
<defs>
<radialGradient id="node41_r_37" cx="50%" cy="50%" r="75%" fx="50%" fy="50%">
<stop offset="0" style="stop-color:#f60043;stop-opacity:1.;"/>
<stop offset="1" style="stop-color:#9a002a;stop-opacity:1.;"/>
</radialGradient>
</defs>
<ellipse fill="url(#node41_r_37)" stroke="#f60043" cx="300.49" cy="-49.51" rx="31.47" ry="20.51"/>
<text text-anchor="middle" x="300.49" y="-46.71" font-family="Times,serif" font-size="14.00" fill="#7b0021">策略</text>
</g>
<!-- op&#45;&gt;op&#45;policy -->
<g id="edge43" class="edge">
<title>op&#45;&gt;op&#45;policy</title>
<polygon fill="#9a0070" stroke="none" stroke-width="5" points="401.97,-264.65 398.65,-257.55 394.93,-249.6 390.86,-240.91 386.48,-231.56 381.83,-221.64 376.97,-211.25 371.93,-200.49 366.75,-189.45 361.49,-178.22 356.19,-166.9 350.89,-155.57 345.63,-144.34 340.46,-133.31 335.42,-122.55 330.56,-112.17 325.92,-102.26 321.54,-92.92 317.48,-84.24 313.76,-76.3 310.44,-69.22 310.44,-69.22 313.6,-76.38 317.13,-84.39 320.99,-93.17 325.15,-102.61 329.56,-112.62 334.18,-123.11 338.97,-133.98 343.88,-145.14 348.88,-156.49 353.92,-167.93 358.96,-179.37 363.95,-190.72 368.87,-201.88 373.66,-212.76 378.28,-223.25 382.69,-233.27 386.86,-242.73 390.73,-251.51 394.26,-259.54 397.42,-266.71 401.97,-264.65"/>
</g>
<!-- op&#45;demand&#45;market -->
<g id="node38" class="node">
<title>op&#45;demand&#45;market</title>
<defs>
<radialGradient id="node38_r_38" cx="50%" cy="50%" r="75%" fx="50%" fy="50%">
<stop offset="0" style="stop-color:#f60086;stop-opacity:1.;"/>
<stop offset="1" style="stop-color:#9a0054;stop-opacity:1.;"/>
</radialGradient>
</defs>
<ellipse fill="url(#node38_r_38)" stroke="#f60086" cx="171.12" cy="-460.51" rx="51.62" ry="20.51"/>
<text text-anchor="middle" x="171.12" y="-457.71" font-family="Times,serif" font-size="14.00" fill="#7b0043">市场需求</text>
</g>
<!-- op&#45;demand&#45;&gt;op&#45;demand&#45;market -->
<g id="edge41" class="edge">
<title>op&#45;demand&#45;&gt;op&#45;demand&#45;market</title>
<polygon fill="#9a0062" stroke="none" stroke-width="5" points="284.35,-359.7 282.22,-362.7 279.96,-365.85 277.56,-369.13 275.05,-372.54 272.41,-376.04 269.65,-379.64 266.79,-383.32 263.83,-387.05 260.77,-390.83 257.62,-394.64 254.39,-398.47 251.07,-402.3 247.69,-406.11 244.23,-409.89 240.72,-413.63 237.15,-417.31 233.53,-420.91 229.87,-424.43 226.16,-427.84 222.43,-431.13 221.59,-431.85 220.73,-432.57 219.86,-433.27 218.98,-433.98 218.1,-434.68 217.2,-435.37 216.29,-436.06 215.37,-436.74 214.45,-437.42 213.52,-438.09 212.58,-438.76 211.64,-439.42 210.69,-440.07 209.74,-440.72 208.79,-441.36 207.83,-441.99 206.87,-442.62 205.91,-443.23 204.95,-443.84 203.99,-444.45 203.99,-444.45 204.98,-443.89 205.96,-443.32 206.95,-442.74 207.93,-442.15 208.92,-441.56 209.9,-440.96 210.88,-440.36 211.85,-439.74 212.82,-439.12 213.79,-438.5 214.75,-437.86 215.71,-437.22 216.66,-436.57 217.6,-435.92 218.53,-435.26 219.45,-434.6 220.37,-433.93 221.27,-433.25 222.16,-432.57 223.05,-431.88 226.94,-428.73 230.8,-425.46 234.63,-422.09 238.42,-418.62 242.17,-415.07 245.86,-411.46 249.5,-407.81 253.06,-404.12 256.56,-400.41 259.98,-396.7 263.31,-393 266.55,-389.33 269.69,-385.7 272.73,-382.12 275.65,-378.62 278.46,-375.2 281.14,-371.88 283.69,-368.67 286.1,-365.6 288.37,-362.67 284.35,-359.7"/>
</g>
<!-- op&#45;demand&#45;custom -->
<g id="node39" class="node">
<title>op&#45;demand&#45;custom</title>
<defs>
<radialGradient id="node39_r_39" cx="50%" cy="50%" r="75%" fx="50%" fy="50%">
<stop offset="0" style="stop-color:#f60070;stop-opacity:1.;"/>
<stop offset="1" style="stop-color:#9a0046;stop-opacity:1.;"/>
</radialGradient>
</defs>
<ellipse fill="url(#node39_r_39)" stroke="#f60070" cx="171.12" cy="-401.51" rx="51.62" ry="20.51"/>
<text text-anchor="middle" x="171.12" y="-398.71" font-family="Times,serif" font-size="14.00" fill="#7b0038">客户需求</text>
</g>
<!-- op&#45;demand&#45;&gt;op&#45;demand&#45;custom -->
<g id="edge42" class="edge">
<title>op&#45;demand&#45;&gt;op&#45;demand&#45;custom</title>
<polygon fill="#9a0062" stroke="none" stroke-width="5" points="273.24,-351.91 270.28,-353.4 267.21,-354.95 264.05,-356.54 260.8,-358.18 257.48,-359.85 254.09,-361.56 250.65,-363.29 247.16,-365.05 243.64,-366.83 240.1,-368.61 236.54,-370.41 232.98,-372.2 229.42,-373.99 225.88,-375.77 222.37,-377.54 218.9,-379.29 215.47,-381.02 212.1,-382.72 208.8,-384.38 205.58,-386 205.58,-386 208.91,-384.6 212.31,-383.16 215.78,-381.68 219.31,-380.19 222.89,-378.67 226.51,-377.14 230.16,-375.59 233.83,-374.04 237.5,-372.48 241.17,-370.93 244.82,-369.38 248.45,-367.84 252.05,-366.32 255.6,-364.81 259.09,-363.33 262.52,-361.88 265.87,-360.46 269.13,-359.08 272.29,-357.74 275.35,-356.44 273.24,-351.91"/>
</g>
<!-- op&#45;demand&#45;supply -->
<g id="node40" class="node">
<title>op&#45;demand&#45;supply</title>
<defs>
<radialGradient id="node40_r_40" cx="50%" cy="50%" r="75%" fx="50%" fy="50%">
<stop offset="0" style="stop-color:#f60059;stop-opacity:1.;"/>
<stop offset="1" style="stop-color:#9a0038;stop-opacity:1.;"/>
</radialGradient>
</defs>
<ellipse fill="url(#node40_r_40)" stroke="#f60059" cx="171.12" cy="-342.51" rx="51.62" ry="20.51"/>
<text text-anchor="middle" x="171.12" y="-339.71" font-family="Times,serif" font-size="14.00" fill="#7b002c">供应需求</text>
</g>
<!-- op&#45;demand&#45;&gt;op&#45;demand&#45;supply -->
<g id="edge40" class="edge">
<title>op&#45;demand&#45;&gt;op&#45;demand&#45;supply</title>
<polygon fill="#9a0062" stroke="none" stroke-width="5" points="268.57,-340.01 266.51,-340.12 264.4,-340.24 262.26,-340.35 260.09,-340.47 257.89,-340.59 255.66,-340.72 253.41,-340.84 251.13,-340.97 248.84,-341.09 246.53,-341.22 244.21,-341.35 241.88,-341.48 239.54,-341.61 237.19,-341.73 234.85,-341.86 232.5,-341.99 230.16,-342.12 227.83,-342.25 225.5,-342.38 223.19,-342.51 223.19,-342.51 225.5,-342.63 227.83,-342.76 230.16,-342.89 232.5,-343.02 234.85,-343.15 237.19,-343.28 239.54,-343.41 241.88,-343.54 244.21,-343.66 246.53,-343.79 248.84,-343.92 251.13,-344.05 253.41,-344.17 255.66,-344.29 257.89,-344.42 260.09,-344.54 262.26,-344.66 264.4,-344.78 266.51,-344.89 268.57,-345.01 268.57,-340.01"/>
</g>
<!-- op&#45;policy&#45;&gt;m&#45;finance -->
<!-- op&#45;policy&#45;product -->
<g id="node42" class="node">
<title>op&#45;policy&#45;product</title>
<defs>
<radialGradient id="node42_r_41" cx="50%" cy="50%" r="75%" fx="50%" fy="50%">
<stop offset="0" style="stop-color:#f6002c;stop-opacity:1.;"/>
<stop offset="1" style="stop-color:#9a001c;stop-opacity:1.;"/>
</radialGradient>
</defs>
<ellipse fill="url(#node42_r_41)" stroke="#f6002c" cx="171.12" cy="-198.51" rx="31.47" ry="20.51"/>
<text text-anchor="middle" x="171.12" y="-195.71" font-family="Times,serif" font-size="14.00" fill="#7b0016">产品</text>
</g>
<!-- op&#45;policy&#45;&gt;op&#45;policy&#45;product -->
<g id="edge44" class="edge">
<title>op&#45;policy&#45;&gt;op&#45;policy&#45;product</title>
<polygon fill="#9a002a" stroke="none" stroke-width="5" points="288.25,-68.33 286.38,-72.33 284.35,-76.59 282.14,-81.09 279.78,-85.8 277.25,-90.7 274.57,-95.76 271.73,-100.96 268.75,-106.26 265.61,-111.65 262.33,-117.1 258.92,-122.58 255.36,-128.06 251.67,-133.53 247.86,-138.96 243.91,-144.31 239.84,-149.57 235.65,-154.71 231.34,-159.7 226.92,-164.52 222.39,-169.14 221.31,-170.18 220.2,-171.21 219.07,-172.22 217.91,-173.22 216.73,-174.2 215.53,-175.17 214.31,-176.12 213.08,-177.06 211.83,-177.98 210.56,-178.88 209.29,-179.77 208.01,-180.64 206.72,-181.49 205.43,-182.33 204.14,-183.15 202.84,-183.95 201.55,-184.73 200.25,-185.49 198.97,-186.24 197.69,-186.97 197.69,-186.97 198.99,-186.28 200.3,-185.58 201.62,-184.86 202.94,-184.12 204.26,-183.36 205.59,-182.58 206.91,-181.79 208.23,-180.97 209.54,-180.14 210.85,-179.3 212.14,-178.43 213.43,-177.55 214.7,-176.65 215.96,-175.73 217.2,-174.8 218.42,-173.84 219.62,-172.88 220.8,-171.89 221.96,-170.89 223.09,-169.87 227.79,-165.37 232.4,-160.67 236.9,-155.79 241.29,-150.76 245.56,-145.6 249.71,-140.34 253.73,-135 257.63,-129.62 261.39,-124.21 265.01,-118.8 268.5,-113.42 271.83,-108.1 275.02,-102.85 278.05,-97.71 280.92,-92.7 283.63,-87.85 286.17,-83.17 288.54,-78.71 290.74,-74.48 292.75,-70.51 288.25,-68.33"/>
</g>
<!-- op&#45;policy&#45;flow -->
<g id="node47" class="node">
<title>op&#45;policy&#45;flow</title>
<defs>
<radialGradient id="node47_r_42" cx="50%" cy="50%" r="75%" fx="50%" fy="50%">
<stop offset="0" style="stop-color:#f64300;stop-opacity:1.;"/>
<stop offset="1" style="stop-color:#9a2a00;stop-opacity:1.;"/>
</radialGradient>
</defs>
<ellipse fill="url(#node47_r_42)" stroke="#f64300" cx="171.12" cy="-139.51" rx="31.47" ry="20.51"/>
<text text-anchor="middle" x="171.12" y="-136.71" font-family="Times,serif" font-size="14.00" fill="#7b2100">流量</text>
</g>
<!-- op&#45;policy&#45;&gt;op&#45;policy&#45;flow -->
<g id="edge49" class="edge">
<title>op&#45;policy&#45;&gt;op&#45;policy&#45;flow</title>
<polygon fill="#9a002a" stroke="none" stroke-width="5" points="278.86,-63.57 276.58,-65.54 274.2,-67.58 271.73,-69.68 269.18,-71.84 266.56,-74.05 263.86,-76.31 261.1,-78.6 258.29,-80.93 255.42,-83.28 252.51,-85.65 249.56,-88.03 246.57,-90.42 243.57,-92.8 240.54,-95.17 237.5,-97.53 234.45,-99.87 231.4,-102.18 228.35,-104.46 225.32,-106.69 222.31,-108.88 221.03,-109.79 219.74,-110.7 218.44,-111.61 217.12,-112.52 215.79,-113.43 214.45,-114.34 213.1,-115.25 211.75,-116.15 210.39,-117.04 209.04,-117.94 207.68,-118.82 206.32,-119.7 204.96,-120.57 203.61,-121.43 202.27,-122.28 200.93,-123.13 199.6,-123.96 198.28,-124.78 196.98,-125.59 195.69,-126.38 195.69,-126.38 197.02,-125.65 198.36,-124.9 199.71,-124.15 201.08,-123.38 202.46,-122.6 203.84,-121.81 205.23,-121.02 206.63,-120.21 208.03,-119.4 209.43,-118.58 210.84,-117.75 212.24,-116.92 213.63,-116.08 215.03,-115.24 216.41,-114.39 217.79,-113.55 219.15,-112.69 220.5,-111.84 221.84,-110.99 223.17,-110.14 226.29,-108.09 229.44,-106 232.6,-103.86 235.77,-101.69 238.94,-99.5 242.1,-97.28 245.25,-95.04 248.38,-92.8 251.48,-90.55 254.55,-88.3 257.59,-86.07 260.57,-83.85 263.51,-81.65 266.38,-79.48 269.2,-77.35 271.93,-75.26 274.59,-73.22 277.17,-71.23 279.65,-69.3 282.03,-67.44 278.86,-63.57"/>
</g>
<!-- op&#45;policy&#45;act -->
<g id="node48" class="node">
<title>op&#45;policy&#45;act</title>
<defs>
<radialGradient id="node48_r_43" cx="50%" cy="50%" r="75%" fx="50%" fy="50%">
<stop offset="0" style="stop-color:#f65900;stop-opacity:1.;"/>
<stop offset="1" style="stop-color:#9a3800;stop-opacity:1.;"/>
</radialGradient>
</defs>
<ellipse fill="url(#node48_r_43)" stroke="#f65900" cx="171.12" cy="-79.51" rx="31.47" ry="20.51"/>
<text text-anchor="middle" x="171.12" y="-76.71" font-family="Times,serif" font-size="14.00" fill="#7b2c00">活动</text>
</g>
<!-- op&#45;policy&#45;&gt;op&#45;policy&#45;act -->
<g id="edge50" class="edge">
<title>op&#45;policy&#45;&gt;op&#45;policy&#45;act</title>
<polygon fill="#9a002a" stroke="none" stroke-width="5" points="270.13,-53.85 266.98,-54.71 263.73,-55.6 260.4,-56.51 257,-57.43 253.53,-58.38 250,-59.34 246.43,-60.31 242.84,-61.3 239.22,-62.28 235.58,-63.27 231.95,-64.26 228.33,-65.25 224.73,-66.23 221.16,-67.21 217.64,-68.17 214.16,-69.11 210.76,-70.04 207.42,-70.95 204.17,-71.84 201.02,-72.7 201.02,-72.7 204.23,-72.06 207.53,-71.4 210.92,-70.73 214.38,-70.04 217.91,-69.34 221.5,-68.62 225.12,-67.9 228.78,-67.17 232.46,-66.44 236.16,-65.71 239.85,-64.97 243.53,-64.24 247.19,-63.51 250.81,-62.79 254.4,-62.08 257.92,-61.38 261.39,-60.69 264.77,-60.01 268.07,-59.36 271.27,-58.72 270.13,-53.85"/>
</g>
<!-- op&#45;policy&#45;product&#45;rank -->
<g id="node43" class="node">
<title>op&#45;policy&#45;product&#45;rank</title>
<defs>
<radialGradient id="node43_r_44" cx="50%" cy="50%" r="75%" fx="50%" fy="50%">
<stop offset="0" style="stop-color:#f60016;stop-opacity:1.;"/>
<stop offset="1" style="stop-color:#9a000e;stop-opacity:1.;"/>
</radialGradient>
</defs>
<ellipse fill="url(#node43_r_44)" stroke="#f60016" cx="41.75" cy="-228.51" rx="31.47" ry="20.51"/>
<text text-anchor="middle" x="41.75" y="-225.71" font-family="Times,serif" font-size="14.00" fill="#7b000b">竞价</text>
</g>
<!-- op&#45;policy&#45;product&#45;&gt;op&#45;policy&#45;product&#45;rank -->
<g id="edge45" class="edge">
<title>op&#45;policy&#45;product&#45;&gt;op&#45;policy&#45;product&#45;rank</title>
<polygon fill="#9a001c" stroke="none" stroke-width="5" points="140.76,-202.85 137.61,-203.71 134.36,-204.6 131.03,-205.51 127.63,-206.43 124.16,-207.38 120.63,-208.34 117.07,-209.31 113.47,-210.3 109.85,-211.28 106.21,-212.27 102.58,-213.26 98.96,-214.25 95.36,-215.23 91.79,-216.21 88.27,-217.17 84.8,-218.11 81.39,-219.04 78.05,-219.95 74.8,-220.84 71.65,-221.7 71.65,-221.7 74.86,-221.06 78.16,-220.4 81.55,-219.73 85.01,-219.04 88.54,-218.34 92.13,-217.62 95.75,-216.9 99.41,-216.17 103.1,-215.44 106.79,-214.71 110.48,-213.97 114.16,-213.24 117.82,-212.51 121.45,-211.79 125.03,-211.08 128.56,-210.38 132.02,-209.69 135.4,-209.01 138.7,-208.36 141.9,-207.72 140.76,-202.85"/>
</g>
<!-- op&#45;policy&#45;product&#45;bind -->
<g id="node44" class="node">
<title>op&#45;policy&#45;product&#45;bind</title>
<defs>
<radialGradient id="node44_r_45" cx="50%" cy="50%" r="75%" fx="50%" fy="50%">
<stop offset="0" style="stop-color:#f60000;stop-opacity:1.;"/>
<stop offset="1" style="stop-color:#9a0000;stop-opacity:1.;"/>
</radialGradient>
</defs>
<ellipse fill="url(#node44_r_45)" stroke="#f60000" cx="41.75" cy="-169.51" rx="31.47" ry="20.51"/>
<text text-anchor="middle" x="41.75" y="-166.71" font-family="Times,serif" font-size="14.00" fill="#7b0000">绑定</text>
</g>
<!-- op&#45;policy&#45;product&#45;&gt;op&#45;policy&#45;product&#45;bind -->
<g id="edge46" class="edge">
<title>op&#45;policy&#45;product&#45;&gt;op&#45;policy&#45;product&#45;bind</title>
<polygon fill="#9a001c" stroke="none" stroke-width="5" points="141.59,-189.45 138.41,-188.84 135.14,-188.21 131.78,-187.57 128.35,-186.92 124.85,-186.25 121.3,-185.57 117.71,-184.89 114.09,-184.2 110.45,-183.5 106.79,-182.8 103.14,-182.11 99.49,-181.41 95.87,-180.72 92.28,-180.03 88.72,-179.36 85.23,-178.69 81.79,-178.03 78.43,-177.39 75.15,-176.77 71.97,-176.16 71.97,-176.16 75.1,-176.99 78.33,-177.84 81.64,-178.72 85.02,-179.62 88.46,-180.53 91.95,-181.46 95.49,-182.39 99.05,-183.34 102.64,-184.29 106.24,-185.24 109.83,-186.2 113.42,-187.15 116.98,-188.09 120.52,-189.03 124.01,-189.96 127.45,-190.87 130.83,-191.76 134.13,-192.64 137.35,-193.49 140.48,-194.32 141.59,-189.45"/>
</g>
<!-- op&#45;policy&#45;product&#45;recom -->
<g id="node45" class="node">
<title>op&#45;policy&#45;product&#45;recom</title>
<defs>
<radialGradient id="node45_r_46" cx="50%" cy="50%" r="75%" fx="50%" fy="50%">
<stop offset="0" style="stop-color:#f61600;stop-opacity:1.;"/>
<stop offset="1" style="stop-color:#9a0e00;stop-opacity:1.;"/>
</radialGradient>
</defs>
<ellipse fill="url(#node45_r_46)" stroke="#f61600" cx="41.75" cy="-110.51" rx="31.47" ry="20.51"/>
<text text-anchor="middle" x="41.75" y="-107.71" font-family="Times,serif" font-size="14.00" fill="#7b0b00">推荐</text>
</g>
<!-- op&#45;policy&#45;product&#45;&gt;op&#45;policy&#45;product&#45;recom -->
<g id="edge47" class="edge">
<title>op&#45;policy&#45;product&#45;&gt;op&#45;policy&#45;product&#45;recom</title>
<polygon fill="#9a001c" stroke="none" stroke-width="5" points="147.13,-183.59 145.82,-182.89 144.51,-182.19 143.19,-181.48 141.85,-180.75 140.51,-180.02 139.16,-179.27 137.8,-178.52 136.44,-177.75 135.08,-176.98 133.72,-176.2 132.36,-175.41 131.01,-174.61 129.66,-173.81 128.31,-173 126.98,-172.19 125.66,-171.38 124.34,-170.56 123.04,-169.73 121.76,-168.91 120.5,-168.08 118.01,-166.42 115.73,-164.84 113.63,-163.33 111.69,-161.89 109.88,-160.5 108.18,-159.15 106.57,-157.83 105.03,-156.53 103.54,-155.24 102.06,-153.96 100.59,-152.66 99.1,-151.35 97.56,-150.01 95.97,-148.63 94.28,-147.2 92.5,-145.72 90.58,-144.17 88.52,-142.55 86.28,-140.84 83.86,-139.04 82.91,-138.34 81.95,-137.65 80.98,-136.95 80,-136.24 79.01,-135.54 78.03,-134.84 77.03,-134.14 76.03,-133.43 75.03,-132.73 74.03,-132.03 73.03,-131.34 72.03,-130.64 71.02,-129.95 70.03,-129.27 69.03,-128.58 68.04,-127.91 67.05,-127.23 66.07,-126.57 65.09,-125.91 64.12,-125.26 64.12,-125.26 65.06,-125.95 66,-126.66 66.95,-127.37 67.9,-128.09 68.86,-128.82 69.82,-129.55 70.78,-130.28 71.75,-131.02 72.72,-131.76 73.68,-132.51 74.65,-133.26 75.61,-134 76.57,-134.75 77.53,-135.5 78.48,-136.25 79.43,-137 80.37,-137.75 81.3,-138.49 82.23,-139.23 83.14,-139.97 85.46,-141.88 87.59,-143.68 89.56,-145.39 91.38,-147.02 93.08,-148.57 94.67,-150.06 96.19,-151.51 97.65,-152.92 99.07,-154.3 100.48,-155.67 101.9,-157.04 103.35,-158.41 104.85,-159.8 106.42,-161.23 108.08,-162.69 109.86,-164.19 111.77,-165.76 113.83,-167.4 116.07,-169.12 118.5,-170.93 119.75,-171.84 121.02,-172.74 122.29,-173.64 123.58,-174.54 124.88,-175.43 126.2,-176.32 127.52,-177.2 128.84,-178.08 130.17,-178.95 131.51,-179.82 132.85,-180.68 134.18,-181.53 135.52,-182.37 136.85,-183.2 138.18,-184.02 139.5,-184.83 140.81,-185.63 142.11,-186.41 143.4,-187.19 144.68,-187.94 147.13,-183.59"/>
</g>
<!-- op&#45;policy&#45;product&#45;prom -->
<g id="node46" class="node">
<title>op&#45;policy&#45;product&#45;prom</title>
<defs>
<radialGradient id="node46_r_47" cx="50%" cy="50%" r="75%" fx="50%" fy="50%">
<stop offset="0" style="stop-color:#f62c00;stop-opacity:1.;"/>
<stop offset="1" style="stop-color:#9a1c00;stop-opacity:1.;"/>
</radialGradient>
</defs>
<ellipse fill="url(#node46_r_47)" stroke="#f62c00" cx="41.75" cy="-51.51" rx="31.47" ry="20.51"/>
<text text-anchor="middle" x="41.75" y="-48.71" font-family="Times,serif" font-size="14.00" fill="#7b1600">推广</text>
</g>
<!-- op&#45;policy&#45;product&#45;&gt;op&#45;policy&#45;product&#45;prom -->
<g id="edge48" class="edge">
<title>op&#45;policy&#45;product&#45;&gt;op&#45;policy&#45;product&#45;prom</title>
<polygon fill="#9a001c" stroke="none" stroke-width="5" points="144.98,-185.49 143.68,-184.82 142.39,-184.13 141.1,-183.43 139.81,-182.7 138.52,-181.95 137.24,-181.18 135.96,-180.39 134.7,-179.58 133.44,-178.75 132.2,-177.89 130.98,-177.02 129.77,-176.12 128.58,-175.2 127.41,-174.27 126.27,-173.31 125.16,-172.32 124.07,-171.32 123.02,-170.3 121.99,-169.26 121.02,-168.21 117.14,-163.61 113.91,-159.13 111.22,-154.75 109.01,-150.45 107.22,-146.21 105.77,-142.02 104.6,-137.84 103.63,-133.68 102.82,-129.51 102.07,-125.32 101.34,-121.11 100.55,-116.85 99.63,-112.55 98.51,-108.19 97.12,-103.76 95.4,-99.25 93.28,-94.66 90.68,-89.98 87.54,-85.18 83.81,-80.27 83.06,-79.38 82.3,-78.5 81.51,-77.64 80.71,-76.78 79.89,-75.94 79.05,-75.11 78.2,-74.29 77.33,-73.49 76.45,-72.7 75.56,-71.92 74.66,-71.15 73.74,-70.39 72.82,-69.65 71.9,-68.92 70.96,-68.21 70.02,-67.51 69.08,-66.82 68.14,-66.14 67.19,-65.48 66.25,-64.83 66.25,-64.83 67.17,-65.51 68.09,-66.2 69.01,-66.91 69.93,-67.63 70.84,-68.36 71.75,-69.1 72.65,-69.86 73.55,-70.63 74.43,-71.41 75.3,-72.21 76.17,-73.01 77.01,-73.83 77.85,-74.65 78.67,-75.49 79.47,-76.34 80.26,-77.2 81.02,-78.07 81.77,-78.95 82.49,-79.85 83.19,-80.74 86.74,-85.73 89.67,-90.56 92.07,-95.25 94.01,-99.82 95.55,-104.28 96.76,-108.66 97.71,-112.97 98.48,-117.23 99.12,-121.47 99.72,-125.69 100.32,-129.93 101.01,-134.19 101.86,-138.49 102.93,-142.85 104.3,-147.28 106.03,-151.79 108.2,-156.38 110.87,-161.08 114.12,-165.89 117.98,-170.8 119.02,-172 120.08,-173.15 121.18,-174.29 122.3,-175.39 123.45,-176.48 124.63,-177.53 125.83,-178.57 127.05,-179.58 128.3,-180.57 129.56,-181.53 130.83,-182.47 132.12,-183.39 133.42,-184.28 134.73,-185.16 136.04,-186 137.36,-186.83 138.67,-187.63 139.99,-188.41 141.31,-189.16 142.61,-189.89 144.98,-185.49"/>
</g>
<!-- op&#45;none&#45;1 -->
<!-- op&#45;none&#45;1&#45;&gt;op -->
<!-- op&#45;none&#45;2 -->
<!-- op&#45;none&#45;2&#45;&gt;op&#45;none&#45;1 -->
<!-- op&#45;none&#45;3 -->
<!-- op&#45;none&#45;3&#45;&gt;op&#45;none&#45;2 -->
</g>
</svg>
