<?xml version="1.0" encoding="UTF-8" standalone="no"?>
<!DOCTYPE svg PUBLIC "-//W3C//DTD SVG 1.1//EN"
 "http://www.w3.org/Graphics/SVG/1.1/DTD/svg11.dtd">
<!-- Generated by graphviz version 9.0.0 (0)
 -->
<!-- Title: G Pages: 1 -->
<svg width="1443pt" height="512pt"
 viewBox="0.00 0.00 1443.12 511.51" xmlns="http://www.w3.org/2000/svg" xmlns:xlink="http://www.w3.org/1999/xlink">
<g id="graph0" class="graph" transform="scale(1 1) rotate(0) translate(4 507.51)">
<title>G</title>
<polygon fill="white" stroke="none" points="-4,4 -4,-507.51 1439.12,-507.51 1439.12,4 -4,4"/>
<!-- gvm -->
<g id="node1" class="node">
<title>gvm</title>
<defs>
<radialGradient id="node1_r_0" cx="50%" cy="50%" r="75%" fx="50%" fy="50%">
<stop offset="0" style="stop-color:#0038fa;stop-opacity:1.;"/>
<stop offset="1" style="stop-color:#00208f;stop-opacity:1.;"/>
</radialGradient>
</defs>
<polygon fill="url(#node1_r_0)" stroke="#0038fa" points="817.24,-486 752.12,-503.51 687.01,-486 687.07,-457.66 817.18,-457.66 817.24,-486"/>
<text text-anchor="middle" x="752.12" y="-475.37" font-family="Times,serif" font-size="14.00" fill="#dbe3ff">GraalVM</text>
</g>
<!-- jit&#45;c2 -->
<g id="node6" class="node">
<title>jit&#45;c2</title>
<defs>
<linearGradient id="node6_l_0" gradientUnits="userSpaceOnUse" x1="401.12" y1="-387.82" x2="463.12" y2="-387.82" >
<stop offset="0" style="stop-color:#ff7a9b;stop-opacity:1.;"/>
<stop offset="1" style="stop-color:#ff7aff;stop-opacity:1.;"/>
</linearGradient>
</defs>
<polygon fill="url(#node6_l_0)" stroke="#ff7a9b" points="463.12,-405.82 405.12,-405.82 405.12,-401.82 401.12,-401.82 401.12,-397.82 405.12,-397.82 405.12,-377.82 401.12,-377.82 401.12,-373.82 405.12,-373.82 405.12,-369.82 463.12,-369.82 463.12,-405.82"/>
<polyline fill="none" stroke="#ff7a9b" points="405.12,-401.82 409.12,-401.82 409.12,-397.82 405.12,-397.82"/>
<polyline fill="none" stroke="#ff7a9b" points="405.12,-377.82 409.12,-377.82 409.12,-373.82 405.12,-373.82"/>
<text text-anchor="middle" x="434.12" y="-385.02" font-family="Times,serif" font-size="14.00" fill="#7f0000">JIT C2</text>
</g>
<!-- gvm&#45;&gt;jit&#45;c2 -->
<g id="edge5" class="edge">
<title>gvm&#45;&gt;jit&#45;c2</title>
<path fill="none" stroke="#00208f" stroke-width="3" d="M686.62,-458.97C618.08,-439.92 513.58,-410.89 463.23,-396.91"/>
</g>
<!-- t -->
<g id="node11" class="node">
<title>t</title>
<defs>
<linearGradient id="node11_l_1" gradientUnits="userSpaceOnUse" x1="554.88" y1="-387.82" x2="621.38" y2="-387.82" >
<stop offset="0" style="stop-color:#ff7a9b;stop-opacity:1.;"/>
<stop offset="1" style="stop-color:#ff7aff;stop-opacity:1.;"/>
</linearGradient>
</defs>
<polygon fill="url(#node11_l_1)" stroke="#ff7a9b" points="621.38,-405.82 558.88,-405.82 558.88,-401.82 554.88,-401.82 554.88,-397.82 558.88,-397.82 558.88,-377.82 554.88,-377.82 554.88,-373.82 558.88,-373.82 558.88,-369.82 621.38,-369.82 621.38,-405.82"/>
<polyline fill="none" stroke="#ff7a9b" points="558.88,-401.82 562.88,-401.82 562.88,-397.82 558.88,-397.82"/>
<polyline fill="none" stroke="#ff7a9b" points="558.88,-377.82 562.88,-377.82 562.88,-373.82 558.88,-373.82"/>
<text text-anchor="middle" x="590.12" y="-385.02" font-family="Times,serif" font-size="14.00" fill="#7f0000">Truffle</text>
</g>
<!-- gvm&#45;&gt;t -->
<g id="edge16" class="edge">
<title>gvm&#45;&gt;t</title>
<path fill="none" stroke="#00208f" stroke-width="3" d="M712.17,-457.24C676.93,-439.66 631.12,-416.82 631.12,-416.82 631.12,-416.82 623.83,-411.83 615.39,-406.07"/>
</g>
<!-- i -->
<g id="node12" class="node">
<title>i</title>
<defs>
<linearGradient id="node12_l_2" gradientUnits="userSpaceOnUse" x1="635.88" y1="-387.82" x2="732.38" y2="-387.82" >
<stop offset="0" style="stop-color:#ff7a9b;stop-opacity:1.;"/>
<stop offset="1" style="stop-color:#ff7aff;stop-opacity:1.;"/>
</linearGradient>
</defs>
<polygon fill="url(#node12_l_2)" stroke="#ff7a9b" points="732.38,-405.82 639.88,-405.82 639.88,-401.82 635.88,-401.82 635.88,-397.82 639.88,-397.82 639.88,-377.82 635.88,-377.82 635.88,-373.82 639.88,-373.82 639.88,-369.82 732.38,-369.82 732.38,-405.82"/>
<polyline fill="none" stroke="#ff7a9b" points="639.88,-401.82 643.88,-401.82 643.88,-397.82 639.88,-397.82"/>
<polyline fill="none" stroke="#ff7a9b" points="639.88,-377.82 643.88,-377.82 643.88,-373.82 639.88,-373.82"/>
<text text-anchor="middle" x="686.12" y="-385.02" font-family="Times,serif" font-size="14.00" fill="#7f0000">Interpreter</text>
</g>
<!-- gvm&#45;&gt;i -->
<g id="edge15" class="edge">
<title>gvm&#45;&gt;i</title>
<path fill="none" stroke="#00208f" stroke-width="3" d="M737.48,-457.56C726.01,-442.21 710.2,-421.05 699.17,-406.28"/>
</g>
<!-- jvmci -->
<g id="node14" class="node">
<title>jvmci</title>
<defs>
<radialGradient id="node14_r_1" cx="50%" cy="50%" r="75%" fx="50%" fy="50%">
<stop offset="0" style="stop-color:#7affdd;stop-opacity:1.;"/>
<stop offset="1" style="stop-color:#00a87d;stop-opacity:1.;"/>
</radialGradient>
</defs>
<polygon fill="url(#node14_r_1)" stroke="#7affdd" points="1281.93,-387.82 1257.03,-411.5 1207.22,-411.5 1182.32,-387.82 1207.22,-364.14 1257.03,-364.14 1281.93,-387.82"/>
<text text-anchor="middle" x="1232.12" y="-385.02" font-family="Times,serif" font-size="14.00" fill="#006b50">JVMCI</text>
</g>
<!-- gvm&#45;&gt;jvmci -->
<g id="edge14" class="edge">
<title>gvm&#45;&gt;jvmci</title>
<path fill="none" stroke="#00208f" stroke-width="3" d="M817.44,-467.8C935.7,-450.85 1173.12,-416.82 1173.12,-416.82 1173.12,-416.82 1185.66,-410.87 1199.18,-404.46"/>
</g>
<!-- ni -->
<g id="node15" class="node">
<title>ni</title>
<defs>
<radialGradient id="node15_r_2" cx="50%" cy="50%" r="75%" fx="50%" fy="50%">
<stop offset="0" style="stop-color:#a65cff;stop-opacity:1.;"/>
<stop offset="1" style="stop-color:#330070;stop-opacity:1.;"/>
</radialGradient>
</defs>
<polygon fill="url(#node15_r_2)" stroke="#a65cff" points="230.13,-416.82 61.5,-416.82 18.12,-358.82 186.75,-358.82 230.13,-416.82"/>
<text text-anchor="middle" x="124.12" y="-385.02" font-family="Times,serif" font-size="14.00" fill="#cccccc">native&#45;image</text>
</g>
<!-- gvm&#45;&gt;ni -->
<g id="edge30" class="edge">
<title>gvm&#45;&gt;ni</title>
<path fill="none" stroke="#00208f" stroke-width="3" d="M686.7,-467.96C575.41,-452.3 348.81,-420.43 219.74,-402.27"/>
</g>
<!-- graalpy -->
<g id="node16" class="node">
<title>graalpy</title>
<defs>
<radialGradient id="node16_r_3" cx="50%" cy="50%" r="75%" fx="50%" fy="50%">
<stop offset="0" style="stop-color:#a65cff;stop-opacity:1.;"/>
<stop offset="1" style="stop-color:#330070;stop-opacity:1.;"/>
</radialGradient>
</defs>
<polygon fill="url(#node16_r_3)" stroke="#a65cff" points="887.81,-416.82 778.55,-416.82 750.44,-358.82 859.7,-358.82 887.81,-416.82"/>
<text text-anchor="middle" x="819.12" y="-385.02" font-family="Times,serif" font-size="14.00" fill="#cccccc">graalpy</text>
</g>
<!-- gvm&#45;&gt;graalpy -->
<g id="edge32" class="edge">
<title>gvm&#45;&gt;graalpy</title>
<path fill="none" stroke="#00208f" stroke-width="3" d="M766.99,-457.56C776.02,-445.66 787.68,-430.28 797.69,-417.09"/>
</g>
<!-- nodejs -->
<g id="node17" class="node">
<title>nodejs</title>
<defs>
<radialGradient id="node17_r_4" cx="50%" cy="50%" r="75%" fx="50%" fy="50%">
<stop offset="0" style="stop-color:#a65cff;stop-opacity:1.;"/>
<stop offset="1" style="stop-color:#330070;stop-opacity:1.;"/>
</radialGradient>
</defs>
<polygon fill="url(#node17_r_4)" stroke="#a65cff" points="1032.37,-416.82 931.76,-416.82 905.88,-358.82 1006.49,-358.82 1032.37,-416.82"/>
<text text-anchor="middle" x="969.12" y="-385.02" font-family="Times,serif" font-size="14.00" fill="#cccccc">nodejs</text>
</g>
<!-- gvm&#45;&gt;nodejs -->
<g id="edge31" class="edge">
<title>gvm&#45;&gt;nodejs</title>
<path fill="none" stroke="#00208f" stroke-width="3" d="M801.09,-457.23C838.85,-441.86 890.52,-420.82 926.56,-406.15"/>
</g>
<!-- ed -->
<g id="node20" class="node">
<title>ed</title>
<defs>
<radialGradient id="node20_r_5" cx="50%" cy="50%" r="75%" fx="50%" fy="50%">
<stop offset="0" style="stop-color:#34ff0a;stop-opacity:1.;"/>
<stop offset="1" style="stop-color:#00990d;stop-opacity:1.;"/>
</radialGradient>
</defs>
<ellipse fill="url(#node20_r_5)" stroke="#34ff0a" cx="1118.12" cy="-387.82" rx="46.32" ry="20.51"/>
<text text-anchor="middle" x="1118.12" y="-385.02" font-family="Times,serif" font-size="14.00" fill="#325c00">Edition</text>
</g>
<!-- gvm&#45;&gt;ed -->
<g id="edge1" class="edge">
<title>gvm&#45;&gt;ed</title>
<path fill="none" stroke="#00208f" stroke-width="3" d="M817.34,-463.55C902.58,-445.75 1041.12,-416.82 1041.12,-416.82 1041.12,-416.82 1062.86,-408.92 1083.23,-401.51"/>
</g>
<!-- svm -->
<g id="node2" class="node">
<title>svm</title>
<defs>
<radialGradient id="node2_r_6" cx="50%" cy="50%" r="75%" fx="50%" fy="50%">
<stop offset="0" style="stop-color:#0038fa;stop-opacity:1.;"/>
<stop offset="1" style="stop-color:#00208f;stop-opacity:1.;"/>
</radialGradient>
</defs>
<polygon fill="url(#node2_r_6)" stroke="#0038fa" points="217.43,-486 124.12,-503.51 30.82,-486 30.91,-457.66 217.34,-457.66 217.43,-486"/>
<text text-anchor="middle" x="124.12" y="-475.37" font-family="Times,serif" font-size="14.00" fill="#dbe3ff">Substrate VM</text>
</g>
<!-- gjit -->
<g id="node3" class="node">
<title>gjit</title>
<defs>
<linearGradient id="node3_l_3" gradientUnits="userSpaceOnUse" x1="158.75" y1="-272.61" x2="239.5" y2="-272.61" >
<stop offset="0" style="stop-color:#ff7a9b;stop-opacity:1.;"/>
<stop offset="1" style="stop-color:#ff7aff;stop-opacity:1.;"/>
</linearGradient>
</defs>
<polygon fill="url(#node3_l_3)" stroke="#ff7a9b" points="239.5,-290.61 162.75,-290.61 162.75,-286.61 158.75,-286.61 158.75,-282.61 162.75,-282.61 162.75,-262.61 158.75,-262.61 158.75,-258.61 162.75,-258.61 162.75,-254.61 239.5,-254.61 239.5,-290.61"/>
<polyline fill="none" stroke="#ff7a9b" points="162.75,-286.61 166.75,-286.61 166.75,-282.61 162.75,-282.61"/>
<polyline fill="none" stroke="#ff7a9b" points="162.75,-262.61 166.75,-262.61 166.75,-258.61 162.75,-258.61"/>
<text text-anchor="middle" x="201.12" y="-269.81" font-family="Times,serif" font-size="14.00" fill="#7f0000">Graal JIT</text>
</g>
<!-- lgrl -->
<g id="node4" class="node">
<title>lgrl</title>
<defs>
<linearGradient id="node4_l_4" gradientUnits="userSpaceOnUse" x1="1.25" y1="-136.2" x2="73" y2="-136.2" >
<stop offset="0" style="stop-color:#ff7a9b;stop-opacity:1.;"/>
<stop offset="1" style="stop-color:#ff7aff;stop-opacity:1.;"/>
</linearGradient>
</defs>
<polygon fill="url(#node4_l_4)" stroke="#ff7a9b" points="73,-154.2 5.25,-154.2 5.25,-150.2 1.25,-150.2 1.25,-146.2 5.25,-146.2 5.25,-126.2 1.25,-126.2 1.25,-122.2 5.25,-122.2 5.25,-118.2 73,-118.2 73,-154.2"/>
<polyline fill="none" stroke="#ff7a9b" points="5.25,-150.2 9.25,-150.2 9.25,-146.2 5.25,-146.2"/>
<polyline fill="none" stroke="#ff7a9b" points="5.25,-126.2 9.25,-126.2 9.25,-122.2 5.25,-122.2"/>
<text text-anchor="middle" x="39.12" y="-133.4" font-family="Times,serif" font-size="14.00" fill="#7f0000">libgraal</text>
</g>
<!-- gjit&#45;&gt;lgrl -->
<g id="edge7" class="edge">
<title>gjit&#45;&gt;lgrl</title>
<path fill="none" stroke="#ff7aff" stroke-width="3" d="M183.36,-254.13C168.98,-239.98 151.12,-222.41 151.12,-222.41 151.12,-222.41 82.12,-186.41 82.12,-186.41 82.12,-186.41 66.77,-168.83 54.41,-154.69"/>
</g>
<!-- jgrl -->
<g id="node5" class="node">
<title>jgrl</title>
<defs>
<linearGradient id="node5_l_5" gradientUnits="userSpaceOnUse" x1="87.25" y1="-136.2" x2="159" y2="-136.2" >
<stop offset="0" style="stop-color:#ff7a9b;stop-opacity:1.;"/>
<stop offset="1" style="stop-color:#ff7aff;stop-opacity:1.;"/>
</linearGradient>
</defs>
<polygon fill="url(#node5_l_5)" stroke="#ff7a9b" points="159,-154.2 91.25,-154.2 91.25,-150.2 87.25,-150.2 87.25,-146.2 91.25,-146.2 91.25,-126.2 87.25,-126.2 87.25,-122.2 91.25,-122.2 91.25,-118.2 159,-118.2 159,-154.2"/>
<polyline fill="none" stroke="#ff7a9b" points="91.25,-150.2 95.25,-150.2 95.25,-146.2 91.25,-146.2"/>
<polyline fill="none" stroke="#ff7a9b" points="91.25,-126.2 95.25,-126.2 95.25,-122.2 91.25,-122.2"/>
<text text-anchor="middle" x="125.12" y="-133.4" font-family="Times,serif" font-size="14.00" fill="#7f0000">jargraal</text>
</g>
<!-- gjit&#45;&gt;jgrl -->
<g id="edge8" class="edge">
<title>gjit&#45;&gt;jgrl</title>
<path fill="none" stroke="#ff7aff" stroke-width="3" d="M191.34,-254.32C176.75,-228.51 149.44,-180.2 134.87,-154.43"/>
</g>
<!-- gjit&#45;&gt;jvmci -->
<g id="edge37" class="edge">
<title>gjit&#45;&gt;jvmci</title>
<path fill="none" stroke="#ff7aff" d="M218.54,-291.1C232.62,-305.24 250.12,-322.82 250.12,-322.82 250.12,-322.82 1173.12,-358.82 1173.12,-358.82 1173.12,-358.82 1179.89,-362.03 1188.83,-366.27"/>
<polygon fill="#ff7aff" stroke="#ff7aff" points="1187.27,-369.41 1197.81,-370.53 1190.27,-363.08 1187.27,-369.41"/>
</g>
<!-- g&#45;ir -->
<g id="node23" class="node">
<title>g&#45;ir</title>
<defs>
<radialGradient id="node23_r_7" cx="50%" cy="50%" r="75%" fx="50%" fy="50%">
<stop offset="0" style="stop-color:#34ff0a;stop-opacity:1.;"/>
<stop offset="1" style="stop-color:#00990d;stop-opacity:1.;"/>
</radialGradient>
</defs>
<ellipse fill="url(#node23_r_7)" stroke="#34ff0a" cx="261.12" cy="-136.2" rx="83.97" ry="50.2"/>
<text text-anchor="middle" x="261.12" y="-154.4" font-family="Times,serif" font-size="14.00" fill="#325c00">Graal</text>
<text text-anchor="middle" x="261.12" y="-133.4" font-family="Times,serif" font-size="14.00" fill="#325c00">Intermediate</text>
<text text-anchor="middle" x="261.12" y="-112.4" font-family="Times,serif" font-size="14.00" fill="#325c00">Representation</text>
</g>
<!-- gjit&#45;&gt;g&#45;ir -->
<g id="edge9" class="edge">
<title>gjit&#45;&gt;g&#45;ir</title>
<path fill="none" stroke="#ff7aff" stroke-width="3" d="M208.85,-254.32C216.63,-236.88 229,-209.16 239.76,-185.07"/>
</g>
<!-- aot -->
<g id="node18" class="node">
<title>aot</title>
<defs>
<radialGradient id="node18_r_8" cx="50%" cy="50%" r="75%" fx="50%" fy="50%">
<stop offset="0" style="stop-color:#f9ff80;stop-opacity:1.;"/>
<stop offset="1" style="stop-color:#e5f000;stop-opacity:1.;"/>
</radialGradient>
</defs>
<polygon fill="url(#node18_r_8)" stroke="#f9ff80" points="111.28,-252.16 113.37,-252.27 115.43,-252.44 117.47,-252.66 119.47,-252.94 121.42,-253.27 123.31,-253.66 125.15,-254.09 126.92,-254.58 128.61,-255.12 130.22,-255.7 131.75,-256.33 133.18,-257.01 134.52,-257.73 135.76,-258.49 136.89,-259.29 137.92,-260.12 138.84,-260.99 139.64,-261.89 140.34,-262.82 140.93,-263.78 141.4,-264.76 141.76,-265.76 142.02,-266.79 142.16,-267.82 142.2,-268.87 142.13,-269.94 141.97,-271 141.71,-272.08 141.35,-273.15 140.91,-274.22 140.38,-275.29 139.77,-276.35 139.08,-277.4 138.32,-278.44 137.49,-279.46 136.6,-280.47 135.65,-281.45 134.64,-282.41 133.59,-283.34 132.49,-284.24 131.36,-285.11 130.18,-285.94 128.97,-286.74 127.74,-287.5 126.47,-288.22 125.19,-288.89 123.88,-289.52 122.56,-290.11 121.22,-290.65 119.87,-291.13 118.51,-291.57 117.14,-291.96 115.77,-292.29 114.38,-292.57 113,-292.79 111.61,-292.96 110.22,-293.07 108.82,-293.13 107.43,-293.13 106.03,-293.07 104.64,-292.96 103.25,-292.79 101.87,-292.57 100.48,-292.29 99.11,-291.96 97.74,-291.57 96.38,-291.13 95.03,-290.65 93.69,-290.11 92.37,-289.52 91.06,-288.89 89.78,-288.22 88.51,-287.5 87.28,-286.74 86.07,-285.94 84.89,-285.11 83.76,-284.24 82.66,-283.34 81.61,-282.41 80.6,-281.45 79.65,-280.47 78.76,-279.46 77.93,-278.44 77.17,-277.4 76.48,-276.35 75.87,-275.29 75.34,-274.22 74.9,-273.15 74.54,-272.08 74.28,-271 74.12,-269.94 74.05,-268.87 74.09,-267.82 74.23,-266.79 74.49,-265.76 74.85,-264.76 75.32,-263.78 75.91,-262.82 76.61,-261.89 77.41,-260.99 78.33,-260.12 79.36,-259.29 80.49,-258.49 81.73,-257.73 83.07,-257.01 84.5,-256.33 86.03,-255.7 87.64,-255.12 89.33,-254.58 91.1,-254.09 92.94,-253.66 94.83,-253.27 96.78,-252.94 98.78,-252.66 100.82,-252.44 102.88,-252.27 104.97,-252.16 107.07,-252.1 109.18,-252.1 111.28,-252.16"/>
<text text-anchor="middle" x="108.12" y="-269.81" font-family="Times,serif" font-size="14.00" fill="#0b00f0">AOT</text>
</g>
<!-- lgrl&#45;&gt;aot -->
<g id="edge38" class="edge">
<title>lgrl&#45;&gt;aot</title>
<polygon fill="#e5f000" stroke="none" stroke-width="5" points="47.9,-154.3 49.82,-158.26 51.89,-162.53 54.09,-167.05 56.4,-171.81 58.8,-176.77 61.29,-181.9 63.84,-187.16 66.44,-192.53 69.08,-197.97 71.74,-203.45 74.4,-208.94 77.06,-214.41 79.68,-219.82 82.26,-225.15 84.79,-230.35 87.24,-235.41 89.61,-240.29 91.87,-244.95 94.01,-249.36 96.01,-253.5 100.46,-251.21 98.27,-247.17 95.93,-242.86 93.46,-238.31 90.88,-233.54 88.2,-228.6 85.44,-223.52 82.62,-218.31 79.75,-213.02 76.85,-207.68 73.94,-202.32 71.04,-196.96 68.16,-191.65 65.31,-186.4 62.52,-181.26 59.81,-176.25 57.18,-171.41 54.66,-166.76 52.26,-162.34 50,-158.17 47.9,-154.3 47.9,-154.3"/>
</g>
<!-- jit -->
<g id="node19" class="node">
<title>jit</title>
<defs>
<radialGradient id="node19_r_9" cx="50%" cy="50%" r="75%" fx="50%" fy="50%">
<stop offset="0" style="stop-color:#f9ff80;stop-opacity:1.;"/>
<stop offset="1" style="stop-color:#e5f000;stop-opacity:1.;"/>
</radialGradient>
</defs>
<polygon fill="url(#node19_r_9)" stroke="#f9ff80" points="290.78,-252.16 292.55,-252.27 294.29,-252.44 296.01,-252.66 297.69,-252.94 299.34,-253.27 300.94,-253.66 302.49,-254.09 303.98,-254.58 305.41,-255.12 306.77,-255.7 308.05,-256.33 309.26,-257.01 310.39,-257.73 311.43,-258.49 312.39,-259.29 313.26,-260.12 314.03,-260.99 314.71,-261.89 315.3,-262.82 315.79,-263.78 316.19,-264.76 316.5,-265.76 316.71,-266.79 316.84,-267.82 316.87,-268.87 316.81,-269.94 316.68,-271 316.45,-272.08 316.15,-273.15 315.78,-274.22 315.33,-275.29 314.82,-276.35 314.23,-277.4 313.59,-278.44 312.89,-279.46 312.14,-280.47 311.34,-281.45 310.5,-282.41 309.61,-283.34 308.68,-284.24 307.72,-285.11 306.73,-285.94 305.71,-286.74 304.67,-287.5 303.6,-288.22 302.52,-288.89 301.42,-289.52 300.3,-290.11 299.17,-290.65 298.03,-291.13 296.89,-291.57 295.73,-291.96 294.57,-292.29 293.4,-292.57 292.24,-292.79 291.06,-292.96 289.89,-293.07 288.71,-293.13 287.54,-293.13 286.36,-293.07 285.19,-292.96 284.01,-292.79 282.85,-292.57 281.68,-292.29 280.52,-291.96 279.36,-291.57 278.22,-291.13 277.08,-290.65 275.95,-290.11 274.83,-289.52 273.73,-288.89 272.65,-288.22 271.58,-287.5 270.54,-286.74 269.52,-285.94 268.53,-285.11 267.57,-284.24 266.64,-283.34 265.75,-282.41 264.91,-281.45 264.11,-280.47 263.36,-279.46 262.66,-278.44 262.02,-277.4 261.43,-276.35 260.92,-275.29 260.47,-274.22 260.1,-273.15 259.8,-272.08 259.57,-271 259.44,-269.94 259.38,-268.87 259.41,-267.82 259.54,-266.79 259.75,-265.76 260.06,-264.76 260.46,-263.78 260.95,-262.82 261.54,-261.89 262.22,-260.99 262.99,-260.12 263.86,-259.29 264.82,-258.49 265.86,-257.73 266.99,-257.01 268.2,-256.33 269.48,-255.7 270.84,-255.12 272.27,-254.58 273.76,-254.09 275.31,-253.66 276.91,-253.27 278.56,-252.94 280.24,-252.66 281.96,-252.44 283.7,-252.27 285.47,-252.16 287.24,-252.1 289.01,-252.1 290.78,-252.16"/>
<text text-anchor="middle" x="288.12" y="-269.81" font-family="Times,serif" font-size="14.00" fill="#0b00f0">JIT</text>
</g>
<!-- jgrl&#45;&gt;jit -->
<g id="edge39" class="edge">
<title>jgrl&#45;&gt;jit</title>
<polygon fill="#e5f000" stroke="none" stroke-width="5" points="140.41,-154.69 142.25,-156.86 144.12,-159.07 146.01,-161.3 147.91,-163.53 149.79,-165.75 151.65,-167.95 153.48,-170.1 155.25,-172.19 156.96,-174.2 158.59,-176.12 160.13,-177.94 161.57,-179.63 162.88,-181.19 164.07,-182.58 165.11,-183.81 165.99,-184.85 166.7,-185.69 167.22,-186.3 167.55,-186.69 167.75,-186.92 168.45,-187.24 170.1,-188.01 172.7,-189.23 176.14,-190.84 180.29,-192.78 185.04,-195 190.26,-197.45 195.85,-200.06 201.67,-202.78 207.61,-205.56 213.55,-208.34 219.37,-211.06 224.95,-213.67 230.18,-216.12 234.93,-218.34 239.08,-220.28 242.52,-221.89 245.12,-223.11 246.77,-223.88 246.93,-223.96 246.75,-223.74 247.05,-224.12 247.53,-224.73 248.18,-225.55 248.99,-226.58 249.94,-227.79 251.03,-229.17 252.24,-230.7 253.56,-232.38 254.98,-234.17 256.48,-236.07 258.05,-238.07 259.68,-240.14 261.36,-242.26 263.08,-244.44 264.81,-246.64 266.56,-248.86 268.31,-251.07 270.04,-253.27 271.74,-255.43 275.62,-252.27 273.86,-250.16 272.06,-248.02 270.25,-245.86 268.44,-243.69 266.64,-241.54 264.86,-239.42 263.12,-237.34 261.43,-235.32 259.8,-233.38 258.24,-231.52 256.77,-229.76 255.4,-228.13 254.15,-226.63 253.02,-225.29 252.03,-224.1 251.19,-223.1 250.52,-222.3 250.02,-221.7 249.71,-221.33 249.32,-220.86 248.32,-220.42 246.65,-219.7 244.01,-218.56 240.53,-217.05 236.32,-215.23 231.51,-213.15 226.22,-210.86 220.56,-208.41 214.66,-205.86 208.64,-203.26 202.62,-200.66 196.72,-198.1 191.07,-195.66 185.77,-193.37 180.96,-191.29 176.75,-189.47 173.27,-187.96 170.63,-186.82 168.96,-186.1 168.5,-185.9 168.48,-185.87 168.14,-185.5 167.6,-184.9 166.87,-184.09 165.95,-183.07 164.88,-181.88 163.65,-180.52 162.29,-179 160.8,-177.35 159.21,-175.58 157.52,-173.71 155.76,-171.74 153.92,-169.71 152.04,-167.61 150.11,-165.47 148.16,-163.31 146.2,-161.13 144.25,-158.96 142.31,-156.81 140.41,-154.69 140.41,-154.69"/>
</g>
<!-- jit&#45;c2&#45;&gt;gjit -->
<g id="edge6" class="edge">
<title>jit&#45;c2&#45;&gt;gjit</title>
<path fill="none" stroke="#ff7aff" stroke-width="3" d="M404.97,-376.68C353.09,-358.63 250.12,-322.82 250.12,-322.82 250.12,-322.82 232.62,-305.24 218.54,-291.1"/>
</g>
<!-- ir&#45;p -->
<g id="node7" class="node">
<title>ir&#45;p</title>
<defs>
<linearGradient id="node7_l_6" gradientUnits="userSpaceOnUse" x1="110.25" y1="-25" x2="182" y2="-25" >
<stop offset="0" style="stop-color:#ff7a9b;stop-opacity:1.;"/>
<stop offset="1" style="stop-color:#ff7aff;stop-opacity:1.;"/>
</linearGradient>
</defs>
<polygon fill="url(#node7_l_6)" stroke="#ff7a9b" points="182,-43 114.25,-43 114.25,-39 110.25,-39 110.25,-35 114.25,-35 114.25,-15 110.25,-15 110.25,-11 114.25,-11 114.25,-7 182,-7 182,-43"/>
<polyline fill="none" stroke="#ff7a9b" points="114.25,-39 118.25,-39 118.25,-35 114.25,-35"/>
<polyline fill="none" stroke="#ff7a9b" points="114.25,-15 118.25,-15 118.25,-11 114.25,-11"/>
<text text-anchor="middle" x="148.12" y="-22.2" font-family="Times,serif" font-size="14.00" fill="#7f0000">Profiler</text>
</g>
<!-- ir&#45;icg -->
<g id="node8" class="node">
<title>ir&#45;icg</title>
<defs>
<linearGradient id="node8_l_7" gradientUnits="userSpaceOnUse" x1="195.88" y1="-25" x2="322.38" y2="-25" >
<stop offset="0" style="stop-color:#ff7a9b;stop-opacity:1.;"/>
<stop offset="1" style="stop-color:#ff7aff;stop-opacity:1.;"/>
</linearGradient>
</defs>
<polygon fill="url(#node8_l_7)" stroke="#ff7a9b" points="322.38,-50 199.88,-50 199.88,-46 195.88,-46 195.88,-42 199.88,-42 199.88,-8 195.88,-8 195.88,-4 199.88,-4 199.88,0 322.38,0 322.38,-50"/>
<polyline fill="none" stroke="#ff7a9b" points="199.88,-46 203.88,-46 203.88,-42 199.88,-42"/>
<polyline fill="none" stroke="#ff7a9b" points="199.88,-8 203.88,-8 203.88,-4 199.88,-4"/>
<text text-anchor="middle" x="261.12" y="-32.7" font-family="Times,serif" font-size="14.00" fill="#7f0000">Intermediate</text>
<text text-anchor="middle" x="261.12" y="-11.7" font-family="Times,serif" font-size="14.00" fill="#7f0000">Code Generator</text>
</g>
<!-- ir&#45;co -->
<g id="node9" class="node">
<title>ir&#45;co</title>
<defs>
<linearGradient id="node9_l_8" gradientUnits="userSpaceOnUse" x1="336.88" y1="-25" x2="463.38" y2="-25" >
<stop offset="0" style="stop-color:#ff7a9b;stop-opacity:1.;"/>
<stop offset="1" style="stop-color:#ff7aff;stop-opacity:1.;"/>
</linearGradient>
</defs>
<polygon fill="url(#node9_l_8)" stroke="#ff7a9b" points="463.38,-43 340.88,-43 340.88,-39 336.88,-39 336.88,-35 340.88,-35 340.88,-15 336.88,-15 336.88,-11 340.88,-11 340.88,-7 463.38,-7 463.38,-43"/>
<polyline fill="none" stroke="#ff7a9b" points="340.88,-39 344.88,-39 344.88,-35 340.88,-35"/>
<polyline fill="none" stroke="#ff7a9b" points="340.88,-15 344.88,-15 344.88,-11 340.88,-11"/>
<text text-anchor="middle" x="402.12" y="-22.2" font-family="Times,serif" font-size="14.00" fill="#7f0000">Code Optimizer</text>
</g>
<!-- ir&#45;tcg -->
<g id="node10" class="node">
<title>ir&#45;tcg</title>
<defs>
<linearGradient id="node10_l_9" gradientUnits="userSpaceOnUse" x1="-4" y1="-25" x2="96.25" y2="-25" >
<stop offset="0" style="stop-color:#ff7a9b;stop-opacity:1.;"/>
<stop offset="1" style="stop-color:#ff7aff;stop-opacity:1.;"/>
</linearGradient>
</defs>
<polygon fill="url(#node10_l_9)" stroke="#ff7a9b" points="96.25,-50 0,-50 0,-46 -4,-46 -4,-42 0,-42 0,-8 -4,-8 -4,-4 0,-4 0,0 96.25,0 96.25,-50"/>
<polyline fill="none" stroke="#ff7a9b" points="0,-46 4,-46 4,-42 0,-42"/>
<polyline fill="none" stroke="#ff7a9b" points="0,-8 4,-8 4,-4 0,-4"/>
<text text-anchor="middle" x="48.12" y="-32.7" font-family="Times,serif" font-size="14.00" fill="#7f0000">Target Code</text>
<text text-anchor="middle" x="48.12" y="-11.7" font-family="Times,serif" font-size="14.00" fill="#7f0000">Generator</text>
</g>
<!-- s -->
<g id="node13" class="node">
<title>s</title>
<defs>
<linearGradient id="node13_l_10" gradientUnits="userSpaceOnUse" x1="689.88" y1="-272.61" x2="756.38" y2="-272.61" >
<stop offset="0" style="stop-color:#ff7a9b;stop-opacity:1.;"/>
<stop offset="1" style="stop-color:#ff7aff;stop-opacity:1.;"/>
</linearGradient>
</defs>
<polygon fill="url(#node13_l_10)" stroke="#ff7a9b" points="756.38,-290.61 693.88,-290.61 693.88,-286.61 689.88,-286.61 689.88,-282.61 693.88,-282.61 693.88,-262.61 689.88,-262.61 689.88,-258.61 693.88,-258.61 693.88,-254.61 756.38,-254.61 756.38,-290.61"/>
<polyline fill="none" stroke="#ff7a9b" points="693.88,-286.61 697.88,-286.61 697.88,-282.61 693.88,-282.61"/>
<polyline fill="none" stroke="#ff7a9b" points="693.88,-262.61 697.88,-262.61 697.88,-258.61 693.88,-258.61"/>
<text text-anchor="middle" x="725.12" y="-269.81" font-family="Times,serif" font-size="14.00" fill="#7f0000">Sulong</text>
</g>
<!-- t&#45;&gt;s -->
<g id="edge17" class="edge">
<title>t&#45;&gt;s</title>
<path fill="none" stroke="#ff7aff" stroke-width="3" d="M615.39,-369.56C623.83,-363.8 631.12,-358.82 631.12,-358.82 631.12,-358.82 685.12,-322.82 685.12,-322.82 685.12,-322.82 699.41,-305.24 710.91,-291.1"/>
</g>
<!-- t&#45;l -->
<g id="node24" class="node">
<title>t&#45;l</title>
<defs>
<radialGradient id="node24_r_10" cx="50%" cy="50%" r="75%" fx="50%" fy="50%">
<stop offset="0" style="stop-color:#34ff0a;stop-opacity:1.;"/>
<stop offset="1" style="stop-color:#00990d;stop-opacity:1.;"/>
</radialGradient>
</defs>
<ellipse fill="url(#node24_r_10)" stroke="#34ff0a" cx="876.12" cy="-272.61" rx="89.27" ry="50.2"/>
<text text-anchor="middle" x="876.12" y="-290.81" font-family="Times,serif" font-size="14.00" fill="#325c00">Language</text>
<text text-anchor="middle" x="876.12" y="-269.81" font-family="Times,serif" font-size="14.00" fill="#325c00">Implementation</text>
<text text-anchor="middle" x="876.12" y="-248.81" font-family="Times,serif" font-size="14.00" fill="#325c00">Framework</text>
</g>
<!-- t&#45;&gt;t&#45;l -->
<g id="edge24" class="edge">
<title>t&#45;&gt;t&#45;l</title>
<path fill="none" stroke="#ff7aff" stroke-width="3" d="M615.39,-369.56C623.83,-363.8 631.12,-358.82 631.12,-358.82 631.12,-358.82 765.12,-322.82 765.12,-322.82 765.12,-322.82 784.16,-314.38 806.46,-304.5"/>
</g>
<!-- t&#45;p -->
<g id="node25" class="node">
<title>t&#45;p</title>
<defs>
<radialGradient id="node25_r_11" cx="50%" cy="50%" r="75%" fx="50%" fy="50%">
<stop offset="0" style="stop-color:#34ff0a;stop-opacity:1.;"/>
<stop offset="1" style="stop-color:#00990d;stop-opacity:1.;"/>
</radialGradient>
</defs>
<ellipse fill="url(#node25_r_11)" stroke="#34ff0a" cx="406.12" cy="-272.61" rx="70.18" ry="20.51"/>
<text text-anchor="middle" x="406.12" y="-269.81" font-family="Times,serif" font-size="14.00" fill="#325c00">Polyglot API</text>
</g>
<!-- t&#45;&gt;t&#45;p -->
<g id="edge22" class="edge">
<title>t&#45;&gt;t&#45;p</title>
<path fill="none" stroke="#ff7aff" stroke-width="3" d="M561.43,-369.33C530.34,-350.38 485.12,-322.82 485.12,-322.82 485.12,-322.82 457.64,-305.7 435.09,-291.66"/>
</g>
<!-- t&#45;i -->
<g id="node26" class="node">
<title>t&#45;i</title>
<defs>
<radialGradient id="node26_r_12" cx="50%" cy="50%" r="75%" fx="50%" fy="50%">
<stop offset="0" style="stop-color:#34ff0a;stop-opacity:1.;"/>
<stop offset="1" style="stop-color:#00990d;stop-opacity:1.;"/>
</radialGradient>
</defs>
<ellipse fill="url(#node26_r_12)" stroke="#34ff0a" cx="585.12" cy="-272.61" rx="90.86" ry="20.51"/>
<text text-anchor="middle" x="585.12" y="-269.81" font-family="Times,serif" font-size="14.00" fill="#325c00">Instrumentation</text>
</g>
<!-- t&#45;&gt;t&#45;i -->
<g id="edge23" class="edge">
<title>t&#45;&gt;t&#45;i</title>
<path fill="none" stroke="#ff7aff" stroke-width="3" d="M589.37,-369.62C588.46,-349.09 586.94,-314.82 585.99,-293.26"/>
</g>
<!-- s&#45;ir -->
<g id="node27" class="node">
<title>s&#45;ir</title>
<defs>
<radialGradient id="node27_r_13" cx="50%" cy="50%" r="75%" fx="50%" fy="50%">
<stop offset="0" style="stop-color:#34ff0a;stop-opacity:1.;"/>
<stop offset="1" style="stop-color:#00990d;stop-opacity:1.;"/>
</radialGradient>
</defs>
<ellipse fill="url(#node27_r_13)" stroke="#34ff0a" cx="537.12" cy="-136.2" rx="108.89" ry="20.51"/>
<text text-anchor="middle" x="537.12" y="-133.4" font-family="Times,serif" font-size="14.00" fill="#325c00">LLVM IR Interpreter</text>
</g>
<!-- s&#45;&gt;s&#45;ir -->
<g id="edge18" class="edge">
<title>s&#45;&gt;s&#45;ir</title>
<path fill="none" stroke="#ff7aff" stroke-width="3" d="M710.91,-254.13C699.41,-239.98 685.12,-222.41 685.12,-222.41 685.12,-222.41 613.57,-181.22 569.97,-156.11"/>
</g>
<!-- ni&#45;&gt;svm -->
<g id="edge33" class="edge">
<title>ni&#45;&gt;svm</title>
<path fill="none" stroke="#330070" d="M124.12,-417.09C124.12,-426.36 124.12,-436.72 124.12,-446.19"/>
<polygon fill="#330070" stroke="#330070" points="120.63,-446.04 124.13,-456.04 127.63,-446.04 120.63,-446.04"/>
</g>
<!-- ni&#45;&gt;lgrl -->
<g id="edge34" class="edge">
<title>ni&#45;&gt;lgrl</title>
<path fill="none" stroke="#330070" d="M98.07,-358.56C82.27,-341.42 65.12,-322.82 65.12,-322.82 65.12,-322.82 50.42,-217.86 43.13,-165.8"/>
<polygon fill="#330070" stroke="#330070" points="46.63,-165.58 41.78,-156.17 39.7,-166.55 46.63,-165.58"/>
</g>
<!-- ed&#45;ce -->
<g id="node21" class="node">
<title>ed&#45;ce</title>
<defs>
<radialGradient id="node21_r_14" cx="50%" cy="50%" r="75%" fx="50%" fy="50%">
<stop offset="0" style="stop-color:#34ff0a;stop-opacity:1.;"/>
<stop offset="1" style="stop-color:#00990d;stop-opacity:1.;"/>
</radialGradient>
</defs>
<ellipse fill="url(#node21_r_14)" stroke="#34ff0a" cx="1128.12" cy="-272.61" rx="68.06" ry="20.51"/>
<text text-anchor="middle" x="1128.12" y="-269.81" font-family="Times,serif" font-size="14.00" fill="#325c00">Community</text>
</g>
<!-- ed&#45;&gt;ed&#45;ce -->
<g id="edge2" class="edge">
<title>ed&#45;&gt;ed&#45;ce</title>
<path fill="none" stroke="#00990d" stroke-width="3" d="M1119.89,-366.84C1121.72,-346.15 1124.56,-314.01 1126.38,-293.39"/>
</g>
<!-- ed&#45;ee -->
<g id="node22" class="node">
<title>ed&#45;ee</title>
<defs>
<radialGradient id="node22_r_15" cx="50%" cy="50%" r="75%" fx="50%" fy="50%">
<stop offset="0" style="stop-color:#34ff0a;stop-opacity:1.;"/>
<stop offset="1" style="stop-color:#00990d;stop-opacity:1.;"/>
</radialGradient>
</defs>
<ellipse fill="url(#node22_r_15)" stroke="#34ff0a" cx="1282.12" cy="-272.61" rx="62.23" ry="20.51"/>
<text text-anchor="middle" x="1282.12" y="-269.81" font-family="Times,serif" font-size="14.00" fill="#325c00">Enterprise</text>
</g>
<!-- ed&#45;&gt;ed&#45;ee -->
<g id="edge3" class="edge">
<title>ed&#45;&gt;ed&#45;ee</title>
<path fill="none" stroke="#00990d" stroke-width="3" d="M1142.32,-370.11C1172.71,-349.14 1224.63,-313.3 1255.93,-291.7"/>
</g>
<!-- gpl -->
<g id="node29" class="node">
<title>gpl</title>
<defs>
<linearGradient id="node29_l_11" gradientUnits="userSpaceOnUse" x1="1127.25" y1="-136.2" x2="1183" y2="-136.2" >
<stop offset="0" style="stop-color:#cccccc;stop-opacity:1.;"/>
<stop offset="1" style="stop-color:#000000;stop-opacity:1.;"/>
</linearGradient>
</defs>
<polygon fill="url(#node29_l_11)" stroke="#cccccc" points="1183,-148.2 1127.25,-148.2 1127.25,-124.2 1183,-124.2 1183,-148.2"/>
<polyline fill="none" stroke="#cccccc" points="1130.25,-137.7 1133.25,-134.7"/>
<polyline fill="none" stroke="#cccccc" points="1130.25,-134.7 1133.25,-137.7"/>
<polyline fill="none" stroke="#cccccc" points="1130.25,-127.2 1180,-127.2"/>
<text text-anchor="middle" x="1155.12" y="-133.4" font-family="Times,serif" font-size="14.00" fill="#ff6060">GPL 2</text>
</g>
<!-- ed&#45;ce&#45;&gt;gpl -->
<g id="edge35" class="edge">
<title>ed&#45;ce&#45;&gt;gpl</title>
<path fill="none" stroke="#00990d" d="M1132.11,-251.78C1136.69,-228.98 1144.24,-191.39 1149.44,-165.52"/>
<polygon fill="#00990d" stroke="#00990d" points="1152.8,-166.53 1151.34,-156.04 1145.94,-165.15 1152.8,-166.53"/>
</g>
<!-- pgo -->
<g id="node28" class="node">
<title>pgo</title>
<defs>
<radialGradient id="node28_r_16" cx="50%" cy="50%" r="75%" fx="50%" fy="50%">
<stop offset="0" style="stop-color:#34ff0a;stop-opacity:1.;"/>
<stop offset="1" style="stop-color:#00990d;stop-opacity:1.;"/>
</radialGradient>
</defs>
<ellipse fill="url(#node28_r_16)" stroke="#34ff0a" cx="1282.12" cy="-136.2" rx="80.79" ry="35.36"/>
<text text-anchor="middle" x="1282.12" y="-143.9" font-family="Times,serif" font-size="14.00" fill="#325c00">Profile Guided</text>
<text text-anchor="middle" x="1282.12" y="-122.9" font-family="Times,serif" font-size="14.00" fill="#325c00">Optimization</text>
</g>
<!-- ed&#45;ee&#45;&gt;pgo -->
<g id="edge4" class="edge">
<title>ed&#45;ee&#45;&gt;pgo</title>
<path fill="none" stroke="#00990d" stroke-width="3" d="M1282.12,-251.78C1282.12,-230.82 1282.12,-197.36 1282.12,-172"/>
</g>
<!-- otn -->
<g id="node30" class="node">
<title>otn</title>
<defs>
<linearGradient id="node30_l_12" gradientUnits="userSpaceOnUse" x1="1381.12" y1="-136.2" x2="1435.12" y2="-136.2" >
<stop offset="0" style="stop-color:#cccccc;stop-opacity:1.;"/>
<stop offset="1" style="stop-color:#000000;stop-opacity:1.;"/>
</linearGradient>
</defs>
<polygon fill="url(#node30_l_12)" stroke="#cccccc" points="1435.12,-148.2 1381.12,-148.2 1381.12,-124.2 1435.12,-124.2 1435.12,-148.2"/>
<polyline fill="none" stroke="#cccccc" points="1384.12,-137.7 1387.12,-134.7"/>
<polyline fill="none" stroke="#cccccc" points="1384.12,-134.7 1387.12,-137.7"/>
<polyline fill="none" stroke="#cccccc" points="1384.12,-127.2 1432.12,-127.2"/>
<text text-anchor="middle" x="1408.12" y="-133.4" font-family="Times,serif" font-size="14.00" fill="#ff6060">OTN</text>
</g>
<!-- ed&#45;ee&#45;&gt;otn -->
<g id="edge36" class="edge">
<title>ed&#45;ee&#45;&gt;otn</title>
<path fill="none" stroke="#00990d" d="M1302.1,-252.7C1328.61,-227.6 1372.12,-186.41 1372.12,-186.41 1372.12,-186.41 1380.13,-175.47 1388.59,-163.9"/>
<polygon fill="#00990d" stroke="#00990d" points="1391.36,-166.05 1394.44,-155.91 1385.71,-161.92 1391.36,-166.05"/>
</g>
<!-- g&#45;ir&#45;&gt;ir&#45;p -->
<g id="edge10" class="edge">
<title>g&#45;ir&#45;&gt;ir&#45;p</title>
<path fill="none" stroke="#00990d" stroke-width="3" d="M217.44,-92.98C199.55,-75.7 179.86,-56.66 166.05,-43.32"/>
</g>
<!-- g&#45;ir&#45;&gt;ir&#45;icg -->
<g id="edge11" class="edge">
<title>g&#45;ir&#45;&gt;ir&#45;icg</title>
<path fill="none" stroke="#00990d" stroke-width="3" d="M261.12,-85.71C261.12,-73.41 261.12,-60.76 261.12,-50.29"/>
</g>
<!-- g&#45;ir&#45;&gt;ir&#45;co -->
<g id="edge12" class="edge">
<title>g&#45;ir&#45;&gt;ir&#45;co</title>
<path fill="none" stroke="#00990d" stroke-width="3" d="M312.03,-95.78C335.22,-77.82 361.49,-57.48 379.65,-43.41"/>
</g>
<!-- g&#45;ir&#45;&gt;ir&#45;tcg -->
<g id="edge13" class="edge">
<title>g&#45;ir&#45;&gt;ir&#45;tcg</title>
<path fill="none" stroke="#00990d" stroke-width="3" d="M198.83,-102.25C181.89,-93.28 168.12,-86 168.12,-86 168.12,-86 129.89,-66.88 96.59,-50.23"/>
</g>
<!-- t&#45;l&#45;js -->
<g id="node31" class="node">
<title>t&#45;l&#45;js</title>
<polygon fill="#c0c0c0" stroke="#c0c0c0" points="1030.62,-154.2 951.62,-154.2 951.62,-118.2 1036.62,-118.2 1036.62,-148.2 1030.62,-154.2"/>
<polyline fill="none" stroke="#c0c0c0" points="1030.62,-154.2 1030.62,-148.2"/>
<polyline fill="none" stroke="#c0c0c0" points="1036.62,-148.2 1030.62,-148.2"/>
<text text-anchor="middle" x="994.12" y="-133.4" font-family="Times,serif" font-size="14.00" fill="#000000">JavaScript</text>
</g>
<!-- t&#45;l&#45;&gt;t&#45;l&#45;js -->
<g id="edge25" class="edge">
<title>t&#45;l&#45;&gt;t&#45;l&#45;js</title>
<path fill="none" stroke="#00990d" stroke-width="3" d="M915.09,-227.23C936.84,-202.46 962.71,-172.99 978.78,-154.68"/>
</g>
<!-- t&#45;l&#45;ruby -->
<g id="node32" class="node">
<title>t&#45;l&#45;ruby</title>
<polygon fill="#c0c0c0" stroke="#c0c0c0" points="1103.12,-154.2 1055.12,-154.2 1055.12,-118.2 1109.12,-118.2 1109.12,-148.2 1103.12,-154.2"/>
<polyline fill="none" stroke="#c0c0c0" points="1103.12,-154.2 1103.12,-148.2"/>
<polyline fill="none" stroke="#c0c0c0" points="1109.12,-148.2 1103.12,-148.2"/>
<text text-anchor="middle" x="1082.12" y="-133.4" font-family="Times,serif" font-size="14.00" fill="#000000">Ruby</text>
</g>
<!-- t&#45;l&#45;&gt;t&#45;l&#45;ruby -->
<g id="edge26" class="edge">
<title>t&#45;l&#45;&gt;t&#45;l&#45;ruby</title>
<path fill="none" stroke="#00990d" stroke-width="3" d="M941.95,-238.43C989.4,-214.5 1045.12,-186.41 1045.12,-186.41 1045.12,-186.41 1058.34,-168.83 1068.98,-154.69"/>
</g>
<!-- t&#45;l&#45;py -->
<g id="node33" class="node">
<title>t&#45;l&#45;py</title>
<polygon fill="#c0c0c0" stroke="#c0c0c0" points="722.12,-154.2 664.12,-154.2 664.12,-118.2 728.12,-118.2 728.12,-148.2 722.12,-154.2"/>
<polyline fill="none" stroke="#c0c0c0" points="722.12,-154.2 722.12,-148.2"/>
<polyline fill="none" stroke="#c0c0c0" points="728.12,-148.2 722.12,-148.2"/>
<text text-anchor="middle" x="696.12" y="-133.4" font-family="Times,serif" font-size="14.00" fill="#000000">Python</text>
</g>
<!-- t&#45;l&#45;&gt;t&#45;l&#45;py -->
<g id="edge27" class="edge">
<title>t&#45;l&#45;&gt;t&#45;l&#45;py</title>
<path fill="none" stroke="#00990d" stroke-width="3" d="M816.37,-234.98C778.7,-211.89 737.12,-186.41 737.12,-186.41 737.12,-186.41 722.48,-168.83 710.7,-154.69"/>
</g>
<!-- t&#45;l&#45;r -->
<g id="node34" class="node">
<title>t&#45;l&#45;r</title>
<polygon fill="#c0c0c0" stroke="#c0c0c0" points="794.12,-154.2 746.12,-154.2 746.12,-118.2 800.12,-118.2 800.12,-148.2 794.12,-154.2"/>
<polyline fill="none" stroke="#c0c0c0" points="794.12,-154.2 794.12,-148.2"/>
<polyline fill="none" stroke="#c0c0c0" points="800.12,-148.2 794.12,-148.2"/>
<text text-anchor="middle" x="773.12" y="-133.4" font-family="Times,serif" font-size="14.00" fill="#000000">R</text>
</g>
<!-- t&#45;l&#45;&gt;t&#45;l&#45;r -->
<g id="edge28" class="edge">
<title>t&#45;l&#45;&gt;t&#45;l&#45;r</title>
<path fill="none" stroke="#00990d" stroke-width="3" d="M840.66,-226.52C824.59,-206.08 809.12,-186.41 809.12,-186.41 809.12,-186.41 796.27,-168.83 785.92,-154.69"/>
</g>
<!-- t&#45;l&#45;java -->
<g id="node35" class="node">
<title>t&#45;l&#45;java</title>
<polygon fill="#c0c0c0" stroke="#c0c0c0" points="927.62,-154.2 818.62,-154.2 818.62,-118.2 933.62,-118.2 933.62,-148.2 927.62,-154.2"/>
<polyline fill="none" stroke="#c0c0c0" points="927.62,-154.2 927.62,-148.2"/>
<polyline fill="none" stroke="#c0c0c0" points="933.62,-148.2 927.62,-148.2"/>
<text text-anchor="middle" x="876.12" y="-133.4" font-family="Times,serif" font-size="14.00" fill="#000000">Java on Truffle</text>
</g>
<!-- t&#45;l&#45;&gt;t&#45;l&#45;java -->
<g id="edge29" class="edge">
<title>t&#45;l&#45;&gt;t&#45;l&#45;java</title>
<path fill="none" stroke="#00990d" stroke-width="3" d="M876.12,-221.95C876.12,-198.32 876.12,-171.57 876.12,-154.56"/>
</g>
<!-- s&#45;l&#45;c -->
<g id="node36" class="node">
<title>s&#45;l&#45;c</title>
<polygon fill="#c0c0c0" stroke="#c0c0c0" points="733.75,-43 682.5,-43 682.5,-7 739.75,-7 739.75,-37 733.75,-43"/>
<polyline fill="none" stroke="#c0c0c0" points="733.75,-43 733.75,-37"/>
<polyline fill="none" stroke="#c0c0c0" points="739.75,-37 733.75,-37"/>
<text text-anchor="middle" x="711.12" y="-22.2" font-family="Times,serif" font-size="14.00" fill="#000000">C/C++</text>
</g>
<!-- s&#45;ir&#45;&gt;s&#45;l&#45;c -->
<g id="edge19" class="edge">
<title>s&#45;ir&#45;&gt;s&#45;l&#45;c</title>
<path fill="none" stroke="#00990d" stroke-width="3" d="M567.65,-116.08C607.74,-90.96 673.12,-50 673.12,-50 673.12,-50 677.62,-47.16 683.51,-43.44"/>
</g>
<!-- s&#45;l&#45;wa -->
<g id="node37" class="node">
<title>s&#45;l&#45;wa</title>
<polygon fill="#c0c0c0" stroke="#c0c0c0" points="586.38,-43 481.88,-43 481.88,-7 592.38,-7 592.38,-37 586.38,-43"/>
<polyline fill="none" stroke="#c0c0c0" points="586.38,-43 586.38,-37"/>
<polyline fill="none" stroke="#c0c0c0" points="592.38,-37 586.38,-37"/>
<text text-anchor="middle" x="537.12" y="-22.2" font-family="Times,serif" font-size="14.00" fill="#000000">WebAssembly</text>
</g>
<!-- s&#45;ir&#45;&gt;s&#45;l&#45;wa -->
<g id="edge20" class="edge">
<title>s&#45;ir&#45;&gt;s&#45;l&#45;wa</title>
<path fill="none" stroke="#00990d" stroke-width="3" d="M537.12,-115.43C537.12,-94.9 537.12,-63.1 537.12,-43.47"/>
</g>
<!-- s&#45;l&#45;rs -->
<g id="node38" class="node">
<title>s&#45;l&#45;rs</title>
<polygon fill="#c0c0c0" stroke="#c0c0c0" points="658.12,-43 610.12,-43 610.12,-7 664.12,-7 664.12,-37 658.12,-43"/>
<polyline fill="none" stroke="#c0c0c0" points="658.12,-43 658.12,-37"/>
<polyline fill="none" stroke="#c0c0c0" points="664.12,-37 658.12,-37"/>
<text text-anchor="middle" x="637.12" y="-22.2" font-family="Times,serif" font-size="14.00" fill="#000000">Rust</text>
</g>
<!-- s&#45;ir&#45;&gt;s&#45;l&#45;rs -->
<g id="edge21" class="edge">
<title>s&#45;ir&#45;&gt;s&#45;l&#45;rs</title>
<path fill="none" stroke="#00990d" stroke-width="3" d="M555,-115.68C573.88,-95.07 603.35,-62.89 621.38,-43.2"/>
</g>
</g>
</svg>
