<?xml version="1.0" encoding="UTF-8" standalone="no"?>
<!DOCTYPE svg PUBLIC "-//W3C//DTD SVG 1.1//EN"
 "http://www.w3.org/Graphics/SVG/1.1/DTD/svg11.dtd">
<!-- Generated by graphviz version 9.0.0 (0)
 -->
<!-- Title: G Pages: 1 -->
<svg width="722pt" height="668pt"
 viewBox="0.00 0.00 721.88 668.33" xmlns="http://www.w3.org/2000/svg" xmlns:xlink="http://www.w3.org/1999/xlink">
<g id="graph0" class="graph" transform="scale(1 1) rotate(0) translate(4 664.33)">
<title>G</title>
<polygon fill="white" stroke="none" points="-4,4 -4,-664.33 717.88,-664.33 717.88,4 -4,4"/>
<!-- file&#45;code -->
<g id="node1" class="node">
<title>file&#45;code</title>
<polygon fill="#c0c0c0" stroke="#c0c0c0" points="103.01,-660.33 27.01,-660.33 27.01,-624.33 109.01,-624.33 109.01,-654.33 103.01,-660.33"/>
<polyline fill="none" stroke="#c0c0c0" points="103.01,-660.33 103.01,-654.33"/>
<polyline fill="none" stroke="#c0c0c0" points="109.01,-654.33 103.01,-654.33"/>
<text text-anchor="middle" x="68.01" y="-639.53" font-family="Times,serif" font-size="14.00" fill="#000000">Main.java</text>
</g>
<!-- file&#45;class -->
<g id="node2" class="node">
<title>file&#45;class</title>
<polygon fill="#c0c0c0" stroke="#c0c0c0" points="447.01,-660.33 365.01,-660.33 365.01,-624.33 453.01,-624.33 453.01,-654.33 447.01,-660.33"/>
<polyline fill="none" stroke="#c0c0c0" points="447.01,-660.33 447.01,-654.33"/>
<polyline fill="none" stroke="#c0c0c0" points="453.01,-654.33 447.01,-654.33"/>
<text text-anchor="middle" x="409.01" y="-639.53" font-family="Times,serif" font-size="14.00" fill="#000000">Main.class</text>
</g>
<!-- file&#45;do -->
<g id="node3" class="node">
<title>file&#45;do</title>
<polygon fill="#c0c0c0" stroke="#c0c0c0" points="576.01,-660.33 512.01,-660.33 512.01,-624.33 582.01,-624.33 582.01,-654.33 576.01,-660.33"/>
<polyline fill="none" stroke="#c0c0c0" points="576.01,-660.33 576.01,-654.33"/>
<polyline fill="none" stroke="#c0c0c0" points="582.01,-654.33 576.01,-654.33"/>
<text text-anchor="middle" x="547.01" y="-639.53" font-family="Times,serif" font-size="14.00" fill="#000000">Main.so</text>
</g>
<!-- file&#45;bin -->
<g id="node4" class="node">
<title>file&#45;bin</title>
<polygon fill="#c0c0c0" stroke="#c0c0c0" points="175.01,-660.33 127.01,-660.33 127.01,-624.33 181.01,-624.33 181.01,-654.33 175.01,-660.33"/>
<polyline fill="none" stroke="#c0c0c0" points="175.01,-660.33 175.01,-654.33"/>
<polyline fill="none" stroke="#c0c0c0" points="181.01,-654.33 175.01,-654.33"/>
<text text-anchor="middle" x="154.01" y="-639.53" font-family="Times,serif" font-size="14.00" fill="#000000">Main</text>
</g>
<!-- cmd&#45;javac -->
<g id="node5" class="node">
<title>cmd&#45;javac</title>
<defs>
<radialGradient id="node5_r_0" cx="50%" cy="50%" r="75%" fx="50%" fy="50%">
<stop offset="0" style="stop-color:#a65cff;stop-opacity:1.;"/>
<stop offset="1" style="stop-color:#330070;stop-opacity:1.;"/>
</radialGradient>
</defs>
<polygon fill="url(#node5_r_0)" stroke="#a65cff" points="334.36,-414.95 251.08,-414.95 229.65,-356.95 312.94,-356.95 334.36,-414.95"/>
<text text-anchor="middle" x="282.01" y="-383.15" font-family="Times,serif" font-size="14.00" fill="#cccccc">javac</text>
</g>
<!-- cmd&#45;javac&#45;&gt;file&#45;code -->
<g id="edge18" class="edge">
<title>cmd&#45;javac&#45;&gt;file&#45;code</title>
<path fill="none" stroke="#330070" d="M253.81,-415.32C253.81,-427.13 253.81,-438 253.81,-438 253.81,-438 81.67,-438 81.67,-438 81.67,-438 81.67,-612.33 81.67,-612.33"/>
<polygon fill="#330070" stroke="#330070" points="78.17,-612.33 81.67,-622.33 85.17,-612.33 78.17,-612.33"/>
</g>
<!-- cmd&#45;javac&#45;&gt;file&#45;class -->
<g id="edge19" class="edge">
<title>cmd&#45;javac&#45;&gt;file&#45;class</title>
<path fill="none" stroke="#330070" stroke-width="2" stroke-dasharray="5,2" d="M312.87,-415.32C312.87,-482.58 312.87,-642 312.87,-642 312.87,-642 351.57,-642 351.57,-642"/>
<polygon fill="#330070" stroke="#330070" stroke-width="2" points="351.57,-645.5 361.57,-642 351.57,-638.5 351.57,-645.5"/>
</g>
<!-- cmd&#45;java -->
<g id="node6" class="node">
<title>cmd&#45;java</title>
<defs>
<radialGradient id="node6_r_1" cx="50%" cy="50%" r="75%" fx="50%" fy="50%">
<stop offset="0" style="stop-color:#a65cff;stop-opacity:1.;"/>
<stop offset="1" style="stop-color:#330070;stop-opacity:1.;"/>
</radialGradient>
</defs>
<polygon fill="url(#node6_r_1)" stroke="#a65cff" points="517.59,-414.95 446.67,-414.95 428.43,-356.95 499.35,-356.95 517.59,-414.95"/>
<text text-anchor="middle" x="473.01" y="-383.15" font-family="Times,serif" font-size="14.00" fill="#cccccc">java</text>
</g>
<!-- cmd&#45;java&#45;&gt;file&#45;class -->
<g id="edge23" class="edge">
<title>cmd&#45;java&#45;&gt;file&#45;class</title>
<path fill="none" stroke="#330070" d="M444.04,-408.25C444.04,-408.25 444.04,-612.6 444.04,-612.6"/>
<polygon fill="#330070" stroke="#330070" points="440.54,-612.6 444.04,-622.6 447.54,-612.6 440.54,-612.6"/>
</g>
<!-- cmd&#45;java&#45;&gt;file&#45;do -->
<g id="edge22" class="edge">
<title>cmd&#45;java&#45;&gt;file&#45;do</title>
<path fill="none" stroke="#330070" d="M508.6,-385C516.95,-385 523.46,-385 523.46,-385 523.46,-385 523.46,-612.72 523.46,-612.72"/>
<polygon fill="#330070" stroke="#330070" points="519.96,-612.72 523.46,-622.72 526.96,-612.72 519.96,-612.72"/>
</g>
<!-- cmd&#45;jaotc -->
<g id="node7" class="node">
<title>cmd&#45;jaotc</title>
<defs>
<radialGradient id="node7_r_2" cx="50%" cy="50%" r="75%" fx="50%" fy="50%">
<stop offset="0" style="stop-color:#a65cff;stop-opacity:1.;"/>
<stop offset="1" style="stop-color:#330070;stop-opacity:1.;"/>
</radialGradient>
</defs>
<polygon fill="url(#node7_r_2)" stroke="#a65cff" points="636.81,-414.95 556,-414.95 535.21,-356.95 616.02,-356.95 636.81,-414.95"/>
<text text-anchor="middle" x="586.01" y="-383.15" font-family="Times,serif" font-size="14.00" fill="#cccccc">jaotc</text>
</g>
<!-- cmd&#45;jaotc&#45;&gt;file&#45;class -->
<g id="edge20" class="edge">
<title>cmd&#45;jaotc&#45;&gt;file&#45;class</title>
<path fill="none" stroke="#330070" d="M570.31,-415.06C570.31,-421.27 570.31,-426 570.31,-426 570.31,-426 448.52,-426 448.52,-426 448.52,-426 448.52,-612.38 448.52,-612.38"/>
<polygon fill="#330070" stroke="#330070" points="445.02,-612.38 448.52,-622.38 452.02,-612.38 445.02,-612.38"/>
</g>
<!-- cmd&#45;jaotc&#45;&gt;file&#45;do -->
<g id="edge21" class="edge">
<title>cmd&#45;jaotc&#45;&gt;file&#45;do</title>
<path fill="none" stroke="#330070" stroke-width="2" stroke-dasharray="5,2" d="M558.61,-415.36C558.61,-415.36 558.61,-611.02 558.61,-611.02"/>
<polygon fill="#330070" stroke="#330070" stroke-width="2" points="555.11,-611.02 558.61,-621.02 562.11,-611.02 555.11,-611.02"/>
</g>
<!-- cmd&#45;ni -->
<g id="node8" class="node">
<title>cmd&#45;ni</title>
<defs>
<radialGradient id="node8_r_3" cx="50%" cy="50%" r="75%" fx="50%" fy="50%">
<stop offset="0" style="stop-color:#a65cff;stop-opacity:1.;"/>
<stop offset="1" style="stop-color:#330070;stop-opacity:1.;"/>
</radialGradient>
</defs>
<polygon fill="url(#node8_r_3)" stroke="#a65cff" points="212.02,-414.95 43.38,-414.95 0,-356.95 168.64,-356.95 212.02,-414.95"/>
<text text-anchor="middle" x="106.01" y="-383.15" font-family="Times,serif" font-size="14.00" fill="#cccccc">native&#45;image</text>
</g>
<!-- cmd&#45;ni&#45;&gt;file&#45;code -->
<g id="edge25" class="edge">
<title>cmd&#45;ni&#45;&gt;file&#45;code</title>
<path fill="none" stroke="#330070" d="M54.34,-415.36C54.34,-415.36 54.34,-612.53 54.34,-612.53"/>
<polygon fill="#330070" stroke="#330070" points="50.84,-612.53 54.34,-622.53 57.84,-612.53 50.84,-612.53"/>
</g>
<!-- cmd&#45;ni&#45;&gt;file&#45;class -->
<g id="edge24" class="edge">
<title>cmd&#45;ni&#45;&gt;file&#45;class</title>
<path fill="none" stroke="#330070" d="M185.27,-415.15C185.27,-454.31 185.27,-519 185.27,-519 185.27,-519 402.28,-519 402.28,-519 402.28,-519 402.28,-612.36 402.28,-612.36"/>
<polygon fill="#330070" stroke="#330070" points="398.78,-612.36 402.28,-622.36 405.78,-612.36 398.78,-612.36"/>
</g>
<!-- cmd&#45;ni&#45;&gt;file&#45;bin -->
<g id="edge26" class="edge">
<title>cmd&#45;ni&#45;&gt;file&#45;bin</title>
<path fill="none" stroke="#330070" stroke-width="2" stroke-dasharray="5,2" d="M149.45,-415.36C149.45,-415.36 149.45,-611.02 149.45,-611.02"/>
<polygon fill="#330070" stroke="#330070" stroke-width="2" points="145.95,-611.02 149.45,-621.02 152.95,-611.02 145.95,-611.02"/>
</g>
<!-- cmd&#45;child -->
<!-- cmd&#45;ni&#45;&gt;cmd&#45;child -->
<!-- tech&#45;jit -->
<g id="node9" class="node">
<title>tech&#45;jit</title>
<defs>
<radialGradient id="node9_r_4" cx="50%" cy="50%" r="75%" fx="50%" fy="50%">
<stop offset="0" style="stop-color:#bd0015;stop-opacity:1.;"/>
<stop offset="1" style="stop-color:#ff7080;stop-opacity:1.;"/>
</radialGradient>
</defs>
<ellipse fill="url(#node9_r_4)" stroke="#bd0015" cx="464.01" cy="-294.78" rx="26.16" ry="26.16"/>
<text text-anchor="middle" x="464.01" y="-291.98" font-family="Times,serif" font-size="14.00" fill="#ffb8bf">JIT</text>
</g>
<!-- jit&#45;hs -->
<g id="node10" class="node">
<title>jit&#45;hs</title>
<defs>
<radialGradient id="node10_r_5" cx="50%" cy="50%" r="75%" fx="50%" fy="50%">
<stop offset="0" style="stop-color:#bd0015;stop-opacity:1.;"/>
<stop offset="1" style="stop-color:#ff7080;stop-opacity:1.;"/>
</radialGradient>
</defs>
<ellipse fill="url(#node10_r_5)" stroke="#bd0015" cx="567.01" cy="-183.12" rx="49.5" ry="49.5"/>
<text text-anchor="middle" x="567.01" y="-180.32" font-family="Times,serif" font-size="14.00" fill="#ffb8bf">Hotspot</text>
</g>
<!-- tech&#45;jit&#45;&gt;jit&#45;hs -->
<g id="edge4" class="edge">
<title>tech&#45;jit&#45;&gt;jit&#45;hs</title>
<path fill="none" stroke="#ff7080" stroke-width="3" d="M489.08,-286C507.5,-286 529.33,-286 529.33,-286 529.33,-286 529.33,-246.06 529.33,-215.96"/>
</g>
<!-- jit&#45;c1 -->
<g id="node12" class="node">
<title>jit&#45;c1</title>
<defs>
<linearGradient id="node12_l_0" gradientUnits="userSpaceOnUse" x1="630.13" y1="-183.12" x2="713.88" y2="-183.12" >
<stop offset="0" style="stop-color:#ff7a9b;stop-opacity:1.;"/>
<stop offset="1" style="stop-color:#ff7aff;stop-opacity:1.;"/>
</linearGradient>
</defs>
<polygon fill="url(#node12_l_0)" stroke="#ff7a9b" points="713.88,-208.12 634.13,-208.12 634.13,-204.12 630.13,-204.12 630.13,-200.12 634.13,-200.12 634.13,-166.12 630.13,-166.12 630.13,-162.12 634.13,-162.12 634.13,-158.12 713.88,-158.12 713.88,-208.12"/>
<polyline fill="none" stroke="#ff7a9b" points="634.13,-204.12 638.13,-204.12 638.13,-200.12 634.13,-200.12"/>
<polyline fill="none" stroke="#ff7a9b" points="634.13,-166.12 638.13,-166.12 638.13,-162.12 634.13,-162.12"/>
<text text-anchor="middle" x="674.01" y="-190.82" font-family="Times,serif" font-size="14.00" fill="#7f0000">C1</text>
<text text-anchor="middle" x="674.01" y="-169.82" font-family="Times,serif" font-size="14.00" fill="#7f0000">Compiler</text>
</g>
<!-- tech&#45;jit&#45;&gt;jit&#45;c1 -->
<g id="edge1" class="edge">
<title>tech&#45;jit&#45;&gt;jit&#45;c1</title>
<path fill="none" stroke="#ff7080" stroke-width="3" d="M489.08,-303C545.06,-303 675.35,-303 675.35,-303 675.35,-303 675.35,-243.73 675.35,-208.55"/>
</g>
<!-- jit&#45;c2 -->
<g id="node13" class="node">
<title>jit&#45;c2</title>
<defs>
<linearGradient id="node13_l_1" gradientUnits="userSpaceOnUse" x1="322.26" y1="-183.12" x2="409.76" y2="-183.12" >
<stop offset="0" style="stop-color:#ff7a9b;stop-opacity:1.;"/>
<stop offset="1" style="stop-color:#ff7aff;stop-opacity:1.;"/>
</linearGradient>
</defs>
<polygon fill="url(#node13_l_1)" stroke="#ff7a9b" points="409.76,-208.12 326.26,-208.12 326.26,-204.12 322.26,-204.12 322.26,-200.12 326.26,-200.12 326.26,-166.12 322.26,-166.12 322.26,-162.12 326.26,-162.12 326.26,-158.12 409.76,-158.12 409.76,-208.12"/>
<polyline fill="none" stroke="#ff7a9b" points="326.26,-204.12 330.26,-204.12 330.26,-200.12 326.26,-200.12"/>
<polyline fill="none" stroke="#ff7a9b" points="326.26,-166.12 330.26,-166.12 330.26,-162.12 326.26,-162.12"/>
<text text-anchor="middle" x="368.01" y="-190.82" font-family="Times,serif" font-size="14.00" fill="#7f0000">C2</text>
<text text-anchor="middle" x="368.01" y="-169.82" font-family="Times,serif" font-size="14.00" fill="#7f0000"> Compiler</text>
</g>
<!-- tech&#45;jit&#45;&gt;jit&#45;c2 -->
<g id="edge2" class="edge">
<title>tech&#45;jit&#45;&gt;jit&#45;c2</title>
<path fill="none" stroke="#ff7080" stroke-width="3" d="M450.4,-272C425.89,-272 376.89,-272 376.89,-272 376.89,-272 376.89,-234.63 376.89,-208.35"/>
</g>
<!-- jit&#45;counter -->
<g id="node14" class="node">
<title>jit&#45;counter</title>
<defs>
<linearGradient id="node14_l_2" gradientUnits="userSpaceOnUse" x1="424.26" y1="-183.12" x2="499.76" y2="-183.12" >
<stop offset="0" style="stop-color:#ff7a9b;stop-opacity:1.;"/>
<stop offset="1" style="stop-color:#ff7aff;stop-opacity:1.;"/>
</linearGradient>
</defs>
<polygon fill="url(#node14_l_2)" stroke="#ff7a9b" points="499.76,-208.12 428.26,-208.12 428.26,-204.12 424.26,-204.12 424.26,-200.12 428.26,-200.12 428.26,-166.12 424.26,-166.12 424.26,-162.12 428.26,-162.12 428.26,-158.12 499.76,-158.12 499.76,-208.12"/>
<polyline fill="none" stroke="#ff7a9b" points="428.26,-204.12 432.26,-204.12 432.26,-200.12 428.26,-200.12"/>
<polyline fill="none" stroke="#ff7a9b" points="428.26,-166.12 432.26,-166.12 432.26,-162.12 428.26,-162.12"/>
<text text-anchor="middle" x="464.01" y="-190.82" font-family="Times,serif" font-size="14.00" fill="#7f0000">JIT</text>
<text text-anchor="middle" x="464.01" y="-169.82" font-family="Times,serif" font-size="14.00" fill="#7f0000">Counter</text>
</g>
<!-- tech&#45;jit&#45;&gt;jit&#45;counter -->
<g id="edge3" class="edge">
<title>tech&#45;jit&#45;&gt;jit&#45;counter</title>
<path fill="none" stroke="#ff7080" stroke-width="3" d="M464.01,-268.32C464.01,-250.13 464.01,-226.14 464.01,-208.24"/>
</g>
<!-- jit&#45;hs&#45;&gt;jit&#45;c2 -->
<g id="edge9" class="edge">
<title>jit&#45;hs&#45;&gt;jit&#45;c2</title>
<path fill="none" stroke="#ff7080" stroke-width="3" d="M533.52,-220C483.05,-220 393.32,-220 393.32,-220 393.32,-220 393.32,-214.81 393.32,-208.33"/>
</g>
<!-- jvm&#45;int -->
<g id="node11" class="node">
<title>jvm&#45;int</title>
<defs>
<linearGradient id="node11_l_3" gradientUnits="userSpaceOnUse" x1="247.76" y1="-294.78" x2="344.26" y2="-294.78" >
<stop offset="0" style="stop-color:#ff7a9b;stop-opacity:1.;"/>
<stop offset="1" style="stop-color:#ff7aff;stop-opacity:1.;"/>
</linearGradient>
</defs>
<polygon fill="url(#node11_l_3)" stroke="#ff7a9b" points="344.26,-312.78 251.76,-312.78 251.76,-308.78 247.76,-308.78 247.76,-304.78 251.76,-304.78 251.76,-284.78 247.76,-284.78 247.76,-280.78 251.76,-280.78 251.76,-276.78 344.26,-276.78 344.26,-312.78"/>
<polyline fill="none" stroke="#ff7a9b" points="251.76,-308.78 255.76,-308.78 255.76,-304.78 251.76,-304.78"/>
<polyline fill="none" stroke="#ff7a9b" points="251.76,-284.78 255.76,-284.78 255.76,-280.78 251.76,-280.78"/>
<text text-anchor="middle" x="298.01" y="-291.98" font-family="Times,serif" font-size="14.00" fill="#7f0000">Interpreter</text>
</g>
<!-- code&#45;cache -->
<g id="node17" class="node">
<title>code&#45;cache</title>
<defs>
<radialGradient id="node17_r_6" cx="50%" cy="50%" r="75%" fx="50%" fy="50%">
<stop offset="0" style="stop-color:#67a9cf;stop-opacity:1.;"/>
<stop offset="1" style="stop-color:#016450;stop-opacity:1.;"/>
</radialGradient>
</defs>
<path fill="url(#node17_r_6)" stroke="#67a9cf" d="M422.76,-65.12C422.76,-67.13 401.36,-68.75 375.01,-68.75 348.66,-68.75 327.26,-67.13 327.26,-65.12 327.26,-65.12 327.26,-32.5 327.26,-32.5 327.26,-30.5 348.66,-28.88 375.01,-28.88 401.36,-28.88 422.76,-30.5 422.76,-32.5 422.76,-32.5 422.76,-65.12 422.76,-65.12"/>
<path fill="none" stroke="#67a9cf" d="M422.76,-65.12C422.76,-63.12 401.36,-61.5 375.01,-61.5 348.66,-61.5 327.26,-63.12 327.26,-65.12"/>
<text text-anchor="middle" x="375.01" y="-46.01" font-family="Times,serif" font-size="14.00" fill="#e5d8bd">Code Cache</text>
</g>
<!-- jvm&#45;int&#45;&gt;code&#45;cache -->
<g id="edge15" class="edge">
<title>jvm&#45;int&#45;&gt;code&#45;cache</title>
<path fill="none" stroke="#ff7aff" d="M317.76,-276.64C317.76,-219.64 317.76,-48 317.76,-48 317.76,-48 318.68,-48 318.68,-48"/>
<polygon fill="#ff7aff" stroke="#ff7aff" points="315.44,-51.5 325.44,-48 315.44,-44.5 315.44,-51.5"/>
</g>
<!-- code&#45;mapping -->
<g id="node18" class="node">
<title>code&#45;mapping</title>
<defs>
<radialGradient id="node18_r_7" cx="50%" cy="50%" r="75%" fx="50%" fy="50%">
<stop offset="0" style="stop-color:#67a9cf;stop-opacity:1.;"/>
<stop offset="1" style="stop-color:#016450;stop-opacity:1.;"/>
</radialGradient>
</defs>
<path fill="url(#node18_r_7)" stroke="#67a9cf" d="M309.26,-88.75C309.26,-93.65 284.49,-97.62 254.01,-97.62 223.52,-97.62 198.76,-93.65 198.76,-88.75 198.76,-88.75 198.76,-8.88 198.76,-8.88 198.76,-3.98 223.52,0 254.01,0 284.49,0 309.26,-3.98 309.26,-8.88 309.26,-8.88 309.26,-88.75 309.26,-88.75"/>
<path fill="none" stroke="#67a9cf" d="M309.26,-88.75C309.26,-83.85 284.49,-79.88 254.01,-79.88 223.52,-79.88 198.76,-83.85 198.76,-88.75"/>
<text text-anchor="middle" x="254.01" y="-67.01" font-family="Times,serif" font-size="14.00" fill="#e5d8bd">Bytecode to</text>
<text text-anchor="middle" x="254.01" y="-46.01" font-family="Times,serif" font-size="14.00" fill="#e5d8bd">Machine code</text>
<text text-anchor="middle" x="254.01" y="-25.01" font-family="Times,serif" font-size="14.00" fill="#e5d8bd">Mapping</text>
</g>
<!-- jvm&#45;int&#45;&gt;code&#45;mapping -->
<g id="edge14" class="edge">
<title>jvm&#45;int&#45;&gt;code&#45;mapping</title>
<path fill="none" stroke="#ff7aff" d="M280.51,-276.3C280.51,-276.3 280.51,-109.18 280.51,-109.18"/>
<polygon fill="#ff7aff" stroke="#ff7aff" points="284.01,-109.18 280.51,-99.18 277.01,-109.18 284.01,-109.18"/>
</g>
<!-- jit&#45;c1&#45;&gt;code&#45;cache -->
<g id="edge16" class="edge">
<title>jit&#45;c1&#45;&gt;code&#45;cache</title>
<path fill="none" stroke="#ff7aff" stroke-width="2" stroke-dasharray="5,2" d="M674.01,-157.71C674.01,-118.57 674.01,-48 674.01,-48 674.01,-48 436.07,-48 436.07,-48"/>
<polygon fill="#ff7aff" stroke="#ff7aff" stroke-width="2" points="436.07,-44.5 426.07,-48 436.07,-51.5 436.07,-44.5"/>
</g>
<!-- jit&#45;c2&#45;&gt;code&#45;cache -->
<g id="edge17" class="edge">
<title>jit&#45;c2&#45;&gt;code&#45;cache</title>
<path fill="none" stroke="#ff7aff" stroke-width="2" stroke-dasharray="5,2" d="M368.51,-157.86C368.51,-157.86 368.51,-82.16 368.51,-82.16"/>
<polygon fill="#ff7aff" stroke="#ff7aff" stroke-width="2" points="372.01,-82.16 368.51,-72.16 365.01,-82.16 372.01,-82.16"/>
</g>
<!-- jvm&#45;exec -->
<g id="node15" class="node">
<title>jvm&#45;exec</title>
<defs>
<radialGradient id="node15_r_8" cx="50%" cy="50%" r="75%" fx="50%" fy="50%">
<stop offset="0" style="stop-color:#0038fa;stop-opacity:1.;"/>
<stop offset="1" style="stop-color:#00208f;stop-opacity:1.;"/>
</radialGradient>
</defs>
<polygon fill="url(#node15_r_8)" stroke="#0038fa" points="439.56,-484.13 400.01,-501.64 360.46,-484.13 360.49,-455.79 439.52,-455.79 439.56,-484.13"/>
<text text-anchor="middle" x="400.01" y="-473.49" font-family="Times,serif" font-size="14.00" fill="#dbe3ff">JVM</text>
</g>
<!-- jvm&#45;exec&#45;&gt;cmd&#45;javac -->
<g id="edge5" class="edge">
<title>jvm&#45;exec&#45;&gt;cmd&#45;javac</title>
<path fill="none" stroke="#00208f" stroke-width="3" d="M360.02,-471C341.54,-471 323.62,-471 323.62,-471 323.62,-471 323.62,-439.82 323.62,-415.22"/>
</g>
<!-- jvm&#45;exec&#45;&gt;cmd&#45;java -->
<g id="edge7" class="edge">
<title>jvm&#45;exec&#45;&gt;cmd&#45;java</title>
<path fill="none" stroke="#00208f" stroke-width="3" d="M433.99,-455.34C433.99,-429.48 433.99,-388.6 433.99,-386.07"/>
</g>
<!-- jvm&#45;exec&#45;&gt;cmd&#45;jaotc -->
<g id="edge6" class="edge">
<title>jvm&#45;exec&#45;&gt;cmd&#45;jaotc</title>
<path fill="none" stroke="#00208f" stroke-width="3" d="M439.76,-476C483.27,-476 546.91,-476 546.91,-476 546.91,-476 546.91,-410.1 546.91,-391.05"/>
</g>
<!-- jvm&#45;exec&#45;&gt;cmd&#45;ni -->
<g id="edge8" class="edge">
<title>jvm&#45;exec&#45;&gt;cmd&#45;ni</title>
<path fill="none" stroke="#00208f" stroke-width="3" d="M360.22,-481C301.54,-481 198.64,-481 198.64,-481 198.64,-481 198.64,-443.17 198.64,-415.24"/>
</g>
<!-- jvm&#45;exec&#45;&gt;tech&#45;jit -->
<g id="edge11" class="edge">
<title>jvm&#45;exec&#45;&gt;tech&#45;jit</title>
<path fill="none" stroke="#00208f" stroke-width="3" d="M416.26,-455.34C416.26,-411.89 416.26,-316 416.26,-316 416.26,-316 434.22,-316 448.11,-316"/>
</g>
<!-- jvm&#45;exec&#45;&gt;jvm&#45;int -->
<g id="edge10" class="edge">
<title>jvm&#45;exec&#45;&gt;jvm&#45;int</title>
<path fill="none" stroke="#00208f" stroke-width="3" d="M360.2,-461C348.76,-461 339.31,-461 339.31,-461 339.31,-461 339.31,-356.48 339.31,-313.21"/>
</g>
<!-- mac&#45;exec -->
<g id="node16" class="node">
<title>mac&#45;exec</title>
<defs>
<radialGradient id="node16_r_9" cx="50%" cy="50%" r="75%" fx="50%" fy="50%">
<stop offset="0" style="stop-color:#0038fa;stop-opacity:1.;"/>
<stop offset="1" style="stop-color:#00208f;stop-opacity:1.;"/>
</radialGradient>
</defs>
<polygon fill="url(#node16_r_9)" stroke="#0038fa" points="302.12,-570.82 237.01,-588.33 171.89,-570.82 171.95,-542.48 302.06,-542.48 302.12,-570.82"/>
<text text-anchor="middle" x="237.01" y="-560.19" font-family="Times,serif" font-size="14.00" fill="#dbe3ff">Machine</text>
</g>
<!-- mac&#45;exec&#45;&gt;file&#45;bin -->
<g id="edge13" class="edge">
<title>mac&#45;exec&#45;&gt;file&#45;bin</title>
<path fill="none" stroke="#00208f" d="M176.45,-572.4C176.45,-572.4 176.45,-612.38 176.45,-612.38"/>
<polygon fill="#00208f" stroke="#00208f" points="172.95,-612.38 176.45,-622.38 179.95,-612.38 172.95,-612.38"/>
</g>
<!-- mac&#45;exec&#45;&gt;jvm&#45;exec -->
<g id="edge12" class="edge">
<title>mac&#45;exec&#45;&gt;jvm&#45;exec</title>
<path fill="none" stroke="#00208f" d="M277.97,-542.17C277.97,-520.9 277.97,-491 277.97,-491 277.97,-491 363.5,-491 363.5,-491"/>
<polygon fill="#00208f" stroke="#00208f" points="363.5,-494.5 373.5,-491 363.5,-487.5 363.5,-494.5"/>
</g>
<!-- mac&#45;parent -->
<!-- mac&#45;parent&#45;&gt;mac&#45;exec -->
</g>
</svg>
